<?xml version="1.0" encoding="utf-8" standalone="no"?>
<!DOCTYPE svg PUBLIC "-//W3C//DTD SVG 1.1//EN"
  "http://www.w3.org/Graphics/SVG/1.1/DTD/svg11.dtd">
<svg height="1296pt" version="1.1" viewBox="0 0 1296 1296" width="1296pt" xmlns="http://www.w3.org/2000/svg" xmlns:xlink="http://www.w3.org/1999/xlink">
 <metadata>
  <rdf:RDF xmlns:cc="http://creativecommons.org/ns#" xmlns:dc="http://purl.org/dc/elements/1.1/" xmlns:rdf="http://www.w3.org/1999/02/22-rdf-syntax-ns#">
   <cc:Work>
    <dc:type rdf:resource="http://purl.org/dc/dcmitype/StillImage"/>
    <dc:date>2022-01-19T10:01:31.286398</dc:date>
    <dc:format>image/svg+xml</dc:format>
    <dc:creator>
     <cc:Agent>
      <dc:title>Matplotlib v3.4.3, https://matplotlib.org/</dc:title>
     </cc:Agent>
    </dc:creator>
   </cc:Work>
  </rdf:RDF>
 </metadata>
 <defs>
  <style type="text/css">*{stroke-linecap:butt;stroke-linejoin:round;}</style>
 </defs>
 <g id="figure_1">
  <g id="patch_1">
   <path d="M 0 1296 
L 1296 1296 
L 1296 0 
L 0 0 
z
" style="fill:none;"/>
  </g>
  <g id="axes_1">
   <g id="patch_2">
    <path d="M 162 1134 
L 1166.4 1134 
L 1166.4 155.52 
L 162 155.52 
z
" style="fill:#ffffff;"/>
   </g>
   <g id="matplotlib.axis_1">
    <g id="xtick_1">
     <g id="line2d_1">
      <path clip-path="url(#pe62dc545a1)" d="M 206.092983 1134 
L 206.092983 155.52 
" style="fill:none;stroke:#b0b0b0;stroke-linecap:square;stroke-width:0.8;"/>
     </g>
     <g id="line2d_2">
      <defs>
       <path d="M 0 0 
L 0 3.5 
" id="me57651e332" style="stroke:#000000;stroke-width:0.8;"/>
      </defs>
      <g>
       <use style="stroke:#000000;stroke-width:0.8;" x="206.092983" xlink:href="#me57651e332" y="1134"/>
      </g>
     </g>
     <g id="text_1">
      <!-- 2.8 $V$ -->
      <g transform="translate(193.242983 1148.598438)scale(0.1 -0.1)">
       <defs>
        <path d="M 1228 531 
L 3431 531 
L 3431 0 
L 469 0 
L 469 531 
Q 828 903 1448 1529 
Q 2069 2156 2228 2338 
Q 2531 2678 2651 2914 
Q 2772 3150 2772 3378 
Q 2772 3750 2511 3984 
Q 2250 4219 1831 4219 
Q 1534 4219 1204 4116 
Q 875 4013 500 3803 
L 500 4441 
Q 881 4594 1212 4672 
Q 1544 4750 1819 4750 
Q 2544 4750 2975 4387 
Q 3406 4025 3406 3419 
Q 3406 3131 3298 2873 
Q 3191 2616 2906 2266 
Q 2828 2175 2409 1742 
Q 1991 1309 1228 531 
z
" id="DejaVuSans-32" transform="scale(0.015625)"/>
        <path d="M 684 794 
L 1344 794 
L 1344 0 
L 684 0 
L 684 794 
z
" id="DejaVuSans-2e" transform="scale(0.015625)"/>
        <path d="M 2034 2216 
Q 1584 2216 1326 1975 
Q 1069 1734 1069 1313 
Q 1069 891 1326 650 
Q 1584 409 2034 409 
Q 2484 409 2743 651 
Q 3003 894 3003 1313 
Q 3003 1734 2745 1975 
Q 2488 2216 2034 2216 
z
M 1403 2484 
Q 997 2584 770 2862 
Q 544 3141 544 3541 
Q 544 4100 942 4425 
Q 1341 4750 2034 4750 
Q 2731 4750 3128 4425 
Q 3525 4100 3525 3541 
Q 3525 3141 3298 2862 
Q 3072 2584 2669 2484 
Q 3125 2378 3379 2068 
Q 3634 1759 3634 1313 
Q 3634 634 3220 271 
Q 2806 -91 2034 -91 
Q 1263 -91 848 271 
Q 434 634 434 1313 
Q 434 1759 690 2068 
Q 947 2378 1403 2484 
z
M 1172 3481 
Q 1172 3119 1398 2916 
Q 1625 2713 2034 2713 
Q 2441 2713 2670 2916 
Q 2900 3119 2900 3481 
Q 2900 3844 2670 4047 
Q 2441 4250 2034 4250 
Q 1625 4250 1398 4047 
Q 1172 3844 1172 3481 
z
" id="DejaVuSans-38" transform="scale(0.015625)"/>
        <path id="DejaVuSans-20" transform="scale(0.015625)"/>
        <path d="M 1319 0 
L 500 4666 
L 1119 4666 
L 1797 653 
L 4063 4666 
L 4750 4666 
L 2053 0 
L 1319 0 
z
" id="DejaVuSans-Oblique-56" transform="scale(0.015625)"/>
       </defs>
       <use transform="translate(0 0.78125)" xlink:href="#DejaVuSans-32"/>
       <use transform="translate(63.623047 0.78125)" xlink:href="#DejaVuSans-2e"/>
       <use transform="translate(92.785156 0.78125)" xlink:href="#DejaVuSans-38"/>
       <use transform="translate(156.408203 0.78125)" xlink:href="#DejaVuSans-20"/>
       <use transform="translate(188.195312 0.78125)" xlink:href="#DejaVuSans-Oblique-56"/>
      </g>
     </g>
    </g>
    <g id="xtick_2">
     <g id="line2d_3">
      <path clip-path="url(#pe62dc545a1)" d="M 320.475501 1134 
L 320.475501 155.52 
" style="fill:none;stroke:#b0b0b0;stroke-linecap:square;stroke-width:0.8;"/>
     </g>
     <g id="line2d_4">
      <g>
       <use style="stroke:#000000;stroke-width:0.8;" x="320.475501" xlink:href="#me57651e332" y="1134"/>
      </g>
     </g>
     <g id="text_2">
      <!-- 2.85 $V$ -->
      <g transform="translate(304.425501 1148.598438)scale(0.1 -0.1)">
       <defs>
        <path d="M 691 4666 
L 3169 4666 
L 3169 4134 
L 1269 4134 
L 1269 2991 
Q 1406 3038 1543 3061 
Q 1681 3084 1819 3084 
Q 2600 3084 3056 2656 
Q 3513 2228 3513 1497 
Q 3513 744 3044 326 
Q 2575 -91 1722 -91 
Q 1428 -91 1123 -41 
Q 819 9 494 109 
L 494 744 
Q 775 591 1075 516 
Q 1375 441 1709 441 
Q 2250 441 2565 725 
Q 2881 1009 2881 1497 
Q 2881 1984 2565 2268 
Q 2250 2553 1709 2553 
Q 1456 2553 1204 2497 
Q 953 2441 691 2322 
L 691 4666 
z
" id="DejaVuSans-35" transform="scale(0.015625)"/>
       </defs>
       <use transform="translate(0 0.78125)" xlink:href="#DejaVuSans-32"/>
       <use transform="translate(63.623047 0.78125)" xlink:href="#DejaVuSans-2e"/>
       <use transform="translate(92.785156 0.78125)" xlink:href="#DejaVuSans-38"/>
       <use transform="translate(156.408203 0.78125)" xlink:href="#DejaVuSans-35"/>
       <use transform="translate(220.03125 0.78125)" xlink:href="#DejaVuSans-20"/>
       <use transform="translate(251.818359 0.78125)" xlink:href="#DejaVuSans-Oblique-56"/>
      </g>
     </g>
    </g>
    <g id="xtick_3">
     <g id="line2d_5">
      <path clip-path="url(#pe62dc545a1)" d="M 434.85802 1134 
L 434.85802 155.52 
" style="fill:none;stroke:#b0b0b0;stroke-linecap:square;stroke-width:0.8;"/>
     </g>
     <g id="line2d_6">
      <g>
       <use style="stroke:#000000;stroke-width:0.8;" x="434.85802" xlink:href="#me57651e332" y="1134"/>
      </g>
     </g>
     <g id="text_3">
      <!-- 2.9 $V$ -->
      <g transform="translate(421.85802 1148.598438)scale(0.1 -0.1)">
       <defs>
        <path d="M 703 97 
L 703 672 
Q 941 559 1184 500 
Q 1428 441 1663 441 
Q 2288 441 2617 861 
Q 2947 1281 2994 2138 
Q 2813 1869 2534 1725 
Q 2256 1581 1919 1581 
Q 1219 1581 811 2004 
Q 403 2428 403 3163 
Q 403 3881 828 4315 
Q 1253 4750 1959 4750 
Q 2769 4750 3195 4129 
Q 3622 3509 3622 2328 
Q 3622 1225 3098 567 
Q 2575 -91 1691 -91 
Q 1453 -91 1209 -44 
Q 966 3 703 97 
z
M 1959 2075 
Q 2384 2075 2632 2365 
Q 2881 2656 2881 3163 
Q 2881 3666 2632 3958 
Q 2384 4250 1959 4250 
Q 1534 4250 1286 3958 
Q 1038 3666 1038 3163 
Q 1038 2656 1286 2365 
Q 1534 2075 1959 2075 
z
" id="DejaVuSans-39" transform="scale(0.015625)"/>
       </defs>
       <use transform="translate(0 0.78125)" xlink:href="#DejaVuSans-32"/>
       <use transform="translate(63.623047 0.78125)" xlink:href="#DejaVuSans-2e"/>
       <use transform="translate(95.410156 0.78125)" xlink:href="#DejaVuSans-39"/>
       <use transform="translate(159.033203 0.78125)" xlink:href="#DejaVuSans-20"/>
       <use transform="translate(190.820312 0.78125)" xlink:href="#DejaVuSans-Oblique-56"/>
      </g>
     </g>
    </g>
    <g id="xtick_4">
     <g id="line2d_7">
      <path clip-path="url(#pe62dc545a1)" d="M 549.240538 1134 
L 549.240538 155.52 
" style="fill:none;stroke:#b0b0b0;stroke-linecap:square;stroke-width:0.8;"/>
     </g>
     <g id="line2d_8">
      <g>
       <use style="stroke:#000000;stroke-width:0.8;" x="549.240538" xlink:href="#me57651e332" y="1134"/>
      </g>
     </g>
     <g id="text_4">
      <!-- 2.95 $V$ -->
      <g transform="translate(533.090538 1148.598438)scale(0.1 -0.1)">
       <use transform="translate(0 0.78125)" xlink:href="#DejaVuSans-32"/>
       <use transform="translate(63.623047 0.78125)" xlink:href="#DejaVuSans-2e"/>
       <use transform="translate(95.410156 0.78125)" xlink:href="#DejaVuSans-39"/>
       <use transform="translate(159.033203 0.78125)" xlink:href="#DejaVuSans-35"/>
       <use transform="translate(222.65625 0.78125)" xlink:href="#DejaVuSans-20"/>
       <use transform="translate(254.443359 0.78125)" xlink:href="#DejaVuSans-Oblique-56"/>
      </g>
     </g>
    </g>
    <g id="xtick_5">
     <g id="line2d_9">
      <path clip-path="url(#pe62dc545a1)" d="M 663.623057 1134 
L 663.623057 155.52 
" style="fill:none;stroke:#b0b0b0;stroke-linecap:square;stroke-width:0.8;"/>
     </g>
     <g id="line2d_10">
      <g>
       <use style="stroke:#000000;stroke-width:0.8;" x="663.623057" xlink:href="#me57651e332" y="1134"/>
      </g>
     </g>
     <g id="text_5">
      <!-- 3 $V$ -->
      <g transform="translate(655.423057 1148.598438)scale(0.1 -0.1)">
       <defs>
        <path d="M 2597 2516 
Q 3050 2419 3304 2112 
Q 3559 1806 3559 1356 
Q 3559 666 3084 287 
Q 2609 -91 1734 -91 
Q 1441 -91 1130 -33 
Q 819 25 488 141 
L 488 750 
Q 750 597 1062 519 
Q 1375 441 1716 441 
Q 2309 441 2620 675 
Q 2931 909 2931 1356 
Q 2931 1769 2642 2001 
Q 2353 2234 1838 2234 
L 1294 2234 
L 1294 2753 
L 1863 2753 
Q 2328 2753 2575 2939 
Q 2822 3125 2822 3475 
Q 2822 3834 2567 4026 
Q 2313 4219 1838 4219 
Q 1578 4219 1281 4162 
Q 984 4106 628 3988 
L 628 4550 
Q 988 4650 1302 4700 
Q 1616 4750 1894 4750 
Q 2613 4750 3031 4423 
Q 3450 4097 3450 3541 
Q 3450 3153 3228 2886 
Q 3006 2619 2597 2516 
z
" id="DejaVuSans-33" transform="scale(0.015625)"/>
       </defs>
       <use transform="translate(0 0.78125)" xlink:href="#DejaVuSans-33"/>
       <use transform="translate(63.623047 0.78125)" xlink:href="#DejaVuSans-20"/>
       <use transform="translate(95.410156 0.78125)" xlink:href="#DejaVuSans-Oblique-56"/>
      </g>
     </g>
    </g>
    <g id="xtick_6">
     <g id="line2d_11">
      <path clip-path="url(#pe62dc545a1)" d="M 778.005576 1134 
L 778.005576 155.52 
" style="fill:none;stroke:#b0b0b0;stroke-linecap:square;stroke-width:0.8;"/>
     </g>
     <g id="line2d_12">
      <g>
       <use style="stroke:#000000;stroke-width:0.8;" x="778.005576" xlink:href="#me57651e332" y="1134"/>
      </g>
     </g>
     <g id="text_6">
      <!-- 3.05 $V$ -->
      <g transform="translate(761.855576 1148.598438)scale(0.1 -0.1)">
       <defs>
        <path d="M 2034 4250 
Q 1547 4250 1301 3770 
Q 1056 3291 1056 2328 
Q 1056 1369 1301 889 
Q 1547 409 2034 409 
Q 2525 409 2770 889 
Q 3016 1369 3016 2328 
Q 3016 3291 2770 3770 
Q 2525 4250 2034 4250 
z
M 2034 4750 
Q 2819 4750 3233 4129 
Q 3647 3509 3647 2328 
Q 3647 1150 3233 529 
Q 2819 -91 2034 -91 
Q 1250 -91 836 529 
Q 422 1150 422 2328 
Q 422 3509 836 4129 
Q 1250 4750 2034 4750 
z
" id="DejaVuSans-30" transform="scale(0.015625)"/>
       </defs>
       <use transform="translate(0 0.78125)" xlink:href="#DejaVuSans-33"/>
       <use transform="translate(63.623047 0.78125)" xlink:href="#DejaVuSans-2e"/>
       <use transform="translate(95.410156 0.78125)" xlink:href="#DejaVuSans-30"/>
       <use transform="translate(159.033203 0.78125)" xlink:href="#DejaVuSans-35"/>
       <use transform="translate(222.65625 0.78125)" xlink:href="#DejaVuSans-20"/>
       <use transform="translate(254.443359 0.78125)" xlink:href="#DejaVuSans-Oblique-56"/>
      </g>
     </g>
    </g>
    <g id="xtick_7">
     <g id="line2d_13">
      <path clip-path="url(#pe62dc545a1)" d="M 892.388094 1134 
L 892.388094 155.52 
" style="fill:none;stroke:#b0b0b0;stroke-linecap:square;stroke-width:0.8;"/>
     </g>
     <g id="line2d_14">
      <g>
       <use style="stroke:#000000;stroke-width:0.8;" x="892.388094" xlink:href="#me57651e332" y="1134"/>
      </g>
     </g>
     <g id="text_7">
      <!-- 3.1 $V$ -->
      <g transform="translate(879.388094 1148.598438)scale(0.1 -0.1)">
       <defs>
        <path d="M 794 531 
L 1825 531 
L 1825 4091 
L 703 3866 
L 703 4441 
L 1819 4666 
L 2450 4666 
L 2450 531 
L 3481 531 
L 3481 0 
L 794 0 
L 794 531 
z
" id="DejaVuSans-31" transform="scale(0.015625)"/>
       </defs>
       <use transform="translate(0 0.78125)" xlink:href="#DejaVuSans-33"/>
       <use transform="translate(63.623047 0.78125)" xlink:href="#DejaVuSans-2e"/>
       <use transform="translate(95.410156 0.78125)" xlink:href="#DejaVuSans-31"/>
       <use transform="translate(159.033203 0.78125)" xlink:href="#DejaVuSans-20"/>
       <use transform="translate(190.820312 0.78125)" xlink:href="#DejaVuSans-Oblique-56"/>
      </g>
     </g>
    </g>
    <g id="xtick_8">
     <g id="line2d_15">
      <path clip-path="url(#pe62dc545a1)" d="M 1006.770613 1134 
L 1006.770613 155.52 
" style="fill:none;stroke:#b0b0b0;stroke-linecap:square;stroke-width:0.8;"/>
     </g>
     <g id="line2d_16">
      <g>
       <use style="stroke:#000000;stroke-width:0.8;" x="1006.770613" xlink:href="#me57651e332" y="1134"/>
      </g>
     </g>
     <g id="text_8">
      <!-- 3.15 $V$ -->
      <g transform="translate(990.620613 1148.598438)scale(0.1 -0.1)">
       <use transform="translate(0 0.78125)" xlink:href="#DejaVuSans-33"/>
       <use transform="translate(63.623047 0.78125)" xlink:href="#DejaVuSans-2e"/>
       <use transform="translate(95.410156 0.78125)" xlink:href="#DejaVuSans-31"/>
       <use transform="translate(159.033203 0.78125)" xlink:href="#DejaVuSans-35"/>
       <use transform="translate(222.65625 0.78125)" xlink:href="#DejaVuSans-20"/>
       <use transform="translate(254.443359 0.78125)" xlink:href="#DejaVuSans-Oblique-56"/>
      </g>
     </g>
    </g>
    <g id="xtick_9">
     <g id="line2d_17">
      <path clip-path="url(#pe62dc545a1)" d="M 1121.153132 1134 
L 1121.153132 155.52 
" style="fill:none;stroke:#b0b0b0;stroke-linecap:square;stroke-width:0.8;"/>
     </g>
     <g id="line2d_18">
      <g>
       <use style="stroke:#000000;stroke-width:0.8;" x="1121.153132" xlink:href="#me57651e332" y="1134"/>
      </g>
     </g>
     <g id="text_9">
      <!-- 3.2 $V$ -->
      <g transform="translate(1108.453132 1148.598438)scale(0.1 -0.1)">
       <use transform="translate(0 0.78125)" xlink:href="#DejaVuSans-33"/>
       <use transform="translate(63.623047 0.78125)" xlink:href="#DejaVuSans-2e"/>
       <use transform="translate(89.910156 0.78125)" xlink:href="#DejaVuSans-32"/>
       <use transform="translate(153.533203 0.78125)" xlink:href="#DejaVuSans-20"/>
       <use transform="translate(185.320312 0.78125)" xlink:href="#DejaVuSans-Oblique-56"/>
      </g>
     </g>
    </g>
    <g id="text_10">
     <!-- $Voltage$ -->
     <g transform="translate(645.05 1162.278125)scale(0.1 -0.1)">
      <defs>
       <path d="M 1625 -91 
Q 1009 -91 651 289 
Q 294 669 294 1325 
Q 294 1706 417 2101 
Q 541 2497 738 2766 
Q 1047 3184 1428 3384 
Q 1809 3584 2291 3584 
Q 2888 3584 3255 3212 
Q 3622 2841 3622 2241 
Q 3622 1825 3500 1412 
Q 3378 1000 3181 728 
Q 2875 309 2494 109 
Q 2113 -91 1625 -91 
z
M 891 1344 
Q 891 869 1089 633 
Q 1288 397 1691 397 
Q 2269 397 2648 901 
Q 3028 1406 3028 2181 
Q 3028 2634 2825 2865 
Q 2622 3097 2228 3097 
Q 1903 3097 1650 2945 
Q 1397 2794 1197 2484 
Q 1050 2253 970 1956 
Q 891 1659 891 1344 
z
" id="DejaVuSans-Oblique-6f" transform="scale(0.015625)"/>
       <path d="M 1172 4863 
L 1747 4863 
L 800 0 
L 225 0 
L 1172 4863 
z
" id="DejaVuSans-Oblique-6c" transform="scale(0.015625)"/>
       <path d="M 2706 3500 
L 2619 3053 
L 1472 3053 
L 1100 1153 
Q 1081 1047 1072 975 
Q 1063 903 1063 863 
Q 1063 663 1183 572 
Q 1303 481 1569 481 
L 2150 481 
L 2053 0 
L 1503 0 
Q 991 0 739 200 
Q 488 400 488 806 
Q 488 878 497 964 
Q 506 1050 525 1153 
L 897 3053 
L 409 3053 
L 500 3500 
L 978 3500 
L 1172 4494 
L 1747 4494 
L 1556 3500 
L 2706 3500 
z
" id="DejaVuSans-Oblique-74" transform="scale(0.015625)"/>
       <path d="M 3438 1997 
L 3047 0 
L 2472 0 
L 2578 531 
Q 2325 219 2001 64 
Q 1678 -91 1281 -91 
Q 834 -91 548 182 
Q 263 456 263 884 
Q 263 1497 752 1853 
Q 1241 2209 2100 2209 
L 2900 2209 
L 2931 2363 
Q 2938 2388 2941 2417 
Q 2944 2447 2944 2509 
Q 2944 2788 2717 2942 
Q 2491 3097 2081 3097 
Q 1800 3097 1504 3025 
Q 1209 2953 897 2809 
L 997 3341 
Q 1322 3463 1633 3523 
Q 1944 3584 2234 3584 
Q 2853 3584 3176 3315 
Q 3500 3047 3500 2534 
Q 3500 2431 3484 2292 
Q 3469 2153 3438 1997 
z
M 2816 1759 
L 2241 1759 
Q 1534 1759 1195 1570 
Q 856 1381 856 984 
Q 856 709 1029 553 
Q 1203 397 1509 397 
Q 1978 397 2328 733 
Q 2678 1069 2791 1631 
L 2816 1759 
z
" id="DejaVuSans-Oblique-61" transform="scale(0.015625)"/>
       <path d="M 3816 3500 
L 3219 434 
Q 3047 -456 2561 -893 
Q 2075 -1331 1253 -1331 
Q 950 -1331 690 -1286 
Q 431 -1241 206 -1147 
L 313 -588 
Q 525 -725 762 -790 
Q 1000 -856 1269 -856 
Q 1816 -856 2167 -557 
Q 2519 -259 2631 300 
L 2681 563 
Q 2441 288 2122 144 
Q 1803 0 1434 0 
Q 903 0 598 351 
Q 294 703 294 1319 
Q 294 1803 478 2267 
Q 663 2731 997 3091 
Q 1219 3328 1514 3456 
Q 1809 3584 2131 3584 
Q 2484 3584 2746 3420 
Q 3009 3256 3138 2956 
L 3238 3500 
L 3816 3500 
z
M 2950 2216 
Q 2950 2641 2750 2872 
Q 2550 3103 2181 3103 
Q 1953 3103 1747 3012 
Q 1541 2922 1394 2759 
Q 1156 2491 1023 2127 
Q 891 1763 891 1375 
Q 891 944 1092 712 
Q 1294 481 1672 481 
Q 2219 481 2584 976 
Q 2950 1472 2950 2216 
z
" id="DejaVuSans-Oblique-67" transform="scale(0.015625)"/>
       <path d="M 3078 2063 
Q 3088 2113 3092 2166 
Q 3097 2219 3097 2272 
Q 3097 2653 2873 2875 
Q 2650 3097 2266 3097 
Q 1838 3097 1509 2826 
Q 1181 2556 1013 2059 
L 3078 2063 
z
M 3578 1613 
L 903 1613 
Q 884 1494 878 1425 
Q 872 1356 872 1306 
Q 872 872 1139 634 
Q 1406 397 1894 397 
Q 2269 397 2603 481 
Q 2938 566 3225 728 
L 3116 159 
Q 2806 34 2476 -28 
Q 2147 -91 1806 -91 
Q 1078 -91 686 257 
Q 294 606 294 1247 
Q 294 1794 489 2264 
Q 684 2734 1063 3103 
Q 1306 3334 1642 3459 
Q 1978 3584 2356 3584 
Q 2950 3584 3301 3228 
Q 3653 2872 3653 2272 
Q 3653 2128 3634 1964 
Q 3616 1800 3578 1613 
z
" id="DejaVuSans-Oblique-65" transform="scale(0.015625)"/>
      </defs>
      <use transform="translate(0 0.015625)" xlink:href="#DejaVuSans-Oblique-56"/>
      <use transform="translate(68.408203 0.015625)" xlink:href="#DejaVuSans-Oblique-6f"/>
      <use transform="translate(129.589844 0.015625)" xlink:href="#DejaVuSans-Oblique-6c"/>
      <use transform="translate(157.373047 0.015625)" xlink:href="#DejaVuSans-Oblique-74"/>
      <use transform="translate(196.582031 0.015625)" xlink:href="#DejaVuSans-Oblique-61"/>
      <use transform="translate(257.861328 0.015625)" xlink:href="#DejaVuSans-Oblique-67"/>
      <use transform="translate(321.337891 0.015625)" xlink:href="#DejaVuSans-Oblique-65"/>
     </g>
    </g>
   </g>
   <g id="matplotlib.axis_2">
    <g id="ytick_1">
     <g id="line2d_19">
      <path clip-path="url(#pe62dc545a1)" d="M 162 1067.960232 
L 1166.4 1067.960232 
" style="fill:none;stroke:#b0b0b0;stroke-linecap:square;stroke-width:0.8;"/>
     </g>
     <g id="line2d_20">
      <defs>
       <path d="M 0 0 
L -3.5 0 
" id="mfa8b8a9705" style="stroke:#000000;stroke-width:0.8;"/>
      </defs>
      <g>
       <use style="stroke:#000000;stroke-width:0.8;" x="162" xlink:href="#mfa8b8a9705" y="1067.960232"/>
      </g>
     </g>
     <g id="text_11">
      <!-- −150 µ$A$ -->
      <g transform="translate(111.1 1071.749295)scale(0.1 -0.1)">
       <defs>
        <path d="M 678 2272 
L 4684 2272 
L 4684 1741 
L 678 1741 
L 678 2272 
z
" id="DejaVuSans-2212" transform="scale(0.015625)"/>
        <path d="M 544 -1331 
L 544 3500 
L 1119 3500 
L 1119 1325 
Q 1119 872 1334 640 
Q 1550 409 1972 409 
Q 2434 409 2667 671 
Q 2900 934 2900 1459 
L 2900 3500 
L 3475 3500 
L 3475 806 
Q 3475 619 3529 530 
Q 3584 441 3700 441 
Q 3728 441 3778 458 
Q 3828 475 3916 513 
L 3916 50 
Q 3788 -22 3673 -56 
Q 3559 -91 3450 -91 
Q 3234 -91 3106 31 
Q 2978 153 2931 403 
Q 2775 156 2548 32 
Q 2322 -91 2016 -91 
Q 1697 -91 1473 31 
Q 1250 153 1119 397 
L 1119 -1331 
L 544 -1331 
z
" id="DejaVuSans-b5" transform="scale(0.015625)"/>
        <path d="M 2356 4666 
L 3072 4666 
L 3938 0 
L 3278 0 
L 3084 1197 
L 984 1197 
L 325 0 
L -341 0 
L 2356 4666 
z
M 2584 4044 
L 1275 1722 
L 2988 1722 
L 2584 4044 
z
" id="DejaVuSans-Oblique-41" transform="scale(0.015625)"/>
       </defs>
       <use transform="translate(0 0.78125)" xlink:href="#DejaVuSans-2212"/>
       <use transform="translate(83.789062 0.78125)" xlink:href="#DejaVuSans-31"/>
       <use transform="translate(147.412109 0.78125)" xlink:href="#DejaVuSans-35"/>
       <use transform="translate(211.035156 0.78125)" xlink:href="#DejaVuSans-30"/>
       <use transform="translate(274.658203 0.78125)" xlink:href="#DejaVuSans-20"/>
       <use transform="translate(306.445312 0.78125)" xlink:href="#DejaVuSans-b5"/>
       <use transform="translate(370.068359 0.78125)" xlink:href="#DejaVuSans-Oblique-41"/>
      </g>
     </g>
    </g>
    <g id="ytick_2">
     <g id="line2d_21">
      <path clip-path="url(#pe62dc545a1)" d="M 162 948.794726 
L 1166.4 948.794726 
" style="fill:none;stroke:#b0b0b0;stroke-linecap:square;stroke-width:0.8;"/>
     </g>
     <g id="line2d_22">
      <g>
       <use style="stroke:#000000;stroke-width:0.8;" x="162" xlink:href="#mfa8b8a9705" y="948.794726"/>
      </g>
     </g>
     <g id="text_12">
      <!-- −100 µ$A$ -->
      <g transform="translate(111.1 952.583788)scale(0.1 -0.1)">
       <use transform="translate(0 0.78125)" xlink:href="#DejaVuSans-2212"/>
       <use transform="translate(83.789062 0.78125)" xlink:href="#DejaVuSans-31"/>
       <use transform="translate(147.412109 0.78125)" xlink:href="#DejaVuSans-30"/>
       <use transform="translate(211.035156 0.78125)" xlink:href="#DejaVuSans-30"/>
       <use transform="translate(274.658203 0.78125)" xlink:href="#DejaVuSans-20"/>
       <use transform="translate(306.445312 0.78125)" xlink:href="#DejaVuSans-b5"/>
       <use transform="translate(370.068359 0.78125)" xlink:href="#DejaVuSans-Oblique-41"/>
      </g>
     </g>
    </g>
    <g id="ytick_3">
     <g id="line2d_23">
      <path clip-path="url(#pe62dc545a1)" d="M 162 829.62922 
L 1166.4 829.62922 
" style="fill:none;stroke:#b0b0b0;stroke-linecap:square;stroke-width:0.8;"/>
     </g>
     <g id="line2d_24">
      <g>
       <use style="stroke:#000000;stroke-width:0.8;" x="162" xlink:href="#mfa8b8a9705" y="829.62922"/>
      </g>
     </g>
     <g id="text_13">
      <!-- −50 µ$A$ -->
      <g transform="translate(117.5 833.418282)scale(0.1 -0.1)">
       <use transform="translate(0 0.78125)" xlink:href="#DejaVuSans-2212"/>
       <use transform="translate(83.789062 0.78125)" xlink:href="#DejaVuSans-35"/>
       <use transform="translate(147.412109 0.78125)" xlink:href="#DejaVuSans-30"/>
       <use transform="translate(211.035156 0.78125)" xlink:href="#DejaVuSans-20"/>
       <use transform="translate(242.822266 0.78125)" xlink:href="#DejaVuSans-b5"/>
       <use transform="translate(306.445312 0.78125)" xlink:href="#DejaVuSans-Oblique-41"/>
      </g>
     </g>
    </g>
    <g id="ytick_4">
     <g id="line2d_25">
      <path clip-path="url(#pe62dc545a1)" d="M 162 710.463713 
L 1166.4 710.463713 
" style="fill:none;stroke:#b0b0b0;stroke-linecap:square;stroke-width:0.8;"/>
     </g>
     <g id="line2d_26">
      <g>
       <use style="stroke:#000000;stroke-width:0.8;" x="162" xlink:href="#mfa8b8a9705" y="710.463713"/>
      </g>
     </g>
     <g id="text_14">
      <!-- 0 $A$ -->
      <g transform="translate(138.6 714.262932)scale(0.1 -0.1)">
       <use transform="translate(0 0.78125)" xlink:href="#DejaVuSans-30"/>
       <use transform="translate(63.623047 0.78125)" xlink:href="#DejaVuSans-20"/>
       <use transform="translate(95.410156 0.78125)" xlink:href="#DejaVuSans-Oblique-41"/>
      </g>
     </g>
    </g>
    <g id="ytick_5">
     <g id="line2d_27">
      <path clip-path="url(#pe62dc545a1)" d="M 162 591.298207 
L 1166.4 591.298207 
" style="fill:none;stroke:#b0b0b0;stroke-linecap:square;stroke-width:0.8;"/>
     </g>
     <g id="line2d_28">
      <g>
       <use style="stroke:#000000;stroke-width:0.8;" x="162" xlink:href="#mfa8b8a9705" y="591.298207"/>
      </g>
     </g>
     <g id="text_15">
      <!-- 50 µ$A$ -->
      <g transform="translate(125.8 595.087269)scale(0.1 -0.1)">
       <use transform="translate(0 0.78125)" xlink:href="#DejaVuSans-35"/>
       <use transform="translate(63.623047 0.78125)" xlink:href="#DejaVuSans-30"/>
       <use transform="translate(127.246094 0.78125)" xlink:href="#DejaVuSans-20"/>
       <use transform="translate(159.033203 0.78125)" xlink:href="#DejaVuSans-b5"/>
       <use transform="translate(222.65625 0.78125)" xlink:href="#DejaVuSans-Oblique-41"/>
      </g>
     </g>
    </g>
    <g id="ytick_6">
     <g id="line2d_29">
      <path clip-path="url(#pe62dc545a1)" d="M 162 472.1327 
L 1166.4 472.1327 
" style="fill:none;stroke:#b0b0b0;stroke-linecap:square;stroke-width:0.8;"/>
     </g>
     <g id="line2d_30">
      <g>
       <use style="stroke:#000000;stroke-width:0.8;" x="162" xlink:href="#mfa8b8a9705" y="472.1327"/>
      </g>
     </g>
     <g id="text_16">
      <!-- 100 µ$A$ -->
      <g transform="translate(119.5 475.921763)scale(0.1 -0.1)">
       <use transform="translate(0 0.78125)" xlink:href="#DejaVuSans-31"/>
       <use transform="translate(63.623047 0.78125)" xlink:href="#DejaVuSans-30"/>
       <use transform="translate(127.246094 0.78125)" xlink:href="#DejaVuSans-30"/>
       <use transform="translate(190.869141 0.78125)" xlink:href="#DejaVuSans-20"/>
       <use transform="translate(222.65625 0.78125)" xlink:href="#DejaVuSans-b5"/>
       <use transform="translate(286.279297 0.78125)" xlink:href="#DejaVuSans-Oblique-41"/>
      </g>
     </g>
    </g>
    <g id="ytick_7">
     <g id="line2d_31">
      <path clip-path="url(#pe62dc545a1)" d="M 162 352.967194 
L 1166.4 352.967194 
" style="fill:none;stroke:#b0b0b0;stroke-linecap:square;stroke-width:0.8;"/>
     </g>
     <g id="line2d_32">
      <g>
       <use style="stroke:#000000;stroke-width:0.8;" x="162" xlink:href="#mfa8b8a9705" y="352.967194"/>
      </g>
     </g>
     <g id="text_17">
      <!-- 150 µ$A$ -->
      <g transform="translate(119.5 356.756256)scale(0.1 -0.1)">
       <use transform="translate(0 0.78125)" xlink:href="#DejaVuSans-31"/>
       <use transform="translate(63.623047 0.78125)" xlink:href="#DejaVuSans-35"/>
       <use transform="translate(127.246094 0.78125)" xlink:href="#DejaVuSans-30"/>
       <use transform="translate(190.869141 0.78125)" xlink:href="#DejaVuSans-20"/>
       <use transform="translate(222.65625 0.78125)" xlink:href="#DejaVuSans-b5"/>
       <use transform="translate(286.279297 0.78125)" xlink:href="#DejaVuSans-Oblique-41"/>
      </g>
     </g>
    </g>
    <g id="ytick_8">
     <g id="line2d_33">
      <path clip-path="url(#pe62dc545a1)" d="M 162 233.801688 
L 1166.4 233.801688 
" style="fill:none;stroke:#b0b0b0;stroke-linecap:square;stroke-width:0.8;"/>
     </g>
     <g id="line2d_34">
      <g>
       <use style="stroke:#000000;stroke-width:0.8;" x="162" xlink:href="#mfa8b8a9705" y="233.801688"/>
      </g>
     </g>
     <g id="text_18">
      <!-- 200 µ$A$ -->
      <g transform="translate(119.5 237.59075)scale(0.1 -0.1)">
       <use transform="translate(0 0.78125)" xlink:href="#DejaVuSans-32"/>
       <use transform="translate(63.623047 0.78125)" xlink:href="#DejaVuSans-30"/>
       <use transform="translate(127.246094 0.78125)" xlink:href="#DejaVuSans-30"/>
       <use transform="translate(190.869141 0.78125)" xlink:href="#DejaVuSans-20"/>
       <use transform="translate(222.65625 0.78125)" xlink:href="#DejaVuSans-b5"/>
       <use transform="translate(286.279297 0.78125)" xlink:href="#DejaVuSans-Oblique-41"/>
      </g>
     </g>
    </g>
    <g id="text_19">
     <!-- $Current$ -->
     <g transform="translate(105.020312 663.76)rotate(-90)scale(0.1 -0.1)">
      <defs>
       <path d="M 4447 4306 
L 4319 3641 
Q 4019 3944 3683 4091 
Q 3347 4238 2956 4238 
Q 2422 4238 2017 3981 
Q 1613 3725 1319 3200 
Q 1131 2863 1032 2486 
Q 934 2109 934 1728 
Q 934 1091 1264 756 
Q 1594 422 2222 422 
Q 2656 422 3056 561 
Q 3456 700 3834 978 
L 3688 231 
Q 3316 72 2936 -9 
Q 2556 -91 2175 -91 
Q 1278 -91 773 396 
Q 269 884 269 1753 
Q 269 2309 461 2846 
Q 653 3384 1013 3828 
Q 1394 4300 1883 4525 
Q 2372 4750 3022 4750 
Q 3422 4750 3780 4639 
Q 4138 4528 4447 4306 
z
" id="DejaVuSans-Oblique-43" transform="scale(0.015625)"/>
       <path d="M 428 1388 
L 838 3500 
L 1416 3500 
L 1006 1409 
Q 975 1256 961 1147 
Q 947 1038 947 966 
Q 947 700 1109 554 
Q 1272 409 1569 409 
Q 2031 409 2368 721 
Q 2706 1034 2809 1563 
L 3194 3500 
L 3769 3500 
L 3091 0 
L 2516 0 
L 2631 550 
Q 2388 244 2052 76 
Q 1716 -91 1338 -91 
Q 878 -91 622 161 
Q 366 413 366 863 
Q 366 956 381 1097 
Q 397 1238 428 1388 
z
" id="DejaVuSans-Oblique-75" transform="scale(0.015625)"/>
       <path d="M 2853 2969 
Q 2766 3016 2653 3041 
Q 2541 3066 2413 3066 
Q 1953 3066 1609 2717 
Q 1266 2369 1153 1784 
L 800 0 
L 225 0 
L 909 3500 
L 1484 3500 
L 1375 2956 
Q 1603 3259 1920 3421 
Q 2238 3584 2597 3584 
Q 2691 3584 2781 3573 
Q 2872 3563 2963 3538 
L 2853 2969 
z
" id="DejaVuSans-Oblique-72" transform="scale(0.015625)"/>
       <path d="M 3566 2113 
L 3156 0 
L 2578 0 
L 2988 2091 
Q 3016 2238 3031 2350 
Q 3047 2463 3047 2528 
Q 3047 2791 2881 2937 
Q 2716 3084 2419 3084 
Q 1956 3084 1622 2776 
Q 1288 2469 1184 1941 
L 800 0 
L 225 0 
L 903 3500 
L 1478 3500 
L 1363 2950 
Q 1603 3253 1940 3418 
Q 2278 3584 2650 3584 
Q 3113 3584 3367 3334 
Q 3622 3084 3622 2631 
Q 3622 2519 3608 2391 
Q 3594 2263 3566 2113 
z
" id="DejaVuSans-Oblique-6e" transform="scale(0.015625)"/>
      </defs>
      <use transform="translate(0 0.78125)" xlink:href="#DejaVuSans-Oblique-43"/>
      <use transform="translate(69.824219 0.78125)" xlink:href="#DejaVuSans-Oblique-75"/>
      <use transform="translate(133.203125 0.78125)" xlink:href="#DejaVuSans-Oblique-72"/>
      <use transform="translate(174.316406 0.78125)" xlink:href="#DejaVuSans-Oblique-72"/>
      <use transform="translate(215.429688 0.78125)" xlink:href="#DejaVuSans-Oblique-65"/>
      <use transform="translate(276.953125 0.78125)" xlink:href="#DejaVuSans-Oblique-6e"/>
      <use transform="translate(340.332031 0.78125)" xlink:href="#DejaVuSans-Oblique-74"/>
     </g>
    </g>
   </g>
   <g id="line2d_35">
    <path clip-path="url(#pe62dc545a1)" d="M 663.651926 636.172351 
L 663.651926 637.826212 
L 663.651926 636.159625 
L 663.651926 637.786945 
L 666.574986 627.986432 
L 670.594194 619.916208 
L 675.344167 614.634965 
L 679.728757 610.151551 
L 688.86332 601.375872 
L 693.613293 597.193396 
L 697.997883 593.140495 
L 702.747856 589.309918 
L 707.132446 585.549638 
L 711.882418 581.995237 
L 716.267009 578.511133 
L 721.016981 575.056296 
L 725.766954 571.974196 
L 730.151544 568.759032 
L 734.901517 565.831302 
L 739.286107 562.776936 
L 744.03608 560.089959 
L 748.42067 557.323028 
L 753.170643 554.888031 
L 757.555233 552.42396 
L 766.689796 547.594796 
L 784.958922 539.140345 
L 798.843457 533.369072 
L 803.228048 531.616248 
L 807.97802 529.976071 
L 812.36261 528.185447 
L 835.381709 520.834422 
L 849.266245 517.072423 
L 853.650835 515.78029 
L 858.400808 514.525843 
L 871.919961 511.276758 
L 876.669933 510.357159 
L 881.054524 509.260314 
L 890.189087 507.416501 
L 895.304442 506.304891 
L 899.323649 505.638105 
L 908.458212 503.92755 
L 931.477311 500.250326 
L 954.496409 497.008461 
L 977.150126 494.315977 
L 981.900098 493.913778 
L 986.284688 493.260435 
L 995.419251 492.416453 
L 1000.169224 491.86402 
L 1022.82294 489.959635 
L 1027.572913 489.499107 
L 1041.457448 488.547094 
L 1045.842039 488.069786 
L 1050.592011 487.85505 
L 1054.976602 487.449529 
L 1059.726574 487.274508 
L 1064.111164 486.809888 
L 1068.861137 486.637863 
L 1077.9957 486.035368 
L 1096.264826 484.975766 
L 1105.399389 484.486344 
L 1109.783979 484.210135 
L 1114.533952 484.057849 
L 1118.918542 483.749787 
L 1118.187777 503.780933 
L 1114.168569 521.382583 
L 1109.418597 532.224391 
L 1105.034006 541.540373 
L 1095.899443 558.47632 
L 1091.149471 566.440333 
L 1086.76488 574.050283 
L 1082.014908 581.287755 
L 1077.630318 588.258388 
L 1072.880345 594.88497 
L 1068.495755 601.317722 
L 1059.361192 613.61385 
L 1054.611219 619.379572 
L 1045.476656 630.280594 
L 1040.726683 635.448864 
L 1036.342093 640.430326 
L 1031.59212 645.244576 
L 1027.20753 649.892188 
L 1022.457558 654.434077 
L 1018.072967 658.800602 
L 1013.322995 662.876332 
L 1008.938404 667.021441 
L 999.803842 674.687195 
L 995.053869 678.255822 
L 990.669279 681.747719 
L 985.919306 685.158908 
L 981.534716 688.48361 
L 976.784743 691.640004 
L 972.400153 694.787671 
L 958.515617 703.502778 
L 949.381054 708.717214 
L 944.996464 711.217235 
L 931.111928 718.27115 
L 926.361956 720.436302 
L 921.977365 722.643548 
L 903.70824 730.379407 
L 894.573677 734.014134 
L 885.439114 737.299562 
L 880.689141 738.845361 
L 876.304551 740.454155 
L 858.035425 746.19154 
L 853.285452 747.433038 
L 848.900862 748.740412 
L 835.016327 752.382004 
L 816.747201 756.6339 
L 798.478075 760.373275 
L 766.324413 766.100363 
L 752.80526 768.003258 
L 748.055288 768.786258 
L 743.670697 769.303413 
L 729.786162 771.20053 
L 693.24791 775.280663 
L 684.113347 776.085609 
L 665.844221 777.75588 
L 638.440533 779.981055 
L 588.017745 783.102234 
L 574.13321 783.884318 
L 560.614057 784.614571 
L 542.344931 785.477552 
L 533.210368 785.800818 
L 510.191269 786.778189 
L 431.999411 789.449304 
L 391.076569 790.629769 
L 368.422853 791.229825 
L 363.67288 791.259571 
L 350.153727 791.67873 
L 345.403754 791.629863 
L 341.019164 791.841063 
L 322.750038 792.249433 
L 317.634683 792.435426 
L 313.615475 792.395672 
L 304.11553 792.744601 
L 276.711841 793.276359 
L 272.327251 793.435319 
L 263.192688 793.500737 
L 258.442715 793.823207 
L 254.058125 793.740602 
L 249.308152 793.781791 
L 244.923562 793.996491 
L 240.173589 794.00712 
L 226.654436 794.362314 
L 221.904464 794.426278 
L 217.519873 794.615263 
L 208.38531 794.759424 
L 209.481458 773.145655 
L 213.500666 756.419246 
L 217.885256 745.991439 
L 227.019819 728.175135 
L 231.769792 720.048641 
L 236.154382 712.152468 
L 240.904354 704.592437 
L 245.288945 697.401519 
L 254.423508 683.709992 
L 259.17348 677.212084 
L 263.923453 670.999045 
L 268.308043 664.945031 
L 273.058016 659.168668 
L 277.442606 653.470572 
L 282.192579 648.159304 
L 286.577169 642.893971 
L 291.327142 637.929895 
L 295.711732 633.010118 
L 300.461705 628.29167 
L 304.846295 623.711686 
L 318.730831 611.030009 
L 332.249984 599.587474 
L 336.999956 596.028603 
L 341.384547 592.535593 
L 346.134519 589.235284 
L 350.519109 586.039027 
L 355.269082 582.961525 
L 359.653672 579.939291 
L 373.538208 571.52354 
L 391.807334 561.439505 
L 405.691869 554.839767 
L 419.211023 548.822943 
L 423.960995 546.974898 
L 428.345586 545.05113 
L 446.614711 538.264637 
L 451.364684 536.886017 
L 455.749274 535.330526 
L 464.883837 532.386724 
L 478.768373 528.417389 
L 487.902936 525.951304 
L 492.652908 524.846715 
L 501.787471 522.544977 
L 515.306624 519.477526 
L 533.57575 515.740591 
L 547.460286 513.418422 
L 556.594849 511.837305 
L 570.114002 509.657667 
L 574.863975 509.11314 
L 588.74851 507.116063 
L 593.133101 506.515336 
L 597.883073 505.987 
L 602.267663 505.27225 
L 607.017636 504.813485 
L 620.536789 503.132845 
L 638.805915 501.3141 
L 647.940478 500.370759 
L 652.690451 500.052974 
L 666.940369 498.762577 
L 670.959577 498.512409 
L 675.344167 498.034053 
L 680.094139 497.749201 
L 689.228702 496.951025 
L 703.113238 496.082258 
L 707.497828 495.680174 
L 734.901517 494.042191 
L 748.786053 493.395281 
L 753.170643 493.031849 
L 762.305206 492.606715 
L 781.305097 491.6281 
L 785.324304 491.384649 
L 803.59343 490.712456 
L 808.343403 490.396752 
L 863.15078 488.338726 
L 1055.341984 482.841207 
L 1059.726574 482.630658 
L 1064.476547 482.550461 
L 1073.61111 482.189451 
L 1082.745673 481.901128 
L 1091.880236 481.576462 
L 1101.014799 481.474701 
L 1119.283924 480.847076 
L 1117.822394 501.920596 
L 1113.803187 518.887227 
L 1109.418597 529.602866 
L 1100.284034 547.68017 
L 1091.149471 563.813389 
L 1086.399498 571.421419 
L 1082.014908 578.818839 
L 1068.130372 599.074134 
L 1058.995809 611.439804 
L 1049.861246 622.894536 
L 1045.111274 628.279555 
L 1040.726683 633.654081 
L 1035.976711 638.58869 
L 1031.59212 643.480718 
L 1026.842148 648.15544 
L 1022.457558 652.721591 
L 1017.707585 657.10262 
L 1013.322995 661.298594 
L 1003.457667 669.91146 
L 995.053869 676.916672 
L 990.303896 680.417 
L 985.919306 683.947696 
L 976.784743 690.504016 
L 972.03477 693.520504 
L 967.65018 696.531161 
L 962.900207 699.643127 
L 958.150235 702.356755 
L 953.765644 705.055798 
L 944.631082 710.248082 
L 939.881109 712.654005 
L 935.496519 715.058166 
L 926.361956 719.6949 
L 921.611983 721.760908 
L 917.227393 723.893755 
L 908.09283 727.770366 
L 894.208294 733.350264 
L 885.073731 736.68325 
L 880.689141 738.319988 
L 875.939168 739.802399 
L 866.804605 742.831002 
L 862.054633 744.188831 
L 857.670043 745.617317 
L 843.785507 749.48201 
L 839.400917 750.704076 
L 821.131791 755.221572 
L 816.381818 756.159277 
L 811.997228 757.199807 
L 807.247255 758.121812 
L 802.862665 759.124377 
L 793.728102 760.857246 
L 784.593539 762.661294 
L 770.709004 765.007856 
L 765.959031 765.651818 
L 761.574441 766.4958 
L 725.036189 771.495976 
L 715.901626 772.591264 
L 697.6325 774.7234 
L 692.882528 775.094037 
L 688.497937 775.62229 
L 647.209713 779.259036 
L 638.07515 779.910791 
L 615.056052 781.504524 
L 605.921489 782.080187 
L 596.786926 782.59487 
L 592.402335 782.997543 
L 587.652363 783.136384 
L 574.13321 784.036468 
L 569.383237 784.109646 
L 545.998756 785.402716 
L 537.229575 785.753702 
L 532.844985 785.92923 
L 528.095013 785.965917 
L 514.575859 786.612483 
L 496.306734 787.334502 
L 487.172171 787.688243 
L 459.768482 788.698585 
L 436.749383 789.389106 
L 422.864848 789.917507 
L 413.730285 790.063862 
L 409.345695 790.271035 
L 400.211132 790.406717 
L 395.461159 790.678554 
L 386.326596 790.789532 
L 381.942006 790.963947 
L 372.807443 791.124937 
L 363.67288 791.390816 
L 354.538317 791.761108 
L 349.788344 791.710358 
L 313.250093 792.573854 
L 308.50012 792.751919 
L 294.980967 792.961695 
L 253.692743 793.859324 
L 244.55818 793.902936 
L 235.423617 794.256676 
L 208.019928 794.728137 
L 209.481458 771.997942 
L 213.500666 756.045401 
L 218.250638 745.747514 
L 222.635229 736.761682 
L 227.385201 728.136222 
L 232.135174 719.881462 
L 236.519764 711.993131 
L 241.269737 704.544618 
L 245.654327 697.365618 
L 250.4043 690.374031 
L 254.78889 683.608493 
L 259.538863 677.277682 
L 263.923453 670.936819 
L 268.673426 664.964415 
L 273.058016 659.149153 
L 277.807989 653.528411 
L 282.192579 648.116412 
L 286.942552 642.937993 
L 291.327142 637.886283 
L 296.077114 633.115006 
L 300.461705 628.311053 
L 305.211677 623.845681 
L 309.596268 619.515991 
L 314.34624 615.323095 
L 318.730831 611.154411 
L 323.846186 606.917904 
L 328.230776 603.436615 
L 332.615366 599.7631 
L 337.365339 596.270859 
L 341.749929 592.794023 
L 350.884492 586.283739 
L 355.634465 583.166975 
L 360.019055 580.078737 
L 378.288181 569.151539 
L 383.038153 566.635149 
L 387.422744 564.078023 
L 392.172716 561.761522 
L 396.557307 559.450318 
L 401.307279 557.325919 
L 405.691869 555.050364 
L 410.441842 553.10479 
L 414.826432 550.98178 
L 423.960995 547.083928 
L 438.210913 541.641663 
L 446.980094 538.669569 
L 456.114657 535.520493 
L 469.999192 531.268875 
L 474.383783 529.988071 
L 479.133755 528.788744 
L 483.518346 527.453736 
L 492.652908 525.073173 
L 520.056597 518.716823 
L 529.19116 516.892393 
L 552.575641 512.611029 
L 556.960231 512.050001 
L 566.094794 510.551129 
L 579.613947 508.572215 
L 584.36392 508.002402 
L 588.74851 507.328518 
L 593.498483 506.750208 
L 597.883073 506.066955 
L 602.633046 505.618722 
L 616.152199 503.980952 
L 620.902172 503.396939 
L 662.190396 499.425835 
L 664.017309 508.968876 
L 664.017309 638.993476 
L 664.017309 638.928123 
" style="fill:none;stroke:#1f77b4;stroke-linecap:square;stroke-width:1.5;"/>
   </g>
   <g id="line2d_36">
    <path clip-path="url(#pe62dc545a1)" d="M 663.651926 638.505629 
L 663.651926 638.983849 
L 663.651926 638.309175 
L 663.651926 638.906912 
L 667.305751 627.54555 
L 670.959577 615.608487 
L 675.344167 606.546263 
L 680.094139 600.8071 
L 684.47873 595.834343 
L 689.228702 591.170811 
L 693.613293 586.432907 
L 698.363265 581.950275 
L 702.747856 577.281318 
L 707.497828 572.913202 
L 716.632391 564.284007 
L 721.382364 560.30184 
L 730.516927 551.915473 
L 734.901517 548.056814 
L 748.786053 536.729403 
L 753.170643 532.894418 
L 757.920616 529.429516 
L 762.305206 525.731692 
L 776.189741 515.789376 
L 780.574332 512.391811 
L 785.324304 509.182903 
L 789.708894 505.99845 
L 794.458867 502.937439 
L 798.843457 499.849644 
L 803.59343 496.878498 
L 807.97802 493.968684 
L 821.862556 485.418716 
L 826.612529 482.773287 
L 830.997119 480.187828 
L 835.747092 477.525286 
L 840.131682 474.86067 
L 854.016217 467.297226 
L 858.400808 465.101578 
L 867.535371 460.254583 
L 872.285343 458.04118 
L 876.669933 455.762678 
L 881.419906 453.679476 
L 885.804496 451.34919 
L 890.554469 449.267563 
L 896.035207 446.7135 
L 899.689032 445.224063 
L 904.073622 443.044493 
L 908.823595 441.245364 
L 913.573568 439.285457 
L 917.958158 437.333442 
L 922.708131 435.753286 
L 927.092721 433.622738 
L 936.227284 430.02448 
L 945.361847 426.752413 
L 950.111819 424.792802 
L 954.496409 423.171219 
L 959.246382 421.638112 
L 963.630972 419.874788 
L 977.515508 415.321029 
L 981.900098 413.665821 
L 995.784634 409.393487 
L 1000.169224 407.92577 
L 1009.303787 405.404721 
L 1014.05376 403.861891 
L 1023.188323 401.404125 
L 1027.938295 399.764787 
L 1037.072858 397.527712 
L 1041.457448 396.178365 
L 1046.207421 395.05391 
L 1050.592011 393.87619 
L 1055.341984 392.745323 
L 1059.726574 391.389597 
L 1068.861137 389.299236 
L 1073.61111 388.212485 
L 1077.9957 387.093947 
L 1087.130263 384.990413 
L 1091.880236 384.087113 
L 1096.264826 383.121316 
L 1101.014799 382.241033 
L 1110.149362 380.170161 
L 1119.283924 378.322996 
L 1117.457012 399.384657 
L 1113.803187 426.674194 
L 1109.418597 446.263987 
L 1104.668624 458.47311 
L 1100.284034 468.319545 
L 1091.149471 485.874417 
L 1086.399498 494.188977 
L 1082.014908 502.297388 
L 1077.264935 510.043309 
L 1072.880345 517.779366 
L 1068.130372 525.061302 
L 1063.745782 532.290762 
L 1049.861246 553.258901 
L 1045.111274 559.976044 
L 1040.726683 566.527478 
L 1035.976711 572.937171 
L 1031.59212 579.174645 
L 1026.842148 585.337845 
L 1022.457558 591.525902 
L 1017.707585 597.414499 
L 1013.322995 603.474723 
L 1008.573022 609.032099 
L 1004.188432 614.650648 
L 995.053869 625.715272 
L 990.303896 630.875932 
L 985.919306 636.160873 
L 967.65018 656.190025 
L 944.631082 679.345888 
L 939.881109 683.725347 
L 935.496519 687.998279 
L 930.746546 692.306719 
L 926.361956 696.508633 
L 921.611983 700.527082 
L 917.227393 704.597316 
L 903.342857 716.071011 
L 898.958267 720.012419 
L 894.208294 723.400877 
L 888.727556 727.868174 
L 880.689141 734.21814 
L 875.939168 737.551264 
L 871.554578 740.94495 
L 866.804605 744.292079 
L 862.420015 747.647692 
L 857.670043 750.808004 
L 853.285452 754.133828 
L 843.785507 760.054383 
L 839.400917 763.135589 
L 830.266354 768.923958 
L 825.516381 771.823291 
L 821.131791 774.699727 
L 816.381818 777.334702 
L 811.997228 780.01426 
L 802.862665 785.458993 
L 798.112692 787.816009 
L 793.728102 790.349092 
L 788.978129 792.827136 
L 784.593539 795.433309 
L 779.843567 797.674132 
L 775.458976 800.224871 
L 761.574441 807.001196 
L 757.18985 809.256025 
L 743.305315 815.623995 
L 720.286216 825.475311 
L 706.767063 831.100056 
L 702.01709 832.863675 
L 697.6325 834.674641 
L 692.882528 836.432343 
L 688.497937 838.261063 
L 683.747965 839.947746 
L 679.363374 841.717284 
L 674.613402 843.140707 
L 670.228812 844.724296 
L 665.478839 846.251405 
L 656.344276 849.428288 
L 651.959686 850.819457 
L 647.209713 852.490852 
L 642.825123 853.796114 
L 638.07515 855.384944 
L 624.190614 859.409229 
L 619.806024 860.944489 
L 615.056052 862.134268 
L 605.921489 864.863316 
L 601.536898 865.940426 
L 596.786926 867.3312 
L 587.652363 869.721289 
L 583.267773 870.962501 
L 560.248674 876.610918 
L 555.864084 877.628847 
L 551.114111 878.886659 
L 546.729521 879.865922 
L 541.979548 880.789159 
L 532.844985 882.866443 
L 528.095013 883.724185 
L 523.710422 884.825363 
L 500.691324 889.441549 
L 496.306734 890.471314 
L 491.556761 891.240678 
L 482.422198 893.069398 
L 473.287635 894.602209 
L 455.018509 897.963739 
L 436.749383 900.93467 
L 431.268646 901.62544 
L 427.61482 902.37634 
L 422.864848 903.100726 
L 418.480258 903.881927 
L 409.345695 905.136583 
L 404.595722 905.905947 
L 400.211132 906.38532 
L 391.076569 907.918417 
L 386.326596 908.453332 
L 377.192033 909.78236 
L 372.807443 910.297242 
L 368.05747 911.004466 
L 363.67288 911.435348 
L 358.922907 912.243932 
L 349.788344 913.104337 
L 345.403754 913.723682 
L 336.269191 914.672788 
L 327.134628 915.854421 
L 317.634683 917.020303 
L 308.50012 918.002723 
L 304.11553 918.603715 
L 299.365557 918.766169 
L 294.980967 919.458104 
L 290.230994 919.831443 
L 281.096431 920.896716 
L 271.961868 921.792631 
L 267.577278 922.323 
L 253.692743 923.435619 
L 249.308152 923.988772 
L 208.019928 927.471823 
L 210.212223 901.22871 
L 213.866048 876.124223 
L 218.250638 857.477418 
L 223.000611 845.351051 
L 227.385201 835.402578 
L 232.135174 826.270814 
L 236.885147 817.636179 
L 241.269737 809.060725 
L 250.4043 792.677603 
L 255.154273 784.784319 
L 259.538863 777.072921 
L 277.807989 747.452392 
L 282.557961 740.474085 
L 286.942552 733.568323 
L 291.692524 726.703226 
L 296.077114 720.06657 
L 300.827087 713.660399 
L 305.211677 707.208617 
L 309.96165 701.077473 
L 314.34624 694.862094 
L 319.096213 688.611002 
L 323.846186 682.732177 
L 328.230776 676.919432 
L 332.980749 671.14979 
L 337.365339 665.509166 
L 342.115312 660.072817 
L 346.499902 654.667046 
L 351.249874 649.260584 
L 355.634465 644.049817 
L 360.384437 638.845462 
L 364.769028 633.704826 
L 369.519 628.757221 
L 373.903591 623.959839 
L 378.653563 619.254683 
L 383.038153 614.393779 
L 387.788126 609.813102 
L 392.172716 605.223449 
L 396.922689 600.787866 
L 401.307279 596.456936 
L 406.057252 592.159148 
L 410.441842 587.939481 
L 424.326378 575.475777 
L 428.710968 571.64671 
L 451.730067 552.755855 
L 479.133755 532.326272 
L 488.268318 525.987893 
L 506.537444 513.84969 
L 511.287417 511.00896 
L 524.80657 502.492688 
L 529.556543 499.823585 
L 533.941133 496.988773 
L 538.691106 494.61558 
L 543.075696 492.029332 
L 547.825668 489.703484 
L 561.710204 482.282077 
L 566.094794 479.838852 
L 570.844767 477.600791 
L 575.229357 475.221679 
L 579.97933 472.978686 
L 584.36392 470.741414 
L 589.113893 468.699836 
L 593.498483 466.529637 
L 598.248456 464.420987 
L 602.633046 462.257692 
L 611.767609 458.254235 
L 616.517582 456.150615 
L 620.902172 454.401495 
L 625.652144 452.324211 
L 639.171298 446.794454 
L 643.92127 444.991577 
L 648.305861 443.162857 
L 653.055833 441.559817 
L 657.440423 439.795408 
L 662.190396 438.085052 
L 671.324959 434.670553 
L 676.074932 433.107856 
L 680.459522 431.523754 
L 694.344058 426.870086 
L 698.728648 425.22414 
L 703.478621 423.996902 
L 712.613183 421.027308 
L 721.747746 418.203282 
L 730.882309 415.595939 
L 735.266899 414.140065 
L 740.016872 413.080709 
L 744.401462 411.500553 
L 749.151435 410.358343 
L 753.536025 409.159219 
L 763.035971 406.794607 
L 767.420561 405.399092 
L 772.170534 404.47813 
L 785.689687 401.037865 
L 790.43966 399.954169 
L 794.82425 398.829713 
L 799.574222 397.84759 
L 803.958813 396.676638 
L 808.708785 395.77001 
L 813.093376 394.574536 
L 817.843348 393.65988 
L 826.977911 391.692379 
L 836.112474 389.857248 
L 840.497064 388.845731 
L 845.247037 388.160503 
L 854.3816 386.30091 
L 858.76619 385.182175 
L 863.516163 384.673408 
L 872.650726 382.883749 
L 896.765972 378.544035 
L 900.054414 378.142491 
L 909.188977 376.618755 
L 913.93895 376.151218 
L 923.073513 374.520363 
L 927.458103 373.99108 
L 932.208076 373.144779 
L 936.592666 372.606224 
L 954.861792 369.903712 
L 959.611765 369.327844 
L 963.996355 368.541193 
L 968.746328 368.082361 
L 973.130918 367.40576 
L 987.015453 365.856136 
L 996.150016 364.538452 
L 1010.034552 362.959578 
L 1019.169115 361.87655 
L 1023.553705 361.231467 
L 1032.688268 360.248456 
L 1041.822831 359.25568 
L 1046.572804 358.79976 
L 1050.957394 358.112582 
L 1060.091957 357.349136 
L 1064.841929 356.621199 
L 1069.591902 356.066764 
L 1073.976492 355.839998 
L 1106.130154 352.107693 
L 1110.514744 351.709103 
L 1115.264717 350.946446 
L 1119.649307 350.57873 
L 1117.091629 377.399687 
L 1113.437804 402.014802 
L 1108.687831 420.200289 
L 1104.303241 432.269841 
L 1095.168678 451.341792 
L 1086.034115 468.870182 
L 1081.284143 477.293045 
L 1076.899553 485.454226 
L 1072.14958 493.340605 
L 1067.76499 501.232114 
L 1063.015017 508.81923 
L 1058.630427 516.193292 
L 1053.880454 523.490417 
L 1049.495864 530.769788 
L 1044.745891 537.688149 
L 1040.361301 544.64202 
L 1035.611328 551.412427 
L 1031.226738 558.207986 
L 1026.476765 564.575144 
L 1022.092175 571.077972 
L 1017.342202 577.15807 
L 1012.957612 583.424495 
L 1003.457667 595.390479 
L 999.073077 601.302748 
L 994.323104 607.061145 
L 989.938514 612.713014 
L 985.188541 618.201738 
L 980.803951 623.460443 
L 976.053978 628.947786 
L 971.669388 634.302372 
L 966.919415 639.236555 
L 962.534825 644.398991 
L 957.784852 649.368887 
L 953.400262 654.19865 
L 948.650289 659.061991 
L 944.265699 663.771223 
L 925.996573 681.825609 
L 921.2466 686.104459 
L 916.86201 690.324127 
L 912.112038 694.46094 
L 907.362065 698.787135 
L 898.227502 706.515906 
L 893.842912 710.541938 
L 884.708349 718.243473 
L 879.958376 721.823483 
L 866.439223 732.656923 
L 861.68925 736.011154 
L 857.30466 739.494895 
L 852.554687 742.735596 
L 848.170097 746.043863 
L 839.035534 752.413017 
L 834.285561 755.512963 
L 825.150999 761.666892 
L 820.766408 764.591463 
L 816.016436 767.437026 
L 811.631845 770.450469 
L 806.881873 773.001208 
L 797.74731 778.700521 
L 788.612747 784.031427 
L 783.862774 786.595285 
L 779.478184 789.229963 
L 770.343621 794.010774 
L 761.209058 798.863688 
L 752.074495 803.405601 
L 747.324523 805.688694 
L 742.939932 807.936269 
L 733.805369 812.370669 
L 729.055397 814.422794 
L 724.670807 816.522277 
L 719.920834 818.551111 
L 715.536244 820.673886 
L 710.786271 822.495011 
L 706.401681 824.448013 
L 688.132555 832.045683 
L 678.632609 835.553492 
L 674.248019 837.31778 
L 665.113456 840.671674 
L 659.267336 842.974241 
L 655.978893 843.954359 
L 632.959795 851.766367 
L 614.690669 857.524763 
L 605.556106 860.193866 
L 601.171516 861.64974 
L 596.421543 862.827755 
L 592.036953 864.160579 
L 587.28698 865.427023 
L 582.90239 866.934682 
L 564.267882 871.562704 
L 559.883291 872.785599 
L 545.998756 876.172972 
L 541.614166 877.238049 
L 532.479603 879.121315 
L 527.72963 880.374886 
L 518.595067 882.487679 
L 509.460504 884.257217 
L 500.325941 886.322664 
L 491.191378 888.281584 
L 486.806788 889.006957 
L 472.922253 891.840881 
L 459.037717 894.282627 
L 454.653127 895.199946 
L 449.903154 895.920288 
L 445.518564 896.833365 
L 440.768591 897.495725 
L 436.384001 898.351085 
L 430.537881 899.058335 
L 427.249438 899.945543 
L 422.499465 900.561824 
L 381.576623 906.852857 
L 362.942115 909.50026 
L 358.557525 909.944728 
L 353.807552 910.631423 
L 349.422962 910.981175 
L 344.672989 911.81072 
L 340.288399 912.454326 
L 326.403863 914.000844 
L 322.019273 914.661142 
L 317.2693 915.037711 
L 303.750147 916.72239 
L 299.000175 917.117559 
L 294.615584 917.71865 
L 276.346459 919.642061 
L 262.461923 920.873044 
L 257.71195 921.535881 
L 253.32736 921.834749 
L 248.577387 922.376263 
L 207.654545 926.010425 
L 210.577606 897.758196 
L 214.231431 872.256119 
L 218.981403 854.624851 
L 223.365994 843.00232 
L 228.115966 833.419985 
L 232.500557 824.247879 
L 237.250529 815.60772 
L 241.63512 807.072214 
L 246.385092 798.9351 
L 250.769682 790.743934 
L 255.519655 782.924331 
L 259.904245 775.317319 
L 264.654218 767.683716 
L 269.038808 760.342204 
L 273.788781 753.021406 
L 278.173371 745.854481 
L 282.923344 739.001516 
L 287.307934 732.130108 
L 301.19247 712.202581 
L 305.942442 705.811355 
L 310.327033 699.621402 
L 315.077005 693.478807 
L 319.461596 687.359115 
L 324.211568 681.435009 
L 328.596158 675.635185 
L 333.346131 669.93597 
L 337.730721 664.290019 
L 342.480694 658.738759 
L 346.865284 653.388126 
L 351.615257 648.323513 
L 355.999847 642.836589 
L 360.74982 637.711439 
L 365.13441 632.6722 
L 374.268973 623.04617 
L 379.018946 617.992037 
L 383.768918 613.440951 
L 388.153509 608.74191 
L 392.903481 604.285515 
L 397.288072 599.835038 
L 415.557197 582.771185 
L 424.69176 574.60189 
L 429.441733 570.693882 
L 433.826323 566.841142 
L 439.672444 562.278842 
L 442.960886 559.224434 
L 447.710859 555.632785 
L 452.095449 552.022 
L 456.845422 548.405987 
L 461.230012 544.878747 
L 465.979985 541.552726 
L 470.364575 538.149768 
L 475.114548 534.936192 
L 479.499138 531.565488 
L 484.249111 528.390677 
L 488.633701 525.14751 
L 493.383673 522.004952 
L 498.133646 519.158797 
L 502.518236 516.106715 
L 507.268209 513.16604 
L 516.402772 507.347772 
L 520.787362 504.525299 
L 529.921925 499.255725 
L 539.056488 493.875807 
L 557.325614 483.88371 
L 562.075587 481.541613 
L 566.460177 479.19641 
L 571.21015 476.872853 
L 575.59474 474.588433 
L 580.344712 472.274422 
L 584.729303 470.013674 
L 589.479275 467.954145 
L 593.863866 465.681561 
L 598.613838 463.635545 
L 602.998428 461.536061 
L 612.498374 457.524198 
L 616.882964 455.454932 
L 621.632937 453.590703 
L 626.017527 451.590356 
L 630.7675 449.826736 
L 644.286653 444.257721 
L 649.036626 442.647974 
L 653.421216 440.760073 
L 663.651926 437.110805 
L 664.382691 442.997148 
L 664.382691 639.238331 
L 664.382691 638.903625 
" style="fill:none;stroke:#ff7f0e;stroke-linecap:square;stroke-width:1.5;"/>
   </g>
   <g id="line2d_37">
    <path clip-path="url(#pe62dc545a1)" d="M 663.651926 638.743176 
L 663.651926 639.344858 
L 663.651926 638.304302 
L 663.651926 639.164354 
L 664.382691 639.164354 
L 667.305751 632.485679 
L 671.324959 616.039693 
L 675.709549 598.784385 
L 680.459522 587.066178 
L 684.844112 578.313026 
L 689.594085 571.411375 
L 693.978675 565.529045 
L 716.997774 539.939846 
L 721.747746 535.352902 
L 735.266899 521.159391 
L 740.016872 516.707826 
L 744.401462 511.950996 
L 749.151435 507.512703 
L 753.536025 502.946996 
L 762.670588 494.098725 
L 767.420561 490.035599 
L 771.805151 485.406184 
L 776.555124 481.286429 
L 780.939714 476.954316 
L 785.689687 472.855797 
L 790.074277 468.677643 
L 794.82425 464.616287 
L 803.958813 456.453462 
L 808.708785 452.612723 
L 813.093376 448.370862 
L 817.843348 444.633352 
L 822.227938 440.789664 
L 826.977911 437.044191 
L 840.497064 425.887996 
L 845.247037 422.187059 
L 849.631627 418.519893 
L 854.3816 415.136757 
L 858.76619 411.441719 
L 863.516163 407.789153 
L 867.900753 404.192331 
L 872.650726 400.858008 
L 886.535261 390.586788 
L 890.919852 387.508917 
L 895.304442 384.251573 
L 900.054414 380.947039 
L 904.804387 377.951457 
L 909.188977 374.464206 
L 913.93895 371.582029 
L 918.32354 368.429833 
L 923.073513 365.466105 
L 931.842693 359.010406 
L 936.592666 355.97368 
L 941.342639 353.289999 
L 945.727229 350.316685 
L 950.477202 347.458104 
L 954.861792 344.309889 
L 959.611765 341.74566 
L 963.996355 338.772642 
L 968.746328 336.075689 
L 973.130918 333.060198 
L 977.880891 330.343336 
L 982.265481 327.581349 
L 987.015453 324.945744 
L 996.150016 319.575433 
L 1000.534607 316.772301 
L 1009.669169 311.773913 
L 1014.419142 308.872565 
L 1019.169115 306.451678 
L 1023.553705 303.846747 
L 1032.688268 299.040367 
L 1037.438241 296.237235 
L 1046.572804 291.565348 
L 1050.957394 289.165697 
L 1064.841929 282.030451 
L 1078.361083 274.958913 
L 1083.111055 272.8778 
L 1092.245618 267.908611 
L 1096.630208 266.188507 
L 1101.380181 263.979979 
L 1105.764771 261.5936 
L 1110.514744 259.582978 
L 1118.553159 255.952828 
L 1120.745455 254.50879 
L 1117.457012 266.061092 
L 1113.437804 301.801027 
L 1109.053214 337.158717 
L 1104.303241 363.002746 
L 1099.553269 381.245668 
L 1095.168678 394.983936 
L 1090.784088 405.495681 
L 1086.034115 415.338498 
L 1081.284143 423.779748 
L 1072.514962 440.007476 
L 1067.76499 447.372777 
L 1058.630427 462.301579 
L 1049.495864 476.529599 
L 1044.745891 483.240127 
L 1035.611328 497.026913 
L 1031.226738 503.582744 
L 1026.476765 510.2946 
L 1022.092175 517.0476 
L 1017.342202 523.482062 
L 1012.957612 529.661695 
L 1008.207639 535.893089 
L 1003.823049 542.42444 
L 999.073077 548.646544 
L 994.688486 554.762469 
L 989.938514 560.708507 
L 985.553923 566.624018 
L 980.803951 572.558111 
L 976.053978 578.780215 
L 966.919415 590.247574 
L 962.534825 595.903388 
L 957.784852 601.396395 
L 944.265699 618.105469 
L 935.131136 628.875584 
L 930.381163 634.561483 
L 921.2466 644.719888 
L 916.86201 650.217613 
L 912.112038 655.184148 
L 898.227502 670.504486 
L 893.842912 675.152483 
L 889.458322 680.179038 
L 884.708349 685.108114 
L 879.958376 690.24719 
L 875.573786 694.646993 
L 871.189196 699.633436 
L 861.68925 708.722379 
L 857.30466 713.266851 
L 852.554687 717.853795 
L 848.170097 722.525682 
L 843.420124 727.155097 
L 834.285561 735.776852 
L 829.900971 740.172673 
L 820.766408 748.858135 
L 816.016436 752.999126 
L 811.631845 757.649777 
L 806.881873 761.43374 
L 797.74731 769.541853 
L 793.36272 773.767787 
L 784.228157 781.605143 
L 775.093594 789.609731 
L 765.593648 797.275873 
L 761.209058 801.162033 
L 756.459085 805.026958 
L 752.074495 808.996734 
L 747.324523 812.523213 
L 742.939932 816.175779 
L 729.055397 826.81494 
L 724.670807 830.44627 
L 719.920834 833.801534 
L 715.536244 837.432864 
L 706.401681 844.589346 
L 701.651708 847.583601 
L 697.267118 851.189713 
L 692.517145 854.421544 
L 674.248019 867.545299 
L 666.940369 872.917969 
L 655.978893 880.010743 
L 646.84433 885.934365 
L 642.094358 888.960327 
L 637.709768 892.115177 
L 632.959795 895.045725 
L 628.575205 897.912564 
L 623.825232 900.67057 
L 619.440642 903.646244 
L 614.690669 906.559537 
L 610.306079 909.420035 
L 605.556106 912.076876 
L 601.171516 914.97557 
L 596.421543 917.746848 
L 592.036953 920.507509 
L 582.537008 926.099173 
L 578.152417 929.009812 
L 573.767827 931.321275 
L 569.017854 934.034745 
L 564.267882 936.568447 
L 559.883291 939.407415 
L 555.498701 941.910885 
L 545.998756 947.060284 
L 541.614166 949.600623 
L 536.864193 951.872859 
L 532.479603 954.463632 
L 527.72963 956.842047 
L 523.34504 959.447421 
L 514.210477 964.295831 
L 509.460504 966.622483 
L 495.941351 973.958142 
L 491.191378 976.315322 
L 486.441406 978.513232 
L 482.056815 980.817322 
L 468.537662 987.591558 
L 463.78769 990.097388 
L 459.403099 991.966143 
L 445.518564 998.549256 
L 440.768591 1000.481719 
L 436.384001 1002.732719 
L 431.634028 1004.844358 
L 422.499465 1009.230889 
L 413.364902 1013.201992 
L 408.980312 1015.368049 
L 404.230339 1017.141243 
L 399.845749 1019.149358 
L 395.095776 1021.016785 
L 390.711186 1023.204078 
L 385.961214 1024.842777 
L 354.172935 1038.281531 
L 349.422962 1039.904894 
L 344.672989 1041.689885 
L 340.288399 1043.720563 
L 335.903809 1045.03925 
L 331.153836 1047.200588 
L 294.615584 1060.582713 
L 289.865612 1062.199734 
L 280.731049 1065.548362 
L 262.461923 1071.855409 
L 258.077333 1073.108325 
L 239.808207 1079.395316 
L 235.058234 1080.85941 
L 230.308261 1082.176032 
L 221.173699 1085.233995 
L 208.38531 1088.801617 
L 207.654545 1089.523636 
L 210.942988 1072.556192 
L 214.596813 1037.389625 
L 219.346786 1002.159351 
L 223.731376 977.377114 
L 228.481349 960.006189 
L 232.865939 946.457717 
L 237.615912 935.891554 
L 242.000502 926.411075 
L 246.750475 917.768084 
L 251.135065 909.188801 
L 265.019601 885.412907 
L 269.769573 877.738507 
L 274.154163 870.07502 
L 278.904136 862.873412 
L 283.288726 855.525808 
L 292.423289 840.788129 
L 297.173262 833.680755 
L 301.557852 826.407919 
L 306.307825 819.939833 
L 310.692415 812.862986 
L 315.442388 805.837902 
L 319.826978 798.951145 
L 324.576951 792.638494 
L 328.961541 786.105816 
L 338.096104 772.757904 
L 351.98064 753.897668 
L 356.36523 747.226514 
L 361.115202 740.979635 
L 365.865175 734.927418 
L 370.249765 728.717259 
L 374.634356 722.865455 
L 384.134301 710.8672 
L 392.903481 699.493043 
L 397.653454 693.453803 
L 402.403427 687.974954 
L 406.788017 682.237293 
L 411.53799 676.571303 
L 415.92258 671.033465 
L 420.672553 665.563169 
L 425.057143 660.198463 
L 429.807116 654.847029 
L 434.191706 649.389415 
L 438.941678 644.207868 
L 443.326269 638.893597 
L 448.076241 633.869548 
L 452.460832 628.620754 
L 457.210804 623.663511 
L 461.595395 618.554961 
L 466.345367 613.452459 
L 470.729957 608.53164 
L 475.47993 603.51998 
L 480.229903 598.731296 
L 484.614493 594.048791 
L 488.999083 589.015895 
L 502.883619 575.361243 
L 507.633592 570.307111 
L 512.018182 565.847582 
L 521.152745 557.013469 
L 530.287308 547.966997 
L 535.03728 543.880423 
L 553.306406 526.687348 
L 557.690996 522.314091 
L 562.440969 518.527031 
L 567.190942 514.413027 
L 571.575532 509.869883 
L 575.960122 506.087247 
L 580.710095 502.381886 
L 594.594631 490.630203 
L 598.979221 486.574155 
L 603.729193 483.005206 
L 608.113784 479.269023 
L 612.863756 475.467806 
L 617.248347 471.709061 
L 621.998319 468.098966 
L 626.38291 464.149098 
L 631.132882 461.073882 
L 635.517472 457.235649 
L 640.267445 453.718314 
L 644.652035 450.239617 
L 649.402008 446.735701 
L 653.786598 442.998192 
L 661.825014 437.179569 
L 665.113456 435.013512 
L 668.036516 432.606783 
L 672.055724 429.492191 
L 676.805697 426.030748 
L 681.55567 422.930314 
L 685.94026 419.557796 
L 695.074823 412.924247 
L 699.824795 409.679144 
L 704.209386 406.471203 
L 708.593976 403.485354 
L 713.343948 400.040722 
L 718.093921 397.319879 
L 722.478511 393.879672 
L 727.228484 390.991596 
L 731.613074 387.879217 
L 736.363047 384.705784 
L 740.747637 382.012813 
L 745.49761 378.856488 
L 749.8822 375.744256 
L 754.632173 372.987577 
L 759.016763 369.861925 
L 763.766736 367.164973 
L 768.151326 363.962341 
L 777.285889 358.458274 
L 782.035862 355.421548 
L 786.785834 352.767066 
L 791.170425 349.928099 
L 795.920397 347.288217 
L 800.304987 344.400142 
L 823.324086 331.36133 
L 827.708676 328.74932 
L 832.458649 326.094839 
L 836.843239 323.950018 
L 845.977802 318.83616 
L 850.727775 316.559943 
L 855.112365 314.075348 
L 873.381491 304.391801 
L 882.516054 299.656206 
L 896.400589 292.563433 
L 901.150562 290.654861 
L 905.535152 288.167612 
L 909.919742 286.362564 
L 928.554251 277.593338 
L 932.938841 275.404866 
L 937.688814 273.70998 
L 942.073404 271.412526 
L 946.823377 269.288941 
L 951.207967 267.204289 
L 965.092502 261.431677 
L 969.477093 259.262081 
L 974.227065 257.171235 
L 978.611656 255.117993 
L 983.361628 253.340818 
L 987.746218 251.400097 
L 992.496191 249.725415 
L 996.880781 247.798261 
L 1001.630754 245.908271 
L 1006.015344 243.939236 
L 1010.765317 242.008838 
L 1015.51529 240.280771 
L 1019.89988 238.539431 
L 1024.649853 236.257757 
L 1029.034443 234.698397 
L 1033.784416 232.848223 
L 1038.169006 231.404185 
L 1042.553596 229.599138 
L 1047.303569 227.772855 
L 1052.053541 226.079296 
L 1056.438132 224.247704 
L 1065.572695 221.047727 
L 1070.322667 219.002449 
L 1088.591793 212.206977 
L 1092.976383 210.253279 
L 1097.726356 208.724298 
L 1102.476329 207.365203 
L 1106.860919 205.253564 
L 1111.610892 204.15859 
L 1118.918542 201.079392 
L 1120.380072 199.996364 
L 1116.726247 218.137088 
L 1112.707039 254.487554 
L 1107.957066 287.891546 
L 1103.572476 312.418952 
L 1098.822504 329.12493 
L 1094.072531 342.085434 
L 1089.687941 352.533472 
L 1085.30335 362.179857 
L 1080.553378 370.817539 
L 1075.803405 379.163228 
L 1071.418815 387.551388 
L 1066.668842 395.366181 
L 1062.284252 403.38006 
L 1057.534279 410.974531 
L 1053.149689 418.619436 
L 1048.399716 425.627267 
L 1044.015126 433.073087 
L 1039.265153 440.471126 
L 1034.880563 447.670079 
L 1030.13059 454.784088 
L 1025.746 461.773338 
L 1020.996028 468.523683 
L 1016.611437 475.552749 
L 1011.861465 482.114627 
L 1007.476874 488.871609 
L 1002.726902 495.55692 
L 998.342311 502.118797 
L 993.592339 508.498991 
L 984.457776 521.655779 
L 979.707803 527.580581 
L 975.323213 534.142459 
L 970.57324 540.157513 
L 966.18865 546.459252 
L 961.438677 552.384054 
L 957.054087 558.457507 
L 952.304114 564.53096 
L 947.919524 570.414617 
L 943.169551 576.368766 
L 938.784961 582.156715 
L 934.034989 587.833323 
L 929.650398 593.586911 
L 924.900426 599.192586 
L 920.515835 604.815367 
L 897.496737 631.786223 
L 893.112147 637.242509 
L 879.227611 652.829623 
L 874.477638 657.688651 
L 870.093048 663.031089 
L 860.958485 672.961208 
L 856.208512 677.634423 
L 851.823922 682.772171 
L 847.439332 687.635181 
L 842.689359 692.476954 
L 837.939387 697.10637 
L 833.554796 701.859661 
L 824.420234 711.037087 
L 819.670261 715.472725 
L 815.285671 720.110694 
L 810.535698 724.606795 
L 806.151108 729.100832 
L 792.266572 742.338729 
L 787.516599 746.607135 
L 783.132009 750.761398 
L 778.747419 755.101475 
L 773.997446 759.11977 
L 769.247474 763.690049 
L 755.72832 775.827664 
L 750.978348 779.484212 
L 746.593758 783.83358 
L 741.843785 787.613561 
L 737.459195 791.563429 
L 732.709222 795.407118 
L 728.324632 799.294606 
L 723.574659 802.627307 
L 714.440096 810.93716 
L 710.055506 814.050867 
L 700.920943 821.273563 
L 696.17097 825.129344 
L 691.78638 828.853581 
L 687.036407 832.230081 
L 682.651817 835.861412 
L 673.517254 842.359582 
L 665.113456 848.730336 
L 662.190396 851.257403 
L 658.901954 853.06245 
L 654.882746 855.973088 
L 650.498156 859.327025 
L 645.748183 862.597346 
L 641.363593 865.973846 
L 636.61362 868.991992 
L 632.22903 872.150824 
L 627.479057 875.404923 
L 623.094467 878.672885 
L 609.209931 887.54947 
L 604.825341 890.798555 
L 600.075368 893.516744 
L 595.690778 896.609214 
L 586.556215 902.690631 
L 581.806242 905.387584 
L 577.05627 908.251769 
L 568.287089 914.115518 
L 563.537117 917.006248 
L 558.787144 919.594367 
L 554.402554 922.418735 
L 549.652581 925.030744 
L 545.267991 928.062162 
L 540.518018 930.254764 
L 531.748838 935.733613 
L 517.864302 943.615652 
L 513.114329 945.884349 
L 508.729739 948.602538 
L 499.595176 953.723917 
L 494.845204 956.098793 
L 490.460613 958.883343 
L 485.710641 961.139652 
L 481.32605 963.691789 
L 476.576078 965.739868 
L 471.826105 968.330642 
L 467.441515 970.886907 
L 463.056925 973.299831 
L 458.306952 975.211057 
L 444.787799 982.263719 
L 440.037826 984.51236 
L 435.287853 986.996954 
L 426.15329 991.244124 
L 421.7687 993.537596 
L 417.018727 995.533766 
L 412.634137 997.91749 
L 407.884165 1000.163181 
L 403.499574 1002.053171 
L 394.365011 1006.576407 
L 389.615039 1008.232804 
L 385.230449 1010.292681 
L 380.480476 1012.290178 
L 376.095886 1014.454908 
L 371.345913 1016.578493 
L 362.21135 1020.345201 
L 353.076787 1024.26587 
L 343.942224 1027.903837 
L 339.192251 1030.169436 
L 334.807661 1031.868304 
L 330.057689 1033.88571 
L 325.673098 1035.552724 
L 320.923126 1037.495805 
L 316.538535 1039.534446 
L 311.788563 1040.702418 
L 307.403972 1042.885729 
L 298.26941 1046.542277 
L 293.519437 1048.00755 
L 289.134847 1049.791362 
L 275.250311 1054.718079 
L 270.865721 1056.513835 
L 266.115748 1058.030871 
L 261.731158 1059.62356 
L 256.981185 1061.485236 
L 252.231212 1063.079695 
L 247.846622 1064.794489 
L 243.09665 1066.164202 
L 238.712059 1067.990485 
L 233.962087 1069.540702 
L 229.577496 1071.157281 
L 224.827524 1072.577428 
L 220.442934 1074.148881 
L 215.692961 1075.557083 
L 208.019928 1078.332344 
L 208.019928 1077.42982 
L 211.308371 1055.743467 
L 215.692961 1018.914436 
L 220.077551 985.959052 
L 224.827524 963.034952 
L 229.212114 946.583952 
L 233.962087 934.17676 
L 238.346677 924.138839 
L 243.09665 915.178637 
L 247.48124 906.251175 
L 256.981185 889.779234 
L 261.365775 882.236526 
L 265.750366 874.14139 
L 275.250311 859.312426 
L 279.634901 852.047111 
L 284.019491 844.999906 
L 293.519437 830.251166 
L 302.654 816.536788 
L 307.03859 809.528958 
L 311.788563 802.648543 
L 316.173153 796.022957 
L 320.923126 789.384395 
L 325.307716 782.538193 
L 330.057689 776.077186 
L 334.442279 769.45691 
L 339.192251 763.090874 
L 343.576842 756.785743 
L 348.326814 750.620711 
L 352.711405 744.105287 
L 357.461377 738.040829 
L 361.845967 731.954399 
L 371.345913 719.892436 
L 380.115093 708.233955 
L 384.865066 702.566637 
L 393.999629 690.926737 
L 398.749602 685.193058 
L 403.134192 679.371781 
L 407.884165 674.256595 
L 412.268755 668.486343 
L 417.018727 662.959123 
L 421.403318 657.607689 
L 430.537881 646.883585 
L 435.287853 641.711476 
L 439.672444 636.140899 
L 444.422416 631.338943 
L 448.807006 626.157396 
L 453.556979 621.013601 
L 457.941569 615.836773 
L 462.691542 611.073306 
L 467.076132 606.02581 
L 476.576078 596.321027 
L 480.960668 591.330602 
L 485.710641 586.679951 
L 499.229794 572.451932 
L 503.979766 567.992403 
L 508.364357 563.426696 
L 517.49892 554.259445 
L 522.248892 550.035133 
L 526.633482 545.715997 
L 544.902608 528.727317 
L 549.652581 524.092593 
L 554.037171 520.402864 
L 563.171734 512.057175 
L 567.921707 508.29843 
L 572.306297 503.898627 
L 577.05627 499.9551 
L 586.190833 492.137948 
L 590.940805 488.488036 
L 595.325396 484.429335 
L 604.459959 476.890608 
L 609.209931 473.212824 
L 613.594521 469.500532 
L 618.344494 465.890438 
L 622.729084 462.089221 
L 627.479057 458.524253 
L 631.863647 454.953975 
L 636.61362 451.379274 
L 640.99821 447.784222 
L 645.748183 444.484701 
L 650.132773 440.832135 
L 654.882746 437.413163 
L 662.190396 431.403418 
L 665.478839 429.237361 
L 665.478839 639.625643 
L 665.478839 639.18441 
" style="fill:none;stroke:#2ca02c;stroke-linecap:square;stroke-width:1.5;"/>
   </g>
   <g id="patch_3">
    <path d="M 162 1134 
L 162 155.52 
" style="fill:none;stroke:#000000;stroke-linecap:square;stroke-linejoin:miter;stroke-width:0.8;"/>
   </g>
   <g id="patch_4">
    <path d="M 1166.4 1134 
L 1166.4 155.52 
" style="fill:none;stroke:#000000;stroke-linecap:square;stroke-linejoin:miter;stroke-width:0.8;"/>
   </g>
   <g id="patch_5">
    <path d="M 162 1134 
L 1166.4 1134 
" style="fill:none;stroke:#000000;stroke-linecap:square;stroke-linejoin:miter;stroke-width:0.8;"/>
   </g>
   <g id="patch_6">
    <path d="M 162 155.52 
L 1166.4 155.52 
" style="fill:none;stroke:#000000;stroke-linecap:square;stroke-linejoin:miter;stroke-width:0.8;"/>
   </g>
   <g id="legend_1">
    <g id="patch_7">
     <path d="M 169 215.42 
L 226.2 215.42 
Q 228.2 215.42 228.2 213.42 
L 228.2 162.52 
Q 228.2 160.52 226.2 160.52 
L 169 160.52 
Q 167 160.52 167 162.52 
L 167 213.42 
Q 167 215.42 169 215.42 
z
" style="fill:#ffffff;opacity:0.8;stroke:#cccccc;stroke-linejoin:miter;"/>
    </g>
    <g id="line2d_38">
     <path d="M 171 170.52 
L 191 170.52 
" style="fill:none;stroke:#1f77b4;stroke-linecap:square;stroke-width:1.5;"/>
    </g>
    <g id="line2d_39"/>
    <g id="text_20">
     <!-- 0.5 $\frac{V}{s}$ -->
     <g transform="translate(199 174.02)scale(0.1 -0.1)">
      <defs>
       <path d="M 3200 3397 
L 3091 2853 
Q 2863 2978 2609 3040 
Q 2356 3103 2088 3103 
Q 1634 3103 1373 2948 
Q 1113 2794 1113 2528 
Q 1113 2219 1719 2053 
Q 1766 2041 1788 2034 
L 1972 1978 
Q 2547 1819 2739 1644 
Q 2931 1469 2931 1166 
Q 2931 609 2489 259 
Q 2047 -91 1331 -91 
Q 1053 -91 747 -37 
Q 441 16 72 128 
L 184 722 
Q 500 559 806 475 
Q 1113 391 1394 391 
Q 1816 391 2080 572 
Q 2344 753 2344 1031 
Q 2344 1331 1650 1516 
L 1591 1531 
L 1394 1581 
Q 956 1697 753 1886 
Q 550 2075 550 2369 
Q 550 2928 970 3256 
Q 1391 3584 2113 3584 
Q 2397 3584 2667 3537 
Q 2938 3491 3200 3397 
z
" id="DejaVuSans-Oblique-73" transform="scale(0.015625)"/>
      </defs>
      <use transform="translate(0 0.16875)" xlink:href="#DejaVuSans-30"/>
      <use transform="translate(63.623047 0.16875)" xlink:href="#DejaVuSans-2e"/>
      <use transform="translate(95.410156 0.16875)" xlink:href="#DejaVuSans-35"/>
      <use transform="translate(159.033203 0.16875)" xlink:href="#DejaVuSans-20"/>
      <use transform="translate(190.820312 43.965625)scale(0.7)" xlink:href="#DejaVuSans-Oblique-56"/>
      <use transform="translate(196.820312 -26.484375)scale(0.7)" xlink:href="#DejaVuSans-Oblique-73"/>
      <path d="M 190.820312 18.965625 
L 190.820312 25.215625 
L 238.706055 25.215625 
L 238.706055 18.965625 
L 190.820312 18.965625 
z
"/>
     </g>
    </g>
    <g id="line2d_40">
     <path d="M 171 187.82 
L 191 187.82 
" style="fill:none;stroke:#ff7f0e;stroke-linecap:square;stroke-width:1.5;"/>
    </g>
    <g id="line2d_41"/>
    <g id="text_21">
     <!-- 1.0 $\frac{V}{s}$ -->
     <g transform="translate(199 191.32)scale(0.1 -0.1)">
      <use transform="translate(0 0.16875)" xlink:href="#DejaVuSans-31"/>
      <use transform="translate(63.623047 0.16875)" xlink:href="#DejaVuSans-2e"/>
      <use transform="translate(95.410156 0.16875)" xlink:href="#DejaVuSans-30"/>
      <use transform="translate(159.033203 0.16875)" xlink:href="#DejaVuSans-20"/>
      <use transform="translate(190.820312 43.965625)scale(0.7)" xlink:href="#DejaVuSans-Oblique-56"/>
      <use transform="translate(196.820312 -26.484375)scale(0.7)" xlink:href="#DejaVuSans-Oblique-73"/>
      <path d="M 190.820312 18.965625 
L 190.820312 25.215625 
L 238.706055 25.215625 
L 238.706055 18.965625 
L 190.820312 18.965625 
z
"/>
     </g>
    </g>
    <g id="line2d_42">
     <path d="M 171 205.12 
L 191 205.12 
" style="fill:none;stroke:#2ca02c;stroke-linecap:square;stroke-width:1.5;"/>
    </g>
    <g id="line2d_43"/>
    <g id="text_22">
     <!-- 2.0 $\frac{V}{s}$ -->
     <g transform="translate(199 208.62)scale(0.1 -0.1)">
      <use transform="translate(0 0.16875)" xlink:href="#DejaVuSans-32"/>
      <use transform="translate(63.623047 0.16875)" xlink:href="#DejaVuSans-2e"/>
      <use transform="translate(95.410156 0.16875)" xlink:href="#DejaVuSans-30"/>
      <use transform="translate(159.033203 0.16875)" xlink:href="#DejaVuSans-20"/>
      <use transform="translate(190.820312 43.965625)scale(0.7)" xlink:href="#DejaVuSans-Oblique-56"/>
      <use transform="translate(196.820312 -26.484375)scale(0.7)" xlink:href="#DejaVuSans-Oblique-73"/>
      <path d="M 190.820312 18.965625 
L 190.820312 25.215625 
L 238.706055 25.215625 
L 238.706055 18.965625 
L 190.820312 18.965625 
z
"/>
     </g>
    </g>
   </g>
  </g>
  <g id="text_23">
   <!-- Cyclic Voltammetry at different scan rates -->
   <g transform="translate(521.219063 35.038125)scale(0.12 -0.12)">
    <defs>
     <path d="M 4122 4306 
L 4122 3641 
Q 3803 3938 3442 4084 
Q 3081 4231 2675 4231 
Q 1875 4231 1450 3742 
Q 1025 3253 1025 2328 
Q 1025 1406 1450 917 
Q 1875 428 2675 428 
Q 3081 428 3442 575 
Q 3803 722 4122 1019 
L 4122 359 
Q 3791 134 3420 21 
Q 3050 -91 2638 -91 
Q 1578 -91 968 557 
Q 359 1206 359 2328 
Q 359 3453 968 4101 
Q 1578 4750 2638 4750 
Q 3056 4750 3426 4639 
Q 3797 4528 4122 4306 
z
" id="DejaVuSans-43" transform="scale(0.015625)"/>
     <path d="M 2059 -325 
Q 1816 -950 1584 -1140 
Q 1353 -1331 966 -1331 
L 506 -1331 
L 506 -850 
L 844 -850 
Q 1081 -850 1212 -737 
Q 1344 -625 1503 -206 
L 1606 56 
L 191 3500 
L 800 3500 
L 1894 763 
L 2988 3500 
L 3597 3500 
L 2059 -325 
z
" id="DejaVuSans-79" transform="scale(0.015625)"/>
     <path d="M 3122 3366 
L 3122 2828 
Q 2878 2963 2633 3030 
Q 2388 3097 2138 3097 
Q 1578 3097 1268 2742 
Q 959 2388 959 1747 
Q 959 1106 1268 751 
Q 1578 397 2138 397 
Q 2388 397 2633 464 
Q 2878 531 3122 666 
L 3122 134 
Q 2881 22 2623 -34 
Q 2366 -91 2075 -91 
Q 1284 -91 818 406 
Q 353 903 353 1747 
Q 353 2603 823 3093 
Q 1294 3584 2113 3584 
Q 2378 3584 2631 3529 
Q 2884 3475 3122 3366 
z
" id="DejaVuSans-63" transform="scale(0.015625)"/>
     <path d="M 603 4863 
L 1178 4863 
L 1178 0 
L 603 0 
L 603 4863 
z
" id="DejaVuSans-6c" transform="scale(0.015625)"/>
     <path d="M 603 3500 
L 1178 3500 
L 1178 0 
L 603 0 
L 603 3500 
z
M 603 4863 
L 1178 4863 
L 1178 4134 
L 603 4134 
L 603 4863 
z
" id="DejaVuSans-69" transform="scale(0.015625)"/>
     <path d="M 1831 0 
L 50 4666 
L 709 4666 
L 2188 738 
L 3669 4666 
L 4325 4666 
L 2547 0 
L 1831 0 
z
" id="DejaVuSans-56" transform="scale(0.015625)"/>
     <path d="M 1959 3097 
Q 1497 3097 1228 2736 
Q 959 2375 959 1747 
Q 959 1119 1226 758 
Q 1494 397 1959 397 
Q 2419 397 2687 759 
Q 2956 1122 2956 1747 
Q 2956 2369 2687 2733 
Q 2419 3097 1959 3097 
z
M 1959 3584 
Q 2709 3584 3137 3096 
Q 3566 2609 3566 1747 
Q 3566 888 3137 398 
Q 2709 -91 1959 -91 
Q 1206 -91 779 398 
Q 353 888 353 1747 
Q 353 2609 779 3096 
Q 1206 3584 1959 3584 
z
" id="DejaVuSans-6f" transform="scale(0.015625)"/>
     <path d="M 1172 4494 
L 1172 3500 
L 2356 3500 
L 2356 3053 
L 1172 3053 
L 1172 1153 
Q 1172 725 1289 603 
Q 1406 481 1766 481 
L 2356 481 
L 2356 0 
L 1766 0 
Q 1100 0 847 248 
Q 594 497 594 1153 
L 594 3053 
L 172 3053 
L 172 3500 
L 594 3500 
L 594 4494 
L 1172 4494 
z
" id="DejaVuSans-74" transform="scale(0.015625)"/>
     <path d="M 2194 1759 
Q 1497 1759 1228 1600 
Q 959 1441 959 1056 
Q 959 750 1161 570 
Q 1363 391 1709 391 
Q 2188 391 2477 730 
Q 2766 1069 2766 1631 
L 2766 1759 
L 2194 1759 
z
M 3341 1997 
L 3341 0 
L 2766 0 
L 2766 531 
Q 2569 213 2275 61 
Q 1981 -91 1556 -91 
Q 1019 -91 701 211 
Q 384 513 384 1019 
Q 384 1609 779 1909 
Q 1175 2209 1959 2209 
L 2766 2209 
L 2766 2266 
Q 2766 2663 2505 2880 
Q 2244 3097 1772 3097 
Q 1472 3097 1187 3025 
Q 903 2953 641 2809 
L 641 3341 
Q 956 3463 1253 3523 
Q 1550 3584 1831 3584 
Q 2591 3584 2966 3190 
Q 3341 2797 3341 1997 
z
" id="DejaVuSans-61" transform="scale(0.015625)"/>
     <path d="M 3328 2828 
Q 3544 3216 3844 3400 
Q 4144 3584 4550 3584 
Q 5097 3584 5394 3201 
Q 5691 2819 5691 2113 
L 5691 0 
L 5113 0 
L 5113 2094 
Q 5113 2597 4934 2840 
Q 4756 3084 4391 3084 
Q 3944 3084 3684 2787 
Q 3425 2491 3425 1978 
L 3425 0 
L 2847 0 
L 2847 2094 
Q 2847 2600 2669 2842 
Q 2491 3084 2119 3084 
Q 1678 3084 1418 2786 
Q 1159 2488 1159 1978 
L 1159 0 
L 581 0 
L 581 3500 
L 1159 3500 
L 1159 2956 
Q 1356 3278 1631 3431 
Q 1906 3584 2284 3584 
Q 2666 3584 2933 3390 
Q 3200 3197 3328 2828 
z
" id="DejaVuSans-6d" transform="scale(0.015625)"/>
     <path d="M 3597 1894 
L 3597 1613 
L 953 1613 
Q 991 1019 1311 708 
Q 1631 397 2203 397 
Q 2534 397 2845 478 
Q 3156 559 3463 722 
L 3463 178 
Q 3153 47 2828 -22 
Q 2503 -91 2169 -91 
Q 1331 -91 842 396 
Q 353 884 353 1716 
Q 353 2575 817 3079 
Q 1281 3584 2069 3584 
Q 2775 3584 3186 3129 
Q 3597 2675 3597 1894 
z
M 3022 2063 
Q 3016 2534 2758 2815 
Q 2500 3097 2075 3097 
Q 1594 3097 1305 2825 
Q 1016 2553 972 2059 
L 3022 2063 
z
" id="DejaVuSans-65" transform="scale(0.015625)"/>
     <path d="M 2631 2963 
Q 2534 3019 2420 3045 
Q 2306 3072 2169 3072 
Q 1681 3072 1420 2755 
Q 1159 2438 1159 1844 
L 1159 0 
L 581 0 
L 581 3500 
L 1159 3500 
L 1159 2956 
Q 1341 3275 1631 3429 
Q 1922 3584 2338 3584 
Q 2397 3584 2469 3576 
Q 2541 3569 2628 3553 
L 2631 2963 
z
" id="DejaVuSans-72" transform="scale(0.015625)"/>
     <path d="M 2906 2969 
L 2906 4863 
L 3481 4863 
L 3481 0 
L 2906 0 
L 2906 525 
Q 2725 213 2448 61 
Q 2172 -91 1784 -91 
Q 1150 -91 751 415 
Q 353 922 353 1747 
Q 353 2572 751 3078 
Q 1150 3584 1784 3584 
Q 2172 3584 2448 3432 
Q 2725 3281 2906 2969 
z
M 947 1747 
Q 947 1113 1208 752 
Q 1469 391 1925 391 
Q 2381 391 2643 752 
Q 2906 1113 2906 1747 
Q 2906 2381 2643 2742 
Q 2381 3103 1925 3103 
Q 1469 3103 1208 2742 
Q 947 2381 947 1747 
z
" id="DejaVuSans-64" transform="scale(0.015625)"/>
     <path d="M 2375 4863 
L 2375 4384 
L 1825 4384 
Q 1516 4384 1395 4259 
Q 1275 4134 1275 3809 
L 1275 3500 
L 2222 3500 
L 2222 3053 
L 1275 3053 
L 1275 0 
L 697 0 
L 697 3053 
L 147 3053 
L 147 3500 
L 697 3500 
L 697 3744 
Q 697 4328 969 4595 
Q 1241 4863 1831 4863 
L 2375 4863 
z
" id="DejaVuSans-66" transform="scale(0.015625)"/>
     <path d="M 3513 2113 
L 3513 0 
L 2938 0 
L 2938 2094 
Q 2938 2591 2744 2837 
Q 2550 3084 2163 3084 
Q 1697 3084 1428 2787 
Q 1159 2491 1159 1978 
L 1159 0 
L 581 0 
L 581 3500 
L 1159 3500 
L 1159 2956 
Q 1366 3272 1645 3428 
Q 1925 3584 2291 3584 
Q 2894 3584 3203 3211 
Q 3513 2838 3513 2113 
z
" id="DejaVuSans-6e" transform="scale(0.015625)"/>
     <path d="M 2834 3397 
L 2834 2853 
Q 2591 2978 2328 3040 
Q 2066 3103 1784 3103 
Q 1356 3103 1142 2972 
Q 928 2841 928 2578 
Q 928 2378 1081 2264 
Q 1234 2150 1697 2047 
L 1894 2003 
Q 2506 1872 2764 1633 
Q 3022 1394 3022 966 
Q 3022 478 2636 193 
Q 2250 -91 1575 -91 
Q 1294 -91 989 -36 
Q 684 19 347 128 
L 347 722 
Q 666 556 975 473 
Q 1284 391 1588 391 
Q 1994 391 2212 530 
Q 2431 669 2431 922 
Q 2431 1156 2273 1281 
Q 2116 1406 1581 1522 
L 1381 1569 
Q 847 1681 609 1914 
Q 372 2147 372 2553 
Q 372 3047 722 3315 
Q 1072 3584 1716 3584 
Q 2034 3584 2315 3537 
Q 2597 3491 2834 3397 
z
" id="DejaVuSans-73" transform="scale(0.015625)"/>
    </defs>
    <use xlink:href="#DejaVuSans-43"/>
    <use x="69.824219" xlink:href="#DejaVuSans-79"/>
    <use x="129.003906" xlink:href="#DejaVuSans-63"/>
    <use x="183.984375" xlink:href="#DejaVuSans-6c"/>
    <use x="211.767578" xlink:href="#DejaVuSans-69"/>
    <use x="239.550781" xlink:href="#DejaVuSans-63"/>
    <use x="294.53125" xlink:href="#DejaVuSans-20"/>
    <use x="326.318359" xlink:href="#DejaVuSans-56"/>
    <use x="386.976562" xlink:href="#DejaVuSans-6f"/>
    <use x="448.158203" xlink:href="#DejaVuSans-6c"/>
    <use x="475.941406" xlink:href="#DejaVuSans-74"/>
    <use x="515.150391" xlink:href="#DejaVuSans-61"/>
    <use x="576.429688" xlink:href="#DejaVuSans-6d"/>
    <use x="673.841797" xlink:href="#DejaVuSans-6d"/>
    <use x="771.253906" xlink:href="#DejaVuSans-65"/>
    <use x="832.777344" xlink:href="#DejaVuSans-74"/>
    <use x="871.986328" xlink:href="#DejaVuSans-72"/>
    <use x="913.099609" xlink:href="#DejaVuSans-79"/>
    <use x="972.279297" xlink:href="#DejaVuSans-20"/>
    <use x="1004.066406" xlink:href="#DejaVuSans-61"/>
    <use x="1065.345703" xlink:href="#DejaVuSans-74"/>
    <use x="1104.554688" xlink:href="#DejaVuSans-20"/>
    <use x="1136.341797" xlink:href="#DejaVuSans-64"/>
    <use x="1199.818359" xlink:href="#DejaVuSans-69"/>
    <use x="1227.601562" xlink:href="#DejaVuSans-66"/>
    <use x="1262.806641" xlink:href="#DejaVuSans-66"/>
    <use x="1298.011719" xlink:href="#DejaVuSans-65"/>
    <use x="1359.535156" xlink:href="#DejaVuSans-72"/>
    <use x="1398.398438" xlink:href="#DejaVuSans-65"/>
    <use x="1459.921875" xlink:href="#DejaVuSans-6e"/>
    <use x="1523.300781" xlink:href="#DejaVuSans-74"/>
    <use x="1562.509766" xlink:href="#DejaVuSans-20"/>
    <use x="1594.296875" xlink:href="#DejaVuSans-73"/>
    <use x="1646.396484" xlink:href="#DejaVuSans-63"/>
    <use x="1701.376953" xlink:href="#DejaVuSans-61"/>
    <use x="1762.65625" xlink:href="#DejaVuSans-6e"/>
    <use x="1826.035156" xlink:href="#DejaVuSans-20"/>
    <use x="1857.822266" xlink:href="#DejaVuSans-72"/>
    <use x="1898.935547" xlink:href="#DejaVuSans-61"/>
    <use x="1960.214844" xlink:href="#DejaVuSans-74"/>
    <use x="1999.423828" xlink:href="#DejaVuSans-65"/>
    <use x="2060.947266" xlink:href="#DejaVuSans-73"/>
   </g>
  </g>
 </g>
 <defs>
  <clipPath id="pe62dc545a1">
   <rect height="978.48" width="1004.4" x="162" y="155.52"/>
  </clipPath>
 </defs>
</svg>
