<?xml version="1.0" encoding="utf-8" standalone="no"?>
<!DOCTYPE svg PUBLIC "-//W3C//DTD SVG 1.1//EN"
  "http://www.w3.org/Graphics/SVG/1.1/DTD/svg11.dtd">
<svg xmlns:xlink="http://www.w3.org/1999/xlink" width="1296pt" height="1296pt" viewBox="0 0 1296 1296" xmlns="http://www.w3.org/2000/svg" version="1.1">
 <metadata>
  <rdf:RDF xmlns:dc="http://purl.org/dc/elements/1.1/" xmlns:cc="http://creativecommons.org/ns#" xmlns:rdf="http://www.w3.org/1999/02/22-rdf-syntax-ns#">
   <cc:Work>
    <dc:type rdf:resource="http://purl.org/dc/dcmitype/StillImage"/>
    <dc:date>2022-05-25T11:34:58.902699</dc:date>
    <dc:format>image/svg+xml</dc:format>
    <dc:creator>
     <cc:Agent>
      <dc:title>Matplotlib v3.5.1, https://matplotlib.org/</dc:title>
     </cc:Agent>
    </dc:creator>
   </cc:Work>
  </rdf:RDF>
 </metadata>
 <defs>
  <style type="text/css">*{stroke-linejoin: round; stroke-linecap: butt}</style>
 </defs>
 <g id="figure_1">
  <g id="patch_1">
   <path d="M 0 1296 
L 1296 1296 
L 1296 0 
L 0 0 
L 0 1296 
z
" style="fill: none"/>
  </g>
  <g id="axes_1">
   <g id="patch_2">
    <path d="M 162 1134 
L 1166.4 1134 
L 1166.4 155.52 
L 162 155.52 
z
" style="fill: #ffffff"/>
   </g>
   <g id="matplotlib.axis_1">
    <g id="xtick_1">
     <g id="line2d_1">
      <path d="M 207.401115 1134 
L 207.401115 155.52 
" clip-path="url(#p56ecdb433b)" style="fill: none; stroke: #b0b0b0; stroke-width: 0.8; stroke-linecap: square"/>
     </g>
     <g id="line2d_2">
      <defs>
       <path id="mcf18d93696" d="M 0 0 
L 0 3.5 
" style="stroke: #000000; stroke-width: 0.8"/>
      </defs>
      <g>
       <use xlink:href="#mcf18d93696" x="207.401115" y="1134" style="stroke: #000000; stroke-width: 0.8"/>
      </g>
     </g>
     <g id="text_1">
      <!-- −200 m$V$ -->
      <g transform="translate(183.751115 1148.598438)scale(0.1 -0.1)">
       <defs>
        <path id="DejaVuSans-2212" d="M 678 2272 
L 4684 2272 
L 4684 1741 
L 678 1741 
L 678 2272 
z
" transform="scale(0.015625)"/>
        <path id="DejaVuSans-32" d="M 1228 531 
L 3431 531 
L 3431 0 
L 469 0 
L 469 531 
Q 828 903 1448 1529 
Q 2069 2156 2228 2338 
Q 2531 2678 2651 2914 
Q 2772 3150 2772 3378 
Q 2772 3750 2511 3984 
Q 2250 4219 1831 4219 
Q 1534 4219 1204 4116 
Q 875 4013 500 3803 
L 500 4441 
Q 881 4594 1212 4672 
Q 1544 4750 1819 4750 
Q 2544 4750 2975 4387 
Q 3406 4025 3406 3419 
Q 3406 3131 3298 2873 
Q 3191 2616 2906 2266 
Q 2828 2175 2409 1742 
Q 1991 1309 1228 531 
z
" transform="scale(0.015625)"/>
        <path id="DejaVuSans-30" d="M 2034 4250 
Q 1547 4250 1301 3770 
Q 1056 3291 1056 2328 
Q 1056 1369 1301 889 
Q 1547 409 2034 409 
Q 2525 409 2770 889 
Q 3016 1369 3016 2328 
Q 3016 3291 2770 3770 
Q 2525 4250 2034 4250 
z
M 2034 4750 
Q 2819 4750 3233 4129 
Q 3647 3509 3647 2328 
Q 3647 1150 3233 529 
Q 2819 -91 2034 -91 
Q 1250 -91 836 529 
Q 422 1150 422 2328 
Q 422 3509 836 4129 
Q 1250 4750 2034 4750 
z
" transform="scale(0.015625)"/>
        <path id="DejaVuSans-20" transform="scale(0.015625)"/>
        <path id="DejaVuSans-6d" d="M 3328 2828 
Q 3544 3216 3844 3400 
Q 4144 3584 4550 3584 
Q 5097 3584 5394 3201 
Q 5691 2819 5691 2113 
L 5691 0 
L 5113 0 
L 5113 2094 
Q 5113 2597 4934 2840 
Q 4756 3084 4391 3084 
Q 3944 3084 3684 2787 
Q 3425 2491 3425 1978 
L 3425 0 
L 2847 0 
L 2847 2094 
Q 2847 2600 2669 2842 
Q 2491 3084 2119 3084 
Q 1678 3084 1418 2786 
Q 1159 2488 1159 1978 
L 1159 0 
L 581 0 
L 581 3500 
L 1159 3500 
L 1159 2956 
Q 1356 3278 1631 3431 
Q 1906 3584 2284 3584 
Q 2666 3584 2933 3390 
Q 3200 3197 3328 2828 
z
" transform="scale(0.015625)"/>
        <path id="DejaVuSans-Oblique-56" d="M 1319 0 
L 500 4666 
L 1119 4666 
L 1797 653 
L 4063 4666 
L 4750 4666 
L 2053 0 
L 1319 0 
z
" transform="scale(0.015625)"/>
       </defs>
       <use xlink:href="#DejaVuSans-2212" transform="translate(0 0.78125)"/>
       <use xlink:href="#DejaVuSans-32" transform="translate(83.789062 0.78125)"/>
       <use xlink:href="#DejaVuSans-30" transform="translate(147.412109 0.78125)"/>
       <use xlink:href="#DejaVuSans-30" transform="translate(211.035156 0.78125)"/>
       <use xlink:href="#DejaVuSans-20" transform="translate(274.658203 0.78125)"/>
       <use xlink:href="#DejaVuSans-6d" transform="translate(306.445312 0.78125)"/>
       <use xlink:href="#DejaVuSans-Oblique-56" transform="translate(403.857422 0.78125)"/>
      </g>
     </g>
    </g>
    <g id="xtick_2">
     <g id="line2d_3">
      <path d="M 321.64075 1134 
L 321.64075 155.52 
" clip-path="url(#p56ecdb433b)" style="fill: none; stroke: #b0b0b0; stroke-width: 0.8; stroke-linecap: square"/>
     </g>
     <g id="line2d_4">
      <g>
       <use xlink:href="#mcf18d93696" x="321.64075" y="1134" style="stroke: #000000; stroke-width: 0.8"/>
      </g>
     </g>
     <g id="text_2">
      <!-- −150 m$V$ -->
      <g transform="translate(297.99075 1148.598438)scale(0.1 -0.1)">
       <defs>
        <path id="DejaVuSans-31" d="M 794 531 
L 1825 531 
L 1825 4091 
L 703 3866 
L 703 4441 
L 1819 4666 
L 2450 4666 
L 2450 531 
L 3481 531 
L 3481 0 
L 794 0 
L 794 531 
z
" transform="scale(0.015625)"/>
        <path id="DejaVuSans-35" d="M 691 4666 
L 3169 4666 
L 3169 4134 
L 1269 4134 
L 1269 2991 
Q 1406 3038 1543 3061 
Q 1681 3084 1819 3084 
Q 2600 3084 3056 2656 
Q 3513 2228 3513 1497 
Q 3513 744 3044 326 
Q 2575 -91 1722 -91 
Q 1428 -91 1123 -41 
Q 819 9 494 109 
L 494 744 
Q 775 591 1075 516 
Q 1375 441 1709 441 
Q 2250 441 2565 725 
Q 2881 1009 2881 1497 
Q 2881 1984 2565 2268 
Q 2250 2553 1709 2553 
Q 1456 2553 1204 2497 
Q 953 2441 691 2322 
L 691 4666 
z
" transform="scale(0.015625)"/>
       </defs>
       <use xlink:href="#DejaVuSans-2212" transform="translate(0 0.78125)"/>
       <use xlink:href="#DejaVuSans-31" transform="translate(83.789062 0.78125)"/>
       <use xlink:href="#DejaVuSans-35" transform="translate(147.412109 0.78125)"/>
       <use xlink:href="#DejaVuSans-30" transform="translate(211.035156 0.78125)"/>
       <use xlink:href="#DejaVuSans-20" transform="translate(274.658203 0.78125)"/>
       <use xlink:href="#DejaVuSans-6d" transform="translate(306.445312 0.78125)"/>
       <use xlink:href="#DejaVuSans-Oblique-56" transform="translate(403.857422 0.78125)"/>
      </g>
     </g>
    </g>
    <g id="xtick_3">
     <g id="line2d_5">
      <path d="M 435.880385 1134 
L 435.880385 155.52 
" clip-path="url(#p56ecdb433b)" style="fill: none; stroke: #b0b0b0; stroke-width: 0.8; stroke-linecap: square"/>
     </g>
     <g id="line2d_6">
      <g>
       <use xlink:href="#mcf18d93696" x="435.880385" y="1134" style="stroke: #000000; stroke-width: 0.8"/>
      </g>
     </g>
     <g id="text_3">
      <!-- −100 m$V$ -->
      <g transform="translate(412.230385 1148.598438)scale(0.1 -0.1)">
       <use xlink:href="#DejaVuSans-2212" transform="translate(0 0.78125)"/>
       <use xlink:href="#DejaVuSans-31" transform="translate(83.789062 0.78125)"/>
       <use xlink:href="#DejaVuSans-30" transform="translate(147.412109 0.78125)"/>
       <use xlink:href="#DejaVuSans-30" transform="translate(211.035156 0.78125)"/>
       <use xlink:href="#DejaVuSans-20" transform="translate(274.658203 0.78125)"/>
       <use xlink:href="#DejaVuSans-6d" transform="translate(306.445312 0.78125)"/>
       <use xlink:href="#DejaVuSans-Oblique-56" transform="translate(403.857422 0.78125)"/>
      </g>
     </g>
    </g>
    <g id="xtick_4">
     <g id="line2d_7">
      <path d="M 550.12002 1134 
L 550.12002 155.52 
" clip-path="url(#p56ecdb433b)" style="fill: none; stroke: #b0b0b0; stroke-width: 0.8; stroke-linecap: square"/>
     </g>
     <g id="line2d_8">
      <g>
       <use xlink:href="#mcf18d93696" x="550.12002" y="1134" style="stroke: #000000; stroke-width: 0.8"/>
      </g>
     </g>
     <g id="text_4">
      <!-- −50 m$V$ -->
      <g transform="translate(529.67002 1148.598438)scale(0.1 -0.1)">
       <use xlink:href="#DejaVuSans-2212" transform="translate(0 0.78125)"/>
       <use xlink:href="#DejaVuSans-35" transform="translate(83.789062 0.78125)"/>
       <use xlink:href="#DejaVuSans-30" transform="translate(147.412109 0.78125)"/>
       <use xlink:href="#DejaVuSans-20" transform="translate(211.035156 0.78125)"/>
       <use xlink:href="#DejaVuSans-6d" transform="translate(242.822266 0.78125)"/>
       <use xlink:href="#DejaVuSans-Oblique-56" transform="translate(340.234375 0.78125)"/>
      </g>
     </g>
    </g>
    <g id="xtick_5">
     <g id="line2d_9">
      <path d="M 664.359655 1134 
L 664.359655 155.52 
" clip-path="url(#p56ecdb433b)" style="fill: none; stroke: #b0b0b0; stroke-width: 0.8; stroke-linecap: square"/>
     </g>
     <g id="line2d_10">
      <g>
       <use xlink:href="#mcf18d93696" x="664.359655" y="1134" style="stroke: #000000; stroke-width: 0.8"/>
      </g>
     </g>
     <g id="text_5">
      <!-- 0 $V$ -->
      <g transform="translate(656.159655 1148.598438)scale(0.1 -0.1)">
       <use xlink:href="#DejaVuSans-30" transform="translate(0 0.78125)"/>
       <use xlink:href="#DejaVuSans-20" transform="translate(63.623047 0.78125)"/>
       <use xlink:href="#DejaVuSans-Oblique-56" transform="translate(95.410156 0.78125)"/>
      </g>
     </g>
    </g>
    <g id="xtick_6">
     <g id="line2d_11">
      <path d="M 778.59929 1134 
L 778.59929 155.52 
" clip-path="url(#p56ecdb433b)" style="fill: none; stroke: #b0b0b0; stroke-width: 0.8; stroke-linecap: square"/>
     </g>
     <g id="line2d_12">
      <g>
       <use xlink:href="#mcf18d93696" x="778.59929" y="1134" style="stroke: #000000; stroke-width: 0.8"/>
      </g>
     </g>
     <g id="text_6">
      <!-- 50 m$V$ -->
      <g transform="translate(762.34929 1148.598438)scale(0.1 -0.1)">
       <use xlink:href="#DejaVuSans-35" transform="translate(0 0.78125)"/>
       <use xlink:href="#DejaVuSans-30" transform="translate(63.623047 0.78125)"/>
       <use xlink:href="#DejaVuSans-20" transform="translate(127.246094 0.78125)"/>
       <use xlink:href="#DejaVuSans-6d" transform="translate(159.033203 0.78125)"/>
       <use xlink:href="#DejaVuSans-Oblique-56" transform="translate(256.445312 0.78125)"/>
      </g>
     </g>
    </g>
    <g id="xtick_7">
     <g id="line2d_13">
      <path d="M 892.838925 1134 
L 892.838925 155.52 
" clip-path="url(#p56ecdb433b)" style="fill: none; stroke: #b0b0b0; stroke-width: 0.8; stroke-linecap: square"/>
     </g>
     <g id="line2d_14">
      <g>
       <use xlink:href="#mcf18d93696" x="892.838925" y="1134" style="stroke: #000000; stroke-width: 0.8"/>
      </g>
     </g>
     <g id="text_7">
      <!-- 100 m$V$ -->
      <g transform="translate(873.388925 1148.598438)scale(0.1 -0.1)">
       <use xlink:href="#DejaVuSans-31" transform="translate(0 0.78125)"/>
       <use xlink:href="#DejaVuSans-30" transform="translate(63.623047 0.78125)"/>
       <use xlink:href="#DejaVuSans-30" transform="translate(127.246094 0.78125)"/>
       <use xlink:href="#DejaVuSans-20" transform="translate(190.869141 0.78125)"/>
       <use xlink:href="#DejaVuSans-6d" transform="translate(222.65625 0.78125)"/>
       <use xlink:href="#DejaVuSans-Oblique-56" transform="translate(320.068359 0.78125)"/>
      </g>
     </g>
    </g>
    <g id="xtick_8">
     <g id="line2d_15">
      <path d="M 1007.07856 1134 
L 1007.07856 155.52 
" clip-path="url(#p56ecdb433b)" style="fill: none; stroke: #b0b0b0; stroke-width: 0.8; stroke-linecap: square"/>
     </g>
     <g id="line2d_16">
      <g>
       <use xlink:href="#mcf18d93696" x="1007.07856" y="1134" style="stroke: #000000; stroke-width: 0.8"/>
      </g>
     </g>
     <g id="text_8">
      <!-- 150 m$V$ -->
      <g transform="translate(987.62856 1148.598438)scale(0.1 -0.1)">
       <use xlink:href="#DejaVuSans-31" transform="translate(0 0.78125)"/>
       <use xlink:href="#DejaVuSans-35" transform="translate(63.623047 0.78125)"/>
       <use xlink:href="#DejaVuSans-30" transform="translate(127.246094 0.78125)"/>
       <use xlink:href="#DejaVuSans-20" transform="translate(190.869141 0.78125)"/>
       <use xlink:href="#DejaVuSans-6d" transform="translate(222.65625 0.78125)"/>
       <use xlink:href="#DejaVuSans-Oblique-56" transform="translate(320.068359 0.78125)"/>
      </g>
     </g>
    </g>
    <g id="xtick_9">
     <g id="line2d_17">
      <path d="M 1121.318196 1134 
L 1121.318196 155.52 
" clip-path="url(#p56ecdb433b)" style="fill: none; stroke: #b0b0b0; stroke-width: 0.8; stroke-linecap: square"/>
     </g>
     <g id="line2d_18">
      <g>
       <use xlink:href="#mcf18d93696" x="1121.318196" y="1134" style="stroke: #000000; stroke-width: 0.8"/>
      </g>
     </g>
     <g id="text_9">
      <!-- 200 m$V$ -->
      <g transform="translate(1101.868196 1148.598438)scale(0.1 -0.1)">
       <use xlink:href="#DejaVuSans-32" transform="translate(0 0.78125)"/>
       <use xlink:href="#DejaVuSans-30" transform="translate(63.623047 0.78125)"/>
       <use xlink:href="#DejaVuSans-30" transform="translate(127.246094 0.78125)"/>
       <use xlink:href="#DejaVuSans-20" transform="translate(190.869141 0.78125)"/>
       <use xlink:href="#DejaVuSans-6d" transform="translate(222.65625 0.78125)"/>
       <use xlink:href="#DejaVuSans-Oblique-56" transform="translate(320.068359 0.78125)"/>
      </g>
     </g>
    </g>
    <g id="text_10">
     <!-- $Voltage$ -->
     <g transform="translate(645.05 1162.278125)scale(0.1 -0.1)">
      <defs>
       <path id="DejaVuSans-Oblique-6f" d="M 1625 -91 
Q 1009 -91 651 289 
Q 294 669 294 1325 
Q 294 1706 417 2101 
Q 541 2497 738 2766 
Q 1047 3184 1428 3384 
Q 1809 3584 2291 3584 
Q 2888 3584 3255 3212 
Q 3622 2841 3622 2241 
Q 3622 1825 3500 1412 
Q 3378 1000 3181 728 
Q 2875 309 2494 109 
Q 2113 -91 1625 -91 
z
M 891 1344 
Q 891 869 1089 633 
Q 1288 397 1691 397 
Q 2269 397 2648 901 
Q 3028 1406 3028 2181 
Q 3028 2634 2825 2865 
Q 2622 3097 2228 3097 
Q 1903 3097 1650 2945 
Q 1397 2794 1197 2484 
Q 1050 2253 970 1956 
Q 891 1659 891 1344 
z
" transform="scale(0.015625)"/>
       <path id="DejaVuSans-Oblique-6c" d="M 1172 4863 
L 1747 4863 
L 800 0 
L 225 0 
L 1172 4863 
z
" transform="scale(0.015625)"/>
       <path id="DejaVuSans-Oblique-74" d="M 2706 3500 
L 2619 3053 
L 1472 3053 
L 1100 1153 
Q 1081 1047 1072 975 
Q 1063 903 1063 863 
Q 1063 663 1183 572 
Q 1303 481 1569 481 
L 2150 481 
L 2053 0 
L 1503 0 
Q 991 0 739 200 
Q 488 400 488 806 
Q 488 878 497 964 
Q 506 1050 525 1153 
L 897 3053 
L 409 3053 
L 500 3500 
L 978 3500 
L 1172 4494 
L 1747 4494 
L 1556 3500 
L 2706 3500 
z
" transform="scale(0.015625)"/>
       <path id="DejaVuSans-Oblique-61" d="M 3438 1997 
L 3047 0 
L 2472 0 
L 2578 531 
Q 2325 219 2001 64 
Q 1678 -91 1281 -91 
Q 834 -91 548 182 
Q 263 456 263 884 
Q 263 1497 752 1853 
Q 1241 2209 2100 2209 
L 2900 2209 
L 2931 2363 
Q 2938 2388 2941 2417 
Q 2944 2447 2944 2509 
Q 2944 2788 2717 2942 
Q 2491 3097 2081 3097 
Q 1800 3097 1504 3025 
Q 1209 2953 897 2809 
L 997 3341 
Q 1322 3463 1633 3523 
Q 1944 3584 2234 3584 
Q 2853 3584 3176 3315 
Q 3500 3047 3500 2534 
Q 3500 2431 3484 2292 
Q 3469 2153 3438 1997 
z
M 2816 1759 
L 2241 1759 
Q 1534 1759 1195 1570 
Q 856 1381 856 984 
Q 856 709 1029 553 
Q 1203 397 1509 397 
Q 1978 397 2328 733 
Q 2678 1069 2791 1631 
L 2816 1759 
z
" transform="scale(0.015625)"/>
       <path id="DejaVuSans-Oblique-67" d="M 3816 3500 
L 3219 434 
Q 3047 -456 2561 -893 
Q 2075 -1331 1253 -1331 
Q 950 -1331 690 -1286 
Q 431 -1241 206 -1147 
L 313 -588 
Q 525 -725 762 -790 
Q 1000 -856 1269 -856 
Q 1816 -856 2167 -557 
Q 2519 -259 2631 300 
L 2681 563 
Q 2441 288 2122 144 
Q 1803 0 1434 0 
Q 903 0 598 351 
Q 294 703 294 1319 
Q 294 1803 478 2267 
Q 663 2731 997 3091 
Q 1219 3328 1514 3456 
Q 1809 3584 2131 3584 
Q 2484 3584 2746 3420 
Q 3009 3256 3138 2956 
L 3238 3500 
L 3816 3500 
z
M 2950 2216 
Q 2950 2641 2750 2872 
Q 2550 3103 2181 3103 
Q 1953 3103 1747 3012 
Q 1541 2922 1394 2759 
Q 1156 2491 1023 2127 
Q 891 1763 891 1375 
Q 891 944 1092 712 
Q 1294 481 1672 481 
Q 2219 481 2584 976 
Q 2950 1472 2950 2216 
z
" transform="scale(0.015625)"/>
       <path id="DejaVuSans-Oblique-65" d="M 3078 2063 
Q 3088 2113 3092 2166 
Q 3097 2219 3097 2272 
Q 3097 2653 2873 2875 
Q 2650 3097 2266 3097 
Q 1838 3097 1509 2826 
Q 1181 2556 1013 2059 
L 3078 2063 
z
M 3578 1613 
L 903 1613 
Q 884 1494 878 1425 
Q 872 1356 872 1306 
Q 872 872 1139 634 
Q 1406 397 1894 397 
Q 2269 397 2603 481 
Q 2938 566 3225 728 
L 3116 159 
Q 2806 34 2476 -28 
Q 2147 -91 1806 -91 
Q 1078 -91 686 257 
Q 294 606 294 1247 
Q 294 1794 489 2264 
Q 684 2734 1063 3103 
Q 1306 3334 1642 3459 
Q 1978 3584 2356 3584 
Q 2950 3584 3301 3228 
Q 3653 2872 3653 2272 
Q 3653 2128 3634 1964 
Q 3616 1800 3578 1613 
z
" transform="scale(0.015625)"/>
      </defs>
      <use xlink:href="#DejaVuSans-Oblique-56" transform="translate(0 0.015625)"/>
      <use xlink:href="#DejaVuSans-Oblique-6f" transform="translate(68.408203 0.015625)"/>
      <use xlink:href="#DejaVuSans-Oblique-6c" transform="translate(129.589844 0.015625)"/>
      <use xlink:href="#DejaVuSans-Oblique-74" transform="translate(157.373047 0.015625)"/>
      <use xlink:href="#DejaVuSans-Oblique-61" transform="translate(196.582031 0.015625)"/>
      <use xlink:href="#DejaVuSans-Oblique-67" transform="translate(257.861328 0.015625)"/>
      <use xlink:href="#DejaVuSans-Oblique-65" transform="translate(321.337891 0.015625)"/>
     </g>
    </g>
   </g>
   <g id="matplotlib.axis_2">
    <g id="ytick_1">
     <g id="line2d_19">
      <path d="M 162 1098.732611 
L 1166.4 1098.732611 
" clip-path="url(#p56ecdb433b)" style="fill: none; stroke: #b0b0b0; stroke-width: 0.8; stroke-linecap: square"/>
     </g>
     <g id="line2d_20">
      <defs>
       <path id="mbee05daf5a" d="M 0 0 
L -3.5 0 
" style="stroke: #000000; stroke-width: 0.8"/>
      </defs>
      <g>
       <use xlink:href="#mbee05daf5a" x="162" y="1098.732611" style="stroke: #000000; stroke-width: 0.8"/>
      </g>
     </g>
     <g id="text_11">
      <!-- −200 µ$A$ -->
      <g transform="translate(111.1 1102.521673)scale(0.1 -0.1)">
       <defs>
        <path id="DejaVuSans-b5" d="M 544 -1331 
L 544 3500 
L 1119 3500 
L 1119 1325 
Q 1119 872 1334 640 
Q 1550 409 1972 409 
Q 2434 409 2667 671 
Q 2900 934 2900 1459 
L 2900 3500 
L 3475 3500 
L 3475 806 
Q 3475 619 3529 530 
Q 3584 441 3700 441 
Q 3728 441 3778 458 
Q 3828 475 3916 513 
L 3916 50 
Q 3788 -22 3673 -56 
Q 3559 -91 3450 -91 
Q 3234 -91 3106 31 
Q 2978 153 2931 403 
Q 2775 156 2548 32 
Q 2322 -91 2016 -91 
Q 1697 -91 1473 31 
Q 1250 153 1119 397 
L 1119 -1331 
L 544 -1331 
z
" transform="scale(0.015625)"/>
        <path id="DejaVuSans-Oblique-41" d="M 2356 4666 
L 3072 4666 
L 3938 0 
L 3278 0 
L 3084 1197 
L 984 1197 
L 325 0 
L -341 0 
L 2356 4666 
z
M 2584 4044 
L 1275 1722 
L 2988 1722 
L 2584 4044 
z
" transform="scale(0.015625)"/>
       </defs>
       <use xlink:href="#DejaVuSans-2212" transform="translate(0 0.78125)"/>
       <use xlink:href="#DejaVuSans-32" transform="translate(83.789062 0.78125)"/>
       <use xlink:href="#DejaVuSans-30" transform="translate(147.412109 0.78125)"/>
       <use xlink:href="#DejaVuSans-30" transform="translate(211.035156 0.78125)"/>
       <use xlink:href="#DejaVuSans-20" transform="translate(274.658203 0.78125)"/>
       <use xlink:href="#DejaVuSans-b5" transform="translate(306.445312 0.78125)"/>
       <use xlink:href="#DejaVuSans-Oblique-41" transform="translate(370.068359 0.78125)"/>
      </g>
     </g>
    </g>
    <g id="ytick_2">
     <g id="line2d_21">
      <path d="M 162 983.409427 
L 1166.4 983.409427 
" clip-path="url(#p56ecdb433b)" style="fill: none; stroke: #b0b0b0; stroke-width: 0.8; stroke-linecap: square"/>
     </g>
     <g id="line2d_22">
      <g>
       <use xlink:href="#mbee05daf5a" x="162" y="983.409427" style="stroke: #000000; stroke-width: 0.8"/>
      </g>
     </g>
     <g id="text_12">
      <!-- −150 µ$A$ -->
      <g transform="translate(111.1 987.19849)scale(0.1 -0.1)">
       <use xlink:href="#DejaVuSans-2212" transform="translate(0 0.78125)"/>
       <use xlink:href="#DejaVuSans-31" transform="translate(83.789062 0.78125)"/>
       <use xlink:href="#DejaVuSans-35" transform="translate(147.412109 0.78125)"/>
       <use xlink:href="#DejaVuSans-30" transform="translate(211.035156 0.78125)"/>
       <use xlink:href="#DejaVuSans-20" transform="translate(274.658203 0.78125)"/>
       <use xlink:href="#DejaVuSans-b5" transform="translate(306.445312 0.78125)"/>
       <use xlink:href="#DejaVuSans-Oblique-41" transform="translate(370.068359 0.78125)"/>
      </g>
     </g>
    </g>
    <g id="ytick_3">
     <g id="line2d_23">
      <path d="M 162 868.086244 
L 1166.4 868.086244 
" clip-path="url(#p56ecdb433b)" style="fill: none; stroke: #b0b0b0; stroke-width: 0.8; stroke-linecap: square"/>
     </g>
     <g id="line2d_24">
      <g>
       <use xlink:href="#mbee05daf5a" x="162" y="868.086244" style="stroke: #000000; stroke-width: 0.8"/>
      </g>
     </g>
     <g id="text_13">
      <!-- −100 µ$A$ -->
      <g transform="translate(111.1 871.875307)scale(0.1 -0.1)">
       <use xlink:href="#DejaVuSans-2212" transform="translate(0 0.78125)"/>
       <use xlink:href="#DejaVuSans-31" transform="translate(83.789062 0.78125)"/>
       <use xlink:href="#DejaVuSans-30" transform="translate(147.412109 0.78125)"/>
       <use xlink:href="#DejaVuSans-30" transform="translate(211.035156 0.78125)"/>
       <use xlink:href="#DejaVuSans-20" transform="translate(274.658203 0.78125)"/>
       <use xlink:href="#DejaVuSans-b5" transform="translate(306.445312 0.78125)"/>
       <use xlink:href="#DejaVuSans-Oblique-41" transform="translate(370.068359 0.78125)"/>
      </g>
     </g>
    </g>
    <g id="ytick_4">
     <g id="line2d_25">
      <path d="M 162 752.763061 
L 1166.4 752.763061 
" clip-path="url(#p56ecdb433b)" style="fill: none; stroke: #b0b0b0; stroke-width: 0.8; stroke-linecap: square"/>
     </g>
     <g id="line2d_26">
      <g>
       <use xlink:href="#mbee05daf5a" x="162" y="752.763061" style="stroke: #000000; stroke-width: 0.8"/>
      </g>
     </g>
     <g id="text_14">
      <!-- −50 µ$A$ -->
      <g transform="translate(117.5 756.552123)scale(0.1 -0.1)">
       <use xlink:href="#DejaVuSans-2212" transform="translate(0 0.78125)"/>
       <use xlink:href="#DejaVuSans-35" transform="translate(83.789062 0.78125)"/>
       <use xlink:href="#DejaVuSans-30" transform="translate(147.412109 0.78125)"/>
       <use xlink:href="#DejaVuSans-20" transform="translate(211.035156 0.78125)"/>
       <use xlink:href="#DejaVuSans-b5" transform="translate(242.822266 0.78125)"/>
       <use xlink:href="#DejaVuSans-Oblique-41" transform="translate(306.445312 0.78125)"/>
      </g>
     </g>
    </g>
    <g id="ytick_5">
     <g id="line2d_27">
      <path d="M 162 637.439878 
L 1166.4 637.439878 
" clip-path="url(#p56ecdb433b)" style="fill: none; stroke: #b0b0b0; stroke-width: 0.8; stroke-linecap: square"/>
     </g>
     <g id="line2d_28">
      <g>
       <use xlink:href="#mbee05daf5a" x="162" y="637.439878" style="stroke: #000000; stroke-width: 0.8"/>
      </g>
     </g>
     <g id="text_15">
      <!-- 0 $A$ -->
      <g transform="translate(138.6 641.239096)scale(0.1 -0.1)">
       <use xlink:href="#DejaVuSans-30" transform="translate(0 0.78125)"/>
       <use xlink:href="#DejaVuSans-20" transform="translate(63.623047 0.78125)"/>
       <use xlink:href="#DejaVuSans-Oblique-41" transform="translate(95.410156 0.78125)"/>
      </g>
     </g>
    </g>
    <g id="ytick_6">
     <g id="line2d_29">
      <path d="M 162 522.116694 
L 1166.4 522.116694 
" clip-path="url(#p56ecdb433b)" style="fill: none; stroke: #b0b0b0; stroke-width: 0.8; stroke-linecap: square"/>
     </g>
     <g id="line2d_30">
      <g>
       <use xlink:href="#mbee05daf5a" x="162" y="522.116694" style="stroke: #000000; stroke-width: 0.8"/>
      </g>
     </g>
     <g id="text_16">
      <!-- 50 µ$A$ -->
      <g transform="translate(125.8 525.905757)scale(0.1 -0.1)">
       <use xlink:href="#DejaVuSans-35" transform="translate(0 0.78125)"/>
       <use xlink:href="#DejaVuSans-30" transform="translate(63.623047 0.78125)"/>
       <use xlink:href="#DejaVuSans-20" transform="translate(127.246094 0.78125)"/>
       <use xlink:href="#DejaVuSans-b5" transform="translate(159.033203 0.78125)"/>
       <use xlink:href="#DejaVuSans-Oblique-41" transform="translate(222.65625 0.78125)"/>
      </g>
     </g>
    </g>
    <g id="ytick_7">
     <g id="line2d_31">
      <path d="M 162 406.793511 
L 1166.4 406.793511 
" clip-path="url(#p56ecdb433b)" style="fill: none; stroke: #b0b0b0; stroke-width: 0.8; stroke-linecap: square"/>
     </g>
     <g id="line2d_32">
      <g>
       <use xlink:href="#mbee05daf5a" x="162" y="406.793511" style="stroke: #000000; stroke-width: 0.8"/>
      </g>
     </g>
     <g id="text_17">
      <!-- 100 µ$A$ -->
      <g transform="translate(119.5 410.582574)scale(0.1 -0.1)">
       <use xlink:href="#DejaVuSans-31" transform="translate(0 0.78125)"/>
       <use xlink:href="#DejaVuSans-30" transform="translate(63.623047 0.78125)"/>
       <use xlink:href="#DejaVuSans-30" transform="translate(127.246094 0.78125)"/>
       <use xlink:href="#DejaVuSans-20" transform="translate(190.869141 0.78125)"/>
       <use xlink:href="#DejaVuSans-b5" transform="translate(222.65625 0.78125)"/>
       <use xlink:href="#DejaVuSans-Oblique-41" transform="translate(286.279297 0.78125)"/>
      </g>
     </g>
    </g>
    <g id="ytick_8">
     <g id="line2d_33">
      <path d="M 162 291.470328 
L 1166.4 291.470328 
" clip-path="url(#p56ecdb433b)" style="fill: none; stroke: #b0b0b0; stroke-width: 0.8; stroke-linecap: square"/>
     </g>
     <g id="line2d_34">
      <g>
       <use xlink:href="#mbee05daf5a" x="162" y="291.470328" style="stroke: #000000; stroke-width: 0.8"/>
      </g>
     </g>
     <g id="text_18">
      <!-- 150 µ$A$ -->
      <g transform="translate(119.5 295.25939)scale(0.1 -0.1)">
       <use xlink:href="#DejaVuSans-31" transform="translate(0 0.78125)"/>
       <use xlink:href="#DejaVuSans-35" transform="translate(63.623047 0.78125)"/>
       <use xlink:href="#DejaVuSans-30" transform="translate(127.246094 0.78125)"/>
       <use xlink:href="#DejaVuSans-20" transform="translate(190.869141 0.78125)"/>
       <use xlink:href="#DejaVuSans-b5" transform="translate(222.65625 0.78125)"/>
       <use xlink:href="#DejaVuSans-Oblique-41" transform="translate(286.279297 0.78125)"/>
      </g>
     </g>
    </g>
    <g id="ytick_9">
     <g id="line2d_35">
      <path d="M 162 176.147144 
L 1166.4 176.147144 
" clip-path="url(#p56ecdb433b)" style="fill: none; stroke: #b0b0b0; stroke-width: 0.8; stroke-linecap: square"/>
     </g>
     <g id="line2d_36">
      <g>
       <use xlink:href="#mbee05daf5a" x="162" y="176.147144" style="stroke: #000000; stroke-width: 0.8"/>
      </g>
     </g>
     <g id="text_19">
      <!-- 200 µ$A$ -->
      <g transform="translate(119.5 179.936207)scale(0.1 -0.1)">
       <use xlink:href="#DejaVuSans-32" transform="translate(0 0.78125)"/>
       <use xlink:href="#DejaVuSans-30" transform="translate(63.623047 0.78125)"/>
       <use xlink:href="#DejaVuSans-30" transform="translate(127.246094 0.78125)"/>
       <use xlink:href="#DejaVuSans-20" transform="translate(190.869141 0.78125)"/>
       <use xlink:href="#DejaVuSans-b5" transform="translate(222.65625 0.78125)"/>
       <use xlink:href="#DejaVuSans-Oblique-41" transform="translate(286.279297 0.78125)"/>
      </g>
     </g>
    </g>
    <g id="text_20">
     <!-- $Current$ -->
     <g transform="translate(105.020312 663.76)rotate(-90)scale(0.1 -0.1)">
      <defs>
       <path id="DejaVuSans-Oblique-43" d="M 4447 4306 
L 4319 3641 
Q 4019 3944 3683 4091 
Q 3347 4238 2956 4238 
Q 2422 4238 2017 3981 
Q 1613 3725 1319 3200 
Q 1131 2863 1032 2486 
Q 934 2109 934 1728 
Q 934 1091 1264 756 
Q 1594 422 2222 422 
Q 2656 422 3056 561 
Q 3456 700 3834 978 
L 3688 231 
Q 3316 72 2936 -9 
Q 2556 -91 2175 -91 
Q 1278 -91 773 396 
Q 269 884 269 1753 
Q 269 2309 461 2846 
Q 653 3384 1013 3828 
Q 1394 4300 1883 4525 
Q 2372 4750 3022 4750 
Q 3422 4750 3780 4639 
Q 4138 4528 4447 4306 
z
" transform="scale(0.015625)"/>
       <path id="DejaVuSans-Oblique-75" d="M 428 1388 
L 838 3500 
L 1416 3500 
L 1006 1409 
Q 975 1256 961 1147 
Q 947 1038 947 966 
Q 947 700 1109 554 
Q 1272 409 1569 409 
Q 2031 409 2368 721 
Q 2706 1034 2809 1563 
L 3194 3500 
L 3769 3500 
L 3091 0 
L 2516 0 
L 2631 550 
Q 2388 244 2052 76 
Q 1716 -91 1338 -91 
Q 878 -91 622 161 
Q 366 413 366 863 
Q 366 956 381 1097 
Q 397 1238 428 1388 
z
" transform="scale(0.015625)"/>
       <path id="DejaVuSans-Oblique-72" d="M 2853 2969 
Q 2766 3016 2653 3041 
Q 2541 3066 2413 3066 
Q 1953 3066 1609 2717 
Q 1266 2369 1153 1784 
L 800 0 
L 225 0 
L 909 3500 
L 1484 3500 
L 1375 2956 
Q 1603 3259 1920 3421 
Q 2238 3584 2597 3584 
Q 2691 3584 2781 3573 
Q 2872 3563 2963 3538 
L 2853 2969 
z
" transform="scale(0.015625)"/>
       <path id="DejaVuSans-Oblique-6e" d="M 3566 2113 
L 3156 0 
L 2578 0 
L 2988 2091 
Q 3016 2238 3031 2350 
Q 3047 2463 3047 2528 
Q 3047 2791 2881 2937 
Q 2716 3084 2419 3084 
Q 1956 3084 1622 2776 
Q 1288 2469 1184 1941 
L 800 0 
L 225 0 
L 903 3500 
L 1478 3500 
L 1363 2950 
Q 1603 3253 1940 3418 
Q 2278 3584 2650 3584 
Q 3113 3584 3367 3334 
Q 3622 3084 3622 2631 
Q 3622 2519 3608 2391 
Q 3594 2263 3566 2113 
z
" transform="scale(0.015625)"/>
      </defs>
      <use xlink:href="#DejaVuSans-Oblique-43" transform="translate(0 0.78125)"/>
      <use xlink:href="#DejaVuSans-Oblique-75" transform="translate(69.824219 0.78125)"/>
      <use xlink:href="#DejaVuSans-Oblique-72" transform="translate(133.203125 0.78125)"/>
      <use xlink:href="#DejaVuSans-Oblique-72" transform="translate(174.316406 0.78125)"/>
      <use xlink:href="#DejaVuSans-Oblique-65" transform="translate(215.429688 0.78125)"/>
      <use xlink:href="#DejaVuSans-Oblique-6e" transform="translate(276.953125 0.78125)"/>
      <use xlink:href="#DejaVuSans-Oblique-74" transform="translate(340.332031 0.78125)"/>
     </g>
    </g>
   </g>
   <g id="line2d_37">
    <path d="M 664.359655 637.465447 
L 664.359655 637.268716 
L 664.359655 637.510701 
L 664.359655 637.360161 
L 667.370296 627.735909 
L 671.4301 619.690977 
L 675.991677 614.959863 
L 685.114831 606.572642 
L 694.283602 598.836947 
L 698.845179 594.98796 
L 712.52991 584.777197 
L 721.698681 578.36816 
L 726.260258 575.249788 
L 730.821835 572.433605 
L 735.383412 569.482851 
L 753.675337 559.148133 
L 758.236914 556.716712 
L 762.798491 554.417485 
L 776.483223 547.966195 
L 781.592189 545.655144 
L 794.775147 540.198006 
L 803.898302 536.678522 
L 822.235842 530.393631 
L 831.358997 527.457041 
L 849.650921 522.211781 
L 854.212498 520.99135 
L 863.335653 518.794576 
L 872.504423 516.433026 
L 881.627577 514.587035 
L 886.189155 513.486503 
L 890.750732 512.523868 
L 918.165811 507.40654 
L 941.019313 503.834489 
L 950.142467 502.550321 
L 954.74966 501.901155 
L 959.311237 501.378402 
L 968.434392 500.074049 
L 982.164739 498.516051 
L 991.287893 497.487808 
L 1018.702972 494.703678 
L 1023.26455 494.43693 
L 1036.994897 493.145712 
L 1041.556474 492.890735 
L 1055.241206 491.764727 
L 1068.971553 490.79688 
L 1073.53313 490.409741 
L 1078.140323 490.230335 
L 1082.701901 489.815945 
L 1087.263478 489.614218 
L 1091.825055 489.231287 
L 1096.386632 489.040592 
L 1105.509787 488.518898 
L 1119.240134 487.728097 
L 1118.327819 509.777199 
L 1114.268015 529.01422 
L 1109.706438 539.536245 
L 1105.144861 548.470318 
L 1100.583283 556.756842 
L 1091.414513 572.225872 
L 1082.291359 586.39421 
L 1077.729782 593.095786 
L 1068.561011 605.810167 
L 1059.437857 617.476266 
L 1050.269087 628.446597 
L 1041.145932 638.547006 
L 1032.022778 648.054053 
L 1027.461201 652.50525 
L 1022.854008 656.832235 
L 1013.730853 665.021037 
L 1009.169276 668.99406 
L 1000.000506 676.360088 
L 995.484545 679.895324 
L 986.315774 686.583703 
L 977.19262 692.895163 
L 968.02385 698.730573 
L 958.900695 704.20245 
L 954.339118 706.792031 
L 940.608771 714.080079 
L 926.924039 720.675314 
L 922.362462 722.600988 
L 917.800885 724.651469 
L 904.070537 730.223374 
L 899.50896 732.011988 
L 885.778613 736.781948 
L 872.093881 741.164768 
L 867.532304 742.562498 
L 862.970727 743.773234 
L 858.409149 745.202698 
L 853.801957 746.321148 
L 844.678802 748.684666 
L 830.948455 751.886626 
L 821.8253 753.904941 
L 808.094953 756.600749 
L 798.971799 758.354677 
L 775.616523 762.190332 
L 757.871988 764.619653 
L 739.580063 766.822159 
L 730.456909 767.799449 
L 712.164984 769.621834 
L 689.311483 771.352156 
L 671.019558 772.631506 
L 652.773249 773.514468 
L 607.066246 776.651709 
L 584.212744 778.297049 
L 556.797665 780.159565 
L 547.127121 780.595564 
L 543.067317 780.966457 
L 506.529084 783.037741 
L 488.282775 783.949853 
L 483.721198 784.281177 
L 474.552428 784.557368 
L 460.82208 785.322203 
L 456.260503 785.44884 
L 447.137349 785.855699 
L 387.745614 788.350856 
L 383.184036 788.355577 
L 374.015266 788.754519 
L 369.453689 788.857435 
L 364.892112 789.118052 
L 351.20738 789.607758 
L 342.03861 789.940714 
L 337.477033 790.007999 
L 314.623531 790.898525 
L 291.770029 791.678181 
L 287.208452 791.739863 
L 278.085297 792.134389 
L 268.916527 792.334028 
L 264.35495 792.548008 
L 259.793373 792.647747 
L 250.670218 793.039013 
L 227.816717 793.767362 
L 218.647947 794.046991 
L 209.524792 794.457736 
L 210.482723 771.649901 
L 214.496911 752.181701 
L 219.058488 741.017158 
L 223.620066 731.757766 
L 228.227259 723.106157 
L 232.788836 714.978602 
L 237.350413 707.117795 
L 246.473567 692.5694 
L 255.642338 679.062352 
L 264.765492 666.678309 
L 269.327069 660.75493 
L 278.495839 649.667806 
L 287.618994 639.215249 
L 292.180571 634.361657 
L 301.303725 625.05144 
L 305.865303 620.58754 
L 314.988457 612.252474 
L 324.659001 604.05429 
L 333.280382 597.163279 
L 347.010729 587.085866 
L 356.133883 580.943578 
L 360.741076 577.933809 
L 369.864231 572.378781 
L 378.987385 567.209591 
L 383.594578 564.673645 
L 397.27931 557.889931 
L 401.840887 555.616189 
L 415.571234 549.627822 
L 420.132812 547.718094 
L 424.694389 545.959445 
L 429.255966 544.046602 
L 433.817543 542.354805 
L 452.109468 536.089765 
L 465.794199 531.805271 
L 488.647701 525.690977 
L 506.939626 521.370877 
L 534.354705 515.958545 
L 538.916282 515.252725 
L 543.523475 514.358056 
L 548.085052 513.734857 
L 553.194019 512.787587 
L 584.623286 508.459338 
L 593.74644 507.369024 
L 607.431172 505.962168 
L 612.038365 505.371289 
L 630.330289 503.695214 
L 657.745368 501.580113 
L 667.370296 501.189098 
L 676.037293 500.605987 
L 685.160447 499.921509 
L 689.722024 499.800219 
L 726.260258 497.577308 
L 735.383412 497.098977 
L 749.11376 496.195579 
L 753.675337 496.097764 
L 762.798491 495.459989 
L 767.405684 495.30091 
L 771.967261 494.977508 
L 776.528839 494.817525 
L 781.592189 494.385671 
L 785.697609 494.265055 
L 794.820763 493.851516 
L 822.235842 492.487313 
L 826.797419 492.328911 
L 831.358997 492.038557 
L 845.089344 491.521585 
L 849.650921 491.260955 
L 854.212498 491.172216 
L 863.335653 490.735504 
L 872.458807 490.416411 
L 881.627577 490.041487 
L 904.481079 489.15962 
L 1000.411048 486.05679 
L 1010.081592 485.947043 
L 1014.141395 485.768796 
L 1023.26455 485.516212 
L 1032.387704 485.189942 
L 1059.848399 484.623904 
L 1068.971553 484.324107 
L 1096.386632 483.726939 
L 1105.555402 483.424718 
L 1119.240134 483.18506 
L 1118.373434 505.249277 
L 1114.268015 524.643202 
L 1109.706438 535.433582 
L 1105.144861 544.369334 
L 1100.537668 552.894896 
L 1095.97609 560.876442 
L 1091.414513 568.529168 
L 1082.291359 582.907805 
L 1077.729782 589.746265 
L 1068.606627 602.601443 
L 1059.437857 614.537315 
L 1050.269087 625.634509 
L 1045.70751 630.919899 
L 1041.145932 635.999627 
L 1027.415585 650.139926 
L 1013.730853 662.827379 
L 1009.169276 666.930893 
L 1000.000506 674.444304 
L 990.877352 681.545963 
L 981.754197 687.943664 
L 972.631043 694.131485 
L 963.507888 699.83863 
L 954.339118 705.269443 
L 940.608771 712.658129 
L 931.485616 717.235338 
L 922.316846 721.456096 
L 908.632115 727.300948 
L 894.947383 732.532477 
L 881.217036 737.338231 
L 867.532304 741.757279 
L 849.240379 746.757273 
L 844.678802 747.824028 
L 835.555648 750.118534 
L 817.263723 754.316779 
L 808.094953 756.187644 
L 803.533376 756.905267 
L 794.410221 758.713778 
L 785.287067 760.249101 
L 775.662139 761.703024 
L 762.433565 763.68813 
L 735.018486 767.124316 
L 725.895332 768.113346 
L 712.164984 769.477837 
L 703.04183 770.265835 
L 693.87306 771.102914 
L 675.626751 772.397903 
L 671.019558 772.782681 
L 661.349014 773.288997 
L 634.481325 775.24715 
L 629.919747 775.44072 
L 611.627823 776.779182 
L 597.943091 777.775356 
L 593.381514 778.158296 
L 588.774321 778.346622 
L 575.089589 779.246265 
L 556.797665 780.343692 
L 543.067317 781.244527 
L 497.40593 783.542308 
L 432.950844 786.180704 
L 428.845424 786.178475 
L 424.283847 786.509586 
L 410.599115 786.941576 
L 405.991922 787.217767 
L 323.792301 789.673412 
L 314.623531 789.93246 
L 300.938799 790.317238 
L 291.770029 790.525389 
L 287.208452 790.574544 
L 273.478105 791.083904 
L 264.35495 791.195383 
L 236.939871 792.026315 
L 232.378294 792.271817 
L 227.816717 792.311266 
L 209.524792 793.031931 
L 210.437108 770.921153 
L 214.496911 751.376735 
L 219.058488 740.520212 
L 223.620066 731.259679 
L 232.788836 714.595815 
L 241.91199 699.469442 
L 246.473567 692.37583 
L 251.035145 685.622146 
L 255.596722 679.078555 
L 260.203915 672.695485 
L 264.765492 666.595688 
L 269.327069 660.731951 
L 278.450224 649.618233 
L 283.057417 644.330483 
L 292.180571 634.345133 
L 296.742148 629.605043 
L 305.865303 620.740504 
L 315.034073 612.278266 
L 324.613385 604.050169 
L 333.280382 597.079533 
L 342.449152 590.347728 
L 351.572306 583.939183 
L 365.302654 575.171904 
L 374.425808 569.806254 
L 383.548962 564.771088 
L 392.717733 560.056965 
L 406.44808 553.532655 
L 411.009657 551.644788 
L 415.571234 549.604216 
L 429.301582 544.033193 
L 433.863159 542.492266 
L 447.547891 537.508566 
L 456.671045 534.617478 
L 470.401392 530.474287 
L 484.086124 526.898528 
L 493.209278 524.640525 
L 506.939626 521.320345 
L 511.546819 520.450772 
L 516.108396 519.426768 
L 525.23155 517.644015 
L 529.793128 516.853213 
L 534.354705 515.934939 
L 553.148403 512.811233 
L 561.8154 511.442712 
L 570.938554 510.108971 
L 598.353633 506.766421 
L 602.91521 506.296598 
L 607.476787 505.711279 
L 612.038365 505.315015 
L 621.207135 504.323134 
L 630.330289 503.480399 
L 644.060637 502.41225 
L 648.622214 502.147244 
L 653.183791 501.639129 
L 657.745368 501.407789 
L 662.306945 501.046617 
L 664.496503 510.587668 
L 664.496503 637.553192 
L 664.496503 637.432801 
" clip-path="url(#p56ecdb433b)" style="fill: none; stroke: #1f77b4; stroke-width: 1.5; stroke-linecap: square"/>
   </g>
   <g id="line2d_38">
    <path d="M 664.359655 637.347944 
L 664.359655 637.693458 
L 664.359655 637.240244 
L 664.359655 637.57734 
L 668.145764 625.774834 
L 671.612563 613.570269 
L 676.17414 604.476899 
L 680.735717 598.788003 
L 689.904488 589.494783 
L 694.420449 585.086049 
L 708.150796 572.270881 
L 712.712374 568.315495 
L 721.881144 560.046013 
L 735.611491 548.3851 
L 753.903416 533.851914 
L 762.980954 526.957695 
L 767.542532 523.619978 
L 772.149725 520.435563 
L 781.272879 513.972806 
L 785.834456 511.054141 
L 795.003226 504.725404 
L 813.249535 493.247766 
L 817.856728 490.652411 
L 826.979883 485.225543 
L 840.664614 477.634972 
L 849.787769 472.657893 
L 858.956539 468.211263 
L 863.518116 465.730741 
L 872.686886 461.235524 
L 890.933195 452.612118 
L 896.543935 450.289152 
L 900.101965 448.530131 
L 923.001083 438.957414 
L 927.517044 437.268796 
L 932.078621 435.37848 
L 941.247392 431.935093 
L 945.808969 430.31549 
L 950.416162 428.505452 
L 977.785625 418.975309 
L 982.347202 417.59931 
L 986.908779 416.085377 
L 996.031934 413.232195 
L 1005.24632 410.443064 
L 1032.615783 402.675422 
L 1064.638055 394.436132 
L 1078.322787 391.24914 
L 1087.445941 389.181562 
L 1119.422597 382.274361 
L 1117.689198 406.20114 
L 1114.039936 436.669046 
L 1109.478359 457.864111 
L 1104.916782 470.225958 
L 1100.355204 479.83428 
L 1095.748011 488.602779 
L 1091.23205 496.712821 
L 1086.624857 504.755282 
L 1077.501703 519.981956 
L 1072.940125 526.999123 
L 1068.378548 534.393436 
L 1063.816971 541.139984 
L 1059.255394 548.15276 
L 1050.086624 561.527778 
L 1036.356276 580.360973 
L 1031.794699 586.420334 
L 1018.109967 604.057656 
L 1008.986813 615.126073 
L 999.818043 626.05627 
L 995.256466 631.42491 
L 981.571734 646.605002 
L 976.964541 651.386015 
L 972.402964 656.323585 
L 967.841387 660.859075 
L 963.279809 665.61651 
L 944.987885 683.253832 
L 940.471923 687.582955 
L 935.86473 691.557173 
L 931.303153 695.762001 
L 922.134383 703.71694 
L 908.404036 715.116304 
L 903.888074 718.613814 
L 899.280881 722.324955 
L 885.59615 732.794385 
L 876.472995 739.398418 
L 871.865802 742.757231 
L 867.304225 745.830248 
L 862.742648 749.109927 
L 849.057916 757.972259 
L 830.765992 769.295258 
L 817.08126 777.309845 
L 812.519683 779.747698 
L 807.91249 782.433927 
L 789.620565 791.884364 
L 785.058988 794.08539 
L 780.497411 796.500237 
L 775.890218 798.621367 
L 771.328641 800.944672 
L 762.205486 805.200103 
L 757.598293 806.982936 
L 753.082332 809.230545 
L 748.475139 810.956104 
L 743.913562 813.021201 
L 739.351984 814.9602 
L 730.22883 818.459715 
L 725.712869 820.337527 
L 698.252174 830.371868 
L 684.521826 835.037284 
L 679.960249 836.43476 
L 675.398672 838.035081 
L 670.837095 839.478377 
L 666.229902 840.778584 
L 660.664778 842.170238 
L 652.54517 844.776189 
L 647.937977 846.32714 
L 643.422016 847.445141 
L 629.691668 851.637571 
L 625.130091 852.872582 
L 615.961321 855.663908 
L 606.838167 858.229767 
L 602.276589 859.603169 
L 597.715012 860.772717 
L 593.107819 862.224031 
L 588.591858 863.29543 
L 579.423088 865.944526 
L 547.446431 874.248154 
L 538.368893 876.230872 
L 529.154507 878.550455 
L 510.862582 882.599701 
L 506.301005 883.698591 
L 497.177851 885.551235 
L 492.661889 886.620311 
L 488.054696 887.390259 
L 474.369965 890.109516 
L 460.639617 892.619152 
L 456.07804 893.40151 
L 451.516463 894.37182 
L 446.954886 895.062445 
L 437.831731 896.774927 
L 428.617345 898.160949 
L 424.055768 899.064125 
L 414.932614 900.311097 
L 410.371036 901.225089 
L 369.271226 907.281013 
L 323.564222 913.034913 
L 314.441068 914.094476 
L 305.272298 915.217039 
L 300.665105 915.671696 
L 296.103527 916.32242 
L 287.025989 917.019773 
L 277.857219 918.046357 
L 268.734064 918.979917 
L 250.44214 920.950131 
L 245.834947 921.471225 
L 241.318985 921.763416 
L 208.201935 925.223062 
L 210.117797 909.741679 
L 214.72499 869.728955 
L 219.240952 847.937694 
L 223.848145 834.955764 
L 228.409722 824.626081 
L 232.971299 815.41438 
L 237.532876 806.603308 
L 242.094453 798.173404 
L 251.217608 782.06728 
L 260.386378 766.648261 
L 274.116725 744.550659 
L 278.632687 738.023278 
L 283.194264 731.00678 
L 287.755841 724.238085 
L 301.486189 704.879786 
L 306.047766 698.630209 
L 315.17092 686.584485 
L 319.778113 680.458878 
L 328.901268 669.081088 
L 338.024422 657.93621 
L 351.754769 642.044684 
L 356.361962 636.805196 
L 360.92354 631.998887 
L 365.485117 626.923278 
L 374.608271 617.246343 
L 379.124233 612.588851 
L 388.293003 603.635595 
L 397.461773 594.700384 
L 411.146505 582.147911 
L 424.876852 570.097537 
L 435.003553 562.006515 
L 438.652815 558.855498 
L 443.168777 555.163435 
L 447.730354 551.628983 
L 452.291931 548.269216 
L 461.415085 541.310946 
L 470.583856 534.591412 
L 475.145433 531.394684 
L 479.70701 528.448146 
L 484.268587 525.082747 
L 488.830164 522.148045 
L 493.391742 519.043167 
L 511.683666 507.521121 
L 525.414014 499.376046 
L 543.660322 489.30734 
L 552.829093 484.507809 
L 557.39067 482.073679 
L 561.952247 479.909308 
L 571.121017 475.30928 
L 580.244172 471.03533 
L 593.974519 464.874405 
L 598.536096 463.06912 
L 603.052058 460.991252 
L 625.951175 451.965594 
L 630.467137 450.384174 
L 635.07433 448.512662 
L 639.635907 447.016197 
L 644.197484 445.234414 
L 648.759061 443.877697 
L 663.44734 438.925389 
L 667.050986 438.038889 
L 676.17414 435.137644 
L 717.273951 423.179195 
L 721.881144 421.99363 
L 726.442721 420.534012 
L 731.049914 419.284587 
L 740.173068 416.478179 
L 744.734646 415.326978 
L 758.464993 411.529736 
L 772.149725 407.938679 
L 776.711302 406.637111 
L 790.441649 403.26515 
L 799.519188 401.111661 
L 804.126381 399.943279 
L 831.587076 393.737393 
L 836.148653 392.823211 
L 845.271807 390.709527 
L 849.833384 389.800117 
L 854.440577 389.020909 
L 868.125309 386.214787 
L 872.686886 385.45152 
L 881.855656 383.6348 
L 886.371618 382.80796 
L 892.073589 381.628073 
L 895.540388 381.206685 
L 900.147581 380.298325 
L 904.663542 379.663637 
L 913.786697 378.036111 
L 918.39389 377.303009 
L 922.955467 376.431972 
L 927.517044 375.88835 
L 932.078621 375.220825 
L 941.201776 373.677778 
L 954.977739 371.482575 
L 959.4937 370.941053 
L 964.055278 370.120035 
L 991.470357 366.515709 
L 996.07755 365.813916 
L 1005.200704 364.817355 
L 1009.762281 364.085126 
L 1014.323858 363.637518 
L 1018.931051 362.981258 
L 1023.492629 362.602774 
L 1028.054206 362.084543 
L 1032.615783 361.426756 
L 1041.738937 360.535673 
L 1064.592439 358.133521 
L 1069.199632 357.490338 
L 1073.715594 357.234325 
L 1082.884364 356.186217 
L 1087.491557 355.795898 
L 1092.007518 355.201111 
L 1105.737866 353.973355 
L 1110.299443 353.707008 
L 1114.86102 353.219152 
L 1120.426144 352.751621 
L 1114.085552 407.747099 
L 1109.523975 429.530269 
L 1104.916782 442.232657 
L 1100.309589 452.571168 
L 1095.793627 461.483805 
L 1091.186434 470.24925 
L 1086.624857 478.511259 
L 1077.501703 494.518764 
L 1068.378548 509.698856 
L 1063.816971 517.268522 
L 1054.648201 531.557722 
L 1045.479431 545.410212 
L 1036.401892 558.628013 
L 1022.671545 577.627875 
L 1004.37962 601.425741 
L 999.863659 607.056408 
L 981.571734 628.810464 
L 977.010157 633.986951 
L 967.795771 643.926505 
L 963.279809 648.94043 
L 949.549462 663.035473 
L 944.987885 667.668911 
L 931.257537 681.012046 
L 922.134383 689.338679 
L 913.011229 697.444044 
L 899.326497 709.211964 
L 893.761373 713.558699 
L 890.157727 716.537072 
L 871.911418 730.669915 
L 862.742648 737.47011 
L 858.181071 740.79494 
L 844.450723 750.117275 
L 835.327569 755.998323 
L 830.765992 759.060459 
L 812.519683 770.286092 
L 803.350913 775.510594 
L 780.497411 788.023739 
L 771.328641 792.519719 
L 766.767063 795.028305 
L 762.15987 797.218067 
L 757.643909 799.162889 
L 748.475139 803.510531 
L 739.3976 807.571041 
L 721.105676 815.251904 
L 716.498483 817.196163 
L 711.982521 818.9663 
L 707.375328 820.595258 
L 698.206558 824.214952 
L 679.914633 830.716751 
L 675.398672 832.440306 
L 652.54517 839.69554 
L 634.298861 845.526474 
L 629.691668 846.921659 
L 625.130091 848.481793 
L 620.568514 849.786487 
L 611.399744 852.668497 
L 606.883782 853.850815 
L 602.276589 855.434813 
L 597.715012 856.660469 
L 593.107819 858.334387 
L 588.591858 859.529879 
L 579.423088 862.193103 
L 574.86151 863.289607 
L 561.176779 867.06709 
L 556.615202 868.39622 
L 552.053624 869.398127 
L 542.884854 871.849439 
L 524.59293 876.282418 
L 515.469775 878.378634 
L 506.301005 880.711485 
L 492.616273 883.441624 
L 488.054696 884.541277 
L 474.324349 887.139878 
L 469.762772 888.006333 
L 465.201194 889.096345 
L 433.178922 895.070559 
L 428.662961 895.612081 
L 424.055768 896.601961 
L 410.371036 898.959639 
L 401.247882 900.257164 
L 396.640689 901.114646 
L 387.517535 902.448072 
L 382.955957 903.057845 
L 378.39438 903.822258 
L 350.933685 907.653673 
L 346.417724 908.10938 
L 341.810531 908.911402 
L 337.29457 909.380855 
L 328.125799 910.617966 
L 323.518606 911.127701 
L 318.957029 911.792075 
L 314.395452 912.195473 
L 309.833875 912.828728 
L 273.295641 916.801324 
L 268.734064 917.272972 
L 264.126871 917.622532 
L 259.519678 918.28032 
L 254.958101 918.664626 
L 236.757408 920.597802 
L 232.195831 921.007404 
L 227.588638 921.293772 
L 223.027061 921.849709 
L 218.465483 922.280597 
L 213.903906 922.926071 
L 208.384398 923.485921 
L 214.679374 868.431157 
L 219.240952 846.775039 
L 223.848145 833.556283 
L 228.364106 823.45894 
L 232.971299 814.27893 
L 237.48726 805.566655 
L 246.656031 789.089028 
L 251.263224 780.989867 
L 260.386378 765.583926 
L 274.07111 743.84858 
L 292.363034 716.706602 
L 306.093382 697.694426 
L 319.732497 679.888242 
L 324.33969 673.948965 
L 342.677231 651.746552 
L 347.193192 646.523483 
L 365.439501 626.166904 
L 374.608271 616.687352 
L 379.169848 612.165026 
L 383.777041 607.417423 
L 392.900196 598.613319 
L 397.461773 594.095192 
L 415.708082 577.560292 
L 420.315275 573.586838 
L 424.831236 569.519073 
L 429.484045 565.790559 
L 435.140401 561.019966 
L 447.730354 551.005942 
L 465.976663 537.357251 
L 479.70701 527.726683 
L 497.953319 515.662175 
L 511.729282 506.999167 
L 520.852436 501.587667 
L 529.975591 496.351998 
L 539.098745 491.380264 
L 543.660322 488.809059 
L 548.267515 486.506659 
L 552.829093 484.083984 
L 557.436286 481.830839 
L 566.55944 477.195874 
L 580.244172 470.676225 
L 603.097673 460.624128 
L 612.220828 456.699547 
L 621.343982 453.333957 
L 630.512752 449.840074 
L 635.07433 448.064305 
L 653.320638 441.758764 
L 663.538571 438.505881 
L 664.587734 443.679721 
L 664.587734 637.709069 
L 664.587734 637.531823 
" clip-path="url(#p56ecdb433b)" style="fill: none; stroke: #ff7f0e; stroke-width: 1.5; stroke-linecap: square"/>
   </g>
   <g id="line2d_39">
    <path d="M 664.359655 637.685386 
L 664.359655 638.138622 
L 664.359655 637.011112 
L 664.359655 637.439883 
L 667.00537 634.688601 
L 671.795026 614.730885 
L 676.812761 595.236083 
L 681.830496 581.723813 
L 686.848231 572.647776 
L 691.865966 565.819196 
L 696.929316 559.647007 
L 701.901436 553.940643 
L 706.919171 548.858909 
L 711.982521 543.426294 
L 727.081342 528.293767 
L 732.144692 522.864252 
L 737.116812 517.889068 
L 757.233367 498.548155 
L 767.268837 488.957971 
L 772.286572 484.432808 
L 777.349923 479.691368 
L 792.403127 466.232336 
L 797.420862 461.818335 
L 802.484213 457.731018 
L 807.501948 453.172582 
L 812.610914 448.847058 
L 817.537418 444.937451 
L 827.618503 436.585863 
L 832.636238 432.393432 
L 837.608357 428.675902 
L 852.707178 416.876751 
L 857.724913 413.178126 
L 867.851614 405.392184 
L 872.823733 401.837995 
L 877.887084 398.05543 
L 882.950435 394.412009 
L 887.96817 390.984863 
L 892.940289 387.274895 
L 898.00364 384.014116 
L 913.011229 373.650252 
L 918.120195 369.989437 
L 928.110049 363.232698 
L 948.226605 350.957134 
L 953.24434 347.496715 
L 958.30769 344.269209 
L 973.406511 335.302066 
L 978.424246 332.107834 
L 983.396365 329.36279 
L 988.4141 326.183681 
L 998.586417 320.62856 
L 1008.530655 314.80574 
L 1013.594006 312.060696 
L 1018.611741 309.199196 
L 1023.58386 306.650767 
L 1028.692827 303.675835 
L 1033.756177 301.23025 
L 1043.746031 295.804441 
L 1048.854998 293.111575 
L 1053.827117 290.690946 
L 1063.908203 285.408816 
L 1068.925937 282.929959 
L 1078.870176 278.208937 
L 1083.979142 275.476749 
L 1088.996877 273.484513 
L 1099.032347 268.45836 
L 1104.095698 266.25257 
L 1117.187424 259.771771 
L 1120.426144 259.073033 
L 1118.327819 266.703992 
L 1113.401315 312.194621 
L 1108.474812 355.165445 
L 1103.365845 385.345046 
L 1098.34811 405.109361 
L 1093.330376 418.83458 
L 1088.312641 430.136901 
L 1078.231555 448.605827 
L 1063.17835 472.770531 
L 1058.115 480.489926 
L 1043.016179 502.849556 
L 1038.04406 509.68721 
L 1033.071941 516.874234 
L 1022.990855 530.898156 
L 1012.909769 544.634718 
L 997.810949 564.612284 
L 982.80336 583.886575 
L 962.686804 608.648685 
L 957.623454 614.614428 
L 952.560103 620.853164 
L 937.506898 638.022165 
L 932.489163 643.578799 
L 927.425813 649.384983 
L 907.400489 671.31206 
L 902.382754 676.39455 
L 892.210437 687.17259 
L 887.283933 692.227327 
L 877.157232 702.422556 
L 872.139497 707.579911 
L 867.167378 712.254803 
L 862.104027 717.328975 
L 857.040676 722.070414 
L 852.068557 726.92831 
L 842.033087 736.311369 
L 836.969737 740.437253 
L 831.997617 745.311785 
L 816.898797 758.870637 
L 811.881062 763.2922 
L 806.817711 767.521684 
L 801.754361 771.947028 
L 781.683421 788.500473 
L 771.647951 796.386236 
L 736.478191 823.351942 
L 726.442721 830.092046 
L 716.361635 837.328979 
L 696.24508 850.937742 
L 686.20961 857.159841 
L 681.191875 860.655045 
L 676.082909 863.714673 
L 668.236996 869.071667 
L 665.271971 870.469144 
L 656.011969 876.291964 
L 646.022115 882.48079 
L 640.958764 885.275744 
L 635.895413 888.469976 
L 630.877679 891.830575 
L 615.824474 901.113814 
L 610.806739 904.056229 
L 605.743388 907.25273 
L 600.725653 910.613329 
L 590.690183 916.585879 
L 580.654713 923.040891 
L 575.591363 925.785935 
L 570.573628 929.13141 
L 545.439337 943.903224 
L 540.421603 946.963532 
L 520.350663 957.894629 
L 515.332928 960.924008 
L 510.223961 963.484536 
L 505.160611 966.545676 
L 500.188492 969.323993 
L 495.216372 971.95258 
L 490.153022 974.422363 
L 480.117552 979.789945 
L 475.054201 982.300563 
L 469.990851 985.095517 
L 465.018731 987.210864 
L 460.046612 989.889891 
L 444.902176 997.258405 
L 439.930057 999.552747 
L 429.803355 1004.593646 
L 424.831236 1006.675493 
L 419.767885 1009.002353 
L 414.750151 1011.115204 
L 409.732416 1013.577426 
L 404.714681 1015.64793 
L 389.61586 1022.644388 
L 379.58039 1026.786909 
L 374.51704 1029.182583 
L 364.48157 1033.092191 
L 359.463835 1035.12186 
L 354.354868 1037.035072 
L 349.428365 1039.330927 
L 334.329544 1045.087201 
L 329.31181 1047.281723 
L 324.248459 1049.031745 
L 314.212989 1052.773323 
L 309.195254 1054.840802 
L 304.131903 1056.716204 
L 299.114168 1058.313321 
L 294.142049 1060.209896 
L 289.078699 1061.790376 
L 284.060964 1063.803408 
L 279.043229 1065.317341 
L 274.025494 1067.313737 
L 269.007759 1069.043946 
L 263.898792 1070.674336 
L 258.926673 1072.654095 
L 253.954554 1074.001662 
L 248.891203 1075.815054 
L 243.827853 1077.312351 
L 238.855734 1079.225563 
L 233.792383 1080.839316 
L 228.774648 1082.303339 
L 223.711297 1084.066822 
L 218.784794 1085.564119 
L 210.391492 1088.300844 
L 207.654545 1089.523636 
L 211.395039 1072.836119 
L 216.184695 1025.572435 
L 221.248046 983.54831 
L 226.311396 955.515591 
L 231.283515 936.7162 
L 236.30125 922.408699 
L 241.318985 911.295431 
L 246.33672 901.163724 
L 251.354455 891.669503 
L 256.463422 882.43088 
L 266.498891 865.625616 
L 271.471011 857.259661 
L 281.552096 840.972401 
L 296.650917 817.365025 
L 301.668652 809.888524 
L 306.640771 802.215105 
L 316.767472 787.563831 
L 321.739591 780.077802 
L 326.757326 773.244685 
L 336.884028 758.737544 
L 346.828266 745.029718 
L 361.927087 724.815458 
L 366.990437 718.19408 
L 377.071523 705.350602 
L 382.043642 698.643016 
L 387.152608 692.448065 
L 397.142463 679.94647 
L 417.259018 655.806722 
L 422.276753 650.166904 
L 427.294488 644.260901 
L 437.375573 632.748354 
L 447.456659 621.246621 
L 452.428778 616.028542 
L 457.446513 610.459052 
L 462.509864 605.210574 
L 472.545334 594.45159 
L 487.644154 578.912223 
L 502.697359 564.12226 
L 512.732829 554.321773 
L 517.841795 549.332297 
L 532.849384 535.357529 
L 537.912735 530.932185 
L 542.93047 526.190746 
L 552.96594 517.423243 
L 558.029291 512.781623 
L 563.047025 508.672376 
L 573.082495 500.104512 
L 578.145846 495.961991 
L 583.072349 491.769561 
L 598.262402 479.774551 
L 608.297871 471.997684 
L 613.361222 468.415061 
L 618.378957 464.418943 
L 623.351076 460.775521 
L 628.414427 456.816004 
L 633.432162 453.409654 
L 638.404281 449.86038 
L 643.422016 446.51793 
L 648.485367 442.891145 
L 656.604974 437.251328 
L 659.798078 435.329797 
L 663.629803 432.761934 
L 668.601922 429.809764 
L 673.619657 426.321063 
L 678.591776 423.476199 
L 683.655127 420.132237 
L 698.753947 410.651627 
L 708.789417 404.360713 
L 728.951588 391.517235 
L 733.923708 388.123363 
L 738.941443 385.07886 
L 744.004793 381.718261 
L 749.022528 378.607211 
L 754.040263 375.635304 
L 759.14923 372.146376 
L 764.121349 368.908057 
L 769.139084 365.447638 
L 774.111203 362.502198 
L 789.164408 353.119896 
L 794.227758 349.859117 
L 799.291109 346.847887 
L 804.35446 343.587107 
L 809.326579 340.725607 
L 814.298698 338.013837 
L 819.362049 334.769694 
L 824.379784 332.107834 
L 829.397518 329.058037 
L 834.506485 326.30165 
L 839.52422 323.112408 
L 844.450723 320.625535 
L 849.55969 317.640016 
L 854.62304 315.04198 
L 859.59516 312.276972 
L 864.612894 309.334557 
L 869.676245 306.849272 
L 874.648364 304.058477 
L 904.80039 288.690013 
L 934.998031 273.962816 
L 950.096851 267.008705 
L 965.150056 260.087867 
L 970.213407 258.108108 
L 975.185526 256.02853 
L 980.203261 253.533035 
L 985.220996 251.320364 
L 995.302081 247.305643 
L 1000.365432 245.063328 
L 1015.327405 239.000184 
L 1020.481988 237.096046 
L 1025.499723 234.733645 
L 1030.471842 232.870342 
L 1035.489577 230.837649 
L 1040.598543 229.027281 
L 1045.570662 226.931066 
L 1050.588397 225.215981 
L 1060.669483 221.445969 
L 1075.768303 215.917617 
L 1080.786038 213.937859 
L 1085.758157 212.340742 
L 1090.775892 210.463072 
L 1095.839243 208.94687 
L 1105.829097 205.286812 
L 1113.538163 202.824591 
L 1116.91373 202.125852 
L 1120.745455 199.996364 
L 1116.640035 222.405903 
L 1111.576684 272.781615 
L 1106.558949 311.378594 
L 1101.58683 337.132095 
L 1096.569095 354.371424 
L 1091.505745 368.009679 
L 1086.396778 379.023127 
L 1076.45254 397.572968 
L 1066.371454 414.875062 
L 1061.399335 423.27656 
L 1056.290369 431.495054 
L 1051.272634 439.242733 
L 1046.300515 447.240111 
L 1041.28278 455.052521 
L 1031.156078 470.191853 
L 1021.120608 485.019627 
L 1016.057258 492.294446 
L 1011.039523 499.705233 
L 1006.067404 506.642707 
L 1001.049669 513.912914 
L 975.869763 548.067913 
L 970.897643 554.739201 
L 960.770942 567.848865 
L 945.763353 586.781348 
L 940.700002 592.604168 
L 930.664532 605.123232 
L 920.583447 617.07665 
L 915.611328 622.500191 
L 905.484626 634.4952 
L 895.494772 645.586538 
L 890.431421 651.597654 
L 885.413687 656.771646 
L 870.314866 672.925813 
L 855.307277 688.63079 
L 835.190722 708.644655 
L 815.02855 727.993054 
L 809.9652 732.584764 
L 804.947465 737.359476 
L 784.876525 755.260489 
L 779.904406 759.40301 
L 774.841055 763.928173 
L 769.777704 768.004147 
L 759.78785 776.588647 
L 734.65356 796.602512 
L 729.590209 800.436498 
L 724.61809 804.371817 
L 719.554739 808.065149 
L 714.537004 811.974757 
L 709.51927 815.475255 
L 699.438184 823.088025 
L 694.329217 826.282258 
L 689.402714 829.509764 
L 684.339363 833.585738 
L 663.994729 847.081958 
L 659.159457 850.310541 
L 654.187338 853.794705 
L 644.106252 860.453893 
L 634.116398 867.134256 
L 623.989697 873.829743 
L 619.017578 877.406618 
L 613.999843 880.733944 
L 603.873141 887.172319 
L 598.901022 890.433099 
L 593.883287 893.924522 
L 588.865552 897.230825 
L 583.802202 900.431713 
L 578.830083 903.913305 
L 568.748997 910.130867 
L 563.731262 913.493962 
L 558.759143 916.458836 
L 553.650176 919.879932 
L 548.632442 922.979336 
L 543.660322 926.241174 
L 533.579237 932.207674 
L 523.543767 937.84976 
L 518.526032 941.091634 
L 513.462681 944.086227 
L 508.399331 947.263823 
L 498.409476 952.520998 
L 493.391742 955.382498 
L 488.328391 958.446662 
L 483.310656 960.872585 
L 478.247305 963.667539 
L 473.22957 966.27949 
L 468.257451 969.074443 
L 463.239716 971.586574 
L 458.176366 974.398165 
L 448.140896 979.710543 
L 443.077545 982.400383 
L 438.05981 984.895877 
L 433.042075 987.241642 
L 428.069956 989.413478 
L 422.915374 992.182721 
L 417.943255 994.337996 
L 412.92552 996.988438 
L 397.781083 1004.260913 
L 392.808964 1006.373765 
L 387.836845 1008.786076 
L 382.773494 1011.115204 
L 377.710144 1013.16151 
L 372.738024 1015.520886 
L 362.656939 1019.949254 
L 357.68482 1021.777771 
L 342.540383 1028.550392 
L 337.568264 1030.363784 
L 332.550529 1032.742822 
L 327.487179 1034.722581 
L 322.423828 1036.569247 
L 317.451709 1038.831828 
L 312.388358 1040.645221 
L 307.370623 1042.807982 
L 302.352888 1044.687922 
L 297.380769 1046.424181 
L 292.317418 1047.915428 
L 287.299683 1049.97837 
L 282.281949 1051.744121 
L 267.091896 1057.731039 
L 262.119777 1059.378065 
L 252.038692 1063.137943 
L 247.020957 1064.38569 
L 242.094453 1066.282266 
L 226.950017 1071.489531 
L 221.932282 1073.484414 
L 210.619571 1076.946345 
L 208.156319 1077.90711 
L 213.037207 1046.484677 
L 218.054941 997.988904 
L 223.072676 961.686268 
L 228.044796 937.697761 
L 233.153762 920.82822 
L 238.171497 908.018015 
L 243.143616 897.465855 
L 248.161351 887.804511 
L 258.242437 869.920135 
L 273.341257 844.915282 
L 288.394462 821.243023 
L 303.447667 798.57849 
L 313.574368 783.609305 
L 318.546487 776.755014 
L 328.627573 761.972537 
L 343.726393 741.219174 
L 353.761863 728.042964 
L 363.797333 714.475793 
L 368.815068 708.245376 
L 378.850538 695.335352 
L 383.868273 689.279619 
L 388.931624 682.85788 
L 409.048179 658.656122 
L 414.065914 652.845402 
L 419.129265 646.656576 
L 424.147 640.900302 
L 429.119119 635.559944 
L 439.200204 624.064034 
L 444.263555 618.424216 
L 464.288879 596.696779 
L 479.433315 581.331189 
L 484.359819 576.252631 
L 504.476374 556.290945 
L 509.539725 551.661425 
L 519.575195 541.745994 
L 524.59293 537.329725 
L 529.701896 532.545938 
L 534.719631 528.054048 
L 539.737366 523.778435 
L 554.881802 510.217087 
L 559.808306 506.02942 
L 564.826041 501.601809 
L 569.889391 497.292922 
L 574.952742 493.283494 
L 579.879245 489.224157 
L 584.942596 485.231366 
L 589.960331 481.038935 
L 595.023682 477.285863 
L 610.122502 465.417141 
L 620.112356 458.038796 
L 625.221323 454.104233 
L 630.239058 450.793544 
L 635.211177 447.183395 
L 640.228912 443.85607 
L 650.264382 436.585863 
L 657.973447 431.312052 
L 661.166551 429.914575 
L 664.770197 427.036438 
L 664.815813 458.404045 
L 664.815813 637.889072 
L 664.815813 637.424003 
" clip-path="url(#p56ecdb433b)" style="fill: none; stroke: #2ca02c; stroke-width: 1.5; stroke-linecap: square"/>
   </g>
   <g id="patch_3">
    <path d="M 162 1134 
L 162 155.52 
" style="fill: none; stroke: #000000; stroke-width: 0.8; stroke-linejoin: miter; stroke-linecap: square"/>
   </g>
   <g id="patch_4">
    <path d="M 1166.4 1134 
L 1166.4 155.52 
" style="fill: none; stroke: #000000; stroke-width: 0.8; stroke-linejoin: miter; stroke-linecap: square"/>
   </g>
   <g id="patch_5">
    <path d="M 162 1134 
L 1166.4 1134 
" style="fill: none; stroke: #000000; stroke-width: 0.8; stroke-linejoin: miter; stroke-linecap: square"/>
   </g>
   <g id="patch_6">
    <path d="M 162 155.52 
L 1166.4 155.52 
" style="fill: none; stroke: #000000; stroke-width: 0.8; stroke-linejoin: miter; stroke-linecap: square"/>
   </g>
   <g id="legend_1">
    <g id="patch_7">
     <path d="M 169 215.42 
L 226.2 215.42 
Q 228.2 215.42 228.2 213.42 
L 228.2 162.52 
Q 228.2 160.52 226.2 160.52 
L 169 160.52 
Q 167 160.52 167 162.52 
L 167 213.42 
Q 167 215.42 169 215.42 
z
" style="fill: #ffffff; opacity: 0.8; stroke: #cccccc; stroke-linejoin: miter"/>
    </g>
    <g id="line2d_40">
     <path d="M 171 170.52 
L 181 170.52 
L 191 170.52 
" style="fill: none; stroke: #1f77b4; stroke-width: 1.5; stroke-linecap: square"/>
    </g>
    <g id="text_21">
     <!-- 0.5 $\frac{V}{s}$ -->
     <g transform="translate(199 174.02)scale(0.1 -0.1)">
      <defs>
       <path id="DejaVuSans-2e" d="M 684 794 
L 1344 794 
L 1344 0 
L 684 0 
L 684 794 
z
" transform="scale(0.015625)"/>
       <path id="DejaVuSans-Oblique-73" d="M 3200 3397 
L 3091 2853 
Q 2863 2978 2609 3040 
Q 2356 3103 2088 3103 
Q 1634 3103 1373 2948 
Q 1113 2794 1113 2528 
Q 1113 2219 1719 2053 
Q 1766 2041 1788 2034 
L 1972 1978 
Q 2547 1819 2739 1644 
Q 2931 1469 2931 1166 
Q 2931 609 2489 259 
Q 2047 -91 1331 -91 
Q 1053 -91 747 -37 
Q 441 16 72 128 
L 184 722 
Q 500 559 806 475 
Q 1113 391 1394 391 
Q 1816 391 2080 572 
Q 2344 753 2344 1031 
Q 2344 1331 1650 1516 
L 1591 1531 
L 1394 1581 
Q 956 1697 753 1886 
Q 550 2075 550 2369 
Q 550 2928 970 3256 
Q 1391 3584 2113 3584 
Q 2397 3584 2667 3537 
Q 2938 3491 3200 3397 
z
" transform="scale(0.015625)"/>
      </defs>
      <use xlink:href="#DejaVuSans-30" transform="translate(0 0.16875)"/>
      <use xlink:href="#DejaVuSans-2e" transform="translate(63.623047 0.16875)"/>
      <use xlink:href="#DejaVuSans-35" transform="translate(95.410156 0.16875)"/>
      <use xlink:href="#DejaVuSans-20" transform="translate(159.033203 0.16875)"/>
      <use xlink:href="#DejaVuSans-Oblique-56" transform="translate(190.820312 43.965625)scale(0.7)"/>
      <use xlink:href="#DejaVuSans-Oblique-73" transform="translate(196.820312 -26.484375)scale(0.7)"/>
      <path d="M 190.820312 18.965625 
L 190.820312 25.215625 
L 238.706055 25.215625 
L 238.706055 18.965625 
L 190.820312 18.965625 
z
"/>
     </g>
    </g>
    <g id="line2d_41">
     <path d="M 171 187.82 
L 181 187.82 
L 191 187.82 
" style="fill: none; stroke: #ff7f0e; stroke-width: 1.5; stroke-linecap: square"/>
    </g>
    <g id="text_22">
     <!-- 1.0 $\frac{V}{s}$ -->
     <g transform="translate(199 191.32)scale(0.1 -0.1)">
      <use xlink:href="#DejaVuSans-31" transform="translate(0 0.16875)"/>
      <use xlink:href="#DejaVuSans-2e" transform="translate(63.623047 0.16875)"/>
      <use xlink:href="#DejaVuSans-30" transform="translate(95.410156 0.16875)"/>
      <use xlink:href="#DejaVuSans-20" transform="translate(159.033203 0.16875)"/>
      <use xlink:href="#DejaVuSans-Oblique-56" transform="translate(190.820312 43.965625)scale(0.7)"/>
      <use xlink:href="#DejaVuSans-Oblique-73" transform="translate(196.820312 -26.484375)scale(0.7)"/>
      <path d="M 190.820312 18.965625 
L 190.820312 25.215625 
L 238.706055 25.215625 
L 238.706055 18.965625 
L 190.820312 18.965625 
z
"/>
     </g>
    </g>
    <g id="line2d_42">
     <path d="M 171 205.12 
L 181 205.12 
L 191 205.12 
" style="fill: none; stroke: #2ca02c; stroke-width: 1.5; stroke-linecap: square"/>
    </g>
    <g id="text_23">
     <!-- 2.0 $\frac{V}{s}$ -->
     <g transform="translate(199 208.62)scale(0.1 -0.1)">
      <use xlink:href="#DejaVuSans-32" transform="translate(0 0.16875)"/>
      <use xlink:href="#DejaVuSans-2e" transform="translate(63.623047 0.16875)"/>
      <use xlink:href="#DejaVuSans-30" transform="translate(95.410156 0.16875)"/>
      <use xlink:href="#DejaVuSans-20" transform="translate(159.033203 0.16875)"/>
      <use xlink:href="#DejaVuSans-Oblique-56" transform="translate(190.820312 43.965625)scale(0.7)"/>
      <use xlink:href="#DejaVuSans-Oblique-73" transform="translate(196.820312 -26.484375)scale(0.7)"/>
      <path d="M 190.820312 18.965625 
L 190.820312 25.215625 
L 238.706055 25.215625 
L 238.706055 18.965625 
L 190.820312 18.965625 
z
"/>
     </g>
    </g>
   </g>
  </g>
  <g id="text_24">
   <!-- Cyclic Voltammetry at different scan rates -->
   <g transform="translate(521.219063 35.038125)scale(0.12 -0.12)">
    <defs>
     <path id="DejaVuSans-43" d="M 4122 4306 
L 4122 3641 
Q 3803 3938 3442 4084 
Q 3081 4231 2675 4231 
Q 1875 4231 1450 3742 
Q 1025 3253 1025 2328 
Q 1025 1406 1450 917 
Q 1875 428 2675 428 
Q 3081 428 3442 575 
Q 3803 722 4122 1019 
L 4122 359 
Q 3791 134 3420 21 
Q 3050 -91 2638 -91 
Q 1578 -91 968 557 
Q 359 1206 359 2328 
Q 359 3453 968 4101 
Q 1578 4750 2638 4750 
Q 3056 4750 3426 4639 
Q 3797 4528 4122 4306 
z
" transform="scale(0.015625)"/>
     <path id="DejaVuSans-79" d="M 2059 -325 
Q 1816 -950 1584 -1140 
Q 1353 -1331 966 -1331 
L 506 -1331 
L 506 -850 
L 844 -850 
Q 1081 -850 1212 -737 
Q 1344 -625 1503 -206 
L 1606 56 
L 191 3500 
L 800 3500 
L 1894 763 
L 2988 3500 
L 3597 3500 
L 2059 -325 
z
" transform="scale(0.015625)"/>
     <path id="DejaVuSans-63" d="M 3122 3366 
L 3122 2828 
Q 2878 2963 2633 3030 
Q 2388 3097 2138 3097 
Q 1578 3097 1268 2742 
Q 959 2388 959 1747 
Q 959 1106 1268 751 
Q 1578 397 2138 397 
Q 2388 397 2633 464 
Q 2878 531 3122 666 
L 3122 134 
Q 2881 22 2623 -34 
Q 2366 -91 2075 -91 
Q 1284 -91 818 406 
Q 353 903 353 1747 
Q 353 2603 823 3093 
Q 1294 3584 2113 3584 
Q 2378 3584 2631 3529 
Q 2884 3475 3122 3366 
z
" transform="scale(0.015625)"/>
     <path id="DejaVuSans-6c" d="M 603 4863 
L 1178 4863 
L 1178 0 
L 603 0 
L 603 4863 
z
" transform="scale(0.015625)"/>
     <path id="DejaVuSans-69" d="M 603 3500 
L 1178 3500 
L 1178 0 
L 603 0 
L 603 3500 
z
M 603 4863 
L 1178 4863 
L 1178 4134 
L 603 4134 
L 603 4863 
z
" transform="scale(0.015625)"/>
     <path id="DejaVuSans-56" d="M 1831 0 
L 50 4666 
L 709 4666 
L 2188 738 
L 3669 4666 
L 4325 4666 
L 2547 0 
L 1831 0 
z
" transform="scale(0.015625)"/>
     <path id="DejaVuSans-6f" d="M 1959 3097 
Q 1497 3097 1228 2736 
Q 959 2375 959 1747 
Q 959 1119 1226 758 
Q 1494 397 1959 397 
Q 2419 397 2687 759 
Q 2956 1122 2956 1747 
Q 2956 2369 2687 2733 
Q 2419 3097 1959 3097 
z
M 1959 3584 
Q 2709 3584 3137 3096 
Q 3566 2609 3566 1747 
Q 3566 888 3137 398 
Q 2709 -91 1959 -91 
Q 1206 -91 779 398 
Q 353 888 353 1747 
Q 353 2609 779 3096 
Q 1206 3584 1959 3584 
z
" transform="scale(0.015625)"/>
     <path id="DejaVuSans-74" d="M 1172 4494 
L 1172 3500 
L 2356 3500 
L 2356 3053 
L 1172 3053 
L 1172 1153 
Q 1172 725 1289 603 
Q 1406 481 1766 481 
L 2356 481 
L 2356 0 
L 1766 0 
Q 1100 0 847 248 
Q 594 497 594 1153 
L 594 3053 
L 172 3053 
L 172 3500 
L 594 3500 
L 594 4494 
L 1172 4494 
z
" transform="scale(0.015625)"/>
     <path id="DejaVuSans-61" d="M 2194 1759 
Q 1497 1759 1228 1600 
Q 959 1441 959 1056 
Q 959 750 1161 570 
Q 1363 391 1709 391 
Q 2188 391 2477 730 
Q 2766 1069 2766 1631 
L 2766 1759 
L 2194 1759 
z
M 3341 1997 
L 3341 0 
L 2766 0 
L 2766 531 
Q 2569 213 2275 61 
Q 1981 -91 1556 -91 
Q 1019 -91 701 211 
Q 384 513 384 1019 
Q 384 1609 779 1909 
Q 1175 2209 1959 2209 
L 2766 2209 
L 2766 2266 
Q 2766 2663 2505 2880 
Q 2244 3097 1772 3097 
Q 1472 3097 1187 3025 
Q 903 2953 641 2809 
L 641 3341 
Q 956 3463 1253 3523 
Q 1550 3584 1831 3584 
Q 2591 3584 2966 3190 
Q 3341 2797 3341 1997 
z
" transform="scale(0.015625)"/>
     <path id="DejaVuSans-65" d="M 3597 1894 
L 3597 1613 
L 953 1613 
Q 991 1019 1311 708 
Q 1631 397 2203 397 
Q 2534 397 2845 478 
Q 3156 559 3463 722 
L 3463 178 
Q 3153 47 2828 -22 
Q 2503 -91 2169 -91 
Q 1331 -91 842 396 
Q 353 884 353 1716 
Q 353 2575 817 3079 
Q 1281 3584 2069 3584 
Q 2775 3584 3186 3129 
Q 3597 2675 3597 1894 
z
M 3022 2063 
Q 3016 2534 2758 2815 
Q 2500 3097 2075 3097 
Q 1594 3097 1305 2825 
Q 1016 2553 972 2059 
L 3022 2063 
z
" transform="scale(0.015625)"/>
     <path id="DejaVuSans-72" d="M 2631 2963 
Q 2534 3019 2420 3045 
Q 2306 3072 2169 3072 
Q 1681 3072 1420 2755 
Q 1159 2438 1159 1844 
L 1159 0 
L 581 0 
L 581 3500 
L 1159 3500 
L 1159 2956 
Q 1341 3275 1631 3429 
Q 1922 3584 2338 3584 
Q 2397 3584 2469 3576 
Q 2541 3569 2628 3553 
L 2631 2963 
z
" transform="scale(0.015625)"/>
     <path id="DejaVuSans-64" d="M 2906 2969 
L 2906 4863 
L 3481 4863 
L 3481 0 
L 2906 0 
L 2906 525 
Q 2725 213 2448 61 
Q 2172 -91 1784 -91 
Q 1150 -91 751 415 
Q 353 922 353 1747 
Q 353 2572 751 3078 
Q 1150 3584 1784 3584 
Q 2172 3584 2448 3432 
Q 2725 3281 2906 2969 
z
M 947 1747 
Q 947 1113 1208 752 
Q 1469 391 1925 391 
Q 2381 391 2643 752 
Q 2906 1113 2906 1747 
Q 2906 2381 2643 2742 
Q 2381 3103 1925 3103 
Q 1469 3103 1208 2742 
Q 947 2381 947 1747 
z
" transform="scale(0.015625)"/>
     <path id="DejaVuSans-66" d="M 2375 4863 
L 2375 4384 
L 1825 4384 
Q 1516 4384 1395 4259 
Q 1275 4134 1275 3809 
L 1275 3500 
L 2222 3500 
L 2222 3053 
L 1275 3053 
L 1275 0 
L 697 0 
L 697 3053 
L 147 3053 
L 147 3500 
L 697 3500 
L 697 3744 
Q 697 4328 969 4595 
Q 1241 4863 1831 4863 
L 2375 4863 
z
" transform="scale(0.015625)"/>
     <path id="DejaVuSans-6e" d="M 3513 2113 
L 3513 0 
L 2938 0 
L 2938 2094 
Q 2938 2591 2744 2837 
Q 2550 3084 2163 3084 
Q 1697 3084 1428 2787 
Q 1159 2491 1159 1978 
L 1159 0 
L 581 0 
L 581 3500 
L 1159 3500 
L 1159 2956 
Q 1366 3272 1645 3428 
Q 1925 3584 2291 3584 
Q 2894 3584 3203 3211 
Q 3513 2838 3513 2113 
z
" transform="scale(0.015625)"/>
     <path id="DejaVuSans-73" d="M 2834 3397 
L 2834 2853 
Q 2591 2978 2328 3040 
Q 2066 3103 1784 3103 
Q 1356 3103 1142 2972 
Q 928 2841 928 2578 
Q 928 2378 1081 2264 
Q 1234 2150 1697 2047 
L 1894 2003 
Q 2506 1872 2764 1633 
Q 3022 1394 3022 966 
Q 3022 478 2636 193 
Q 2250 -91 1575 -91 
Q 1294 -91 989 -36 
Q 684 19 347 128 
L 347 722 
Q 666 556 975 473 
Q 1284 391 1588 391 
Q 1994 391 2212 530 
Q 2431 669 2431 922 
Q 2431 1156 2273 1281 
Q 2116 1406 1581 1522 
L 1381 1569 
Q 847 1681 609 1914 
Q 372 2147 372 2553 
Q 372 3047 722 3315 
Q 1072 3584 1716 3584 
Q 2034 3584 2315 3537 
Q 2597 3491 2834 3397 
z
" transform="scale(0.015625)"/>
    </defs>
    <use xlink:href="#DejaVuSans-43"/>
    <use xlink:href="#DejaVuSans-79" x="69.824219"/>
    <use xlink:href="#DejaVuSans-63" x="129.003906"/>
    <use xlink:href="#DejaVuSans-6c" x="183.984375"/>
    <use xlink:href="#DejaVuSans-69" x="211.767578"/>
    <use xlink:href="#DejaVuSans-63" x="239.550781"/>
    <use xlink:href="#DejaVuSans-20" x="294.53125"/>
    <use xlink:href="#DejaVuSans-56" x="326.318359"/>
    <use xlink:href="#DejaVuSans-6f" x="386.976562"/>
    <use xlink:href="#DejaVuSans-6c" x="448.158203"/>
    <use xlink:href="#DejaVuSans-74" x="475.941406"/>
    <use xlink:href="#DejaVuSans-61" x="515.150391"/>
    <use xlink:href="#DejaVuSans-6d" x="576.429688"/>
    <use xlink:href="#DejaVuSans-6d" x="673.841797"/>
    <use xlink:href="#DejaVuSans-65" x="771.253906"/>
    <use xlink:href="#DejaVuSans-74" x="832.777344"/>
    <use xlink:href="#DejaVuSans-72" x="871.986328"/>
    <use xlink:href="#DejaVuSans-79" x="913.099609"/>
    <use xlink:href="#DejaVuSans-20" x="972.279297"/>
    <use xlink:href="#DejaVuSans-61" x="1004.066406"/>
    <use xlink:href="#DejaVuSans-74" x="1065.345703"/>
    <use xlink:href="#DejaVuSans-20" x="1104.554688"/>
    <use xlink:href="#DejaVuSans-64" x="1136.341797"/>
    <use xlink:href="#DejaVuSans-69" x="1199.818359"/>
    <use xlink:href="#DejaVuSans-66" x="1227.601562"/>
    <use xlink:href="#DejaVuSans-66" x="1262.806641"/>
    <use xlink:href="#DejaVuSans-65" x="1298.011719"/>
    <use xlink:href="#DejaVuSans-72" x="1359.535156"/>
    <use xlink:href="#DejaVuSans-65" x="1398.398438"/>
    <use xlink:href="#DejaVuSans-6e" x="1459.921875"/>
    <use xlink:href="#DejaVuSans-74" x="1523.300781"/>
    <use xlink:href="#DejaVuSans-20" x="1562.509766"/>
    <use xlink:href="#DejaVuSans-73" x="1594.296875"/>
    <use xlink:href="#DejaVuSans-63" x="1646.396484"/>
    <use xlink:href="#DejaVuSans-61" x="1701.376953"/>
    <use xlink:href="#DejaVuSans-6e" x="1762.65625"/>
    <use xlink:href="#DejaVuSans-20" x="1826.035156"/>
    <use xlink:href="#DejaVuSans-72" x="1857.822266"/>
    <use xlink:href="#DejaVuSans-61" x="1898.935547"/>
    <use xlink:href="#DejaVuSans-74" x="1960.214844"/>
    <use xlink:href="#DejaVuSans-65" x="1999.423828"/>
    <use xlink:href="#DejaVuSans-73" x="2060.947266"/>
   </g>
  </g>
 </g>
 <defs>
  <clipPath id="p56ecdb433b">
   <rect x="162" y="155.52" width="1004.4" height="978.48"/>
  </clipPath>
 </defs>
</svg>
