<?xml version="1.0" encoding="utf-8" standalone="no"?>
<!DOCTYPE svg PUBLIC "-//W3C//DTD SVG 1.1//EN"
  "http://www.w3.org/Graphics/SVG/1.1/DTD/svg11.dtd">
<svg height="576pt" version="1.1" viewBox="0 0 1440 576" width="1440pt" xmlns="http://www.w3.org/2000/svg" xmlns:xlink="http://www.w3.org/1999/xlink">
 <metadata>
  <rdf:RDF xmlns:cc="http://creativecommons.org/ns#" xmlns:dc="http://purl.org/dc/elements/1.1/" xmlns:rdf="http://www.w3.org/1999/02/22-rdf-syntax-ns#">
   <cc:Work>
    <dc:type rdf:resource="http://purl.org/dc/dcmitype/StillImage"/>
    <dc:date>2021-10-14T14:38:54.571015</dc:date>
    <dc:format>image/svg+xml</dc:format>
    <dc:creator>
     <cc:Agent>
      <dc:title>Matplotlib v3.4.2, https://matplotlib.org/</dc:title>
     </cc:Agent>
    </dc:creator>
   </cc:Work>
  </rdf:RDF>
 </metadata>
 <defs>
  <style type="text/css">*{stroke-linecap:butt;stroke-linejoin:round;}</style>
 </defs>
 <g id="figure_1">
  <g id="patch_1">
   <path d="M 0 576 
L 1440 576 
L 1440 0 
L 0 0 
z
" style="fill:none;"/>
  </g>
  <g id="axes_1">
   <g id="patch_2">
    <path d="M 180 484.496026 
L 1296 484.496026 
L 1296 88.623974 
L 180 88.623974 
z
" style="fill:#ffffff;"/>
   </g>
   <g id="matplotlib.axis_1">
    <g id="xtick_1">
     <g id="line2d_1">
      <path clip-path="url(#p494b3638b4)" d="M 222.279364 484.496026 
L 222.279364 88.623974 
" style="fill:none;stroke:#b0b0b0;stroke-linecap:square;stroke-width:0.8;"/>
     </g>
     <g id="line2d_2">
      <defs>
       <path d="M 0 0 
L 0 3.5 
" id="m5ca8574201" style="stroke:#000000;stroke-width:0.8;"/>
      </defs>
      <g>
       <use style="stroke:#000000;stroke-width:0.8;" x="222.279364" xlink:href="#m5ca8574201" y="484.496026"/>
      </g>
     </g>
     <g id="text_1">
      <!-- 0 $\Omega$ -->
      <g transform="translate(213.679364 499.094464)scale(0.1 -0.1)">
       <defs>
        <path d="M 2034 4250 
Q 1547 4250 1301 3770 
Q 1056 3291 1056 2328 
Q 1056 1369 1301 889 
Q 1547 409 2034 409 
Q 2525 409 2770 889 
Q 3016 1369 3016 2328 
Q 3016 3291 2770 3770 
Q 2525 4250 2034 4250 
z
M 2034 4750 
Q 2819 4750 3233 4129 
Q 3647 3509 3647 2328 
Q 3647 1150 3233 529 
Q 2819 -91 2034 -91 
Q 1250 -91 836 529 
Q 422 1150 422 2328 
Q 422 3509 836 4129 
Q 1250 4750 2034 4750 
z
" id="DejaVuSans-30" transform="scale(0.015625)"/>
        <path id="DejaVuSans-20" transform="scale(0.015625)"/>
        <path d="M 4647 556 
L 4647 0 
L 2772 0 
L 2772 556 
Q 3325 859 3634 1378 
Q 3944 1897 3944 2528 
Q 3944 3278 3531 3731 
Q 3119 4184 2444 4184 
Q 1769 4184 1355 3729 
Q 941 3275 941 2528 
Q 941 1897 1250 1378 
Q 1563 859 2119 556 
L 2119 0 
L 244 0 
L 244 556 
L 1241 556 
Q 747 991 519 1456 
Q 294 1922 294 2497 
Q 294 3491 894 4106 
Q 1491 4722 2444 4722 
Q 3391 4722 3994 4106 
Q 4594 3494 4594 2528 
Q 4594 1922 4372 1459 
Q 4150 997 3647 556 
L 4647 556 
z
" id="DejaVuSans-3a9" transform="scale(0.015625)"/>
       </defs>
       <use transform="translate(0 0.78125)" xlink:href="#DejaVuSans-30"/>
       <use transform="translate(63.623047 0.78125)" xlink:href="#DejaVuSans-20"/>
       <use transform="translate(95.410156 0.78125)" xlink:href="#DejaVuSans-3a9"/>
      </g>
     </g>
    </g>
    <g id="xtick_2">
     <g id="line2d_3">
      <path clip-path="url(#p494b3638b4)" d="M 386.760534 484.496026 
L 386.760534 88.623974 
" style="fill:none;stroke:#b0b0b0;stroke-linecap:square;stroke-width:0.8;"/>
     </g>
     <g id="line2d_4">
      <g>
       <use style="stroke:#000000;stroke-width:0.8;" x="386.760534" xlink:href="#m5ca8574201" y="484.496026"/>
      </g>
     </g>
     <g id="text_2">
      <!-- 20 $\Omega$ -->
      <g transform="translate(374.960534 499.094464)scale(0.1 -0.1)">
       <defs>
        <path d="M 1228 531 
L 3431 531 
L 3431 0 
L 469 0 
L 469 531 
Q 828 903 1448 1529 
Q 2069 2156 2228 2338 
Q 2531 2678 2651 2914 
Q 2772 3150 2772 3378 
Q 2772 3750 2511 3984 
Q 2250 4219 1831 4219 
Q 1534 4219 1204 4116 
Q 875 4013 500 3803 
L 500 4441 
Q 881 4594 1212 4672 
Q 1544 4750 1819 4750 
Q 2544 4750 2975 4387 
Q 3406 4025 3406 3419 
Q 3406 3131 3298 2873 
Q 3191 2616 2906 2266 
Q 2828 2175 2409 1742 
Q 1991 1309 1228 531 
z
" id="DejaVuSans-32" transform="scale(0.015625)"/>
       </defs>
       <use transform="translate(0 0.78125)" xlink:href="#DejaVuSans-32"/>
       <use transform="translate(63.623047 0.78125)" xlink:href="#DejaVuSans-30"/>
       <use transform="translate(127.246094 0.78125)" xlink:href="#DejaVuSans-20"/>
       <use transform="translate(159.033203 0.78125)" xlink:href="#DejaVuSans-3a9"/>
      </g>
     </g>
    </g>
    <g id="xtick_3">
     <g id="line2d_5">
      <path clip-path="url(#p494b3638b4)" d="M 551.241704 484.496026 
L 551.241704 88.623974 
" style="fill:none;stroke:#b0b0b0;stroke-linecap:square;stroke-width:0.8;"/>
     </g>
     <g id="line2d_6">
      <g>
       <use style="stroke:#000000;stroke-width:0.8;" x="551.241704" xlink:href="#m5ca8574201" y="484.496026"/>
      </g>
     </g>
     <g id="text_3">
      <!-- 40 $\Omega$ -->
      <g transform="translate(539.441704 499.094464)scale(0.1 -0.1)">
       <defs>
        <path d="M 2419 4116 
L 825 1625 
L 2419 1625 
L 2419 4116 
z
M 2253 4666 
L 3047 4666 
L 3047 1625 
L 3713 1625 
L 3713 1100 
L 3047 1100 
L 3047 0 
L 2419 0 
L 2419 1100 
L 313 1100 
L 313 1709 
L 2253 4666 
z
" id="DejaVuSans-34" transform="scale(0.015625)"/>
       </defs>
       <use transform="translate(0 0.78125)" xlink:href="#DejaVuSans-34"/>
       <use transform="translate(63.623047 0.78125)" xlink:href="#DejaVuSans-30"/>
       <use transform="translate(127.246094 0.78125)" xlink:href="#DejaVuSans-20"/>
       <use transform="translate(159.033203 0.78125)" xlink:href="#DejaVuSans-3a9"/>
      </g>
     </g>
    </g>
    <g id="xtick_4">
     <g id="line2d_7">
      <path clip-path="url(#p494b3638b4)" d="M 715.722874 484.496026 
L 715.722874 88.623974 
" style="fill:none;stroke:#b0b0b0;stroke-linecap:square;stroke-width:0.8;"/>
     </g>
     <g id="line2d_8">
      <g>
       <use style="stroke:#000000;stroke-width:0.8;" x="715.722874" xlink:href="#m5ca8574201" y="484.496026"/>
      </g>
     </g>
     <g id="text_4">
      <!-- 60 $\Omega$ -->
      <g transform="translate(703.922874 499.094464)scale(0.1 -0.1)">
       <defs>
        <path d="M 2113 2584 
Q 1688 2584 1439 2293 
Q 1191 2003 1191 1497 
Q 1191 994 1439 701 
Q 1688 409 2113 409 
Q 2538 409 2786 701 
Q 3034 994 3034 1497 
Q 3034 2003 2786 2293 
Q 2538 2584 2113 2584 
z
M 3366 4563 
L 3366 3988 
Q 3128 4100 2886 4159 
Q 2644 4219 2406 4219 
Q 1781 4219 1451 3797 
Q 1122 3375 1075 2522 
Q 1259 2794 1537 2939 
Q 1816 3084 2150 3084 
Q 2853 3084 3261 2657 
Q 3669 2231 3669 1497 
Q 3669 778 3244 343 
Q 2819 -91 2113 -91 
Q 1303 -91 875 529 
Q 447 1150 447 2328 
Q 447 3434 972 4092 
Q 1497 4750 2381 4750 
Q 2619 4750 2861 4703 
Q 3103 4656 3366 4563 
z
" id="DejaVuSans-36" transform="scale(0.015625)"/>
       </defs>
       <use transform="translate(0 0.78125)" xlink:href="#DejaVuSans-36"/>
       <use transform="translate(63.623047 0.78125)" xlink:href="#DejaVuSans-30"/>
       <use transform="translate(127.246094 0.78125)" xlink:href="#DejaVuSans-20"/>
       <use transform="translate(159.033203 0.78125)" xlink:href="#DejaVuSans-3a9"/>
      </g>
     </g>
    </g>
    <g id="xtick_5">
     <g id="line2d_9">
      <path clip-path="url(#p494b3638b4)" d="M 880.204044 484.496026 
L 880.204044 88.623974 
" style="fill:none;stroke:#b0b0b0;stroke-linecap:square;stroke-width:0.8;"/>
     </g>
     <g id="line2d_10">
      <g>
       <use style="stroke:#000000;stroke-width:0.8;" x="880.204044" xlink:href="#m5ca8574201" y="484.496026"/>
      </g>
     </g>
     <g id="text_5">
      <!-- 80 $\Omega$ -->
      <g transform="translate(868.404044 499.094464)scale(0.1 -0.1)">
       <defs>
        <path d="M 2034 2216 
Q 1584 2216 1326 1975 
Q 1069 1734 1069 1313 
Q 1069 891 1326 650 
Q 1584 409 2034 409 
Q 2484 409 2743 651 
Q 3003 894 3003 1313 
Q 3003 1734 2745 1975 
Q 2488 2216 2034 2216 
z
M 1403 2484 
Q 997 2584 770 2862 
Q 544 3141 544 3541 
Q 544 4100 942 4425 
Q 1341 4750 2034 4750 
Q 2731 4750 3128 4425 
Q 3525 4100 3525 3541 
Q 3525 3141 3298 2862 
Q 3072 2584 2669 2484 
Q 3125 2378 3379 2068 
Q 3634 1759 3634 1313 
Q 3634 634 3220 271 
Q 2806 -91 2034 -91 
Q 1263 -91 848 271 
Q 434 634 434 1313 
Q 434 1759 690 2068 
Q 947 2378 1403 2484 
z
M 1172 3481 
Q 1172 3119 1398 2916 
Q 1625 2713 2034 2713 
Q 2441 2713 2670 2916 
Q 2900 3119 2900 3481 
Q 2900 3844 2670 4047 
Q 2441 4250 2034 4250 
Q 1625 4250 1398 4047 
Q 1172 3844 1172 3481 
z
" id="DejaVuSans-38" transform="scale(0.015625)"/>
       </defs>
       <use transform="translate(0 0.78125)" xlink:href="#DejaVuSans-38"/>
       <use transform="translate(63.623047 0.78125)" xlink:href="#DejaVuSans-30"/>
       <use transform="translate(127.246094 0.78125)" xlink:href="#DejaVuSans-20"/>
       <use transform="translate(159.033203 0.78125)" xlink:href="#DejaVuSans-3a9"/>
      </g>
     </g>
    </g>
    <g id="xtick_6">
     <g id="line2d_11">
      <path clip-path="url(#p494b3638b4)" d="M 1044.685214 484.496026 
L 1044.685214 88.623974 
" style="fill:none;stroke:#b0b0b0;stroke-linecap:square;stroke-width:0.8;"/>
     </g>
     <g id="line2d_12">
      <g>
       <use style="stroke:#000000;stroke-width:0.8;" x="1044.685214" xlink:href="#m5ca8574201" y="484.496026"/>
      </g>
     </g>
     <g id="text_6">
      <!-- 100 $\Omega$ -->
      <g transform="translate(1029.685214 499.094464)scale(0.1 -0.1)">
       <defs>
        <path d="M 794 531 
L 1825 531 
L 1825 4091 
L 703 3866 
L 703 4441 
L 1819 4666 
L 2450 4666 
L 2450 531 
L 3481 531 
L 3481 0 
L 794 0 
L 794 531 
z
" id="DejaVuSans-31" transform="scale(0.015625)"/>
       </defs>
       <use transform="translate(0 0.78125)" xlink:href="#DejaVuSans-31"/>
       <use transform="translate(63.623047 0.78125)" xlink:href="#DejaVuSans-30"/>
       <use transform="translate(127.246094 0.78125)" xlink:href="#DejaVuSans-30"/>
       <use transform="translate(190.869141 0.78125)" xlink:href="#DejaVuSans-20"/>
       <use transform="translate(222.65625 0.78125)" xlink:href="#DejaVuSans-3a9"/>
      </g>
     </g>
    </g>
    <g id="xtick_7">
     <g id="line2d_13">
      <path clip-path="url(#p494b3638b4)" d="M 1209.166384 484.496026 
L 1209.166384 88.623974 
" style="fill:none;stroke:#b0b0b0;stroke-linecap:square;stroke-width:0.8;"/>
     </g>
     <g id="line2d_14">
      <g>
       <use style="stroke:#000000;stroke-width:0.8;" x="1209.166384" xlink:href="#m5ca8574201" y="484.496026"/>
      </g>
     </g>
     <g id="text_7">
      <!-- 120 $\Omega$ -->
      <g transform="translate(1194.166384 499.094464)scale(0.1 -0.1)">
       <use transform="translate(0 0.78125)" xlink:href="#DejaVuSans-31"/>
       <use transform="translate(63.623047 0.78125)" xlink:href="#DejaVuSans-32"/>
       <use transform="translate(127.246094 0.78125)" xlink:href="#DejaVuSans-30"/>
       <use transform="translate(190.869141 0.78125)" xlink:href="#DejaVuSans-20"/>
       <use transform="translate(222.65625 0.78125)" xlink:href="#DejaVuSans-3a9"/>
      </g>
     </g>
    </g>
    <g id="text_8">
     <!-- $Z_{\rm re}$ -->
     <g transform="translate(730.8 512.772589)scale(0.1 -0.1)">
      <defs>
       <path d="M 838 4666 
L 4500 4666 
L 4409 4184 
L 794 531 
L 3769 531 
L 3669 0 
L -141 0 
L -50 481 
L 3566 4134 
L 738 4134 
L 838 4666 
z
" id="DejaVuSans-Oblique-5a" transform="scale(0.015625)"/>
       <path d="M 2631 2963 
Q 2534 3019 2420 3045 
Q 2306 3072 2169 3072 
Q 1681 3072 1420 2755 
Q 1159 2438 1159 1844 
L 1159 0 
L 581 0 
L 581 3500 
L 1159 3500 
L 1159 2956 
Q 1341 3275 1631 3429 
Q 1922 3584 2338 3584 
Q 2397 3584 2469 3576 
Q 2541 3569 2628 3553 
L 2631 2963 
z
" id="DejaVuSans-72" transform="scale(0.015625)"/>
       <path d="M 3597 1894 
L 3597 1613 
L 953 1613 
Q 991 1019 1311 708 
Q 1631 397 2203 397 
Q 2534 397 2845 478 
Q 3156 559 3463 722 
L 3463 178 
Q 3153 47 2828 -22 
Q 2503 -91 2169 -91 
Q 1331 -91 842 396 
Q 353 884 353 1716 
Q 353 2575 817 3079 
Q 1281 3584 2069 3584 
Q 2775 3584 3186 3129 
Q 3597 2675 3597 1894 
z
M 3022 2063 
Q 3016 2534 2758 2815 
Q 2500 3097 2075 3097 
Q 1594 3097 1305 2825 
Q 1016 2553 972 2059 
L 3022 2063 
z
" id="DejaVuSans-65" transform="scale(0.015625)"/>
      </defs>
      <use transform="translate(0 0.09375)" xlink:href="#DejaVuSans-Oblique-5a"/>
      <use transform="translate(68.505859 -16.3125)scale(0.7)" xlink:href="#DejaVuSans-72"/>
      <use transform="translate(97.285156 -16.3125)scale(0.7)" xlink:href="#DejaVuSans-65"/>
     </g>
    </g>
   </g>
   <g id="matplotlib.axis_2">
    <g id="ytick_1">
     <g id="line2d_15">
      <path clip-path="url(#p494b3638b4)" d="M 180 466.38557 
L 1296 466.38557 
" style="fill:none;stroke:#b0b0b0;stroke-linecap:square;stroke-width:0.8;"/>
     </g>
     <g id="line2d_16">
      <defs>
       <path d="M 0 0 
L -3.5 0 
" id="md7fc885ca3" style="stroke:#000000;stroke-width:0.8;"/>
      </defs>
      <g>
       <use style="stroke:#000000;stroke-width:0.8;" x="180" xlink:href="#md7fc885ca3" y="466.38557"/>
      </g>
     </g>
     <g id="text_9">
      <!-- 0 $\Omega$ -->
      <g transform="translate(155.8 470.184788)scale(0.1 -0.1)">
       <use transform="translate(0 0.78125)" xlink:href="#DejaVuSans-30"/>
       <use transform="translate(63.623047 0.78125)" xlink:href="#DejaVuSans-20"/>
       <use transform="translate(95.410156 0.78125)" xlink:href="#DejaVuSans-3a9"/>
      </g>
     </g>
    </g>
    <g id="ytick_2">
     <g id="line2d_17">
      <path clip-path="url(#p494b3638b4)" d="M 180 384.144984 
L 1296 384.144984 
" style="fill:none;stroke:#b0b0b0;stroke-linecap:square;stroke-width:0.8;"/>
     </g>
     <g id="line2d_18">
      <g>
       <use style="stroke:#000000;stroke-width:0.8;" x="180" xlink:href="#md7fc885ca3" y="384.144984"/>
      </g>
     </g>
     <g id="text_10">
      <!-- 10 $\Omega$ -->
      <g transform="translate(149.4 387.944203)scale(0.1 -0.1)">
       <use transform="translate(0 0.78125)" xlink:href="#DejaVuSans-31"/>
       <use transform="translate(63.623047 0.78125)" xlink:href="#DejaVuSans-30"/>
       <use transform="translate(127.246094 0.78125)" xlink:href="#DejaVuSans-20"/>
       <use transform="translate(159.033203 0.78125)" xlink:href="#DejaVuSans-3a9"/>
      </g>
     </g>
    </g>
    <g id="ytick_3">
     <g id="line2d_19">
      <path clip-path="url(#p494b3638b4)" d="M 180 301.904399 
L 1296 301.904399 
" style="fill:none;stroke:#b0b0b0;stroke-linecap:square;stroke-width:0.8;"/>
     </g>
     <g id="line2d_20">
      <g>
       <use style="stroke:#000000;stroke-width:0.8;" x="180" xlink:href="#md7fc885ca3" y="301.904399"/>
      </g>
     </g>
     <g id="text_11">
      <!-- 20 $\Omega$ -->
      <g transform="translate(149.4 305.703618)scale(0.1 -0.1)">
       <use transform="translate(0 0.78125)" xlink:href="#DejaVuSans-32"/>
       <use transform="translate(63.623047 0.78125)" xlink:href="#DejaVuSans-30"/>
       <use transform="translate(127.246094 0.78125)" xlink:href="#DejaVuSans-20"/>
       <use transform="translate(159.033203 0.78125)" xlink:href="#DejaVuSans-3a9"/>
      </g>
     </g>
    </g>
    <g id="ytick_4">
     <g id="line2d_21">
      <path clip-path="url(#p494b3638b4)" d="M 180 219.663814 
L 1296 219.663814 
" style="fill:none;stroke:#b0b0b0;stroke-linecap:square;stroke-width:0.8;"/>
     </g>
     <g id="line2d_22">
      <g>
       <use style="stroke:#000000;stroke-width:0.8;" x="180" xlink:href="#md7fc885ca3" y="219.663814"/>
      </g>
     </g>
     <g id="text_12">
      <!-- 30 $\Omega$ -->
      <g transform="translate(149.4 223.463033)scale(0.1 -0.1)">
       <defs>
        <path d="M 2597 2516 
Q 3050 2419 3304 2112 
Q 3559 1806 3559 1356 
Q 3559 666 3084 287 
Q 2609 -91 1734 -91 
Q 1441 -91 1130 -33 
Q 819 25 488 141 
L 488 750 
Q 750 597 1062 519 
Q 1375 441 1716 441 
Q 2309 441 2620 675 
Q 2931 909 2931 1356 
Q 2931 1769 2642 2001 
Q 2353 2234 1838 2234 
L 1294 2234 
L 1294 2753 
L 1863 2753 
Q 2328 2753 2575 2939 
Q 2822 3125 2822 3475 
Q 2822 3834 2567 4026 
Q 2313 4219 1838 4219 
Q 1578 4219 1281 4162 
Q 984 4106 628 3988 
L 628 4550 
Q 988 4650 1302 4700 
Q 1616 4750 1894 4750 
Q 2613 4750 3031 4423 
Q 3450 4097 3450 3541 
Q 3450 3153 3228 2886 
Q 3006 2619 2597 2516 
z
" id="DejaVuSans-33" transform="scale(0.015625)"/>
       </defs>
       <use transform="translate(0 0.78125)" xlink:href="#DejaVuSans-33"/>
       <use transform="translate(63.623047 0.78125)" xlink:href="#DejaVuSans-30"/>
       <use transform="translate(127.246094 0.78125)" xlink:href="#DejaVuSans-20"/>
       <use transform="translate(159.033203 0.78125)" xlink:href="#DejaVuSans-3a9"/>
      </g>
     </g>
    </g>
    <g id="ytick_5">
     <g id="line2d_23">
      <path clip-path="url(#p494b3638b4)" d="M 180 137.423229 
L 1296 137.423229 
" style="fill:none;stroke:#b0b0b0;stroke-linecap:square;stroke-width:0.8;"/>
     </g>
     <g id="line2d_24">
      <g>
       <use style="stroke:#000000;stroke-width:0.8;" x="180" xlink:href="#md7fc885ca3" y="137.423229"/>
      </g>
     </g>
     <g id="text_13">
      <!-- 40 $\Omega$ -->
      <g transform="translate(149.4 141.222448)scale(0.1 -0.1)">
       <use transform="translate(0 0.78125)" xlink:href="#DejaVuSans-34"/>
       <use transform="translate(63.623047 0.78125)" xlink:href="#DejaVuSans-30"/>
       <use transform="translate(127.246094 0.78125)" xlink:href="#DejaVuSans-20"/>
       <use transform="translate(159.033203 0.78125)" xlink:href="#DejaVuSans-3a9"/>
      </g>
     </g>
    </g>
    <g id="text_14">
     <!-- $-Z_{\rm im}$ -->
     <g transform="translate(143.320312 298.71)rotate(-90)scale(0.1 -0.1)">
      <defs>
       <path d="M 678 2272 
L 4684 2272 
L 4684 1741 
L 678 1741 
L 678 2272 
z
" id="DejaVuSans-2212" transform="scale(0.015625)"/>
       <path d="M 603 3500 
L 1178 3500 
L 1178 0 
L 603 0 
L 603 3500 
z
M 603 4863 
L 1178 4863 
L 1178 4134 
L 603 4134 
L 603 4863 
z
" id="DejaVuSans-69" transform="scale(0.015625)"/>
       <path d="M 3328 2828 
Q 3544 3216 3844 3400 
Q 4144 3584 4550 3584 
Q 5097 3584 5394 3201 
Q 5691 2819 5691 2113 
L 5691 0 
L 5113 0 
L 5113 2094 
Q 5113 2597 4934 2840 
Q 4756 3084 4391 3084 
Q 3944 3084 3684 2787 
Q 3425 2491 3425 1978 
L 3425 0 
L 2847 0 
L 2847 2094 
Q 2847 2600 2669 2842 
Q 2491 3084 2119 3084 
Q 1678 3084 1418 2786 
Q 1159 2488 1159 1978 
L 1159 0 
L 581 0 
L 581 3500 
L 1159 3500 
L 1159 2956 
Q 1356 3278 1631 3431 
Q 1906 3584 2284 3584 
Q 2666 3584 2933 3390 
Q 3200 3197 3328 2828 
z
" id="DejaVuSans-6d" transform="scale(0.015625)"/>
      </defs>
      <use transform="translate(0 0.09375)" xlink:href="#DejaVuSans-2212"/>
      <use transform="translate(83.789062 0.09375)" xlink:href="#DejaVuSans-Oblique-5a"/>
      <use transform="translate(152.294922 -16.3125)scale(0.7)" xlink:href="#DejaVuSans-69"/>
      <use transform="translate(171.743164 -16.3125)scale(0.7)" xlink:href="#DejaVuSans-6d"/>
     </g>
    </g>
   </g>
   <g id="line2d_25">
    <path clip-path="url(#p494b3638b4)" d="M 1245.272727 401.812378 
L 1236.245838 366.040598 
L 1215.600615 313.753274 
L 1171.862387 245.8146 
L 1091.679827 171.446461 
L 975.766521 119.163121 
L 849.462538 106.618158 
L 741.838233 123.022433 
L 657.786438 144.893023 
L 585.48322 161.464783 
L 515.032012 176.872868 
L 446.770684 199.14264 
L 387.407669 230.540065 
L 341.769025 267.28904 
L 310.178112 303.462073 
L 289.592467 335.399841 
L 276.621983 361.896631 
L 268.534333 383.177778 
L 263.479329 399.95508 
L 260.300291 413.127537 
L 258.236393 423.64203 
L 256.878999 432.14165 
L 256.150705 438.916733 
L 255.530952 444.542621 
L 254.978753 448.85098 
L 254.788103 452.441322 
L 254.571341 455.166554 
L 254.377589 457.433748 
L 254.286287 459.224633 
L 254.219332 460.657917 
L 254.201992 461.79838 
L 254.158456 462.710351 
L 254.126135 463.439963 
L 254.07984 464.025776 
L 254.059662 464.490821 
L 254.047056 464.862075 
L 254.027415 465.148353 
L 254.005638 465.392924 
L 253.988175 465.586309 
L 253.976082 465.743891 
L 253.964017 465.876303 
L 253.945394 465.98369 
L 253.937468 466.076331 
L 253.925049 466.158907 
L 253.91333 466.232279 
L 253.907131 466.299979 
L 253.902579 466.363524 
L 253.891498 466.428194 
L 253.884014 466.501842 
" style="fill:none;stroke:#1f77b4;stroke-linecap:square;stroke-width:1.5;"/>
    <defs>
     <path d="M -2.5 2.5 
L 2.5 -2.5 
M -2.5 -2.5 
L 2.5 2.5 
" id="m278fe9e916" style="stroke:#1f77b4;"/>
    </defs>
    <g clip-path="url(#p494b3638b4)">
     <use style="fill:#1f77b4;stroke:#1f77b4;" x="1245.272727" xlink:href="#m278fe9e916" y="401.812378"/>
     <use style="fill:#1f77b4;stroke:#1f77b4;" x="1236.245838" xlink:href="#m278fe9e916" y="366.040598"/>
     <use style="fill:#1f77b4;stroke:#1f77b4;" x="1215.600615" xlink:href="#m278fe9e916" y="313.753274"/>
     <use style="fill:#1f77b4;stroke:#1f77b4;" x="1171.862387" xlink:href="#m278fe9e916" y="245.8146"/>
     <use style="fill:#1f77b4;stroke:#1f77b4;" x="1091.679827" xlink:href="#m278fe9e916" y="171.446461"/>
     <use style="fill:#1f77b4;stroke:#1f77b4;" x="975.766521" xlink:href="#m278fe9e916" y="119.163121"/>
     <use style="fill:#1f77b4;stroke:#1f77b4;" x="849.462538" xlink:href="#m278fe9e916" y="106.618158"/>
     <use style="fill:#1f77b4;stroke:#1f77b4;" x="741.838233" xlink:href="#m278fe9e916" y="123.022433"/>
     <use style="fill:#1f77b4;stroke:#1f77b4;" x="657.786438" xlink:href="#m278fe9e916" y="144.893023"/>
     <use style="fill:#1f77b4;stroke:#1f77b4;" x="585.48322" xlink:href="#m278fe9e916" y="161.464783"/>
     <use style="fill:#1f77b4;stroke:#1f77b4;" x="515.032012" xlink:href="#m278fe9e916" y="176.872868"/>
     <use style="fill:#1f77b4;stroke:#1f77b4;" x="446.770684" xlink:href="#m278fe9e916" y="199.14264"/>
     <use style="fill:#1f77b4;stroke:#1f77b4;" x="387.407669" xlink:href="#m278fe9e916" y="230.540065"/>
     <use style="fill:#1f77b4;stroke:#1f77b4;" x="341.769025" xlink:href="#m278fe9e916" y="267.28904"/>
     <use style="fill:#1f77b4;stroke:#1f77b4;" x="310.178112" xlink:href="#m278fe9e916" y="303.462073"/>
     <use style="fill:#1f77b4;stroke:#1f77b4;" x="289.592467" xlink:href="#m278fe9e916" y="335.399841"/>
     <use style="fill:#1f77b4;stroke:#1f77b4;" x="276.621983" xlink:href="#m278fe9e916" y="361.896631"/>
     <use style="fill:#1f77b4;stroke:#1f77b4;" x="268.534333" xlink:href="#m278fe9e916" y="383.177778"/>
     <use style="fill:#1f77b4;stroke:#1f77b4;" x="263.479329" xlink:href="#m278fe9e916" y="399.95508"/>
     <use style="fill:#1f77b4;stroke:#1f77b4;" x="260.300291" xlink:href="#m278fe9e916" y="413.127537"/>
     <use style="fill:#1f77b4;stroke:#1f77b4;" x="258.236393" xlink:href="#m278fe9e916" y="423.64203"/>
     <use style="fill:#1f77b4;stroke:#1f77b4;" x="256.878999" xlink:href="#m278fe9e916" y="432.14165"/>
     <use style="fill:#1f77b4;stroke:#1f77b4;" x="256.150705" xlink:href="#m278fe9e916" y="438.916733"/>
     <use style="fill:#1f77b4;stroke:#1f77b4;" x="255.530952" xlink:href="#m278fe9e916" y="444.542621"/>
     <use style="fill:#1f77b4;stroke:#1f77b4;" x="254.978753" xlink:href="#m278fe9e916" y="448.85098"/>
     <use style="fill:#1f77b4;stroke:#1f77b4;" x="254.788103" xlink:href="#m278fe9e916" y="452.441322"/>
     <use style="fill:#1f77b4;stroke:#1f77b4;" x="254.571341" xlink:href="#m278fe9e916" y="455.166554"/>
     <use style="fill:#1f77b4;stroke:#1f77b4;" x="254.377589" xlink:href="#m278fe9e916" y="457.433748"/>
     <use style="fill:#1f77b4;stroke:#1f77b4;" x="254.286287" xlink:href="#m278fe9e916" y="459.224633"/>
     <use style="fill:#1f77b4;stroke:#1f77b4;" x="254.219332" xlink:href="#m278fe9e916" y="460.657917"/>
     <use style="fill:#1f77b4;stroke:#1f77b4;" x="254.201992" xlink:href="#m278fe9e916" y="461.79838"/>
     <use style="fill:#1f77b4;stroke:#1f77b4;" x="254.158456" xlink:href="#m278fe9e916" y="462.710351"/>
     <use style="fill:#1f77b4;stroke:#1f77b4;" x="254.126135" xlink:href="#m278fe9e916" y="463.439963"/>
     <use style="fill:#1f77b4;stroke:#1f77b4;" x="254.07984" xlink:href="#m278fe9e916" y="464.025776"/>
     <use style="fill:#1f77b4;stroke:#1f77b4;" x="254.059662" xlink:href="#m278fe9e916" y="464.490821"/>
     <use style="fill:#1f77b4;stroke:#1f77b4;" x="254.047056" xlink:href="#m278fe9e916" y="464.862075"/>
     <use style="fill:#1f77b4;stroke:#1f77b4;" x="254.027415" xlink:href="#m278fe9e916" y="465.148353"/>
     <use style="fill:#1f77b4;stroke:#1f77b4;" x="254.005638" xlink:href="#m278fe9e916" y="465.392924"/>
     <use style="fill:#1f77b4;stroke:#1f77b4;" x="253.988175" xlink:href="#m278fe9e916" y="465.586309"/>
     <use style="fill:#1f77b4;stroke:#1f77b4;" x="253.976082" xlink:href="#m278fe9e916" y="465.743891"/>
     <use style="fill:#1f77b4;stroke:#1f77b4;" x="253.964017" xlink:href="#m278fe9e916" y="465.876303"/>
     <use style="fill:#1f77b4;stroke:#1f77b4;" x="253.945394" xlink:href="#m278fe9e916" y="465.98369"/>
     <use style="fill:#1f77b4;stroke:#1f77b4;" x="253.937468" xlink:href="#m278fe9e916" y="466.076331"/>
     <use style="fill:#1f77b4;stroke:#1f77b4;" x="253.925049" xlink:href="#m278fe9e916" y="466.158907"/>
     <use style="fill:#1f77b4;stroke:#1f77b4;" x="253.91333" xlink:href="#m278fe9e916" y="466.232279"/>
     <use style="fill:#1f77b4;stroke:#1f77b4;" x="253.907131" xlink:href="#m278fe9e916" y="466.299979"/>
     <use style="fill:#1f77b4;stroke:#1f77b4;" x="253.902579" xlink:href="#m278fe9e916" y="466.363524"/>
     <use style="fill:#1f77b4;stroke:#1f77b4;" x="253.891498" xlink:href="#m278fe9e916" y="466.428194"/>
     <use style="fill:#1f77b4;stroke:#1f77b4;" x="253.884014" xlink:href="#m278fe9e916" y="466.501842"/>
    </g>
   </g>
   <g id="line2d_26">
    <path clip-path="url(#p494b3638b4)" d="M 628.987346 460.995013 
L 629.295707 457.733262 
L 628.850247 452.972628 
L 628.112449 445.293605 
L 626.870439 435.810918 
L 622.987711 420.344791 
L 615.989114 399.233517 
L 602.162843 370.836987 
L 577.633503 338.288316 
L 538.657659 306.586271 
L 485.978178 284.223044 
L 426.539286 278.19908 
L 372.197913 289.352986 
L 329.355772 311.540335 
L 299.315681 337.006394 
L 279.579791 361.117732 
L 267.155673 381.820785 
L 259.359172 398.758225 
L 254.513746 412.238258 
L 251.461002 422.923266 
L 249.486483 431.45401 
L 248.199547 438.382781 
L 247.477382 443.908883 
L 246.883392 448.505867 
L 246.389547 452.024413 
L 246.196955 454.960157 
L 246.003365 457.189628 
L 245.834021 459.040162 
L 245.741299 460.513776 
L 245.68095 461.683313 
L 245.66629 462.616869 
L 245.620553 463.364167 
L 245.594639 463.962737 
L 245.555889 464.445291 
L 245.536995 464.818382 
L 245.526444 465.122543 
L 245.509527 465.356072 
L 245.49181 465.551364 
L 245.471416 465.704083 
L 245.457592 465.836791 
L 245.444169 465.9307 
L 245.427209 466.022723 
L 245.424988 466.081586 
L 245.409889 466.13879 
L 245.398026 466.185304 
L 245.386302 466.227741 
L 245.38246 466.255669 
L 245.374719 466.287799 
L 245.357948 466.330212 
" style="fill:none;stroke:#ff7f0e;stroke-linecap:square;stroke-width:1.5;"/>
    <defs>
     <path d="M -2.5 2.5 
L 2.5 -2.5 
M -2.5 -2.5 
L 2.5 2.5 
" id="m967da7b14a" style="stroke:#ff7f0e;"/>
    </defs>
    <g clip-path="url(#p494b3638b4)">
     <use style="fill:#ff7f0e;stroke:#ff7f0e;" x="628.987346" xlink:href="#m967da7b14a" y="460.995013"/>
     <use style="fill:#ff7f0e;stroke:#ff7f0e;" x="629.295707" xlink:href="#m967da7b14a" y="457.733262"/>
     <use style="fill:#ff7f0e;stroke:#ff7f0e;" x="628.850247" xlink:href="#m967da7b14a" y="452.972628"/>
     <use style="fill:#ff7f0e;stroke:#ff7f0e;" x="628.112449" xlink:href="#m967da7b14a" y="445.293605"/>
     <use style="fill:#ff7f0e;stroke:#ff7f0e;" x="626.870439" xlink:href="#m967da7b14a" y="435.810918"/>
     <use style="fill:#ff7f0e;stroke:#ff7f0e;" x="622.987711" xlink:href="#m967da7b14a" y="420.344791"/>
     <use style="fill:#ff7f0e;stroke:#ff7f0e;" x="615.989114" xlink:href="#m967da7b14a" y="399.233517"/>
     <use style="fill:#ff7f0e;stroke:#ff7f0e;" x="602.162843" xlink:href="#m967da7b14a" y="370.836987"/>
     <use style="fill:#ff7f0e;stroke:#ff7f0e;" x="577.633503" xlink:href="#m967da7b14a" y="338.288316"/>
     <use style="fill:#ff7f0e;stroke:#ff7f0e;" x="538.657659" xlink:href="#m967da7b14a" y="306.586271"/>
     <use style="fill:#ff7f0e;stroke:#ff7f0e;" x="485.978178" xlink:href="#m967da7b14a" y="284.223044"/>
     <use style="fill:#ff7f0e;stroke:#ff7f0e;" x="426.539286" xlink:href="#m967da7b14a" y="278.19908"/>
     <use style="fill:#ff7f0e;stroke:#ff7f0e;" x="372.197913" xlink:href="#m967da7b14a" y="289.352986"/>
     <use style="fill:#ff7f0e;stroke:#ff7f0e;" x="329.355772" xlink:href="#m967da7b14a" y="311.540335"/>
     <use style="fill:#ff7f0e;stroke:#ff7f0e;" x="299.315681" xlink:href="#m967da7b14a" y="337.006394"/>
     <use style="fill:#ff7f0e;stroke:#ff7f0e;" x="279.579791" xlink:href="#m967da7b14a" y="361.117732"/>
     <use style="fill:#ff7f0e;stroke:#ff7f0e;" x="267.155673" xlink:href="#m967da7b14a" y="381.820785"/>
     <use style="fill:#ff7f0e;stroke:#ff7f0e;" x="259.359172" xlink:href="#m967da7b14a" y="398.758225"/>
     <use style="fill:#ff7f0e;stroke:#ff7f0e;" x="254.513746" xlink:href="#m967da7b14a" y="412.238258"/>
     <use style="fill:#ff7f0e;stroke:#ff7f0e;" x="251.461002" xlink:href="#m967da7b14a" y="422.923266"/>
     <use style="fill:#ff7f0e;stroke:#ff7f0e;" x="249.486483" xlink:href="#m967da7b14a" y="431.45401"/>
     <use style="fill:#ff7f0e;stroke:#ff7f0e;" x="248.199547" xlink:href="#m967da7b14a" y="438.382781"/>
     <use style="fill:#ff7f0e;stroke:#ff7f0e;" x="247.477382" xlink:href="#m967da7b14a" y="443.908883"/>
     <use style="fill:#ff7f0e;stroke:#ff7f0e;" x="246.883392" xlink:href="#m967da7b14a" y="448.505867"/>
     <use style="fill:#ff7f0e;stroke:#ff7f0e;" x="246.389547" xlink:href="#m967da7b14a" y="452.024413"/>
     <use style="fill:#ff7f0e;stroke:#ff7f0e;" x="246.196955" xlink:href="#m967da7b14a" y="454.960157"/>
     <use style="fill:#ff7f0e;stroke:#ff7f0e;" x="246.003365" xlink:href="#m967da7b14a" y="457.189628"/>
     <use style="fill:#ff7f0e;stroke:#ff7f0e;" x="245.834021" xlink:href="#m967da7b14a" y="459.040162"/>
     <use style="fill:#ff7f0e;stroke:#ff7f0e;" x="245.741299" xlink:href="#m967da7b14a" y="460.513776"/>
     <use style="fill:#ff7f0e;stroke:#ff7f0e;" x="245.68095" xlink:href="#m967da7b14a" y="461.683313"/>
     <use style="fill:#ff7f0e;stroke:#ff7f0e;" x="245.66629" xlink:href="#m967da7b14a" y="462.616869"/>
     <use style="fill:#ff7f0e;stroke:#ff7f0e;" x="245.620553" xlink:href="#m967da7b14a" y="463.364167"/>
     <use style="fill:#ff7f0e;stroke:#ff7f0e;" x="245.594639" xlink:href="#m967da7b14a" y="463.962737"/>
     <use style="fill:#ff7f0e;stroke:#ff7f0e;" x="245.555889" xlink:href="#m967da7b14a" y="464.445291"/>
     <use style="fill:#ff7f0e;stroke:#ff7f0e;" x="245.536995" xlink:href="#m967da7b14a" y="464.818382"/>
     <use style="fill:#ff7f0e;stroke:#ff7f0e;" x="245.526444" xlink:href="#m967da7b14a" y="465.122543"/>
     <use style="fill:#ff7f0e;stroke:#ff7f0e;" x="245.509527" xlink:href="#m967da7b14a" y="465.356072"/>
     <use style="fill:#ff7f0e;stroke:#ff7f0e;" x="245.49181" xlink:href="#m967da7b14a" y="465.551364"/>
     <use style="fill:#ff7f0e;stroke:#ff7f0e;" x="245.471416" xlink:href="#m967da7b14a" y="465.704083"/>
     <use style="fill:#ff7f0e;stroke:#ff7f0e;" x="245.457592" xlink:href="#m967da7b14a" y="465.836791"/>
     <use style="fill:#ff7f0e;stroke:#ff7f0e;" x="245.444169" xlink:href="#m967da7b14a" y="465.9307"/>
     <use style="fill:#ff7f0e;stroke:#ff7f0e;" x="245.427209" xlink:href="#m967da7b14a" y="466.022723"/>
     <use style="fill:#ff7f0e;stroke:#ff7f0e;" x="245.424988" xlink:href="#m967da7b14a" y="466.081586"/>
     <use style="fill:#ff7f0e;stroke:#ff7f0e;" x="245.409889" xlink:href="#m967da7b14a" y="466.13879"/>
     <use style="fill:#ff7f0e;stroke:#ff7f0e;" x="245.398026" xlink:href="#m967da7b14a" y="466.185304"/>
     <use style="fill:#ff7f0e;stroke:#ff7f0e;" x="245.386302" xlink:href="#m967da7b14a" y="466.227741"/>
     <use style="fill:#ff7f0e;stroke:#ff7f0e;" x="245.38246" xlink:href="#m967da7b14a" y="466.255669"/>
     <use style="fill:#ff7f0e;stroke:#ff7f0e;" x="245.374719" xlink:href="#m967da7b14a" y="466.287799"/>
     <use style="fill:#ff7f0e;stroke:#ff7f0e;" x="245.357948" xlink:href="#m967da7b14a" y="466.330212"/>
    </g>
   </g>
   <g id="line2d_27">
    <path clip-path="url(#p494b3638b4)" d="M 836.644721 407.062007 
L 827.690818 373.707247 
L 807.316144 326.13433 
L 764.183211 265.011603 
L 686.330862 203.140281 
L 573.927367 166.85434 
L 455.413007 175.598234 
L 361.346885 219.633302 
L 302.004841 273.914945 
L 268.957644 322.416962 
L 251.426497 360.101395 
L 242.041464 387.859461 
L 237.14399 407.912985 
L 234.520779 422.516822 
L 232.998714 433.138752 
L 232.141975 440.924696 
L 231.653124 446.656445 
L 231.356218 450.956894 
L 231.160708 454.220003 
L 231.045704 456.702722 
L 230.948459 458.653731 
L 230.888016 460.215663 
L 230.882255 461.442241 
L 230.851463 462.467585 
L 230.803258 463.24084 
L 230.792483 463.882225 
L 230.783159 464.38191 
L 230.76038 464.790674 
L 230.754492 465.112069 
L 230.751298 465.374126 
L 230.751481 465.57711 
L 230.755452 465.73808 
L 230.74533 465.872466 
L 230.739618 465.979123 
L 230.746499 466.05989 
L 230.741197 466.12905 
L 230.736154 466.186123 
L 230.733799 466.224369 
L 230.727476 466.260095 
L 230.736851 466.289454 
L 230.729339 466.30887 
L 230.729867 466.339458 
L 230.731279 466.352612 
L 230.729006 466.381736 
L 230.728277 466.405214 
L 230.728243 466.424872 
L 230.734837 466.443976 
L 230.727273 466.469172 
L 230.732064 466.493611 
" style="fill:none;stroke:#2ca02c;stroke-linecap:square;stroke-width:1.5;"/>
    <defs>
     <path d="M -2.5 2.5 
L 2.5 -2.5 
M -2.5 -2.5 
L 2.5 2.5 
" id="m04fe423e22" style="stroke:#2ca02c;"/>
    </defs>
    <g clip-path="url(#p494b3638b4)">
     <use style="fill:#2ca02c;stroke:#2ca02c;" x="836.644721" xlink:href="#m04fe423e22" y="407.062007"/>
     <use style="fill:#2ca02c;stroke:#2ca02c;" x="827.690818" xlink:href="#m04fe423e22" y="373.707247"/>
     <use style="fill:#2ca02c;stroke:#2ca02c;" x="807.316144" xlink:href="#m04fe423e22" y="326.13433"/>
     <use style="fill:#2ca02c;stroke:#2ca02c;" x="764.183211" xlink:href="#m04fe423e22" y="265.011603"/>
     <use style="fill:#2ca02c;stroke:#2ca02c;" x="686.330862" xlink:href="#m04fe423e22" y="203.140281"/>
     <use style="fill:#2ca02c;stroke:#2ca02c;" x="573.927367" xlink:href="#m04fe423e22" y="166.85434"/>
     <use style="fill:#2ca02c;stroke:#2ca02c;" x="455.413007" xlink:href="#m04fe423e22" y="175.598234"/>
     <use style="fill:#2ca02c;stroke:#2ca02c;" x="361.346885" xlink:href="#m04fe423e22" y="219.633302"/>
     <use style="fill:#2ca02c;stroke:#2ca02c;" x="302.004841" xlink:href="#m04fe423e22" y="273.914945"/>
     <use style="fill:#2ca02c;stroke:#2ca02c;" x="268.957644" xlink:href="#m04fe423e22" y="322.416962"/>
     <use style="fill:#2ca02c;stroke:#2ca02c;" x="251.426497" xlink:href="#m04fe423e22" y="360.101395"/>
     <use style="fill:#2ca02c;stroke:#2ca02c;" x="242.041464" xlink:href="#m04fe423e22" y="387.859461"/>
     <use style="fill:#2ca02c;stroke:#2ca02c;" x="237.14399" xlink:href="#m04fe423e22" y="407.912985"/>
     <use style="fill:#2ca02c;stroke:#2ca02c;" x="234.520779" xlink:href="#m04fe423e22" y="422.516822"/>
     <use style="fill:#2ca02c;stroke:#2ca02c;" x="232.998714" xlink:href="#m04fe423e22" y="433.138752"/>
     <use style="fill:#2ca02c;stroke:#2ca02c;" x="232.141975" xlink:href="#m04fe423e22" y="440.924696"/>
     <use style="fill:#2ca02c;stroke:#2ca02c;" x="231.653124" xlink:href="#m04fe423e22" y="446.656445"/>
     <use style="fill:#2ca02c;stroke:#2ca02c;" x="231.356218" xlink:href="#m04fe423e22" y="450.956894"/>
     <use style="fill:#2ca02c;stroke:#2ca02c;" x="231.160708" xlink:href="#m04fe423e22" y="454.220003"/>
     <use style="fill:#2ca02c;stroke:#2ca02c;" x="231.045704" xlink:href="#m04fe423e22" y="456.702722"/>
     <use style="fill:#2ca02c;stroke:#2ca02c;" x="230.948459" xlink:href="#m04fe423e22" y="458.653731"/>
     <use style="fill:#2ca02c;stroke:#2ca02c;" x="230.888016" xlink:href="#m04fe423e22" y="460.215663"/>
     <use style="fill:#2ca02c;stroke:#2ca02c;" x="230.882255" xlink:href="#m04fe423e22" y="461.442241"/>
     <use style="fill:#2ca02c;stroke:#2ca02c;" x="230.851463" xlink:href="#m04fe423e22" y="462.467585"/>
     <use style="fill:#2ca02c;stroke:#2ca02c;" x="230.803258" xlink:href="#m04fe423e22" y="463.24084"/>
     <use style="fill:#2ca02c;stroke:#2ca02c;" x="230.792483" xlink:href="#m04fe423e22" y="463.882225"/>
     <use style="fill:#2ca02c;stroke:#2ca02c;" x="230.783159" xlink:href="#m04fe423e22" y="464.38191"/>
     <use style="fill:#2ca02c;stroke:#2ca02c;" x="230.76038" xlink:href="#m04fe423e22" y="464.790674"/>
     <use style="fill:#2ca02c;stroke:#2ca02c;" x="230.754492" xlink:href="#m04fe423e22" y="465.112069"/>
     <use style="fill:#2ca02c;stroke:#2ca02c;" x="230.751298" xlink:href="#m04fe423e22" y="465.374126"/>
     <use style="fill:#2ca02c;stroke:#2ca02c;" x="230.751481" xlink:href="#m04fe423e22" y="465.57711"/>
     <use style="fill:#2ca02c;stroke:#2ca02c;" x="230.755452" xlink:href="#m04fe423e22" y="465.73808"/>
     <use style="fill:#2ca02c;stroke:#2ca02c;" x="230.74533" xlink:href="#m04fe423e22" y="465.872466"/>
     <use style="fill:#2ca02c;stroke:#2ca02c;" x="230.739618" xlink:href="#m04fe423e22" y="465.979123"/>
     <use style="fill:#2ca02c;stroke:#2ca02c;" x="230.746499" xlink:href="#m04fe423e22" y="466.05989"/>
     <use style="fill:#2ca02c;stroke:#2ca02c;" x="230.741197" xlink:href="#m04fe423e22" y="466.12905"/>
     <use style="fill:#2ca02c;stroke:#2ca02c;" x="230.736154" xlink:href="#m04fe423e22" y="466.186123"/>
     <use style="fill:#2ca02c;stroke:#2ca02c;" x="230.733799" xlink:href="#m04fe423e22" y="466.224369"/>
     <use style="fill:#2ca02c;stroke:#2ca02c;" x="230.727476" xlink:href="#m04fe423e22" y="466.260095"/>
     <use style="fill:#2ca02c;stroke:#2ca02c;" x="230.736851" xlink:href="#m04fe423e22" y="466.289454"/>
     <use style="fill:#2ca02c;stroke:#2ca02c;" x="230.729339" xlink:href="#m04fe423e22" y="466.30887"/>
     <use style="fill:#2ca02c;stroke:#2ca02c;" x="230.729867" xlink:href="#m04fe423e22" y="466.339458"/>
     <use style="fill:#2ca02c;stroke:#2ca02c;" x="230.731279" xlink:href="#m04fe423e22" y="466.352612"/>
     <use style="fill:#2ca02c;stroke:#2ca02c;" x="230.729006" xlink:href="#m04fe423e22" y="466.381736"/>
     <use style="fill:#2ca02c;stroke:#2ca02c;" x="230.728277" xlink:href="#m04fe423e22" y="466.405214"/>
     <use style="fill:#2ca02c;stroke:#2ca02c;" x="230.728243" xlink:href="#m04fe423e22" y="466.424872"/>
     <use style="fill:#2ca02c;stroke:#2ca02c;" x="230.734837" xlink:href="#m04fe423e22" y="466.443976"/>
     <use style="fill:#2ca02c;stroke:#2ca02c;" x="230.727273" xlink:href="#m04fe423e22" y="466.469172"/>
     <use style="fill:#2ca02c;stroke:#2ca02c;" x="230.732064" xlink:href="#m04fe423e22" y="466.493611"/>
    </g>
   </g>
   <g id="patch_3">
    <path d="M 180 484.496026 
L 180 88.623974 
" style="fill:none;stroke:#000000;stroke-linecap:square;stroke-linejoin:miter;stroke-width:0.8;"/>
   </g>
   <g id="patch_4">
    <path d="M 1296 484.496026 
L 1296 88.623974 
" style="fill:none;stroke:#000000;stroke-linecap:square;stroke-linejoin:miter;stroke-width:0.8;"/>
   </g>
   <g id="patch_5">
    <path d="M 180 484.496026 
L 1296 484.496026 
" style="fill:none;stroke:#000000;stroke-linecap:square;stroke-linejoin:miter;stroke-width:0.8;"/>
   </g>
   <g id="patch_6">
    <path d="M 180 88.623974 
L 1296 88.623974 
" style="fill:none;stroke:#000000;stroke-linecap:square;stroke-linejoin:miter;stroke-width:0.8;"/>
   </g>
   <g id="legend_1">
    <g id="patch_7">
     <path d="M 1215.320625 151.065224 
L 1287.6 151.065224 
Q 1290 151.065224 1290 148.665224 
L 1290 97.023974 
Q 1290 94.623974 1287.6 94.623974 
L 1215.320625 94.623974 
Q 1212.920625 94.623974 1212.920625 97.023974 
L 1212.920625 148.665224 
Q 1212.920625 151.065224 1215.320625 151.065224 
z
" style="fill:#ffffff;opacity:0.8;stroke:#cccccc;stroke-linejoin:miter;"/>
    </g>
    <g id="line2d_28">
     <path d="M 1217.720625 104.342099 
L 1241.720625 104.342099 
" style="fill:none;stroke:#1f77b4;stroke-linecap:square;stroke-width:1.5;"/>
    </g>
    <g id="line2d_29">
     <g>
      <use style="fill:#1f77b4;stroke:#1f77b4;" x="1229.720625" xlink:href="#m278fe9e916" y="104.342099"/>
     </g>
    </g>
    <g id="text_15">
     <!-- Stack -->
     <g transform="translate(1251.320625 108.542099)scale(0.12 -0.12)">
      <defs>
       <path d="M 3425 4513 
L 3425 3897 
Q 3066 4069 2747 4153 
Q 2428 4238 2131 4238 
Q 1616 4238 1336 4038 
Q 1056 3838 1056 3469 
Q 1056 3159 1242 3001 
Q 1428 2844 1947 2747 
L 2328 2669 
Q 3034 2534 3370 2195 
Q 3706 1856 3706 1288 
Q 3706 609 3251 259 
Q 2797 -91 1919 -91 
Q 1588 -91 1214 -16 
Q 841 59 441 206 
L 441 856 
Q 825 641 1194 531 
Q 1563 422 1919 422 
Q 2459 422 2753 634 
Q 3047 847 3047 1241 
Q 3047 1584 2836 1778 
Q 2625 1972 2144 2069 
L 1759 2144 
Q 1053 2284 737 2584 
Q 422 2884 422 3419 
Q 422 4038 858 4394 
Q 1294 4750 2059 4750 
Q 2388 4750 2728 4690 
Q 3069 4631 3425 4513 
z
" id="DejaVuSans-53" transform="scale(0.015625)"/>
       <path d="M 1172 4494 
L 1172 3500 
L 2356 3500 
L 2356 3053 
L 1172 3053 
L 1172 1153 
Q 1172 725 1289 603 
Q 1406 481 1766 481 
L 2356 481 
L 2356 0 
L 1766 0 
Q 1100 0 847 248 
Q 594 497 594 1153 
L 594 3053 
L 172 3053 
L 172 3500 
L 594 3500 
L 594 4494 
L 1172 4494 
z
" id="DejaVuSans-74" transform="scale(0.015625)"/>
       <path d="M 2194 1759 
Q 1497 1759 1228 1600 
Q 959 1441 959 1056 
Q 959 750 1161 570 
Q 1363 391 1709 391 
Q 2188 391 2477 730 
Q 2766 1069 2766 1631 
L 2766 1759 
L 2194 1759 
z
M 3341 1997 
L 3341 0 
L 2766 0 
L 2766 531 
Q 2569 213 2275 61 
Q 1981 -91 1556 -91 
Q 1019 -91 701 211 
Q 384 513 384 1019 
Q 384 1609 779 1909 
Q 1175 2209 1959 2209 
L 2766 2209 
L 2766 2266 
Q 2766 2663 2505 2880 
Q 2244 3097 1772 3097 
Q 1472 3097 1187 3025 
Q 903 2953 641 2809 
L 641 3341 
Q 956 3463 1253 3523 
Q 1550 3584 1831 3584 
Q 2591 3584 2966 3190 
Q 3341 2797 3341 1997 
z
" id="DejaVuSans-61" transform="scale(0.015625)"/>
       <path d="M 3122 3366 
L 3122 2828 
Q 2878 2963 2633 3030 
Q 2388 3097 2138 3097 
Q 1578 3097 1268 2742 
Q 959 2388 959 1747 
Q 959 1106 1268 751 
Q 1578 397 2138 397 
Q 2388 397 2633 464 
Q 2878 531 3122 666 
L 3122 134 
Q 2881 22 2623 -34 
Q 2366 -91 2075 -91 
Q 1284 -91 818 406 
Q 353 903 353 1747 
Q 353 2603 823 3093 
Q 1294 3584 2113 3584 
Q 2378 3584 2631 3529 
Q 2884 3475 3122 3366 
z
" id="DejaVuSans-63" transform="scale(0.015625)"/>
       <path d="M 581 4863 
L 1159 4863 
L 1159 1991 
L 2875 3500 
L 3609 3500 
L 1753 1863 
L 3688 0 
L 2938 0 
L 1159 1709 
L 1159 0 
L 581 0 
L 581 4863 
z
" id="DejaVuSans-6b" transform="scale(0.015625)"/>
      </defs>
      <use xlink:href="#DejaVuSans-53"/>
      <use x="63.476562" xlink:href="#DejaVuSans-74"/>
      <use x="102.685547" xlink:href="#DejaVuSans-61"/>
      <use x="163.964844" xlink:href="#DejaVuSans-63"/>
      <use x="218.945312" xlink:href="#DejaVuSans-6b"/>
     </g>
    </g>
    <g id="line2d_30">
     <path d="M 1217.720625 121.955849 
L 1241.720625 121.955849 
" style="fill:none;stroke:#ff7f0e;stroke-linecap:square;stroke-width:1.5;"/>
    </g>
    <g id="line2d_31">
     <g>
      <use style="fill:#ff7f0e;stroke:#ff7f0e;" x="1229.720625" xlink:href="#m967da7b14a" y="121.955849"/>
     </g>
    </g>
    <g id="text_16">
     <!-- Cell 1 -->
     <g transform="translate(1251.320625 126.155849)scale(0.12 -0.12)">
      <defs>
       <path d="M 4122 4306 
L 4122 3641 
Q 3803 3938 3442 4084 
Q 3081 4231 2675 4231 
Q 1875 4231 1450 3742 
Q 1025 3253 1025 2328 
Q 1025 1406 1450 917 
Q 1875 428 2675 428 
Q 3081 428 3442 575 
Q 3803 722 4122 1019 
L 4122 359 
Q 3791 134 3420 21 
Q 3050 -91 2638 -91 
Q 1578 -91 968 557 
Q 359 1206 359 2328 
Q 359 3453 968 4101 
Q 1578 4750 2638 4750 
Q 3056 4750 3426 4639 
Q 3797 4528 4122 4306 
z
" id="DejaVuSans-43" transform="scale(0.015625)"/>
       <path d="M 603 4863 
L 1178 4863 
L 1178 0 
L 603 0 
L 603 4863 
z
" id="DejaVuSans-6c" transform="scale(0.015625)"/>
      </defs>
      <use xlink:href="#DejaVuSans-43"/>
      <use x="69.824219" xlink:href="#DejaVuSans-65"/>
      <use x="131.347656" xlink:href="#DejaVuSans-6c"/>
      <use x="159.130859" xlink:href="#DejaVuSans-6c"/>
      <use x="186.914062" xlink:href="#DejaVuSans-20"/>
      <use x="218.701172" xlink:href="#DejaVuSans-31"/>
     </g>
    </g>
    <g id="line2d_32">
     <path d="M 1217.720625 139.569599 
L 1241.720625 139.569599 
" style="fill:none;stroke:#2ca02c;stroke-linecap:square;stroke-width:1.5;"/>
    </g>
    <g id="line2d_33">
     <g>
      <use style="fill:#2ca02c;stroke:#2ca02c;" x="1229.720625" xlink:href="#m04fe423e22" y="139.569599"/>
     </g>
    </g>
    <g id="text_17">
     <!-- Cell 2 -->
     <g transform="translate(1251.320625 143.769599)scale(0.12 -0.12)">
      <use xlink:href="#DejaVuSans-43"/>
      <use x="69.824219" xlink:href="#DejaVuSans-65"/>
      <use x="131.347656" xlink:href="#DejaVuSans-6c"/>
      <use x="159.130859" xlink:href="#DejaVuSans-6c"/>
      <use x="186.914062" xlink:href="#DejaVuSans-20"/>
      <use x="218.701172" xlink:href="#DejaVuSans-32"/>
     </g>
    </g>
   </g>
  </g>
  <g id="text_18">
   <!-- Nyquist -->
   <g transform="translate(697.20375 20.638125)scale(0.12 -0.12)">
    <defs>
     <path d="M 628 4666 
L 1478 4666 
L 3547 763 
L 3547 4666 
L 4159 4666 
L 4159 0 
L 3309 0 
L 1241 3903 
L 1241 0 
L 628 0 
L 628 4666 
z
" id="DejaVuSans-4e" transform="scale(0.015625)"/>
     <path d="M 2059 -325 
Q 1816 -950 1584 -1140 
Q 1353 -1331 966 -1331 
L 506 -1331 
L 506 -850 
L 844 -850 
Q 1081 -850 1212 -737 
Q 1344 -625 1503 -206 
L 1606 56 
L 191 3500 
L 800 3500 
L 1894 763 
L 2988 3500 
L 3597 3500 
L 2059 -325 
z
" id="DejaVuSans-79" transform="scale(0.015625)"/>
     <path d="M 947 1747 
Q 947 1113 1208 752 
Q 1469 391 1925 391 
Q 2381 391 2643 752 
Q 2906 1113 2906 1747 
Q 2906 2381 2643 2742 
Q 2381 3103 1925 3103 
Q 1469 3103 1208 2742 
Q 947 2381 947 1747 
z
M 2906 525 
Q 2725 213 2448 61 
Q 2172 -91 1784 -91 
Q 1150 -91 751 415 
Q 353 922 353 1747 
Q 353 2572 751 3078 
Q 1150 3584 1784 3584 
Q 2172 3584 2448 3432 
Q 2725 3281 2906 2969 
L 2906 3500 
L 3481 3500 
L 3481 -1331 
L 2906 -1331 
L 2906 525 
z
" id="DejaVuSans-71" transform="scale(0.015625)"/>
     <path d="M 544 1381 
L 544 3500 
L 1119 3500 
L 1119 1403 
Q 1119 906 1312 657 
Q 1506 409 1894 409 
Q 2359 409 2629 706 
Q 2900 1003 2900 1516 
L 2900 3500 
L 3475 3500 
L 3475 0 
L 2900 0 
L 2900 538 
Q 2691 219 2414 64 
Q 2138 -91 1772 -91 
Q 1169 -91 856 284 
Q 544 659 544 1381 
z
M 1991 3584 
L 1991 3584 
z
" id="DejaVuSans-75" transform="scale(0.015625)"/>
     <path d="M 2834 3397 
L 2834 2853 
Q 2591 2978 2328 3040 
Q 2066 3103 1784 3103 
Q 1356 3103 1142 2972 
Q 928 2841 928 2578 
Q 928 2378 1081 2264 
Q 1234 2150 1697 2047 
L 1894 2003 
Q 2506 1872 2764 1633 
Q 3022 1394 3022 966 
Q 3022 478 2636 193 
Q 2250 -91 1575 -91 
Q 1294 -91 989 -36 
Q 684 19 347 128 
L 347 722 
Q 666 556 975 473 
Q 1284 391 1588 391 
Q 1994 391 2212 530 
Q 2431 669 2431 922 
Q 2431 1156 2273 1281 
Q 2116 1406 1581 1522 
L 1381 1569 
Q 847 1681 609 1914 
Q 372 2147 372 2553 
Q 372 3047 722 3315 
Q 1072 3584 1716 3584 
Q 2034 3584 2315 3537 
Q 2597 3491 2834 3397 
z
" id="DejaVuSans-73" transform="scale(0.015625)"/>
    </defs>
    <use xlink:href="#DejaVuSans-4e"/>
    <use x="74.804688" xlink:href="#DejaVuSans-79"/>
    <use x="133.984375" xlink:href="#DejaVuSans-71"/>
    <use x="197.460938" xlink:href="#DejaVuSans-75"/>
    <use x="260.839844" xlink:href="#DejaVuSans-69"/>
    <use x="288.623047" xlink:href="#DejaVuSans-73"/>
    <use x="340.722656" xlink:href="#DejaVuSans-74"/>
   </g>
  </g>
 </g>
 <defs>
  <clipPath id="p494b3638b4">
   <rect height="395.872052" width="1116" x="180" y="88.623974"/>
  </clipPath>
 </defs>
</svg>
