<?xml version="1.0" encoding="utf-8" standalone="no"?>
<!DOCTYPE svg PUBLIC "-//W3C//DTD SVG 1.1//EN"
  "http://www.w3.org/Graphics/SVG/1.1/DTD/svg11.dtd">
<svg height="576pt" version="1.1" viewBox="0 0 1440 576" width="1440pt" xmlns="http://www.w3.org/2000/svg" xmlns:xlink="http://www.w3.org/1999/xlink">
 <metadata>
  <rdf:RDF xmlns:cc="http://creativecommons.org/ns#" xmlns:dc="http://purl.org/dc/elements/1.1/" xmlns:rdf="http://www.w3.org/1999/02/22-rdf-syntax-ns#">
   <cc:Work>
    <dc:type rdf:resource="http://purl.org/dc/dcmitype/StillImage"/>
    <dc:date>2021-11-16T12:36:44.719199</dc:date>
    <dc:format>image/svg+xml</dc:format>
    <dc:creator>
     <cc:Agent>
      <dc:title>Matplotlib v3.4.3, https://matplotlib.org/</dc:title>
     </cc:Agent>
    </dc:creator>
   </cc:Work>
  </rdf:RDF>
 </metadata>
 <defs>
  <style type="text/css">*{stroke-linecap:butt;stroke-linejoin:round;}</style>
 </defs>
 <g id="figure_1">
  <g id="patch_1">
   <path d="M 0 576 
L 1440 576 
L 1440 0 
L 0 0 
z
" style="fill:#ffffff;"/>
  </g>
  <g id="axes_1">
   <g id="patch_2">
    <path d="M 291.235647 512.64 
L 1184.764353 512.64 
L 1184.764353 69.12 
L 291.235647 69.12 
z
" style="fill:#ffffff;"/>
   </g>
   <g id="matplotlib.axis_1">
    <g id="xtick_1">
     <g id="line2d_1">
      <path clip-path="url(#pb7198c81df)" d="M 332.773985 512.64 
L 332.773985 69.12 
" style="fill:none;stroke:#b0b0b0;stroke-linecap:square;stroke-width:0.8;"/>
     </g>
     <g id="line2d_2">
      <defs>
       <path d="M 0 0 
L 0 3.5 
" id="m1145247f63" style="stroke:#000000;stroke-width:0.8;"/>
      </defs>
      <g>
       <use style="stroke:#000000;stroke-width:0.8;" x="332.773985" xlink:href="#m1145247f63" y="512.64"/>
      </g>
     </g>
     <g id="text_1">
      <!-- 0 $\Omega$ -->
      <g transform="translate(324.173985 527.238438)scale(0.1 -0.1)">
       <defs>
        <path d="M 2034 4250 
Q 1547 4250 1301 3770 
Q 1056 3291 1056 2328 
Q 1056 1369 1301 889 
Q 1547 409 2034 409 
Q 2525 409 2770 889 
Q 3016 1369 3016 2328 
Q 3016 3291 2770 3770 
Q 2525 4250 2034 4250 
z
M 2034 4750 
Q 2819 4750 3233 4129 
Q 3647 3509 3647 2328 
Q 3647 1150 3233 529 
Q 2819 -91 2034 -91 
Q 1250 -91 836 529 
Q 422 1150 422 2328 
Q 422 3509 836 4129 
Q 1250 4750 2034 4750 
z
" id="DejaVuSans-30" transform="scale(0.015625)"/>
        <path id="DejaVuSans-20" transform="scale(0.015625)"/>
        <path d="M 4647 556 
L 4647 0 
L 2772 0 
L 2772 556 
Q 3325 859 3634 1378 
Q 3944 1897 3944 2528 
Q 3944 3278 3531 3731 
Q 3119 4184 2444 4184 
Q 1769 4184 1355 3729 
Q 941 3275 941 2528 
Q 941 1897 1250 1378 
Q 1563 859 2119 556 
L 2119 0 
L 244 0 
L 244 556 
L 1241 556 
Q 747 991 519 1456 
Q 294 1922 294 2497 
Q 294 3491 894 4106 
Q 1491 4722 2444 4722 
Q 3391 4722 3994 4106 
Q 4594 3494 4594 2528 
Q 4594 1922 4372 1459 
Q 4150 997 3647 556 
L 4647 556 
z
" id="DejaVuSans-3a9" transform="scale(0.015625)"/>
       </defs>
       <use transform="translate(0 0.78125)" xlink:href="#DejaVuSans-30"/>
       <use transform="translate(63.623047 0.78125)" xlink:href="#DejaVuSans-20"/>
       <use transform="translate(95.410156 0.78125)" xlink:href="#DejaVuSans-3a9"/>
      </g>
     </g>
    </g>
    <g id="xtick_2">
     <g id="line2d_3">
      <path clip-path="url(#pb7198c81df)" d="M 495.394148 512.64 
L 495.394148 69.12 
" style="fill:none;stroke:#b0b0b0;stroke-linecap:square;stroke-width:0.8;"/>
     </g>
     <g id="line2d_4">
      <g>
       <use style="stroke:#000000;stroke-width:0.8;" x="495.394148" xlink:href="#m1145247f63" y="512.64"/>
      </g>
     </g>
     <g id="text_2">
      <!-- 20 M$\Omega$ -->
      <g transform="translate(479.294148 527.238438)scale(0.1 -0.1)">
       <defs>
        <path d="M 1228 531 
L 3431 531 
L 3431 0 
L 469 0 
L 469 531 
Q 828 903 1448 1529 
Q 2069 2156 2228 2338 
Q 2531 2678 2651 2914 
Q 2772 3150 2772 3378 
Q 2772 3750 2511 3984 
Q 2250 4219 1831 4219 
Q 1534 4219 1204 4116 
Q 875 4013 500 3803 
L 500 4441 
Q 881 4594 1212 4672 
Q 1544 4750 1819 4750 
Q 2544 4750 2975 4387 
Q 3406 4025 3406 3419 
Q 3406 3131 3298 2873 
Q 3191 2616 2906 2266 
Q 2828 2175 2409 1742 
Q 1991 1309 1228 531 
z
" id="DejaVuSans-32" transform="scale(0.015625)"/>
        <path d="M 628 4666 
L 1569 4666 
L 2759 1491 
L 3956 4666 
L 4897 4666 
L 4897 0 
L 4281 0 
L 4281 4097 
L 3078 897 
L 2444 897 
L 1241 4097 
L 1241 0 
L 628 0 
L 628 4666 
z
" id="DejaVuSans-4d" transform="scale(0.015625)"/>
       </defs>
       <use transform="translate(0 0.78125)" xlink:href="#DejaVuSans-32"/>
       <use transform="translate(63.623047 0.78125)" xlink:href="#DejaVuSans-30"/>
       <use transform="translate(127.246094 0.78125)" xlink:href="#DejaVuSans-20"/>
       <use transform="translate(159.033203 0.78125)" xlink:href="#DejaVuSans-4d"/>
       <use transform="translate(245.3125 0.78125)" xlink:href="#DejaVuSans-3a9"/>
      </g>
     </g>
    </g>
    <g id="xtick_3">
     <g id="line2d_5">
      <path clip-path="url(#pb7198c81df)" d="M 658.014311 512.64 
L 658.014311 69.12 
" style="fill:none;stroke:#b0b0b0;stroke-linecap:square;stroke-width:0.8;"/>
     </g>
     <g id="line2d_6">
      <g>
       <use style="stroke:#000000;stroke-width:0.8;" x="658.014311" xlink:href="#m1145247f63" y="512.64"/>
      </g>
     </g>
     <g id="text_3">
      <!-- 40 M$\Omega$ -->
      <g transform="translate(641.914311 527.238438)scale(0.1 -0.1)">
       <defs>
        <path d="M 2419 4116 
L 825 1625 
L 2419 1625 
L 2419 4116 
z
M 2253 4666 
L 3047 4666 
L 3047 1625 
L 3713 1625 
L 3713 1100 
L 3047 1100 
L 3047 0 
L 2419 0 
L 2419 1100 
L 313 1100 
L 313 1709 
L 2253 4666 
z
" id="DejaVuSans-34" transform="scale(0.015625)"/>
       </defs>
       <use transform="translate(0 0.78125)" xlink:href="#DejaVuSans-34"/>
       <use transform="translate(63.623047 0.78125)" xlink:href="#DejaVuSans-30"/>
       <use transform="translate(127.246094 0.78125)" xlink:href="#DejaVuSans-20"/>
       <use transform="translate(159.033203 0.78125)" xlink:href="#DejaVuSans-4d"/>
       <use transform="translate(245.3125 0.78125)" xlink:href="#DejaVuSans-3a9"/>
      </g>
     </g>
    </g>
    <g id="xtick_4">
     <g id="line2d_7">
      <path clip-path="url(#pb7198c81df)" d="M 820.634474 512.64 
L 820.634474 69.12 
" style="fill:none;stroke:#b0b0b0;stroke-linecap:square;stroke-width:0.8;"/>
     </g>
     <g id="line2d_8">
      <g>
       <use style="stroke:#000000;stroke-width:0.8;" x="820.634474" xlink:href="#m1145247f63" y="512.64"/>
      </g>
     </g>
     <g id="text_4">
      <!-- 60 M$\Omega$ -->
      <g transform="translate(804.534474 527.238438)scale(0.1 -0.1)">
       <defs>
        <path d="M 2113 2584 
Q 1688 2584 1439 2293 
Q 1191 2003 1191 1497 
Q 1191 994 1439 701 
Q 1688 409 2113 409 
Q 2538 409 2786 701 
Q 3034 994 3034 1497 
Q 3034 2003 2786 2293 
Q 2538 2584 2113 2584 
z
M 3366 4563 
L 3366 3988 
Q 3128 4100 2886 4159 
Q 2644 4219 2406 4219 
Q 1781 4219 1451 3797 
Q 1122 3375 1075 2522 
Q 1259 2794 1537 2939 
Q 1816 3084 2150 3084 
Q 2853 3084 3261 2657 
Q 3669 2231 3669 1497 
Q 3669 778 3244 343 
Q 2819 -91 2113 -91 
Q 1303 -91 875 529 
Q 447 1150 447 2328 
Q 447 3434 972 4092 
Q 1497 4750 2381 4750 
Q 2619 4750 2861 4703 
Q 3103 4656 3366 4563 
z
" id="DejaVuSans-36" transform="scale(0.015625)"/>
       </defs>
       <use transform="translate(0 0.78125)" xlink:href="#DejaVuSans-36"/>
       <use transform="translate(63.623047 0.78125)" xlink:href="#DejaVuSans-30"/>
       <use transform="translate(127.246094 0.78125)" xlink:href="#DejaVuSans-20"/>
       <use transform="translate(159.033203 0.78125)" xlink:href="#DejaVuSans-4d"/>
       <use transform="translate(245.3125 0.78125)" xlink:href="#DejaVuSans-3a9"/>
      </g>
     </g>
    </g>
    <g id="xtick_5">
     <g id="line2d_9">
      <path clip-path="url(#pb7198c81df)" d="M 983.254637 512.64 
L 983.254637 69.12 
" style="fill:none;stroke:#b0b0b0;stroke-linecap:square;stroke-width:0.8;"/>
     </g>
     <g id="line2d_10">
      <g>
       <use style="stroke:#000000;stroke-width:0.8;" x="983.254637" xlink:href="#m1145247f63" y="512.64"/>
      </g>
     </g>
     <g id="text_5">
      <!-- 80 M$\Omega$ -->
      <g transform="translate(967.154637 527.238438)scale(0.1 -0.1)">
       <defs>
        <path d="M 2034 2216 
Q 1584 2216 1326 1975 
Q 1069 1734 1069 1313 
Q 1069 891 1326 650 
Q 1584 409 2034 409 
Q 2484 409 2743 651 
Q 3003 894 3003 1313 
Q 3003 1734 2745 1975 
Q 2488 2216 2034 2216 
z
M 1403 2484 
Q 997 2584 770 2862 
Q 544 3141 544 3541 
Q 544 4100 942 4425 
Q 1341 4750 2034 4750 
Q 2731 4750 3128 4425 
Q 3525 4100 3525 3541 
Q 3525 3141 3298 2862 
Q 3072 2584 2669 2484 
Q 3125 2378 3379 2068 
Q 3634 1759 3634 1313 
Q 3634 634 3220 271 
Q 2806 -91 2034 -91 
Q 1263 -91 848 271 
Q 434 634 434 1313 
Q 434 1759 690 2068 
Q 947 2378 1403 2484 
z
M 1172 3481 
Q 1172 3119 1398 2916 
Q 1625 2713 2034 2713 
Q 2441 2713 2670 2916 
Q 2900 3119 2900 3481 
Q 2900 3844 2670 4047 
Q 2441 4250 2034 4250 
Q 1625 4250 1398 4047 
Q 1172 3844 1172 3481 
z
" id="DejaVuSans-38" transform="scale(0.015625)"/>
       </defs>
       <use transform="translate(0 0.78125)" xlink:href="#DejaVuSans-38"/>
       <use transform="translate(63.623047 0.78125)" xlink:href="#DejaVuSans-30"/>
       <use transform="translate(127.246094 0.78125)" xlink:href="#DejaVuSans-20"/>
       <use transform="translate(159.033203 0.78125)" xlink:href="#DejaVuSans-4d"/>
       <use transform="translate(245.3125 0.78125)" xlink:href="#DejaVuSans-3a9"/>
      </g>
     </g>
    </g>
    <g id="xtick_6">
     <g id="line2d_11">
      <path clip-path="url(#pb7198c81df)" d="M 1145.8748 512.64 
L 1145.8748 69.12 
" style="fill:none;stroke:#b0b0b0;stroke-linecap:square;stroke-width:0.8;"/>
     </g>
     <g id="line2d_12">
      <g>
       <use style="stroke:#000000;stroke-width:0.8;" x="1145.8748" xlink:href="#m1145247f63" y="512.64"/>
      </g>
     </g>
     <g id="text_6">
      <!-- 100 M$\Omega$ -->
      <g transform="translate(1126.5748 527.238438)scale(0.1 -0.1)">
       <defs>
        <path d="M 794 531 
L 1825 531 
L 1825 4091 
L 703 3866 
L 703 4441 
L 1819 4666 
L 2450 4666 
L 2450 531 
L 3481 531 
L 3481 0 
L 794 0 
L 794 531 
z
" id="DejaVuSans-31" transform="scale(0.015625)"/>
       </defs>
       <use transform="translate(0 0.78125)" xlink:href="#DejaVuSans-31"/>
       <use transform="translate(63.623047 0.78125)" xlink:href="#DejaVuSans-30"/>
       <use transform="translate(127.246094 0.78125)" xlink:href="#DejaVuSans-30"/>
       <use transform="translate(190.869141 0.78125)" xlink:href="#DejaVuSans-20"/>
       <use transform="translate(222.65625 0.78125)" xlink:href="#DejaVuSans-4d"/>
       <use transform="translate(308.935547 0.78125)" xlink:href="#DejaVuSans-3a9"/>
      </g>
     </g>
    </g>
    <g id="text_7">
     <!-- $Z_{\rm re}$ -->
     <g transform="translate(730.8 540.916563)scale(0.1 -0.1)">
      <defs>
       <path d="M 838 4666 
L 4500 4666 
L 4409 4184 
L 794 531 
L 3769 531 
L 3669 0 
L -141 0 
L -50 481 
L 3566 4134 
L 738 4134 
L 838 4666 
z
" id="DejaVuSans-Oblique-5a" transform="scale(0.015625)"/>
       <path d="M 2631 2963 
Q 2534 3019 2420 3045 
Q 2306 3072 2169 3072 
Q 1681 3072 1420 2755 
Q 1159 2438 1159 1844 
L 1159 0 
L 581 0 
L 581 3500 
L 1159 3500 
L 1159 2956 
Q 1341 3275 1631 3429 
Q 1922 3584 2338 3584 
Q 2397 3584 2469 3576 
Q 2541 3569 2628 3553 
L 2631 2963 
z
" id="DejaVuSans-72" transform="scale(0.015625)"/>
       <path d="M 3597 1894 
L 3597 1613 
L 953 1613 
Q 991 1019 1311 708 
Q 1631 397 2203 397 
Q 2534 397 2845 478 
Q 3156 559 3463 722 
L 3463 178 
Q 3153 47 2828 -22 
Q 2503 -91 2169 -91 
Q 1331 -91 842 396 
Q 353 884 353 1716 
Q 353 2575 817 3079 
Q 1281 3584 2069 3584 
Q 2775 3584 3186 3129 
Q 3597 2675 3597 1894 
z
M 3022 2063 
Q 3016 2534 2758 2815 
Q 2500 3097 2075 3097 
Q 1594 3097 1305 2825 
Q 1016 2553 972 2059 
L 3022 2063 
z
" id="DejaVuSans-65" transform="scale(0.015625)"/>
      </defs>
      <use transform="translate(0 0.09375)" xlink:href="#DejaVuSans-Oblique-5a"/>
      <use transform="translate(68.505859 -16.3125)scale(0.7)" xlink:href="#DejaVuSans-72"/>
      <use transform="translate(97.285156 -16.3125)scale(0.7)" xlink:href="#DejaVuSans-65"/>
     </g>
    </g>
   </g>
   <g id="matplotlib.axis_2">
    <g id="ytick_1">
     <g id="line2d_13">
      <path clip-path="url(#pb7198c81df)" d="M 291.235647 492.05953 
L 1184.764353 492.05953 
" style="fill:none;stroke:#b0b0b0;stroke-linecap:square;stroke-width:0.8;"/>
     </g>
     <g id="line2d_14">
      <defs>
       <path d="M 0 0 
L -3.5 0 
" id="m92a9f40aa0" style="stroke:#000000;stroke-width:0.8;"/>
      </defs>
      <g>
       <use style="stroke:#000000;stroke-width:0.8;" x="291.235647" xlink:href="#m92a9f40aa0" y="492.05953"/>
      </g>
     </g>
     <g id="text_8">
      <!-- 0 $\Omega$ -->
      <g transform="translate(267.035647 495.858749)scale(0.1 -0.1)">
       <use transform="translate(0 0.78125)" xlink:href="#DejaVuSans-30"/>
       <use transform="translate(63.623047 0.78125)" xlink:href="#DejaVuSans-20"/>
       <use transform="translate(95.410156 0.78125)" xlink:href="#DejaVuSans-3a9"/>
      </g>
     </g>
    </g>
    <g id="ytick_2">
     <g id="line2d_15">
      <path clip-path="url(#pb7198c81df)" d="M 291.235647 410.749449 
L 1184.764353 410.749449 
" style="fill:none;stroke:#b0b0b0;stroke-linecap:square;stroke-width:0.8;"/>
     </g>
     <g id="line2d_16">
      <g>
       <use style="stroke:#000000;stroke-width:0.8;" x="291.235647" xlink:href="#m92a9f40aa0" y="410.749449"/>
      </g>
     </g>
     <g id="text_9">
      <!-- 10 M$\Omega$ -->
      <g transform="translate(252.035647 414.548668)scale(0.1 -0.1)">
       <use transform="translate(0 0.78125)" xlink:href="#DejaVuSans-31"/>
       <use transform="translate(63.623047 0.78125)" xlink:href="#DejaVuSans-30"/>
       <use transform="translate(127.246094 0.78125)" xlink:href="#DejaVuSans-20"/>
       <use transform="translate(159.033203 0.78125)" xlink:href="#DejaVuSans-4d"/>
       <use transform="translate(245.3125 0.78125)" xlink:href="#DejaVuSans-3a9"/>
      </g>
     </g>
    </g>
    <g id="ytick_3">
     <g id="line2d_17">
      <path clip-path="url(#pb7198c81df)" d="M 291.235647 329.439367 
L 1184.764353 329.439367 
" style="fill:none;stroke:#b0b0b0;stroke-linecap:square;stroke-width:0.8;"/>
     </g>
     <g id="line2d_18">
      <g>
       <use style="stroke:#000000;stroke-width:0.8;" x="291.235647" xlink:href="#m92a9f40aa0" y="329.439367"/>
      </g>
     </g>
     <g id="text_10">
      <!-- 20 M$\Omega$ -->
      <g transform="translate(252.035647 333.238586)scale(0.1 -0.1)">
       <use transform="translate(0 0.78125)" xlink:href="#DejaVuSans-32"/>
       <use transform="translate(63.623047 0.78125)" xlink:href="#DejaVuSans-30"/>
       <use transform="translate(127.246094 0.78125)" xlink:href="#DejaVuSans-20"/>
       <use transform="translate(159.033203 0.78125)" xlink:href="#DejaVuSans-4d"/>
       <use transform="translate(245.3125 0.78125)" xlink:href="#DejaVuSans-3a9"/>
      </g>
     </g>
    </g>
    <g id="ytick_4">
     <g id="line2d_19">
      <path clip-path="url(#pb7198c81df)" d="M 291.235647 248.129286 
L 1184.764353 248.129286 
" style="fill:none;stroke:#b0b0b0;stroke-linecap:square;stroke-width:0.8;"/>
     </g>
     <g id="line2d_20">
      <g>
       <use style="stroke:#000000;stroke-width:0.8;" x="291.235647" xlink:href="#m92a9f40aa0" y="248.129286"/>
      </g>
     </g>
     <g id="text_11">
      <!-- 30 M$\Omega$ -->
      <g transform="translate(252.035647 251.928504)scale(0.1 -0.1)">
       <defs>
        <path d="M 2597 2516 
Q 3050 2419 3304 2112 
Q 3559 1806 3559 1356 
Q 3559 666 3084 287 
Q 2609 -91 1734 -91 
Q 1441 -91 1130 -33 
Q 819 25 488 141 
L 488 750 
Q 750 597 1062 519 
Q 1375 441 1716 441 
Q 2309 441 2620 675 
Q 2931 909 2931 1356 
Q 2931 1769 2642 2001 
Q 2353 2234 1838 2234 
L 1294 2234 
L 1294 2753 
L 1863 2753 
Q 2328 2753 2575 2939 
Q 2822 3125 2822 3475 
Q 2822 3834 2567 4026 
Q 2313 4219 1838 4219 
Q 1578 4219 1281 4162 
Q 984 4106 628 3988 
L 628 4550 
Q 988 4650 1302 4700 
Q 1616 4750 1894 4750 
Q 2613 4750 3031 4423 
Q 3450 4097 3450 3541 
Q 3450 3153 3228 2886 
Q 3006 2619 2597 2516 
z
" id="DejaVuSans-33" transform="scale(0.015625)"/>
       </defs>
       <use transform="translate(0 0.78125)" xlink:href="#DejaVuSans-33"/>
       <use transform="translate(63.623047 0.78125)" xlink:href="#DejaVuSans-30"/>
       <use transform="translate(127.246094 0.78125)" xlink:href="#DejaVuSans-20"/>
       <use transform="translate(159.033203 0.78125)" xlink:href="#DejaVuSans-4d"/>
       <use transform="translate(245.3125 0.78125)" xlink:href="#DejaVuSans-3a9"/>
      </g>
     </g>
    </g>
    <g id="ytick_5">
     <g id="line2d_21">
      <path clip-path="url(#pb7198c81df)" d="M 291.235647 166.819204 
L 1184.764353 166.819204 
" style="fill:none;stroke:#b0b0b0;stroke-linecap:square;stroke-width:0.8;"/>
     </g>
     <g id="line2d_22">
      <g>
       <use style="stroke:#000000;stroke-width:0.8;" x="291.235647" xlink:href="#m92a9f40aa0" y="166.819204"/>
      </g>
     </g>
     <g id="text_12">
      <!-- 40 M$\Omega$ -->
      <g transform="translate(252.035647 170.618423)scale(0.1 -0.1)">
       <use transform="translate(0 0.78125)" xlink:href="#DejaVuSans-34"/>
       <use transform="translate(63.623047 0.78125)" xlink:href="#DejaVuSans-30"/>
       <use transform="translate(127.246094 0.78125)" xlink:href="#DejaVuSans-20"/>
       <use transform="translate(159.033203 0.78125)" xlink:href="#DejaVuSans-4d"/>
       <use transform="translate(245.3125 0.78125)" xlink:href="#DejaVuSans-3a9"/>
      </g>
     </g>
    </g>
    <g id="ytick_6">
     <g id="line2d_23">
      <path clip-path="url(#pb7198c81df)" d="M 291.235647 85.509123 
L 1184.764353 85.509123 
" style="fill:none;stroke:#b0b0b0;stroke-linecap:square;stroke-width:0.8;"/>
     </g>
     <g id="line2d_24">
      <g>
       <use style="stroke:#000000;stroke-width:0.8;" x="291.235647" xlink:href="#m92a9f40aa0" y="85.509123"/>
      </g>
     </g>
     <g id="text_13">
      <!-- 50 M$\Omega$ -->
      <g transform="translate(252.035647 89.308341)scale(0.1 -0.1)">
       <defs>
        <path d="M 691 4666 
L 3169 4666 
L 3169 4134 
L 1269 4134 
L 1269 2991 
Q 1406 3038 1543 3061 
Q 1681 3084 1819 3084 
Q 2600 3084 3056 2656 
Q 3513 2228 3513 1497 
Q 3513 744 3044 326 
Q 2575 -91 1722 -91 
Q 1428 -91 1123 -41 
Q 819 9 494 109 
L 494 744 
Q 775 591 1075 516 
Q 1375 441 1709 441 
Q 2250 441 2565 725 
Q 2881 1009 2881 1497 
Q 2881 1984 2565 2268 
Q 2250 2553 1709 2553 
Q 1456 2553 1204 2497 
Q 953 2441 691 2322 
L 691 4666 
z
" id="DejaVuSans-35" transform="scale(0.015625)"/>
       </defs>
       <use transform="translate(0 0.78125)" xlink:href="#DejaVuSans-35"/>
       <use transform="translate(63.623047 0.78125)" xlink:href="#DejaVuSans-30"/>
       <use transform="translate(127.246094 0.78125)" xlink:href="#DejaVuSans-20"/>
       <use transform="translate(159.033203 0.78125)" xlink:href="#DejaVuSans-4d"/>
       <use transform="translate(245.3125 0.78125)" xlink:href="#DejaVuSans-3a9"/>
      </g>
     </g>
    </g>
    <g id="text_14">
     <!-- $-Z_{\rm im}$ -->
     <g transform="translate(245.95596 303.03)rotate(-90)scale(0.1 -0.1)">
      <defs>
       <path d="M 678 2272 
L 4684 2272 
L 4684 1741 
L 678 1741 
L 678 2272 
z
" id="DejaVuSans-2212" transform="scale(0.015625)"/>
       <path d="M 603 3500 
L 1178 3500 
L 1178 0 
L 603 0 
L 603 3500 
z
M 603 4863 
L 1178 4863 
L 1178 4134 
L 603 4134 
L 603 4863 
z
" id="DejaVuSans-69" transform="scale(0.015625)"/>
       <path d="M 3328 2828 
Q 3544 3216 3844 3400 
Q 4144 3584 4550 3584 
Q 5097 3584 5394 3201 
Q 5691 2819 5691 2113 
L 5691 0 
L 5113 0 
L 5113 2094 
Q 5113 2597 4934 2840 
Q 4756 3084 4391 3084 
Q 3944 3084 3684 2787 
Q 3425 2491 3425 1978 
L 3425 0 
L 2847 0 
L 2847 2094 
Q 2847 2600 2669 2842 
Q 2491 3084 2119 3084 
Q 1678 3084 1418 2786 
Q 1159 2488 1159 1978 
L 1159 0 
L 581 0 
L 581 3500 
L 1159 3500 
L 1159 2956 
Q 1356 3278 1631 3431 
Q 1906 3584 2284 3584 
Q 2666 3584 2933 3390 
Q 3200 3197 3328 2828 
z
" id="DejaVuSans-6d" transform="scale(0.015625)"/>
      </defs>
      <use transform="translate(0 0.09375)" xlink:href="#DejaVuSans-2212"/>
      <use transform="translate(83.789062 0.09375)" xlink:href="#DejaVuSans-Oblique-5a"/>
      <use transform="translate(152.294922 -16.3125)scale(0.7)" xlink:href="#DejaVuSans-69"/>
      <use transform="translate(171.743164 -16.3125)scale(0.7)" xlink:href="#DejaVuSans-6d"/>
     </g>
    </g>
   </g>
   <g id="line2d_25">
    <path clip-path="url(#pb7198c81df)" d="M 1144.149412 484.39724 
L 1143.931945 479.967396 
L 1143.425731 473.097303 
L 1142.329693 462.601947 
L 1141.411829 446.772244 
L 1137.949647 423.34269 
L 1130.609542 390.158285 
L 1115.468936 345.154944 
L 1087.649399 287.423797 
L 1038.192541 220.497213 
L 959.96334 154.421604 
L 854.929746 106.006436 
L 734.019536 89.28 
L 619.908571 105.800595 
L 522.038 147.412571 
L 455.888736 199.974967 
L 409.88128 252.479268 
L 381.144111 300.786276 
L 360.143582 336.13392 
L 352.124384 366.432273 
L 345.761257 391.740267 
L 340.735612 411.725634 
L 338.204906 426.667379 
L 335.98797 439.947489 
L 335.095432 450.767638 
L 334.177256 459.103231 
L 333.803376 465.59551 
L 333.521937 470.983173 
L 333.329751 475.333425 
L 333.060702 478.721876 
L 333.024123 481.463845 
L 332.93293 483.590334 
L 332.894856 485.302112 
L 332.890008 486.642935 
L 332.865495 487.743238 
L 332.821772 488.623544 
L 332.810568 489.319845 
L 332.80075 489.8747 
L 332.796619 490.314993 
L 332.78602 490.669692 
L 332.781777 490.950353 
L 332.778872 491.17585 
L 332.777513 491.355279 
L 332.775894 491.499161 
L 332.774818 491.613191 
L 332.773557 491.704036 
L 332.774158 491.776325 
L 332.773943 491.834062 
L 332.773918 491.879632 
" style="fill:none;stroke:#1f77b4;stroke-linecap:square;stroke-width:1.5;"/>
    <defs>
     <path d="M -2.5 2.5 
L 2.5 -2.5 
M -2.5 -2.5 
L 2.5 2.5 
" id="m371f4def0e" style="stroke:#1f77b4;"/>
    </defs>
    <g clip-path="url(#pb7198c81df)">
     <use style="fill:#1f77b4;stroke:#1f77b4;" x="1144.149412" xlink:href="#m371f4def0e" y="484.39724"/>
     <use style="fill:#1f77b4;stroke:#1f77b4;" x="1143.931945" xlink:href="#m371f4def0e" y="479.967396"/>
     <use style="fill:#1f77b4;stroke:#1f77b4;" x="1143.425731" xlink:href="#m371f4def0e" y="473.097303"/>
     <use style="fill:#1f77b4;stroke:#1f77b4;" x="1142.329693" xlink:href="#m371f4def0e" y="462.601947"/>
     <use style="fill:#1f77b4;stroke:#1f77b4;" x="1141.411829" xlink:href="#m371f4def0e" y="446.772244"/>
     <use style="fill:#1f77b4;stroke:#1f77b4;" x="1137.949647" xlink:href="#m371f4def0e" y="423.34269"/>
     <use style="fill:#1f77b4;stroke:#1f77b4;" x="1130.609542" xlink:href="#m371f4def0e" y="390.158285"/>
     <use style="fill:#1f77b4;stroke:#1f77b4;" x="1115.468936" xlink:href="#m371f4def0e" y="345.154944"/>
     <use style="fill:#1f77b4;stroke:#1f77b4;" x="1087.649399" xlink:href="#m371f4def0e" y="287.423797"/>
     <use style="fill:#1f77b4;stroke:#1f77b4;" x="1038.192541" xlink:href="#m371f4def0e" y="220.497213"/>
     <use style="fill:#1f77b4;stroke:#1f77b4;" x="959.96334" xlink:href="#m371f4def0e" y="154.421604"/>
     <use style="fill:#1f77b4;stroke:#1f77b4;" x="854.929746" xlink:href="#m371f4def0e" y="106.006436"/>
     <use style="fill:#1f77b4;stroke:#1f77b4;" x="734.019536" xlink:href="#m371f4def0e" y="89.28"/>
     <use style="fill:#1f77b4;stroke:#1f77b4;" x="619.908571" xlink:href="#m371f4def0e" y="105.800595"/>
     <use style="fill:#1f77b4;stroke:#1f77b4;" x="522.038" xlink:href="#m371f4def0e" y="147.412571"/>
     <use style="fill:#1f77b4;stroke:#1f77b4;" x="455.888736" xlink:href="#m371f4def0e" y="199.974967"/>
     <use style="fill:#1f77b4;stroke:#1f77b4;" x="409.88128" xlink:href="#m371f4def0e" y="252.479268"/>
     <use style="fill:#1f77b4;stroke:#1f77b4;" x="381.144111" xlink:href="#m371f4def0e" y="300.786276"/>
     <use style="fill:#1f77b4;stroke:#1f77b4;" x="360.143582" xlink:href="#m371f4def0e" y="336.13392"/>
     <use style="fill:#1f77b4;stroke:#1f77b4;" x="352.124384" xlink:href="#m371f4def0e" y="366.432273"/>
     <use style="fill:#1f77b4;stroke:#1f77b4;" x="345.761257" xlink:href="#m371f4def0e" y="391.740267"/>
     <use style="fill:#1f77b4;stroke:#1f77b4;" x="340.735612" xlink:href="#m371f4def0e" y="411.725634"/>
     <use style="fill:#1f77b4;stroke:#1f77b4;" x="338.204906" xlink:href="#m371f4def0e" y="426.667379"/>
     <use style="fill:#1f77b4;stroke:#1f77b4;" x="335.98797" xlink:href="#m371f4def0e" y="439.947489"/>
     <use style="fill:#1f77b4;stroke:#1f77b4;" x="335.095432" xlink:href="#m371f4def0e" y="450.767638"/>
     <use style="fill:#1f77b4;stroke:#1f77b4;" x="334.177256" xlink:href="#m371f4def0e" y="459.103231"/>
     <use style="fill:#1f77b4;stroke:#1f77b4;" x="333.803376" xlink:href="#m371f4def0e" y="465.59551"/>
     <use style="fill:#1f77b4;stroke:#1f77b4;" x="333.521937" xlink:href="#m371f4def0e" y="470.983173"/>
     <use style="fill:#1f77b4;stroke:#1f77b4;" x="333.329751" xlink:href="#m371f4def0e" y="475.333425"/>
     <use style="fill:#1f77b4;stroke:#1f77b4;" x="333.060702" xlink:href="#m371f4def0e" y="478.721876"/>
     <use style="fill:#1f77b4;stroke:#1f77b4;" x="333.024123" xlink:href="#m371f4def0e" y="481.463845"/>
     <use style="fill:#1f77b4;stroke:#1f77b4;" x="332.93293" xlink:href="#m371f4def0e" y="483.590334"/>
     <use style="fill:#1f77b4;stroke:#1f77b4;" x="332.894856" xlink:href="#m371f4def0e" y="485.302112"/>
     <use style="fill:#1f77b4;stroke:#1f77b4;" x="332.890008" xlink:href="#m371f4def0e" y="486.642935"/>
     <use style="fill:#1f77b4;stroke:#1f77b4;" x="332.865495" xlink:href="#m371f4def0e" y="487.743238"/>
     <use style="fill:#1f77b4;stroke:#1f77b4;" x="332.821772" xlink:href="#m371f4def0e" y="488.623544"/>
     <use style="fill:#1f77b4;stroke:#1f77b4;" x="332.810568" xlink:href="#m371f4def0e" y="489.319845"/>
     <use style="fill:#1f77b4;stroke:#1f77b4;" x="332.80075" xlink:href="#m371f4def0e" y="489.8747"/>
     <use style="fill:#1f77b4;stroke:#1f77b4;" x="332.796619" xlink:href="#m371f4def0e" y="490.314993"/>
     <use style="fill:#1f77b4;stroke:#1f77b4;" x="332.78602" xlink:href="#m371f4def0e" y="490.669692"/>
     <use style="fill:#1f77b4;stroke:#1f77b4;" x="332.781777" xlink:href="#m371f4def0e" y="490.950353"/>
     <use style="fill:#1f77b4;stroke:#1f77b4;" x="332.778872" xlink:href="#m371f4def0e" y="491.17585"/>
     <use style="fill:#1f77b4;stroke:#1f77b4;" x="332.777513" xlink:href="#m371f4def0e" y="491.355279"/>
     <use style="fill:#1f77b4;stroke:#1f77b4;" x="332.775894" xlink:href="#m371f4def0e" y="491.499161"/>
     <use style="fill:#1f77b4;stroke:#1f77b4;" x="332.774818" xlink:href="#m371f4def0e" y="491.613191"/>
     <use style="fill:#1f77b4;stroke:#1f77b4;" x="332.773557" xlink:href="#m371f4def0e" y="491.704036"/>
     <use style="fill:#1f77b4;stroke:#1f77b4;" x="332.774158" xlink:href="#m371f4def0e" y="491.776325"/>
     <use style="fill:#1f77b4;stroke:#1f77b4;" x="332.773943" xlink:href="#m371f4def0e" y="491.834062"/>
     <use style="fill:#1f77b4;stroke:#1f77b4;" x="332.773918" xlink:href="#m371f4def0e" y="491.879632"/>
    </g>
   </g>
   <g id="line2d_26">
    <path clip-path="url(#pb7198c81df)" d="M 332.710204 492.169567 
L 332.938245 492.066077 
L 332.881168 492.042384 
L 332.767417 492.076147 
L 332.768767 492.166991 
L 332.917328 492.139576 
L 332.82591 491.941632 
L 332.831529 492.140055 
L 332.228926 492.287351 
L 332.845678 492.124441 
L 332.605704 492.020302 
L 332.784492 492.038597 
L 332.774912 492.122222 
L 332.833466 492.062421 
L 332.802163 492.058003 
L 332.764572 492.068959 
L 332.772314 492.048233 
L 332.77847 492.048017 
L 332.7686 492.077054 
L 332.775667 492.062843 
L 332.774769 492.062894 
L 332.766819 492.054083 
L 332.773555 492.063444 
L 332.777172 492.058998 
L 332.773521 492.051311 
L 332.771284 492.058603 
L 332.77251 492.060424 
L 332.772496 492.060987 
L 332.773387 492.058213 
L 332.774926 492.059939 
L 332.77471 492.057731 
L 332.773508 492.059536 
L 332.773519 492.059109 
L 332.77467 492.059742 
L 332.774228 492.059962 
L 332.774346 492.059404 
L 332.773659 492.059149 
L 332.774036 492.059637 
L 332.774046 492.05954 
L 332.774174 492.05964 
L 332.773937 492.059496 
L 332.774038 492.059387 
L 332.773962 492.059426 
L 332.773931 492.059576 
L 332.773957 492.05954 
L 332.774038 492.059533 
L 332.77397 492.059549 
L 332.774016 492.05953 
L 332.774005 492.059526 
" style="fill:none;stroke:#ff7f0e;stroke-linecap:square;stroke-width:1.5;"/>
    <defs>
     <path d="M -2.5 2.5 
L 2.5 -2.5 
M -2.5 -2.5 
L 2.5 2.5 
" id="mc53f883273" style="stroke:#ff7f0e;"/>
    </defs>
    <g clip-path="url(#pb7198c81df)">
     <use style="fill:#ff7f0e;stroke:#ff7f0e;" x="332.710204" xlink:href="#mc53f883273" y="492.169567"/>
     <use style="fill:#ff7f0e;stroke:#ff7f0e;" x="332.938245" xlink:href="#mc53f883273" y="492.066077"/>
     <use style="fill:#ff7f0e;stroke:#ff7f0e;" x="332.881168" xlink:href="#mc53f883273" y="492.042384"/>
     <use style="fill:#ff7f0e;stroke:#ff7f0e;" x="332.767417" xlink:href="#mc53f883273" y="492.076147"/>
     <use style="fill:#ff7f0e;stroke:#ff7f0e;" x="332.768767" xlink:href="#mc53f883273" y="492.166991"/>
     <use style="fill:#ff7f0e;stroke:#ff7f0e;" x="332.917328" xlink:href="#mc53f883273" y="492.139576"/>
     <use style="fill:#ff7f0e;stroke:#ff7f0e;" x="332.82591" xlink:href="#mc53f883273" y="491.941632"/>
     <use style="fill:#ff7f0e;stroke:#ff7f0e;" x="332.831529" xlink:href="#mc53f883273" y="492.140055"/>
     <use style="fill:#ff7f0e;stroke:#ff7f0e;" x="332.228926" xlink:href="#mc53f883273" y="492.287351"/>
     <use style="fill:#ff7f0e;stroke:#ff7f0e;" x="332.845678" xlink:href="#mc53f883273" y="492.124441"/>
     <use style="fill:#ff7f0e;stroke:#ff7f0e;" x="332.605704" xlink:href="#mc53f883273" y="492.020302"/>
     <use style="fill:#ff7f0e;stroke:#ff7f0e;" x="332.784492" xlink:href="#mc53f883273" y="492.038597"/>
     <use style="fill:#ff7f0e;stroke:#ff7f0e;" x="332.774912" xlink:href="#mc53f883273" y="492.122222"/>
     <use style="fill:#ff7f0e;stroke:#ff7f0e;" x="332.833466" xlink:href="#mc53f883273" y="492.062421"/>
     <use style="fill:#ff7f0e;stroke:#ff7f0e;" x="332.802163" xlink:href="#mc53f883273" y="492.058003"/>
     <use style="fill:#ff7f0e;stroke:#ff7f0e;" x="332.764572" xlink:href="#mc53f883273" y="492.068959"/>
     <use style="fill:#ff7f0e;stroke:#ff7f0e;" x="332.772314" xlink:href="#mc53f883273" y="492.048233"/>
     <use style="fill:#ff7f0e;stroke:#ff7f0e;" x="332.77847" xlink:href="#mc53f883273" y="492.048017"/>
     <use style="fill:#ff7f0e;stroke:#ff7f0e;" x="332.7686" xlink:href="#mc53f883273" y="492.077054"/>
     <use style="fill:#ff7f0e;stroke:#ff7f0e;" x="332.775667" xlink:href="#mc53f883273" y="492.062843"/>
     <use style="fill:#ff7f0e;stroke:#ff7f0e;" x="332.774769" xlink:href="#mc53f883273" y="492.062894"/>
     <use style="fill:#ff7f0e;stroke:#ff7f0e;" x="332.766819" xlink:href="#mc53f883273" y="492.054083"/>
     <use style="fill:#ff7f0e;stroke:#ff7f0e;" x="332.773555" xlink:href="#mc53f883273" y="492.063444"/>
     <use style="fill:#ff7f0e;stroke:#ff7f0e;" x="332.777172" xlink:href="#mc53f883273" y="492.058998"/>
     <use style="fill:#ff7f0e;stroke:#ff7f0e;" x="332.773521" xlink:href="#mc53f883273" y="492.051311"/>
     <use style="fill:#ff7f0e;stroke:#ff7f0e;" x="332.771284" xlink:href="#mc53f883273" y="492.058603"/>
     <use style="fill:#ff7f0e;stroke:#ff7f0e;" x="332.77251" xlink:href="#mc53f883273" y="492.060424"/>
     <use style="fill:#ff7f0e;stroke:#ff7f0e;" x="332.772496" xlink:href="#mc53f883273" y="492.060987"/>
     <use style="fill:#ff7f0e;stroke:#ff7f0e;" x="332.773387" xlink:href="#mc53f883273" y="492.058213"/>
     <use style="fill:#ff7f0e;stroke:#ff7f0e;" x="332.774926" xlink:href="#mc53f883273" y="492.059939"/>
     <use style="fill:#ff7f0e;stroke:#ff7f0e;" x="332.77471" xlink:href="#mc53f883273" y="492.057731"/>
     <use style="fill:#ff7f0e;stroke:#ff7f0e;" x="332.773508" xlink:href="#mc53f883273" y="492.059536"/>
     <use style="fill:#ff7f0e;stroke:#ff7f0e;" x="332.773519" xlink:href="#mc53f883273" y="492.059109"/>
     <use style="fill:#ff7f0e;stroke:#ff7f0e;" x="332.77467" xlink:href="#mc53f883273" y="492.059742"/>
     <use style="fill:#ff7f0e;stroke:#ff7f0e;" x="332.774228" xlink:href="#mc53f883273" y="492.059962"/>
     <use style="fill:#ff7f0e;stroke:#ff7f0e;" x="332.774346" xlink:href="#mc53f883273" y="492.059404"/>
     <use style="fill:#ff7f0e;stroke:#ff7f0e;" x="332.773659" xlink:href="#mc53f883273" y="492.059149"/>
     <use style="fill:#ff7f0e;stroke:#ff7f0e;" x="332.774036" xlink:href="#mc53f883273" y="492.059637"/>
     <use style="fill:#ff7f0e;stroke:#ff7f0e;" x="332.774046" xlink:href="#mc53f883273" y="492.05954"/>
     <use style="fill:#ff7f0e;stroke:#ff7f0e;" x="332.774174" xlink:href="#mc53f883273" y="492.05964"/>
     <use style="fill:#ff7f0e;stroke:#ff7f0e;" x="332.773937" xlink:href="#mc53f883273" y="492.059496"/>
     <use style="fill:#ff7f0e;stroke:#ff7f0e;" x="332.774038" xlink:href="#mc53f883273" y="492.059387"/>
     <use style="fill:#ff7f0e;stroke:#ff7f0e;" x="332.773962" xlink:href="#mc53f883273" y="492.059426"/>
     <use style="fill:#ff7f0e;stroke:#ff7f0e;" x="332.773931" xlink:href="#mc53f883273" y="492.059576"/>
     <use style="fill:#ff7f0e;stroke:#ff7f0e;" x="332.773957" xlink:href="#mc53f883273" y="492.05954"/>
     <use style="fill:#ff7f0e;stroke:#ff7f0e;" x="332.774038" xlink:href="#mc53f883273" y="492.059533"/>
     <use style="fill:#ff7f0e;stroke:#ff7f0e;" x="332.77397" xlink:href="#mc53f883273" y="492.059549"/>
     <use style="fill:#ff7f0e;stroke:#ff7f0e;" x="332.774016" xlink:href="#mc53f883273" y="492.05953"/>
     <use style="fill:#ff7f0e;stroke:#ff7f0e;" x="332.774005" xlink:href="#mc53f883273" y="492.059526"/>
    </g>
   </g>
   <g id="line2d_27">
    <path clip-path="url(#pb7198c81df)" d="M 332.786661 492.036796 
L 332.543712 492.307433 
L 332.925973 492.075133 
L 333.110603 490.983552 
L 332.788818 491.940428 
L 332.539571 492.229961 
L 333.37676 492.072781 
L 332.952501 491.899139 
L 331.850588 492.48 
L 332.754723 491.988637 
L 332.755785 492.215184 
L 332.682568 492.228227 
L 332.803025 492.194692 
L 332.707599 492.060423 
L 332.797759 492.094087 
L 332.779975 492.05245 
L 332.726864 492.105808 
L 332.744614 492.035194 
L 332.784377 492.028132 
L 332.78897 492.050723 
L 332.765572 492.070466 
L 332.775503 492.066001 
L 332.773338 492.060972 
L 332.777805 492.064027 
L 332.776275 492.058829 
L 332.77348 492.055668 
L 332.772534 492.05911 
L 332.775338 492.058061 
L 332.771992 492.062298 
L 332.776908 492.059568 
L 332.774934 492.057216 
L 332.774502 492.059246 
L 332.774404 492.05977 
L 332.773511 492.059929 
L 332.773718 492.059168 
L 332.773248 492.060494 
L 332.77402 492.059903 
L 332.773837 492.059427 
L 332.774421 492.059715 
L 332.77398 492.059704 
L 332.774057 492.059545 
L 332.774043 492.059528 
L 332.774075 492.0596 
L 332.773958 492.059519 
L 332.773975 492.059554 
L 332.774031 492.059528 
L 332.773948 492.059559 
L 332.773992 492.059566 
L 332.774017 492.059544 
" style="fill:none;stroke:#2ca02c;stroke-linecap:square;stroke-width:1.5;"/>
    <defs>
     <path d="M -2.5 2.5 
L 2.5 -2.5 
M -2.5 -2.5 
L 2.5 2.5 
" id="m2b88c0873f" style="stroke:#2ca02c;"/>
    </defs>
    <g clip-path="url(#pb7198c81df)">
     <use style="fill:#2ca02c;stroke:#2ca02c;" x="332.786661" xlink:href="#m2b88c0873f" y="492.036796"/>
     <use style="fill:#2ca02c;stroke:#2ca02c;" x="332.543712" xlink:href="#m2b88c0873f" y="492.307433"/>
     <use style="fill:#2ca02c;stroke:#2ca02c;" x="332.925973" xlink:href="#m2b88c0873f" y="492.075133"/>
     <use style="fill:#2ca02c;stroke:#2ca02c;" x="333.110603" xlink:href="#m2b88c0873f" y="490.983552"/>
     <use style="fill:#2ca02c;stroke:#2ca02c;" x="332.788818" xlink:href="#m2b88c0873f" y="491.940428"/>
     <use style="fill:#2ca02c;stroke:#2ca02c;" x="332.539571" xlink:href="#m2b88c0873f" y="492.229961"/>
     <use style="fill:#2ca02c;stroke:#2ca02c;" x="333.37676" xlink:href="#m2b88c0873f" y="492.072781"/>
     <use style="fill:#2ca02c;stroke:#2ca02c;" x="332.952501" xlink:href="#m2b88c0873f" y="491.899139"/>
     <use style="fill:#2ca02c;stroke:#2ca02c;" x="331.850588" xlink:href="#m2b88c0873f" y="492.48"/>
     <use style="fill:#2ca02c;stroke:#2ca02c;" x="332.754723" xlink:href="#m2b88c0873f" y="491.988637"/>
     <use style="fill:#2ca02c;stroke:#2ca02c;" x="332.755785" xlink:href="#m2b88c0873f" y="492.215184"/>
     <use style="fill:#2ca02c;stroke:#2ca02c;" x="332.682568" xlink:href="#m2b88c0873f" y="492.228227"/>
     <use style="fill:#2ca02c;stroke:#2ca02c;" x="332.803025" xlink:href="#m2b88c0873f" y="492.194692"/>
     <use style="fill:#2ca02c;stroke:#2ca02c;" x="332.707599" xlink:href="#m2b88c0873f" y="492.060423"/>
     <use style="fill:#2ca02c;stroke:#2ca02c;" x="332.797759" xlink:href="#m2b88c0873f" y="492.094087"/>
     <use style="fill:#2ca02c;stroke:#2ca02c;" x="332.779975" xlink:href="#m2b88c0873f" y="492.05245"/>
     <use style="fill:#2ca02c;stroke:#2ca02c;" x="332.726864" xlink:href="#m2b88c0873f" y="492.105808"/>
     <use style="fill:#2ca02c;stroke:#2ca02c;" x="332.744614" xlink:href="#m2b88c0873f" y="492.035194"/>
     <use style="fill:#2ca02c;stroke:#2ca02c;" x="332.784377" xlink:href="#m2b88c0873f" y="492.028132"/>
     <use style="fill:#2ca02c;stroke:#2ca02c;" x="332.78897" xlink:href="#m2b88c0873f" y="492.050723"/>
     <use style="fill:#2ca02c;stroke:#2ca02c;" x="332.765572" xlink:href="#m2b88c0873f" y="492.070466"/>
     <use style="fill:#2ca02c;stroke:#2ca02c;" x="332.775503" xlink:href="#m2b88c0873f" y="492.066001"/>
     <use style="fill:#2ca02c;stroke:#2ca02c;" x="332.773338" xlink:href="#m2b88c0873f" y="492.060972"/>
     <use style="fill:#2ca02c;stroke:#2ca02c;" x="332.777805" xlink:href="#m2b88c0873f" y="492.064027"/>
     <use style="fill:#2ca02c;stroke:#2ca02c;" x="332.776275" xlink:href="#m2b88c0873f" y="492.058829"/>
     <use style="fill:#2ca02c;stroke:#2ca02c;" x="332.77348" xlink:href="#m2b88c0873f" y="492.055668"/>
     <use style="fill:#2ca02c;stroke:#2ca02c;" x="332.772534" xlink:href="#m2b88c0873f" y="492.05911"/>
     <use style="fill:#2ca02c;stroke:#2ca02c;" x="332.775338" xlink:href="#m2b88c0873f" y="492.058061"/>
     <use style="fill:#2ca02c;stroke:#2ca02c;" x="332.771992" xlink:href="#m2b88c0873f" y="492.062298"/>
     <use style="fill:#2ca02c;stroke:#2ca02c;" x="332.776908" xlink:href="#m2b88c0873f" y="492.059568"/>
     <use style="fill:#2ca02c;stroke:#2ca02c;" x="332.774934" xlink:href="#m2b88c0873f" y="492.057216"/>
     <use style="fill:#2ca02c;stroke:#2ca02c;" x="332.774502" xlink:href="#m2b88c0873f" y="492.059246"/>
     <use style="fill:#2ca02c;stroke:#2ca02c;" x="332.774404" xlink:href="#m2b88c0873f" y="492.05977"/>
     <use style="fill:#2ca02c;stroke:#2ca02c;" x="332.773511" xlink:href="#m2b88c0873f" y="492.059929"/>
     <use style="fill:#2ca02c;stroke:#2ca02c;" x="332.773718" xlink:href="#m2b88c0873f" y="492.059168"/>
     <use style="fill:#2ca02c;stroke:#2ca02c;" x="332.773248" xlink:href="#m2b88c0873f" y="492.060494"/>
     <use style="fill:#2ca02c;stroke:#2ca02c;" x="332.77402" xlink:href="#m2b88c0873f" y="492.059903"/>
     <use style="fill:#2ca02c;stroke:#2ca02c;" x="332.773837" xlink:href="#m2b88c0873f" y="492.059427"/>
     <use style="fill:#2ca02c;stroke:#2ca02c;" x="332.774421" xlink:href="#m2b88c0873f" y="492.059715"/>
     <use style="fill:#2ca02c;stroke:#2ca02c;" x="332.77398" xlink:href="#m2b88c0873f" y="492.059704"/>
     <use style="fill:#2ca02c;stroke:#2ca02c;" x="332.774057" xlink:href="#m2b88c0873f" y="492.059545"/>
     <use style="fill:#2ca02c;stroke:#2ca02c;" x="332.774043" xlink:href="#m2b88c0873f" y="492.059528"/>
     <use style="fill:#2ca02c;stroke:#2ca02c;" x="332.774075" xlink:href="#m2b88c0873f" y="492.0596"/>
     <use style="fill:#2ca02c;stroke:#2ca02c;" x="332.773958" xlink:href="#m2b88c0873f" y="492.059519"/>
     <use style="fill:#2ca02c;stroke:#2ca02c;" x="332.773975" xlink:href="#m2b88c0873f" y="492.059554"/>
     <use style="fill:#2ca02c;stroke:#2ca02c;" x="332.774031" xlink:href="#m2b88c0873f" y="492.059528"/>
     <use style="fill:#2ca02c;stroke:#2ca02c;" x="332.773948" xlink:href="#m2b88c0873f" y="492.059559"/>
     <use style="fill:#2ca02c;stroke:#2ca02c;" x="332.773992" xlink:href="#m2b88c0873f" y="492.059566"/>
     <use style="fill:#2ca02c;stroke:#2ca02c;" x="332.774017" xlink:href="#m2b88c0873f" y="492.059544"/>
    </g>
   </g>
   <g id="patch_3">
    <path d="M 291.235647 512.64 
L 291.235647 69.12 
" style="fill:none;stroke:#000000;stroke-linecap:square;stroke-linejoin:miter;stroke-width:0.8;"/>
   </g>
   <g id="patch_4">
    <path d="M 1184.764353 512.64 
L 1184.764353 69.12 
" style="fill:none;stroke:#000000;stroke-linecap:square;stroke-linejoin:miter;stroke-width:0.8;"/>
   </g>
   <g id="patch_5">
    <path d="M 291.235647 512.64 
L 1184.764353 512.64 
" style="fill:none;stroke:#000000;stroke-linecap:square;stroke-linejoin:miter;stroke-width:0.8;"/>
   </g>
   <g id="patch_6">
    <path d="M 291.235647 69.12 
L 1184.764353 69.12 
" style="fill:none;stroke:#000000;stroke-linecap:square;stroke-linejoin:miter;stroke-width:0.8;"/>
   </g>
   <g id="legend_1">
    <g id="patch_7">
     <path d="M 1104.084978 131.56125 
L 1176.364353 131.56125 
Q 1178.764353 131.56125 1178.764353 129.16125 
L 1178.764353 77.52 
Q 1178.764353 75.12 1176.364353 75.12 
L 1104.084978 75.12 
Q 1101.684978 75.12 1101.684978 77.52 
L 1101.684978 129.16125 
Q 1101.684978 131.56125 1104.084978 131.56125 
z
" style="fill:#ffffff;opacity:0.8;stroke:#cccccc;stroke-linejoin:miter;"/>
    </g>
    <g id="line2d_28">
     <path d="M 1106.484978 84.838125 
L 1130.484978 84.838125 
" style="fill:none;stroke:#1f77b4;stroke-linecap:square;stroke-width:1.5;"/>
    </g>
    <g id="line2d_29">
     <g>
      <use style="fill:#1f77b4;stroke:#1f77b4;" x="1118.484978" xlink:href="#m371f4def0e" y="84.838125"/>
     </g>
    </g>
    <g id="text_15">
     <!-- Stack -->
     <g transform="translate(1140.084978 89.038125)scale(0.12 -0.12)">
      <defs>
       <path d="M 3425 4513 
L 3425 3897 
Q 3066 4069 2747 4153 
Q 2428 4238 2131 4238 
Q 1616 4238 1336 4038 
Q 1056 3838 1056 3469 
Q 1056 3159 1242 3001 
Q 1428 2844 1947 2747 
L 2328 2669 
Q 3034 2534 3370 2195 
Q 3706 1856 3706 1288 
Q 3706 609 3251 259 
Q 2797 -91 1919 -91 
Q 1588 -91 1214 -16 
Q 841 59 441 206 
L 441 856 
Q 825 641 1194 531 
Q 1563 422 1919 422 
Q 2459 422 2753 634 
Q 3047 847 3047 1241 
Q 3047 1584 2836 1778 
Q 2625 1972 2144 2069 
L 1759 2144 
Q 1053 2284 737 2584 
Q 422 2884 422 3419 
Q 422 4038 858 4394 
Q 1294 4750 2059 4750 
Q 2388 4750 2728 4690 
Q 3069 4631 3425 4513 
z
" id="DejaVuSans-53" transform="scale(0.015625)"/>
       <path d="M 1172 4494 
L 1172 3500 
L 2356 3500 
L 2356 3053 
L 1172 3053 
L 1172 1153 
Q 1172 725 1289 603 
Q 1406 481 1766 481 
L 2356 481 
L 2356 0 
L 1766 0 
Q 1100 0 847 248 
Q 594 497 594 1153 
L 594 3053 
L 172 3053 
L 172 3500 
L 594 3500 
L 594 4494 
L 1172 4494 
z
" id="DejaVuSans-74" transform="scale(0.015625)"/>
       <path d="M 2194 1759 
Q 1497 1759 1228 1600 
Q 959 1441 959 1056 
Q 959 750 1161 570 
Q 1363 391 1709 391 
Q 2188 391 2477 730 
Q 2766 1069 2766 1631 
L 2766 1759 
L 2194 1759 
z
M 3341 1997 
L 3341 0 
L 2766 0 
L 2766 531 
Q 2569 213 2275 61 
Q 1981 -91 1556 -91 
Q 1019 -91 701 211 
Q 384 513 384 1019 
Q 384 1609 779 1909 
Q 1175 2209 1959 2209 
L 2766 2209 
L 2766 2266 
Q 2766 2663 2505 2880 
Q 2244 3097 1772 3097 
Q 1472 3097 1187 3025 
Q 903 2953 641 2809 
L 641 3341 
Q 956 3463 1253 3523 
Q 1550 3584 1831 3584 
Q 2591 3584 2966 3190 
Q 3341 2797 3341 1997 
z
" id="DejaVuSans-61" transform="scale(0.015625)"/>
       <path d="M 3122 3366 
L 3122 2828 
Q 2878 2963 2633 3030 
Q 2388 3097 2138 3097 
Q 1578 3097 1268 2742 
Q 959 2388 959 1747 
Q 959 1106 1268 751 
Q 1578 397 2138 397 
Q 2388 397 2633 464 
Q 2878 531 3122 666 
L 3122 134 
Q 2881 22 2623 -34 
Q 2366 -91 2075 -91 
Q 1284 -91 818 406 
Q 353 903 353 1747 
Q 353 2603 823 3093 
Q 1294 3584 2113 3584 
Q 2378 3584 2631 3529 
Q 2884 3475 3122 3366 
z
" id="DejaVuSans-63" transform="scale(0.015625)"/>
       <path d="M 581 4863 
L 1159 4863 
L 1159 1991 
L 2875 3500 
L 3609 3500 
L 1753 1863 
L 3688 0 
L 2938 0 
L 1159 1709 
L 1159 0 
L 581 0 
L 581 4863 
z
" id="DejaVuSans-6b" transform="scale(0.015625)"/>
      </defs>
      <use xlink:href="#DejaVuSans-53"/>
      <use x="63.476562" xlink:href="#DejaVuSans-74"/>
      <use x="102.685547" xlink:href="#DejaVuSans-61"/>
      <use x="163.964844" xlink:href="#DejaVuSans-63"/>
      <use x="218.945312" xlink:href="#DejaVuSans-6b"/>
     </g>
    </g>
    <g id="line2d_30">
     <path d="M 1106.484978 102.451875 
L 1130.484978 102.451875 
" style="fill:none;stroke:#ff7f0e;stroke-linecap:square;stroke-width:1.5;"/>
    </g>
    <g id="line2d_31">
     <g>
      <use style="fill:#ff7f0e;stroke:#ff7f0e;" x="1118.484978" xlink:href="#mc53f883273" y="102.451875"/>
     </g>
    </g>
    <g id="text_16">
     <!-- Cell 1 -->
     <g transform="translate(1140.084978 106.651875)scale(0.12 -0.12)">
      <defs>
       <path d="M 4122 4306 
L 4122 3641 
Q 3803 3938 3442 4084 
Q 3081 4231 2675 4231 
Q 1875 4231 1450 3742 
Q 1025 3253 1025 2328 
Q 1025 1406 1450 917 
Q 1875 428 2675 428 
Q 3081 428 3442 575 
Q 3803 722 4122 1019 
L 4122 359 
Q 3791 134 3420 21 
Q 3050 -91 2638 -91 
Q 1578 -91 968 557 
Q 359 1206 359 2328 
Q 359 3453 968 4101 
Q 1578 4750 2638 4750 
Q 3056 4750 3426 4639 
Q 3797 4528 4122 4306 
z
" id="DejaVuSans-43" transform="scale(0.015625)"/>
       <path d="M 603 4863 
L 1178 4863 
L 1178 0 
L 603 0 
L 603 4863 
z
" id="DejaVuSans-6c" transform="scale(0.015625)"/>
      </defs>
      <use xlink:href="#DejaVuSans-43"/>
      <use x="69.824219" xlink:href="#DejaVuSans-65"/>
      <use x="131.347656" xlink:href="#DejaVuSans-6c"/>
      <use x="159.130859" xlink:href="#DejaVuSans-6c"/>
      <use x="186.914062" xlink:href="#DejaVuSans-20"/>
      <use x="218.701172" xlink:href="#DejaVuSans-31"/>
     </g>
    </g>
    <g id="line2d_32">
     <path d="M 1106.484978 120.065625 
L 1130.484978 120.065625 
" style="fill:none;stroke:#2ca02c;stroke-linecap:square;stroke-width:1.5;"/>
    </g>
    <g id="line2d_33">
     <g>
      <use style="fill:#2ca02c;stroke:#2ca02c;" x="1118.484978" xlink:href="#m2b88c0873f" y="120.065625"/>
     </g>
    </g>
    <g id="text_17">
     <!-- Cell 2 -->
     <g transform="translate(1140.084978 124.265625)scale(0.12 -0.12)">
      <use xlink:href="#DejaVuSans-43"/>
      <use x="69.824219" xlink:href="#DejaVuSans-65"/>
      <use x="131.347656" xlink:href="#DejaVuSans-6c"/>
      <use x="159.130859" xlink:href="#DejaVuSans-6c"/>
      <use x="186.914062" xlink:href="#DejaVuSans-20"/>
      <use x="218.701172" xlink:href="#DejaVuSans-32"/>
     </g>
    </g>
   </g>
  </g>
  <g id="text_18">
   <!-- Nyquist -->
   <g transform="translate(697.20375 20.638125)scale(0.12 -0.12)">
    <defs>
     <path d="M 628 4666 
L 1478 4666 
L 3547 763 
L 3547 4666 
L 4159 4666 
L 4159 0 
L 3309 0 
L 1241 3903 
L 1241 0 
L 628 0 
L 628 4666 
z
" id="DejaVuSans-4e" transform="scale(0.015625)"/>
     <path d="M 2059 -325 
Q 1816 -950 1584 -1140 
Q 1353 -1331 966 -1331 
L 506 -1331 
L 506 -850 
L 844 -850 
Q 1081 -850 1212 -737 
Q 1344 -625 1503 -206 
L 1606 56 
L 191 3500 
L 800 3500 
L 1894 763 
L 2988 3500 
L 3597 3500 
L 2059 -325 
z
" id="DejaVuSans-79" transform="scale(0.015625)"/>
     <path d="M 947 1747 
Q 947 1113 1208 752 
Q 1469 391 1925 391 
Q 2381 391 2643 752 
Q 2906 1113 2906 1747 
Q 2906 2381 2643 2742 
Q 2381 3103 1925 3103 
Q 1469 3103 1208 2742 
Q 947 2381 947 1747 
z
M 2906 525 
Q 2725 213 2448 61 
Q 2172 -91 1784 -91 
Q 1150 -91 751 415 
Q 353 922 353 1747 
Q 353 2572 751 3078 
Q 1150 3584 1784 3584 
Q 2172 3584 2448 3432 
Q 2725 3281 2906 2969 
L 2906 3500 
L 3481 3500 
L 3481 -1331 
L 2906 -1331 
L 2906 525 
z
" id="DejaVuSans-71" transform="scale(0.015625)"/>
     <path d="M 544 1381 
L 544 3500 
L 1119 3500 
L 1119 1403 
Q 1119 906 1312 657 
Q 1506 409 1894 409 
Q 2359 409 2629 706 
Q 2900 1003 2900 1516 
L 2900 3500 
L 3475 3500 
L 3475 0 
L 2900 0 
L 2900 538 
Q 2691 219 2414 64 
Q 2138 -91 1772 -91 
Q 1169 -91 856 284 
Q 544 659 544 1381 
z
M 1991 3584 
L 1991 3584 
z
" id="DejaVuSans-75" transform="scale(0.015625)"/>
     <path d="M 2834 3397 
L 2834 2853 
Q 2591 2978 2328 3040 
Q 2066 3103 1784 3103 
Q 1356 3103 1142 2972 
Q 928 2841 928 2578 
Q 928 2378 1081 2264 
Q 1234 2150 1697 2047 
L 1894 2003 
Q 2506 1872 2764 1633 
Q 3022 1394 3022 966 
Q 3022 478 2636 193 
Q 2250 -91 1575 -91 
Q 1294 -91 989 -36 
Q 684 19 347 128 
L 347 722 
Q 666 556 975 473 
Q 1284 391 1588 391 
Q 1994 391 2212 530 
Q 2431 669 2431 922 
Q 2431 1156 2273 1281 
Q 2116 1406 1581 1522 
L 1381 1569 
Q 847 1681 609 1914 
Q 372 2147 372 2553 
Q 372 3047 722 3315 
Q 1072 3584 1716 3584 
Q 2034 3584 2315 3537 
Q 2597 3491 2834 3397 
z
" id="DejaVuSans-73" transform="scale(0.015625)"/>
    </defs>
    <use xlink:href="#DejaVuSans-4e"/>
    <use x="74.804688" xlink:href="#DejaVuSans-79"/>
    <use x="133.984375" xlink:href="#DejaVuSans-71"/>
    <use x="197.460938" xlink:href="#DejaVuSans-75"/>
    <use x="260.839844" xlink:href="#DejaVuSans-69"/>
    <use x="288.623047" xlink:href="#DejaVuSans-73"/>
    <use x="340.722656" xlink:href="#DejaVuSans-74"/>
   </g>
  </g>
 </g>
 <defs>
  <clipPath id="pb7198c81df">
   <rect height="443.52" width="893.528705" x="291.235647" y="69.12"/>
  </clipPath>
 </defs>
</svg>
