<?xml version="1.0" encoding="utf-8" standalone="no"?>
<!DOCTYPE svg PUBLIC "-//W3C//DTD SVG 1.1//EN"
  "http://www.w3.org/Graphics/SVG/1.1/DTD/svg11.dtd">
<svg xmlns:xlink="http://www.w3.org/1999/xlink" width="1440pt" height="576pt" viewBox="0 0 1440 576" xmlns="http://www.w3.org/2000/svg" version="1.1">
 <metadata>
  <rdf:RDF xmlns:dc="http://purl.org/dc/elements/1.1/" xmlns:cc="http://creativecommons.org/ns#" xmlns:rdf="http://www.w3.org/1999/02/22-rdf-syntax-ns#">
   <cc:Work>
    <dc:type rdf:resource="http://purl.org/dc/dcmitype/StillImage"/>
    <dc:date>2024-01-31T08:31:14.239581</dc:date>
    <dc:format>image/svg+xml</dc:format>
    <dc:creator>
     <cc:Agent>
      <dc:title>Matplotlib v3.8.2, https://matplotlib.org/</dc:title>
     </cc:Agent>
    </dc:creator>
   </cc:Work>
  </rdf:RDF>
 </metadata>
 <defs>
  <style type="text/css">*{stroke-linejoin: round; stroke-linecap: butt}</style>
 </defs>
 <g id="figure_1">
  <g id="patch_1">
   <path d="M 0 576 
L 1440 576 
L 1440 0 
L 0 0 
z
" style="fill: #ffffff"/>
  </g>
  <g id="axes_1">
   <g id="patch_2">
    <path d="M 180 488.60533 
L 1296 488.60533 
L 1296 93.15467 
L 180 93.15467 
z
" style="fill: #ffffff"/>
   </g>
   <g id="matplotlib.axis_1">
    <g id="xtick_1">
     <g id="line2d_1">
      <path d="M 222.25678 488.60533 
L 222.25678 93.15467 
" clip-path="url(#p607ce30364)" style="fill: none; stroke: #b0b0b0; stroke-width: 0.8; stroke-linecap: square"/>
     </g>
     <g id="line2d_2">
      <defs>
       <path id="m55dc0a617d" d="M 0 0 
L 0 3.5 
" style="stroke: #000000; stroke-width: 0.8"/>
      </defs>
      <g>
       <use xlink:href="#m55dc0a617d" x="222.25678" y="488.60533" style="stroke: #000000; stroke-width: 0.8"/>
      </g>
     </g>
     <g id="text_1">
      <!-- 0 $\Omega$ -->
      <g transform="translate(213.65678 503.203768) scale(0.1 -0.1)">
       <defs>
        <path id="DejaVuSans-30" d="M 2034 4250 
Q 1547 4250 1301 3770 
Q 1056 3291 1056 2328 
Q 1056 1369 1301 889 
Q 1547 409 2034 409 
Q 2525 409 2770 889 
Q 3016 1369 3016 2328 
Q 3016 3291 2770 3770 
Q 2525 4250 2034 4250 
z
M 2034 4750 
Q 2819 4750 3233 4129 
Q 3647 3509 3647 2328 
Q 3647 1150 3233 529 
Q 2819 -91 2034 -91 
Q 1250 -91 836 529 
Q 422 1150 422 2328 
Q 422 3509 836 4129 
Q 1250 4750 2034 4750 
z
" transform="scale(0.015625)"/>
        <path id="DejaVuSans-20" transform="scale(0.015625)"/>
        <path id="DejaVuSans-3a9" d="M 4647 556 
L 4647 0 
L 2772 0 
L 2772 556 
Q 3325 859 3634 1378 
Q 3944 1897 3944 2528 
Q 3944 3278 3531 3731 
Q 3119 4184 2444 4184 
Q 1769 4184 1355 3729 
Q 941 3275 941 2528 
Q 941 1897 1250 1378 
Q 1563 859 2119 556 
L 2119 0 
L 244 0 
L 244 556 
L 1241 556 
Q 747 991 519 1456 
Q 294 1922 294 2497 
Q 294 3491 894 4106 
Q 1491 4722 2444 4722 
Q 3391 4722 3994 4106 
Q 4594 3494 4594 2528 
Q 4594 1922 4372 1459 
Q 4150 997 3647 556 
L 4647 556 
z
" transform="scale(0.015625)"/>
       </defs>
       <use xlink:href="#DejaVuSans-30" transform="translate(0 0.78125)"/>
       <use xlink:href="#DejaVuSans-20" transform="translate(63.623047 0.78125)"/>
       <use xlink:href="#DejaVuSans-3a9" transform="translate(95.410156 0.78125)"/>
      </g>
     </g>
    </g>
    <g id="xtick_2">
     <g id="line2d_3">
      <path d="M 386.825723 488.60533 
L 386.825723 93.15467 
" clip-path="url(#p607ce30364)" style="fill: none; stroke: #b0b0b0; stroke-width: 0.8; stroke-linecap: square"/>
     </g>
     <g id="line2d_4">
      <g>
       <use xlink:href="#m55dc0a617d" x="386.825723" y="488.60533" style="stroke: #000000; stroke-width: 0.8"/>
      </g>
     </g>
     <g id="text_2">
      <!-- 20 $\Omega$ -->
      <g transform="translate(375.025723 503.203768) scale(0.1 -0.1)">
       <defs>
        <path id="DejaVuSans-32" d="M 1228 531 
L 3431 531 
L 3431 0 
L 469 0 
L 469 531 
Q 828 903 1448 1529 
Q 2069 2156 2228 2338 
Q 2531 2678 2651 2914 
Q 2772 3150 2772 3378 
Q 2772 3750 2511 3984 
Q 2250 4219 1831 4219 
Q 1534 4219 1204 4116 
Q 875 4013 500 3803 
L 500 4441 
Q 881 4594 1212 4672 
Q 1544 4750 1819 4750 
Q 2544 4750 2975 4387 
Q 3406 4025 3406 3419 
Q 3406 3131 3298 2873 
Q 3191 2616 2906 2266 
Q 2828 2175 2409 1742 
Q 1991 1309 1228 531 
z
" transform="scale(0.015625)"/>
       </defs>
       <use xlink:href="#DejaVuSans-32" transform="translate(0 0.78125)"/>
       <use xlink:href="#DejaVuSans-30" transform="translate(63.623047 0.78125)"/>
       <use xlink:href="#DejaVuSans-20" transform="translate(127.246094 0.78125)"/>
       <use xlink:href="#DejaVuSans-3a9" transform="translate(159.033203 0.78125)"/>
      </g>
     </g>
    </g>
    <g id="xtick_3">
     <g id="line2d_5">
      <path d="M 551.394665 488.60533 
L 551.394665 93.15467 
" clip-path="url(#p607ce30364)" style="fill: none; stroke: #b0b0b0; stroke-width: 0.8; stroke-linecap: square"/>
     </g>
     <g id="line2d_6">
      <g>
       <use xlink:href="#m55dc0a617d" x="551.394665" y="488.60533" style="stroke: #000000; stroke-width: 0.8"/>
      </g>
     </g>
     <g id="text_3">
      <!-- 40 $\Omega$ -->
      <g transform="translate(539.594665 503.203768) scale(0.1 -0.1)">
       <defs>
        <path id="DejaVuSans-34" d="M 2419 4116 
L 825 1625 
L 2419 1625 
L 2419 4116 
z
M 2253 4666 
L 3047 4666 
L 3047 1625 
L 3713 1625 
L 3713 1100 
L 3047 1100 
L 3047 0 
L 2419 0 
L 2419 1100 
L 313 1100 
L 313 1709 
L 2253 4666 
z
" transform="scale(0.015625)"/>
       </defs>
       <use xlink:href="#DejaVuSans-34" transform="translate(0 0.78125)"/>
       <use xlink:href="#DejaVuSans-30" transform="translate(63.623047 0.78125)"/>
       <use xlink:href="#DejaVuSans-20" transform="translate(127.246094 0.78125)"/>
       <use xlink:href="#DejaVuSans-3a9" transform="translate(159.033203 0.78125)"/>
      </g>
     </g>
    </g>
    <g id="xtick_4">
     <g id="line2d_7">
      <path d="M 715.963607 488.60533 
L 715.963607 93.15467 
" clip-path="url(#p607ce30364)" style="fill: none; stroke: #b0b0b0; stroke-width: 0.8; stroke-linecap: square"/>
     </g>
     <g id="line2d_8">
      <g>
       <use xlink:href="#m55dc0a617d" x="715.963607" y="488.60533" style="stroke: #000000; stroke-width: 0.8"/>
      </g>
     </g>
     <g id="text_4">
      <!-- 60 $\Omega$ -->
      <g transform="translate(704.163607 503.203768) scale(0.1 -0.1)">
       <defs>
        <path id="DejaVuSans-36" d="M 2113 2584 
Q 1688 2584 1439 2293 
Q 1191 2003 1191 1497 
Q 1191 994 1439 701 
Q 1688 409 2113 409 
Q 2538 409 2786 701 
Q 3034 994 3034 1497 
Q 3034 2003 2786 2293 
Q 2538 2584 2113 2584 
z
M 3366 4563 
L 3366 3988 
Q 3128 4100 2886 4159 
Q 2644 4219 2406 4219 
Q 1781 4219 1451 3797 
Q 1122 3375 1075 2522 
Q 1259 2794 1537 2939 
Q 1816 3084 2150 3084 
Q 2853 3084 3261 2657 
Q 3669 2231 3669 1497 
Q 3669 778 3244 343 
Q 2819 -91 2113 -91 
Q 1303 -91 875 529 
Q 447 1150 447 2328 
Q 447 3434 972 4092 
Q 1497 4750 2381 4750 
Q 2619 4750 2861 4703 
Q 3103 4656 3366 4563 
z
" transform="scale(0.015625)"/>
       </defs>
       <use xlink:href="#DejaVuSans-36" transform="translate(0 0.78125)"/>
       <use xlink:href="#DejaVuSans-30" transform="translate(63.623047 0.78125)"/>
       <use xlink:href="#DejaVuSans-20" transform="translate(127.246094 0.78125)"/>
       <use xlink:href="#DejaVuSans-3a9" transform="translate(159.033203 0.78125)"/>
      </g>
     </g>
    </g>
    <g id="xtick_5">
     <g id="line2d_9">
      <path d="M 880.532549 488.60533 
L 880.532549 93.15467 
" clip-path="url(#p607ce30364)" style="fill: none; stroke: #b0b0b0; stroke-width: 0.8; stroke-linecap: square"/>
     </g>
     <g id="line2d_10">
      <g>
       <use xlink:href="#m55dc0a617d" x="880.532549" y="488.60533" style="stroke: #000000; stroke-width: 0.8"/>
      </g>
     </g>
     <g id="text_5">
      <!-- 80 $\Omega$ -->
      <g transform="translate(868.732549 503.203768) scale(0.1 -0.1)">
       <defs>
        <path id="DejaVuSans-38" d="M 2034 2216 
Q 1584 2216 1326 1975 
Q 1069 1734 1069 1313 
Q 1069 891 1326 650 
Q 1584 409 2034 409 
Q 2484 409 2743 651 
Q 3003 894 3003 1313 
Q 3003 1734 2745 1975 
Q 2488 2216 2034 2216 
z
M 1403 2484 
Q 997 2584 770 2862 
Q 544 3141 544 3541 
Q 544 4100 942 4425 
Q 1341 4750 2034 4750 
Q 2731 4750 3128 4425 
Q 3525 4100 3525 3541 
Q 3525 3141 3298 2862 
Q 3072 2584 2669 2484 
Q 3125 2378 3379 2068 
Q 3634 1759 3634 1313 
Q 3634 634 3220 271 
Q 2806 -91 2034 -91 
Q 1263 -91 848 271 
Q 434 634 434 1313 
Q 434 1759 690 2068 
Q 947 2378 1403 2484 
z
M 1172 3481 
Q 1172 3119 1398 2916 
Q 1625 2713 2034 2713 
Q 2441 2713 2670 2916 
Q 2900 3119 2900 3481 
Q 2900 3844 2670 4047 
Q 2441 4250 2034 4250 
Q 1625 4250 1398 4047 
Q 1172 3844 1172 3481 
z
" transform="scale(0.015625)"/>
       </defs>
       <use xlink:href="#DejaVuSans-38" transform="translate(0 0.78125)"/>
       <use xlink:href="#DejaVuSans-30" transform="translate(63.623047 0.78125)"/>
       <use xlink:href="#DejaVuSans-20" transform="translate(127.246094 0.78125)"/>
       <use xlink:href="#DejaVuSans-3a9" transform="translate(159.033203 0.78125)"/>
      </g>
     </g>
    </g>
    <g id="xtick_6">
     <g id="line2d_11">
      <path d="M 1045.101492 488.60533 
L 1045.101492 93.15467 
" clip-path="url(#p607ce30364)" style="fill: none; stroke: #b0b0b0; stroke-width: 0.8; stroke-linecap: square"/>
     </g>
     <g id="line2d_12">
      <g>
       <use xlink:href="#m55dc0a617d" x="1045.101492" y="488.60533" style="stroke: #000000; stroke-width: 0.8"/>
      </g>
     </g>
     <g id="text_6">
      <!-- 100 $\Omega$ -->
      <g transform="translate(1030.101492 503.203768) scale(0.1 -0.1)">
       <defs>
        <path id="DejaVuSans-31" d="M 794 531 
L 1825 531 
L 1825 4091 
L 703 3866 
L 703 4441 
L 1819 4666 
L 2450 4666 
L 2450 531 
L 3481 531 
L 3481 0 
L 794 0 
L 794 531 
z
" transform="scale(0.015625)"/>
       </defs>
       <use xlink:href="#DejaVuSans-31" transform="translate(0 0.78125)"/>
       <use xlink:href="#DejaVuSans-30" transform="translate(63.623047 0.78125)"/>
       <use xlink:href="#DejaVuSans-30" transform="translate(127.246094 0.78125)"/>
       <use xlink:href="#DejaVuSans-20" transform="translate(190.869141 0.78125)"/>
       <use xlink:href="#DejaVuSans-3a9" transform="translate(222.65625 0.78125)"/>
      </g>
     </g>
    </g>
    <g id="xtick_7">
     <g id="line2d_13">
      <path d="M 1209.670434 488.60533 
L 1209.670434 93.15467 
" clip-path="url(#p607ce30364)" style="fill: none; stroke: #b0b0b0; stroke-width: 0.8; stroke-linecap: square"/>
     </g>
     <g id="line2d_14">
      <g>
       <use xlink:href="#m55dc0a617d" x="1209.670434" y="488.60533" style="stroke: #000000; stroke-width: 0.8"/>
      </g>
     </g>
     <g id="text_7">
      <!-- 120 $\Omega$ -->
      <g transform="translate(1194.670434 503.203768) scale(0.1 -0.1)">
       <use xlink:href="#DejaVuSans-31" transform="translate(0 0.78125)"/>
       <use xlink:href="#DejaVuSans-32" transform="translate(63.623047 0.78125)"/>
       <use xlink:href="#DejaVuSans-30" transform="translate(127.246094 0.78125)"/>
       <use xlink:href="#DejaVuSans-20" transform="translate(190.869141 0.78125)"/>
       <use xlink:href="#DejaVuSans-3a9" transform="translate(222.65625 0.78125)"/>
      </g>
     </g>
    </g>
    <g id="text_8">
     <!-- $Z_{\rm re}$ -->
     <g transform="translate(730.8 516.881893) scale(0.1 -0.1)">
      <defs>
       <path id="DejaVuSans-Oblique-5a" d="M 838 4666 
L 4500 4666 
L 4409 4184 
L 794 531 
L 3769 531 
L 3669 0 
L -141 0 
L -50 481 
L 3566 4134 
L 738 4134 
L 838 4666 
z
" transform="scale(0.015625)"/>
       <path id="DejaVuSans-72" d="M 2631 2963 
Q 2534 3019 2420 3045 
Q 2306 3072 2169 3072 
Q 1681 3072 1420 2755 
Q 1159 2438 1159 1844 
L 1159 0 
L 581 0 
L 581 3500 
L 1159 3500 
L 1159 2956 
Q 1341 3275 1631 3429 
Q 1922 3584 2338 3584 
Q 2397 3584 2469 3576 
Q 2541 3569 2628 3553 
L 2631 2963 
z
" transform="scale(0.015625)"/>
       <path id="DejaVuSans-65" d="M 3597 1894 
L 3597 1613 
L 953 1613 
Q 991 1019 1311 708 
Q 1631 397 2203 397 
Q 2534 397 2845 478 
Q 3156 559 3463 722 
L 3463 178 
Q 3153 47 2828 -22 
Q 2503 -91 2169 -91 
Q 1331 -91 842 396 
Q 353 884 353 1716 
Q 353 2575 817 3079 
Q 1281 3584 2069 3584 
Q 2775 3584 3186 3129 
Q 3597 2675 3597 1894 
z
M 3022 2063 
Q 3016 2534 2758 2815 
Q 2500 3097 2075 3097 
Q 1594 3097 1305 2825 
Q 1016 2553 972 2059 
L 3022 2063 
z
" transform="scale(0.015625)"/>
      </defs>
      <use xlink:href="#DejaVuSans-Oblique-5a" transform="translate(0 0.09375)"/>
      <use xlink:href="#DejaVuSans-72" transform="translate(68.505859 -16.3125) scale(0.7)"/>
      <use xlink:href="#DejaVuSans-65" transform="translate(97.285156 -16.3125) scale(0.7)"/>
     </g>
    </g>
   </g>
   <g id="matplotlib.axis_2">
    <g id="ytick_1">
     <g id="line2d_15">
      <path d="M 180 470.700592 
L 1296 470.700592 
" clip-path="url(#p607ce30364)" style="fill: none; stroke: #b0b0b0; stroke-width: 0.8; stroke-linecap: square"/>
     </g>
     <g id="line2d_16">
      <defs>
       <path id="m911b513aa2" d="M 0 0 
L -3.5 0 
" style="stroke: #000000; stroke-width: 0.8"/>
      </defs>
      <g>
       <use xlink:href="#m911b513aa2" x="180" y="470.700592" style="stroke: #000000; stroke-width: 0.8"/>
      </g>
     </g>
     <g id="text_9">
      <!-- 0 $\Omega$ -->
      <g transform="translate(155.8 474.499811) scale(0.1 -0.1)">
       <use xlink:href="#DejaVuSans-30" transform="translate(0 0.78125)"/>
       <use xlink:href="#DejaVuSans-20" transform="translate(63.623047 0.78125)"/>
       <use xlink:href="#DejaVuSans-3a9" transform="translate(95.410156 0.78125)"/>
      </g>
     </g>
    </g>
    <g id="ytick_2">
     <g id="line2d_17">
      <path d="M 180 388.416121 
L 1296 388.416121 
" clip-path="url(#p607ce30364)" style="fill: none; stroke: #b0b0b0; stroke-width: 0.8; stroke-linecap: square"/>
     </g>
     <g id="line2d_18">
      <g>
       <use xlink:href="#m911b513aa2" x="180" y="388.416121" style="stroke: #000000; stroke-width: 0.8"/>
      </g>
     </g>
     <g id="text_10">
      <!-- 10 $\Omega$ -->
      <g transform="translate(149.4 392.21534) scale(0.1 -0.1)">
       <use xlink:href="#DejaVuSans-31" transform="translate(0 0.78125)"/>
       <use xlink:href="#DejaVuSans-30" transform="translate(63.623047 0.78125)"/>
       <use xlink:href="#DejaVuSans-20" transform="translate(127.246094 0.78125)"/>
       <use xlink:href="#DejaVuSans-3a9" transform="translate(159.033203 0.78125)"/>
      </g>
     </g>
    </g>
    <g id="ytick_3">
     <g id="line2d_19">
      <path d="M 180 306.13165 
L 1296 306.13165 
" clip-path="url(#p607ce30364)" style="fill: none; stroke: #b0b0b0; stroke-width: 0.8; stroke-linecap: square"/>
     </g>
     <g id="line2d_20">
      <g>
       <use xlink:href="#m911b513aa2" x="180" y="306.13165" style="stroke: #000000; stroke-width: 0.8"/>
      </g>
     </g>
     <g id="text_11">
      <!-- 20 $\Omega$ -->
      <g transform="translate(149.4 309.930869) scale(0.1 -0.1)">
       <use xlink:href="#DejaVuSans-32" transform="translate(0 0.78125)"/>
       <use xlink:href="#DejaVuSans-30" transform="translate(63.623047 0.78125)"/>
       <use xlink:href="#DejaVuSans-20" transform="translate(127.246094 0.78125)"/>
       <use xlink:href="#DejaVuSans-3a9" transform="translate(159.033203 0.78125)"/>
      </g>
     </g>
    </g>
    <g id="ytick_4">
     <g id="line2d_21">
      <path d="M 180 223.847179 
L 1296 223.847179 
" clip-path="url(#p607ce30364)" style="fill: none; stroke: #b0b0b0; stroke-width: 0.8; stroke-linecap: square"/>
     </g>
     <g id="line2d_22">
      <g>
       <use xlink:href="#m911b513aa2" x="180" y="223.847179" style="stroke: #000000; stroke-width: 0.8"/>
      </g>
     </g>
     <g id="text_12">
      <!-- 30 $\Omega$ -->
      <g transform="translate(149.4 227.646398) scale(0.1 -0.1)">
       <defs>
        <path id="DejaVuSans-33" d="M 2597 2516 
Q 3050 2419 3304 2112 
Q 3559 1806 3559 1356 
Q 3559 666 3084 287 
Q 2609 -91 1734 -91 
Q 1441 -91 1130 -33 
Q 819 25 488 141 
L 488 750 
Q 750 597 1062 519 
Q 1375 441 1716 441 
Q 2309 441 2620 675 
Q 2931 909 2931 1356 
Q 2931 1769 2642 2001 
Q 2353 2234 1838 2234 
L 1294 2234 
L 1294 2753 
L 1863 2753 
Q 2328 2753 2575 2939 
Q 2822 3125 2822 3475 
Q 2822 3834 2567 4026 
Q 2313 4219 1838 4219 
Q 1578 4219 1281 4162 
Q 984 4106 628 3988 
L 628 4550 
Q 988 4650 1302 4700 
Q 1616 4750 1894 4750 
Q 2613 4750 3031 4423 
Q 3450 4097 3450 3541 
Q 3450 3153 3228 2886 
Q 3006 2619 2597 2516 
z
" transform="scale(0.015625)"/>
       </defs>
       <use xlink:href="#DejaVuSans-33" transform="translate(0 0.78125)"/>
       <use xlink:href="#DejaVuSans-30" transform="translate(63.623047 0.78125)"/>
       <use xlink:href="#DejaVuSans-20" transform="translate(127.246094 0.78125)"/>
       <use xlink:href="#DejaVuSans-3a9" transform="translate(159.033203 0.78125)"/>
      </g>
     </g>
    </g>
    <g id="ytick_5">
     <g id="line2d_23">
      <path d="M 180 141.562708 
L 1296 141.562708 
" clip-path="url(#p607ce30364)" style="fill: none; stroke: #b0b0b0; stroke-width: 0.8; stroke-linecap: square"/>
     </g>
     <g id="line2d_24">
      <g>
       <use xlink:href="#m911b513aa2" x="180" y="141.562708" style="stroke: #000000; stroke-width: 0.8"/>
      </g>
     </g>
     <g id="text_13">
      <!-- 40 $\Omega$ -->
      <g transform="translate(149.4 145.361927) scale(0.1 -0.1)">
       <use xlink:href="#DejaVuSans-34" transform="translate(0 0.78125)"/>
       <use xlink:href="#DejaVuSans-30" transform="translate(63.623047 0.78125)"/>
       <use xlink:href="#DejaVuSans-20" transform="translate(127.246094 0.78125)"/>
       <use xlink:href="#DejaVuSans-3a9" transform="translate(159.033203 0.78125)"/>
      </g>
     </g>
    </g>
    <g id="text_14">
     <!-- $-Z_{\rm im}$ -->
     <g transform="translate(143.320312 303.03) rotate(-90) scale(0.1 -0.1)">
      <defs>
       <path id="DejaVuSans-2212" d="M 678 2272 
L 4684 2272 
L 4684 1741 
L 678 1741 
L 678 2272 
z
" transform="scale(0.015625)"/>
       <path id="DejaVuSans-69" d="M 603 3500 
L 1178 3500 
L 1178 0 
L 603 0 
L 603 3500 
z
M 603 4863 
L 1178 4863 
L 1178 4134 
L 603 4134 
L 603 4863 
z
" transform="scale(0.015625)"/>
       <path id="DejaVuSans-6d" d="M 3328 2828 
Q 3544 3216 3844 3400 
Q 4144 3584 4550 3584 
Q 5097 3584 5394 3201 
Q 5691 2819 5691 2113 
L 5691 0 
L 5113 0 
L 5113 2094 
Q 5113 2597 4934 2840 
Q 4756 3084 4391 3084 
Q 3944 3084 3684 2787 
Q 3425 2491 3425 1978 
L 3425 0 
L 2847 0 
L 2847 2094 
Q 2847 2600 2669 2842 
Q 2491 3084 2119 3084 
Q 1678 3084 1418 2786 
Q 1159 2488 1159 1978 
L 1159 0 
L 581 0 
L 581 3500 
L 1159 3500 
L 1159 2956 
Q 1356 3278 1631 3431 
Q 1906 3584 2284 3584 
Q 2666 3584 2933 3390 
Q 3200 3197 3328 2828 
z
" transform="scale(0.015625)"/>
      </defs>
      <use xlink:href="#DejaVuSans-2212" transform="translate(0 0.09375)"/>
      <use xlink:href="#DejaVuSans-Oblique-5a" transform="translate(83.789062 0.09375)"/>
      <use xlink:href="#DejaVuSans-69" transform="translate(152.294922 -16.3125) scale(0.7)"/>
      <use xlink:href="#DejaVuSans-6d" transform="translate(171.743164 -16.3125) scale(0.7)"/>
     </g>
    </g>
   </g>
   <g id="line2d_25">
    <path d="M 1245.272727 406.506902 
L 1236.225018 370.830902 
L 1215.652351 318.939843 
L 1172.252985 251.093214 
L 1091.83792 176.422923 
L 976.297302 124.042168 
L 850.189153 111.1297 
L 742.432861 127.253625 
L 658.208736 149.046089 
L 585.790692 165.722919 
L 515.304872 181.138207 
L 447.005265 203.343995 
L 387.648561 234.712596 
L 341.998945 271.383493 
L 310.323778 307.569053 
L 289.694064 339.544141 
L 276.685383 366.06002 
L 268.572589 387.375082 
L 263.507905 404.189812 
L 260.326257 417.368014 
L 258.264747 427.875005 
L 256.901604 436.363355 
L 256.005464 443.191056 
L 255.403988 448.676704 
L 255.00028 453.074524 
L 254.726736 456.591359 
L 254.53514 459.410303 
L 254.404945 461.664827 
L 254.312423 463.462002 
L 254.241943 464.904434 
L 254.192451 466.055041 
L 254.152856 466.977563 
L 254.122955 467.711942 
L 254.097176 468.297837 
L 254.076238 468.768159 
L 254.054197 469.144547 
L 254.037539 469.4436 
L 254.017658 469.685779 
L 253.999023 469.880504 
L 253.979831 470.04087 
L 253.962627 470.172912 
L 253.952394 470.281697 
" clip-path="url(#p607ce30364)" style="fill: none; stroke: #1f77b4; stroke-width: 1.5; stroke-linecap: square"/>
    <defs>
     <path id="mefba17f2e9" d="M -2.5 2.5 
L 2.5 -2.5 
M -2.5 -2.5 
L 2.5 2.5 
" style="stroke: #1f77b4"/>
    </defs>
    <g clip-path="url(#p607ce30364)">
     <use xlink:href="#mefba17f2e9" x="1245.272727" y="406.506902" style="fill: #1f77b4; stroke: #1f77b4"/>
     <use xlink:href="#mefba17f2e9" x="1236.225018" y="370.830902" style="fill: #1f77b4; stroke: #1f77b4"/>
     <use xlink:href="#mefba17f2e9" x="1215.652351" y="318.939843" style="fill: #1f77b4; stroke: #1f77b4"/>
     <use xlink:href="#mefba17f2e9" x="1172.252985" y="251.093214" style="fill: #1f77b4; stroke: #1f77b4"/>
     <use xlink:href="#mefba17f2e9" x="1091.83792" y="176.422923" style="fill: #1f77b4; stroke: #1f77b4"/>
     <use xlink:href="#mefba17f2e9" x="976.297302" y="124.042168" style="fill: #1f77b4; stroke: #1f77b4"/>
     <use xlink:href="#mefba17f2e9" x="850.189153" y="111.1297" style="fill: #1f77b4; stroke: #1f77b4"/>
     <use xlink:href="#mefba17f2e9" x="742.432861" y="127.253625" style="fill: #1f77b4; stroke: #1f77b4"/>
     <use xlink:href="#mefba17f2e9" x="658.208736" y="149.046089" style="fill: #1f77b4; stroke: #1f77b4"/>
     <use xlink:href="#mefba17f2e9" x="585.790692" y="165.722919" style="fill: #1f77b4; stroke: #1f77b4"/>
     <use xlink:href="#mefba17f2e9" x="515.304872" y="181.138207" style="fill: #1f77b4; stroke: #1f77b4"/>
     <use xlink:href="#mefba17f2e9" x="447.005265" y="203.343995" style="fill: #1f77b4; stroke: #1f77b4"/>
     <use xlink:href="#mefba17f2e9" x="387.648561" y="234.712596" style="fill: #1f77b4; stroke: #1f77b4"/>
     <use xlink:href="#mefba17f2e9" x="341.998945" y="271.383493" style="fill: #1f77b4; stroke: #1f77b4"/>
     <use xlink:href="#mefba17f2e9" x="310.323778" y="307.569053" style="fill: #1f77b4; stroke: #1f77b4"/>
     <use xlink:href="#mefba17f2e9" x="289.694064" y="339.544141" style="fill: #1f77b4; stroke: #1f77b4"/>
     <use xlink:href="#mefba17f2e9" x="276.685383" y="366.06002" style="fill: #1f77b4; stroke: #1f77b4"/>
     <use xlink:href="#mefba17f2e9" x="268.572589" y="387.375082" style="fill: #1f77b4; stroke: #1f77b4"/>
     <use xlink:href="#mefba17f2e9" x="263.507905" y="404.189812" style="fill: #1f77b4; stroke: #1f77b4"/>
     <use xlink:href="#mefba17f2e9" x="260.326257" y="417.368014" style="fill: #1f77b4; stroke: #1f77b4"/>
     <use xlink:href="#mefba17f2e9" x="258.264747" y="427.875005" style="fill: #1f77b4; stroke: #1f77b4"/>
     <use xlink:href="#mefba17f2e9" x="256.901604" y="436.363355" style="fill: #1f77b4; stroke: #1f77b4"/>
     <use xlink:href="#mefba17f2e9" x="256.005464" y="443.191056" style="fill: #1f77b4; stroke: #1f77b4"/>
     <use xlink:href="#mefba17f2e9" x="255.403988" y="448.676704" style="fill: #1f77b4; stroke: #1f77b4"/>
     <use xlink:href="#mefba17f2e9" x="255.00028" y="453.074524" style="fill: #1f77b4; stroke: #1f77b4"/>
     <use xlink:href="#mefba17f2e9" x="254.726736" y="456.591359" style="fill: #1f77b4; stroke: #1f77b4"/>
     <use xlink:href="#mefba17f2e9" x="254.53514" y="459.410303" style="fill: #1f77b4; stroke: #1f77b4"/>
     <use xlink:href="#mefba17f2e9" x="254.404945" y="461.664827" style="fill: #1f77b4; stroke: #1f77b4"/>
     <use xlink:href="#mefba17f2e9" x="254.312423" y="463.462002" style="fill: #1f77b4; stroke: #1f77b4"/>
     <use xlink:href="#mefba17f2e9" x="254.241943" y="464.904434" style="fill: #1f77b4; stroke: #1f77b4"/>
     <use xlink:href="#mefba17f2e9" x="254.192451" y="466.055041" style="fill: #1f77b4; stroke: #1f77b4"/>
     <use xlink:href="#mefba17f2e9" x="254.152856" y="466.977563" style="fill: #1f77b4; stroke: #1f77b4"/>
     <use xlink:href="#mefba17f2e9" x="254.122955" y="467.711942" style="fill: #1f77b4; stroke: #1f77b4"/>
     <use xlink:href="#mefba17f2e9" x="254.097176" y="468.297837" style="fill: #1f77b4; stroke: #1f77b4"/>
     <use xlink:href="#mefba17f2e9" x="254.076238" y="468.768159" style="fill: #1f77b4; stroke: #1f77b4"/>
     <use xlink:href="#mefba17f2e9" x="254.054197" y="469.144547" style="fill: #1f77b4; stroke: #1f77b4"/>
     <use xlink:href="#mefba17f2e9" x="254.037539" y="469.4436" style="fill: #1f77b4; stroke: #1f77b4"/>
     <use xlink:href="#mefba17f2e9" x="254.017658" y="469.685779" style="fill: #1f77b4; stroke: #1f77b4"/>
     <use xlink:href="#mefba17f2e9" x="253.999023" y="469.880504" style="fill: #1f77b4; stroke: #1f77b4"/>
     <use xlink:href="#mefba17f2e9" x="253.979831" y="470.04087" style="fill: #1f77b4; stroke: #1f77b4"/>
     <use xlink:href="#mefba17f2e9" x="253.962627" y="470.172912" style="fill: #1f77b4; stroke: #1f77b4"/>
     <use xlink:href="#mefba17f2e9" x="253.952394" y="470.281697" style="fill: #1f77b4; stroke: #1f77b4"/>
    </g>
   </g>
   <g id="line2d_26">
    <path d="M 630.061927 465.15361 
L 629.65467 461.832751 
L 629.175031 456.941794 
L 628.621929 449.030451 
L 627.023885 440.138271 
L 623.82185 424.44205 
L 616.876466 403.019734 
L 602.924767 374.756499 
L 578.307341 342.192177 
L 539.165675 310.397803 
L 486.395619 288.001304 
L 427.274967 282.1593 
L 372.794539 293.394013 
L 329.807845 315.345525 
L 299.631848 340.896034 
L 279.82117 365.103716 
L 267.308171 385.831764 
L 259.488369 402.817354 
L 254.632204 416.382946 
L 251.561035 427.090275 
L 249.574493 435.623057 
L 248.281999 442.561116 
L 247.425144 448.141302 
L 246.848659 452.627223 
L 246.468284 456.223768 
L 246.211096 459.118043 
L 246.031997 461.429807 
L 245.916262 463.273307 
L 245.822982 464.745806 
L 245.762267 465.92953 
L 245.711876 466.872728 
L 245.678618 467.630758 
L 245.655669 468.22617 
L 245.624063 468.708398 
L 245.600635 469.088001 
L 245.587005 469.400997 
L 245.56862 469.641915 
L 245.551302 469.826437 
L 245.540968 469.981277 
L 245.519062 470.107298 
L 245.499371 470.197232 
L 245.49549 470.268952 
" clip-path="url(#p607ce30364)" style="fill: none; stroke: #ff7f0e; stroke-width: 1.5; stroke-linecap: square"/>
    <defs>
     <path id="mf5c60cbafd" d="M -2.5 2.5 
L 2.5 -2.5 
M -2.5 -2.5 
L 2.5 2.5 
" style="stroke: #ff7f0e"/>
    </defs>
    <g clip-path="url(#p607ce30364)">
     <use xlink:href="#mf5c60cbafd" x="630.061927" y="465.15361" style="fill: #ff7f0e; stroke: #ff7f0e"/>
     <use xlink:href="#mf5c60cbafd" x="629.65467" y="461.832751" style="fill: #ff7f0e; stroke: #ff7f0e"/>
     <use xlink:href="#mf5c60cbafd" x="629.175031" y="456.941794" style="fill: #ff7f0e; stroke: #ff7f0e"/>
     <use xlink:href="#mf5c60cbafd" x="628.621929" y="449.030451" style="fill: #ff7f0e; stroke: #ff7f0e"/>
     <use xlink:href="#mf5c60cbafd" x="627.023885" y="440.138271" style="fill: #ff7f0e; stroke: #ff7f0e"/>
     <use xlink:href="#mf5c60cbafd" x="623.82185" y="424.44205" style="fill: #ff7f0e; stroke: #ff7f0e"/>
     <use xlink:href="#mf5c60cbafd" x="616.876466" y="403.019734" style="fill: #ff7f0e; stroke: #ff7f0e"/>
     <use xlink:href="#mf5c60cbafd" x="602.924767" y="374.756499" style="fill: #ff7f0e; stroke: #ff7f0e"/>
     <use xlink:href="#mf5c60cbafd" x="578.307341" y="342.192177" style="fill: #ff7f0e; stroke: #ff7f0e"/>
     <use xlink:href="#mf5c60cbafd" x="539.165675" y="310.397803" style="fill: #ff7f0e; stroke: #ff7f0e"/>
     <use xlink:href="#mf5c60cbafd" x="486.395619" y="288.001304" style="fill: #ff7f0e; stroke: #ff7f0e"/>
     <use xlink:href="#mf5c60cbafd" x="427.274967" y="282.1593" style="fill: #ff7f0e; stroke: #ff7f0e"/>
     <use xlink:href="#mf5c60cbafd" x="372.794539" y="293.394013" style="fill: #ff7f0e; stroke: #ff7f0e"/>
     <use xlink:href="#mf5c60cbafd" x="329.807845" y="315.345525" style="fill: #ff7f0e; stroke: #ff7f0e"/>
     <use xlink:href="#mf5c60cbafd" x="299.631848" y="340.896034" style="fill: #ff7f0e; stroke: #ff7f0e"/>
     <use xlink:href="#mf5c60cbafd" x="279.82117" y="365.103716" style="fill: #ff7f0e; stroke: #ff7f0e"/>
     <use xlink:href="#mf5c60cbafd" x="267.308171" y="385.831764" style="fill: #ff7f0e; stroke: #ff7f0e"/>
     <use xlink:href="#mf5c60cbafd" x="259.488369" y="402.817354" style="fill: #ff7f0e; stroke: #ff7f0e"/>
     <use xlink:href="#mf5c60cbafd" x="254.632204" y="416.382946" style="fill: #ff7f0e; stroke: #ff7f0e"/>
     <use xlink:href="#mf5c60cbafd" x="251.561035" y="427.090275" style="fill: #ff7f0e; stroke: #ff7f0e"/>
     <use xlink:href="#mf5c60cbafd" x="249.574493" y="435.623057" style="fill: #ff7f0e; stroke: #ff7f0e"/>
     <use xlink:href="#mf5c60cbafd" x="248.281999" y="442.561116" style="fill: #ff7f0e; stroke: #ff7f0e"/>
     <use xlink:href="#mf5c60cbafd" x="247.425144" y="448.141302" style="fill: #ff7f0e; stroke: #ff7f0e"/>
     <use xlink:href="#mf5c60cbafd" x="246.848659" y="452.627223" style="fill: #ff7f0e; stroke: #ff7f0e"/>
     <use xlink:href="#mf5c60cbafd" x="246.468284" y="456.223768" style="fill: #ff7f0e; stroke: #ff7f0e"/>
     <use xlink:href="#mf5c60cbafd" x="246.211096" y="459.118043" style="fill: #ff7f0e; stroke: #ff7f0e"/>
     <use xlink:href="#mf5c60cbafd" x="246.031997" y="461.429807" style="fill: #ff7f0e; stroke: #ff7f0e"/>
     <use xlink:href="#mf5c60cbafd" x="245.916262" y="463.273307" style="fill: #ff7f0e; stroke: #ff7f0e"/>
     <use xlink:href="#mf5c60cbafd" x="245.822982" y="464.745806" style="fill: #ff7f0e; stroke: #ff7f0e"/>
     <use xlink:href="#mf5c60cbafd" x="245.762267" y="465.92953" style="fill: #ff7f0e; stroke: #ff7f0e"/>
     <use xlink:href="#mf5c60cbafd" x="245.711876" y="466.872728" style="fill: #ff7f0e; stroke: #ff7f0e"/>
     <use xlink:href="#mf5c60cbafd" x="245.678618" y="467.630758" style="fill: #ff7f0e; stroke: #ff7f0e"/>
     <use xlink:href="#mf5c60cbafd" x="245.655669" y="468.22617" style="fill: #ff7f0e; stroke: #ff7f0e"/>
     <use xlink:href="#mf5c60cbafd" x="245.624063" y="468.708398" style="fill: #ff7f0e; stroke: #ff7f0e"/>
     <use xlink:href="#mf5c60cbafd" x="245.600635" y="469.088001" style="fill: #ff7f0e; stroke: #ff7f0e"/>
     <use xlink:href="#mf5c60cbafd" x="245.587005" y="469.400997" style="fill: #ff7f0e; stroke: #ff7f0e"/>
     <use xlink:href="#mf5c60cbafd" x="245.56862" y="469.641915" style="fill: #ff7f0e; stroke: #ff7f0e"/>
     <use xlink:href="#mf5c60cbafd" x="245.551302" y="469.826437" style="fill: #ff7f0e; stroke: #ff7f0e"/>
     <use xlink:href="#mf5c60cbafd" x="245.540968" y="469.981277" style="fill: #ff7f0e; stroke: #ff7f0e"/>
     <use xlink:href="#mf5c60cbafd" x="245.519062" y="470.107298" style="fill: #ff7f0e; stroke: #ff7f0e"/>
     <use xlink:href="#mf5c60cbafd" x="245.499371" y="470.197232" style="fill: #ff7f0e; stroke: #ff7f0e"/>
     <use xlink:href="#mf5c60cbafd" x="245.49549" y="470.268952" style="fill: #ff7f0e; stroke: #ff7f0e"/>
    </g>
   </g>
   <g id="line2d_27">
    <path d="M 837.21951 411.100048 
L 828.237351 378.070178 
L 807.76537 330.524561 
L 764.726688 268.955754 
L 687.758406 207.216629 
L 575.252979 170.270816 
L 456.014177 178.978079 
L 362.094582 222.945738 
L 302.443917 277.460414 
L 269.149601 326.002412 
L 251.441128 363.794909 
L 242.119277 391.760399 
L 237.172163 411.952369 
L 234.473298 426.607023 
L 233.042376 437.25298 
L 232.168725 445.050683 
L 231.64389 450.833377 
L 231.352525 455.185796 
L 231.154195 458.460888 
L 231.037724 460.949572 
L 230.953206 462.913421 
L 230.899314 464.483073 
L 230.853532 465.730155 
L 230.827074 466.727451 
L 230.793833 467.528163 
L 230.787382 468.166769 
L 230.769143 468.67637 
L 230.767978 469.081454 
L 230.754913 469.408414 
L 230.751895 469.669587 
L 230.748555 469.872149 
L 230.746605 470.042853 
L 230.740894 470.177261 
L 230.741003 470.279483 
L 230.730877 470.361498 
L 230.727273 470.439949 
L 230.738855 470.481512 
L 230.731099 470.533153 
L 230.732722 470.565815 
L 230.733195 470.589178 
L 230.7301 470.615608 
L 230.72746 470.6303 
" clip-path="url(#p607ce30364)" style="fill: none; stroke: #2ca02c; stroke-width: 1.5; stroke-linecap: square"/>
    <defs>
     <path id="m0d24f20ec5" d="M -2.5 2.5 
L 2.5 -2.5 
M -2.5 -2.5 
L 2.5 2.5 
" style="stroke: #2ca02c"/>
    </defs>
    <g clip-path="url(#p607ce30364)">
     <use xlink:href="#m0d24f20ec5" x="837.21951" y="411.100048" style="fill: #2ca02c; stroke: #2ca02c"/>
     <use xlink:href="#m0d24f20ec5" x="828.237351" y="378.070178" style="fill: #2ca02c; stroke: #2ca02c"/>
     <use xlink:href="#m0d24f20ec5" x="807.76537" y="330.524561" style="fill: #2ca02c; stroke: #2ca02c"/>
     <use xlink:href="#m0d24f20ec5" x="764.726688" y="268.955754" style="fill: #2ca02c; stroke: #2ca02c"/>
     <use xlink:href="#m0d24f20ec5" x="687.758406" y="207.216629" style="fill: #2ca02c; stroke: #2ca02c"/>
     <use xlink:href="#m0d24f20ec5" x="575.252979" y="170.270816" style="fill: #2ca02c; stroke: #2ca02c"/>
     <use xlink:href="#m0d24f20ec5" x="456.014177" y="178.978079" style="fill: #2ca02c; stroke: #2ca02c"/>
     <use xlink:href="#m0d24f20ec5" x="362.094582" y="222.945738" style="fill: #2ca02c; stroke: #2ca02c"/>
     <use xlink:href="#m0d24f20ec5" x="302.443917" y="277.460414" style="fill: #2ca02c; stroke: #2ca02c"/>
     <use xlink:href="#m0d24f20ec5" x="269.149601" y="326.002412" style="fill: #2ca02c; stroke: #2ca02c"/>
     <use xlink:href="#m0d24f20ec5" x="251.441128" y="363.794909" style="fill: #2ca02c; stroke: #2ca02c"/>
     <use xlink:href="#m0d24f20ec5" x="242.119277" y="391.760399" style="fill: #2ca02c; stroke: #2ca02c"/>
     <use xlink:href="#m0d24f20ec5" x="237.172163" y="411.952369" style="fill: #2ca02c; stroke: #2ca02c"/>
     <use xlink:href="#m0d24f20ec5" x="234.473298" y="426.607023" style="fill: #2ca02c; stroke: #2ca02c"/>
     <use xlink:href="#m0d24f20ec5" x="233.042376" y="437.25298" style="fill: #2ca02c; stroke: #2ca02c"/>
     <use xlink:href="#m0d24f20ec5" x="232.168725" y="445.050683" style="fill: #2ca02c; stroke: #2ca02c"/>
     <use xlink:href="#m0d24f20ec5" x="231.64389" y="450.833377" style="fill: #2ca02c; stroke: #2ca02c"/>
     <use xlink:href="#m0d24f20ec5" x="231.352525" y="455.185796" style="fill: #2ca02c; stroke: #2ca02c"/>
     <use xlink:href="#m0d24f20ec5" x="231.154195" y="458.460888" style="fill: #2ca02c; stroke: #2ca02c"/>
     <use xlink:href="#m0d24f20ec5" x="231.037724" y="460.949572" style="fill: #2ca02c; stroke: #2ca02c"/>
     <use xlink:href="#m0d24f20ec5" x="230.953206" y="462.913421" style="fill: #2ca02c; stroke: #2ca02c"/>
     <use xlink:href="#m0d24f20ec5" x="230.899314" y="464.483073" style="fill: #2ca02c; stroke: #2ca02c"/>
     <use xlink:href="#m0d24f20ec5" x="230.853532" y="465.730155" style="fill: #2ca02c; stroke: #2ca02c"/>
     <use xlink:href="#m0d24f20ec5" x="230.827074" y="466.727451" style="fill: #2ca02c; stroke: #2ca02c"/>
     <use xlink:href="#m0d24f20ec5" x="230.793833" y="467.528163" style="fill: #2ca02c; stroke: #2ca02c"/>
     <use xlink:href="#m0d24f20ec5" x="230.787382" y="468.166769" style="fill: #2ca02c; stroke: #2ca02c"/>
     <use xlink:href="#m0d24f20ec5" x="230.769143" y="468.67637" style="fill: #2ca02c; stroke: #2ca02c"/>
     <use xlink:href="#m0d24f20ec5" x="230.767978" y="469.081454" style="fill: #2ca02c; stroke: #2ca02c"/>
     <use xlink:href="#m0d24f20ec5" x="230.754913" y="469.408414" style="fill: #2ca02c; stroke: #2ca02c"/>
     <use xlink:href="#m0d24f20ec5" x="230.751895" y="469.669587" style="fill: #2ca02c; stroke: #2ca02c"/>
     <use xlink:href="#m0d24f20ec5" x="230.748555" y="469.872149" style="fill: #2ca02c; stroke: #2ca02c"/>
     <use xlink:href="#m0d24f20ec5" x="230.746605" y="470.042853" style="fill: #2ca02c; stroke: #2ca02c"/>
     <use xlink:href="#m0d24f20ec5" x="230.740894" y="470.177261" style="fill: #2ca02c; stroke: #2ca02c"/>
     <use xlink:href="#m0d24f20ec5" x="230.741003" y="470.279483" style="fill: #2ca02c; stroke: #2ca02c"/>
     <use xlink:href="#m0d24f20ec5" x="230.730877" y="470.361498" style="fill: #2ca02c; stroke: #2ca02c"/>
     <use xlink:href="#m0d24f20ec5" x="230.727273" y="470.439949" style="fill: #2ca02c; stroke: #2ca02c"/>
     <use xlink:href="#m0d24f20ec5" x="230.738855" y="470.481512" style="fill: #2ca02c; stroke: #2ca02c"/>
     <use xlink:href="#m0d24f20ec5" x="230.731099" y="470.533153" style="fill: #2ca02c; stroke: #2ca02c"/>
     <use xlink:href="#m0d24f20ec5" x="230.732722" y="470.565815" style="fill: #2ca02c; stroke: #2ca02c"/>
     <use xlink:href="#m0d24f20ec5" x="230.733195" y="470.589178" style="fill: #2ca02c; stroke: #2ca02c"/>
     <use xlink:href="#m0d24f20ec5" x="230.7301" y="470.615608" style="fill: #2ca02c; stroke: #2ca02c"/>
     <use xlink:href="#m0d24f20ec5" x="230.72746" y="470.6303" style="fill: #2ca02c; stroke: #2ca02c"/>
    </g>
   </g>
   <g id="patch_3">
    <path d="M 180 488.60533 
L 180 93.15467 
" style="fill: none; stroke: #000000; stroke-width: 0.8; stroke-linejoin: miter; stroke-linecap: square"/>
   </g>
   <g id="patch_4">
    <path d="M 1296 488.60533 
L 1296 93.15467 
" style="fill: none; stroke: #000000; stroke-width: 0.8; stroke-linejoin: miter; stroke-linecap: square"/>
   </g>
   <g id="patch_5">
    <path d="M 180 488.60533 
L 1296 488.60533 
" style="fill: none; stroke: #000000; stroke-width: 0.8; stroke-linejoin: miter; stroke-linecap: square"/>
   </g>
   <g id="patch_6">
    <path d="M 180 93.15467 
L 1296 93.15467 
" style="fill: none; stroke: #000000; stroke-width: 0.8; stroke-linejoin: miter; stroke-linecap: square"/>
   </g>
   <g id="legend_1">
    <g id="patch_7">
     <path d="M 1215.320625 155.59592 
L 1287.6 155.59592 
Q 1290 155.59592 1290 153.19592 
L 1290 101.55467 
Q 1290 99.15467 1287.6 99.15467 
L 1215.320625 99.15467 
Q 1212.920625 99.15467 1212.920625 101.55467 
L 1212.920625 153.19592 
Q 1212.920625 155.59592 1215.320625 155.59592 
z
" style="fill: #ffffff; opacity: 0.8; stroke: #cccccc; stroke-linejoin: miter"/>
    </g>
    <g id="line2d_28">
     <path d="M 1217.720625 108.872795 
L 1229.720625 108.872795 
L 1241.720625 108.872795 
" style="fill: none; stroke: #1f77b4; stroke-width: 1.5; stroke-linecap: square"/>
     <g>
      <use xlink:href="#mefba17f2e9" x="1229.720625" y="108.872795" style="fill: #1f77b4; stroke: #1f77b4"/>
     </g>
    </g>
    <g id="text_15">
     <!-- Stack -->
     <g transform="translate(1251.320625 113.072795) scale(0.12 -0.12)">
      <defs>
       <path id="DejaVuSans-53" d="M 3425 4513 
L 3425 3897 
Q 3066 4069 2747 4153 
Q 2428 4238 2131 4238 
Q 1616 4238 1336 4038 
Q 1056 3838 1056 3469 
Q 1056 3159 1242 3001 
Q 1428 2844 1947 2747 
L 2328 2669 
Q 3034 2534 3370 2195 
Q 3706 1856 3706 1288 
Q 3706 609 3251 259 
Q 2797 -91 1919 -91 
Q 1588 -91 1214 -16 
Q 841 59 441 206 
L 441 856 
Q 825 641 1194 531 
Q 1563 422 1919 422 
Q 2459 422 2753 634 
Q 3047 847 3047 1241 
Q 3047 1584 2836 1778 
Q 2625 1972 2144 2069 
L 1759 2144 
Q 1053 2284 737 2584 
Q 422 2884 422 3419 
Q 422 4038 858 4394 
Q 1294 4750 2059 4750 
Q 2388 4750 2728 4690 
Q 3069 4631 3425 4513 
z
" transform="scale(0.015625)"/>
       <path id="DejaVuSans-74" d="M 1172 4494 
L 1172 3500 
L 2356 3500 
L 2356 3053 
L 1172 3053 
L 1172 1153 
Q 1172 725 1289 603 
Q 1406 481 1766 481 
L 2356 481 
L 2356 0 
L 1766 0 
Q 1100 0 847 248 
Q 594 497 594 1153 
L 594 3053 
L 172 3053 
L 172 3500 
L 594 3500 
L 594 4494 
L 1172 4494 
z
" transform="scale(0.015625)"/>
       <path id="DejaVuSans-61" d="M 2194 1759 
Q 1497 1759 1228 1600 
Q 959 1441 959 1056 
Q 959 750 1161 570 
Q 1363 391 1709 391 
Q 2188 391 2477 730 
Q 2766 1069 2766 1631 
L 2766 1759 
L 2194 1759 
z
M 3341 1997 
L 3341 0 
L 2766 0 
L 2766 531 
Q 2569 213 2275 61 
Q 1981 -91 1556 -91 
Q 1019 -91 701 211 
Q 384 513 384 1019 
Q 384 1609 779 1909 
Q 1175 2209 1959 2209 
L 2766 2209 
L 2766 2266 
Q 2766 2663 2505 2880 
Q 2244 3097 1772 3097 
Q 1472 3097 1187 3025 
Q 903 2953 641 2809 
L 641 3341 
Q 956 3463 1253 3523 
Q 1550 3584 1831 3584 
Q 2591 3584 2966 3190 
Q 3341 2797 3341 1997 
z
" transform="scale(0.015625)"/>
       <path id="DejaVuSans-63" d="M 3122 3366 
L 3122 2828 
Q 2878 2963 2633 3030 
Q 2388 3097 2138 3097 
Q 1578 3097 1268 2742 
Q 959 2388 959 1747 
Q 959 1106 1268 751 
Q 1578 397 2138 397 
Q 2388 397 2633 464 
Q 2878 531 3122 666 
L 3122 134 
Q 2881 22 2623 -34 
Q 2366 -91 2075 -91 
Q 1284 -91 818 406 
Q 353 903 353 1747 
Q 353 2603 823 3093 
Q 1294 3584 2113 3584 
Q 2378 3584 2631 3529 
Q 2884 3475 3122 3366 
z
" transform="scale(0.015625)"/>
       <path id="DejaVuSans-6b" d="M 581 4863 
L 1159 4863 
L 1159 1991 
L 2875 3500 
L 3609 3500 
L 1753 1863 
L 3688 0 
L 2938 0 
L 1159 1709 
L 1159 0 
L 581 0 
L 581 4863 
z
" transform="scale(0.015625)"/>
      </defs>
      <use xlink:href="#DejaVuSans-53"/>
      <use xlink:href="#DejaVuSans-74" x="63.476562"/>
      <use xlink:href="#DejaVuSans-61" x="102.685547"/>
      <use xlink:href="#DejaVuSans-63" x="163.964844"/>
      <use xlink:href="#DejaVuSans-6b" x="218.945312"/>
     </g>
    </g>
    <g id="line2d_29">
     <path d="M 1217.720625 126.486545 
L 1229.720625 126.486545 
L 1241.720625 126.486545 
" style="fill: none; stroke: #ff7f0e; stroke-width: 1.5; stroke-linecap: square"/>
     <g>
      <use xlink:href="#mf5c60cbafd" x="1229.720625" y="126.486545" style="fill: #ff7f0e; stroke: #ff7f0e"/>
     </g>
    </g>
    <g id="text_16">
     <!-- Cell 1 -->
     <g transform="translate(1251.320625 130.686545) scale(0.12 -0.12)">
      <defs>
       <path id="DejaVuSans-43" d="M 4122 4306 
L 4122 3641 
Q 3803 3938 3442 4084 
Q 3081 4231 2675 4231 
Q 1875 4231 1450 3742 
Q 1025 3253 1025 2328 
Q 1025 1406 1450 917 
Q 1875 428 2675 428 
Q 3081 428 3442 575 
Q 3803 722 4122 1019 
L 4122 359 
Q 3791 134 3420 21 
Q 3050 -91 2638 -91 
Q 1578 -91 968 557 
Q 359 1206 359 2328 
Q 359 3453 968 4101 
Q 1578 4750 2638 4750 
Q 3056 4750 3426 4639 
Q 3797 4528 4122 4306 
z
" transform="scale(0.015625)"/>
       <path id="DejaVuSans-6c" d="M 603 4863 
L 1178 4863 
L 1178 0 
L 603 0 
L 603 4863 
z
" transform="scale(0.015625)"/>
      </defs>
      <use xlink:href="#DejaVuSans-43"/>
      <use xlink:href="#DejaVuSans-65" x="69.824219"/>
      <use xlink:href="#DejaVuSans-6c" x="131.347656"/>
      <use xlink:href="#DejaVuSans-6c" x="159.130859"/>
      <use xlink:href="#DejaVuSans-20" x="186.914062"/>
      <use xlink:href="#DejaVuSans-31" x="218.701172"/>
     </g>
    </g>
    <g id="line2d_30">
     <path d="M 1217.720625 144.100295 
L 1229.720625 144.100295 
L 1241.720625 144.100295 
" style="fill: none; stroke: #2ca02c; stroke-width: 1.5; stroke-linecap: square"/>
     <g>
      <use xlink:href="#m0d24f20ec5" x="1229.720625" y="144.100295" style="fill: #2ca02c; stroke: #2ca02c"/>
     </g>
    </g>
    <g id="text_17">
     <!-- Cell 2 -->
     <g transform="translate(1251.320625 148.300295) scale(0.12 -0.12)">
      <use xlink:href="#DejaVuSans-43"/>
      <use xlink:href="#DejaVuSans-65" x="69.824219"/>
      <use xlink:href="#DejaVuSans-6c" x="131.347656"/>
      <use xlink:href="#DejaVuSans-6c" x="159.130859"/>
      <use xlink:href="#DejaVuSans-20" x="186.914062"/>
      <use xlink:href="#DejaVuSans-32" x="218.701172"/>
     </g>
    </g>
   </g>
  </g>
  <g id="text_18">
   <!-- Nyquist -->
   <g transform="translate(697.20375 20.638125) scale(0.12 -0.12)">
    <defs>
     <path id="DejaVuSans-4e" d="M 628 4666 
L 1478 4666 
L 3547 763 
L 3547 4666 
L 4159 4666 
L 4159 0 
L 3309 0 
L 1241 3903 
L 1241 0 
L 628 0 
L 628 4666 
z
" transform="scale(0.015625)"/>
     <path id="DejaVuSans-79" d="M 2059 -325 
Q 1816 -950 1584 -1140 
Q 1353 -1331 966 -1331 
L 506 -1331 
L 506 -850 
L 844 -850 
Q 1081 -850 1212 -737 
Q 1344 -625 1503 -206 
L 1606 56 
L 191 3500 
L 800 3500 
L 1894 763 
L 2988 3500 
L 3597 3500 
L 2059 -325 
z
" transform="scale(0.015625)"/>
     <path id="DejaVuSans-71" d="M 947 1747 
Q 947 1113 1208 752 
Q 1469 391 1925 391 
Q 2381 391 2643 752 
Q 2906 1113 2906 1747 
Q 2906 2381 2643 2742 
Q 2381 3103 1925 3103 
Q 1469 3103 1208 2742 
Q 947 2381 947 1747 
z
M 2906 525 
Q 2725 213 2448 61 
Q 2172 -91 1784 -91 
Q 1150 -91 751 415 
Q 353 922 353 1747 
Q 353 2572 751 3078 
Q 1150 3584 1784 3584 
Q 2172 3584 2448 3432 
Q 2725 3281 2906 2969 
L 2906 3500 
L 3481 3500 
L 3481 -1331 
L 2906 -1331 
L 2906 525 
z
" transform="scale(0.015625)"/>
     <path id="DejaVuSans-75" d="M 544 1381 
L 544 3500 
L 1119 3500 
L 1119 1403 
Q 1119 906 1312 657 
Q 1506 409 1894 409 
Q 2359 409 2629 706 
Q 2900 1003 2900 1516 
L 2900 3500 
L 3475 3500 
L 3475 0 
L 2900 0 
L 2900 538 
Q 2691 219 2414 64 
Q 2138 -91 1772 -91 
Q 1169 -91 856 284 
Q 544 659 544 1381 
z
M 1991 3584 
L 1991 3584 
z
" transform="scale(0.015625)"/>
     <path id="DejaVuSans-73" d="M 2834 3397 
L 2834 2853 
Q 2591 2978 2328 3040 
Q 2066 3103 1784 3103 
Q 1356 3103 1142 2972 
Q 928 2841 928 2578 
Q 928 2378 1081 2264 
Q 1234 2150 1697 2047 
L 1894 2003 
Q 2506 1872 2764 1633 
Q 3022 1394 3022 966 
Q 3022 478 2636 193 
Q 2250 -91 1575 -91 
Q 1294 -91 989 -36 
Q 684 19 347 128 
L 347 722 
Q 666 556 975 473 
Q 1284 391 1588 391 
Q 1994 391 2212 530 
Q 2431 669 2431 922 
Q 2431 1156 2273 1281 
Q 2116 1406 1581 1522 
L 1381 1569 
Q 847 1681 609 1914 
Q 372 2147 372 2553 
Q 372 3047 722 3315 
Q 1072 3584 1716 3584 
Q 2034 3584 2315 3537 
Q 2597 3491 2834 3397 
z
" transform="scale(0.015625)"/>
    </defs>
    <use xlink:href="#DejaVuSans-4e"/>
    <use xlink:href="#DejaVuSans-79" x="74.804688"/>
    <use xlink:href="#DejaVuSans-71" x="133.984375"/>
    <use xlink:href="#DejaVuSans-75" x="197.460938"/>
    <use xlink:href="#DejaVuSans-69" x="260.839844"/>
    <use xlink:href="#DejaVuSans-73" x="288.623047"/>
    <use xlink:href="#DejaVuSans-74" x="340.722656"/>
   </g>
  </g>
 </g>
 <defs>
  <clipPath id="p607ce30364">
   <rect x="180" y="93.15467" width="1116" height="395.450661"/>
  </clipPath>
 </defs>
</svg>
